# Blender 4.3.2
# www.blender.org
o 1.001
v -0.355860 0.859186 -0.151352
v -0.355860 0.859186 -0.151352
v -0.355860 0.859186 -0.151352
v -0.355860 0.859186 -0.151352
v -0.355860 0.859186 -0.151352
v -0.355860 0.859186 -0.151352
v -0.355860 0.859186 -0.151352
v -0.000000 1.248789 -0.460801
v -0.000000 1.248789 -0.460801
v -0.000000 1.248789 -0.460801
v -0.000000 1.248789 -0.460801
v -0.000000 1.248789 -0.460801
v -0.000000 1.248789 -0.460801
v -0.000000 1.248789 -0.460801
v -0.243738 1.224768 -0.484695
v -0.243738 1.224768 -0.484695
v -0.243738 1.224768 -0.484695
v -0.243738 1.224768 -0.484695
v -0.243738 1.224768 -0.484695
v -0.477891 1.153730 -0.460801
v -0.477891 1.153730 -0.460801
v -0.477891 1.153730 -0.460801
v -0.477891 1.153730 -0.460801
v -0.477891 1.153730 -0.460801
v -0.503325 0.503326 -0.034215
v -0.503325 0.503326 -0.034215
v -0.503325 0.503326 -0.034215
v -0.503325 0.503326 -0.034215
v -0.503325 0.503326 -0.034215
v -0.000000 0.711809 -0.034215
v -0.000000 0.711809 -0.034215
v -0.000000 0.711809 -0.034215
v -0.000000 0.711809 -0.034215
v -0.000000 0.711809 -0.034215
v -0.693883 1.038263 -0.484695
v -0.693883 1.038263 -0.484695
v -0.693883 1.038263 -0.484695
v -0.693883 1.038263 -0.484695
v -0.883027 0.883028 -0.460801
v -0.883027 0.883028 -0.460801
v -0.883027 0.883028 -0.460801
v -0.883027 0.883028 -0.460801
v -0.883027 0.883028 -0.460801
v -0.883027 0.883028 -0.460801
v -0.883027 0.883028 -0.460801
v -0.859167 0.355906 -0.151352
v -0.859167 0.355906 -0.151352
v -0.859167 0.355906 -0.151352
v -0.859167 0.355906 -0.151352
v -0.859167 0.355906 -0.151352
v -0.859167 0.355906 -0.151352
v -0.859167 0.355906 -0.151352
v -1.038390 0.693693 -0.484695
v -1.038390 0.693693 -0.484695
v -1.038390 0.693693 -0.484695
v -1.038390 0.693693 -0.484695
v -1.038390 0.693693 -0.484695
v -1.153730 0.477892 -0.460801
v -1.153730 0.477892 -0.460801
v -1.153730 0.477892 -0.460801
v -1.153730 0.477892 -0.460801
v -1.224812 0.243515 -0.484695
v -1.224812 0.243515 -0.484695
v -1.224812 0.243515 -0.484695
v -1.224812 0.243515 -0.484695
v -1.248789 -0.000000 -0.460801
v -1.248789 -0.000000 -0.460801
v -1.248789 -0.000000 -0.460801
v -1.248789 -0.000000 -0.460801
v -1.248789 -0.000000 -0.460801
v -1.248789 -0.000000 -0.460801
v -1.248789 -0.000000 -0.460801
v -1.248789 -0.000000 -0.460801
v -1.224812 0.243515 -0.514125
v -1.224812 0.243515 -0.514125
v -1.224812 0.243515 -0.514125
v -1.224812 0.243515 -0.514125
v -1.224812 0.243515 -0.514125
v -1.248789 -0.000000 -0.538892
v -1.248789 -0.000000 -0.538892
v -1.248789 -0.000000 -0.538892
v -1.248789 -0.000000 -0.538892
v -1.248789 -0.000000 -0.538892
v -1.153730 0.477892 -0.538892
v -1.153730 0.477892 -0.538892
v -1.153730 0.477892 -0.538892
v -1.153730 0.477892 -0.538892
v -1.153730 0.477892 -0.538892
v -1.038327 0.693788 -0.514125
v -1.038327 0.693788 -0.514125
v -1.038327 0.693788 -0.514125
v -1.038327 0.693788 -0.514125
v -1.038327 0.693788 -0.514125
v -0.883027 0.883028 -0.538892
v -0.883027 0.883028 -0.538892
v -0.883027 0.883028 -0.538892
v -0.883027 0.883028 -0.538892
v -0.883027 0.883028 -0.538892
v -0.693883 1.038263 -0.514125
v -0.693883 1.038263 -0.514125
v -0.693883 1.038263 -0.514125
v -0.693883 1.038263 -0.514125
v -0.693883 1.038263 -0.514125
v -0.477891 1.153730 -0.538892
v -0.477891 1.153730 -0.538892
v -0.477891 1.153730 -0.538892
v -0.477891 1.153730 -0.538892
v -0.477891 1.153730 -0.538892
v -0.243626 1.224791 -0.514125
v -0.243626 1.224791 -0.514125
v -0.243626 1.224791 -0.514125
v -0.243626 1.224791 -0.514125
v -0.243626 1.224791 -0.514125
v -0.000000 1.248789 -0.538892
v -0.000000 1.248789 -0.538892
v -0.000000 1.248789 -0.538892
v -0.000000 1.248789 -0.538892
v -0.000000 1.248789 -0.538892
v -0.093138 0.224792 -1.558737
v -0.093138 0.224792 -1.558737
v -0.093138 0.224792 -1.558737
v -0.093138 0.224792 -1.558737
v -0.093138 0.224792 -1.558737
v -0.093138 0.224792 -1.558737
v -0.093138 0.224792 -1.558737
v -0.093138 0.224792 -1.558737
v 0.093094 0.224812 -1.558737
v 0.093094 0.224812 -1.558737
v 0.093094 0.224812 -1.558737
v 0.093094 0.224812 -1.558737
v 0.093094 0.224812 -1.558737
v 0.093094 0.224812 -1.558737
v 0.093094 0.224812 -1.558737
v 0.093094 0.224812 -1.558737
v 0.000000 0.000000 -1.782520
v 0.000000 0.000000 -1.782520
v 0.000000 0.000000 -1.782520
v 0.000000 0.000000 -1.782520
v 0.000000 0.000000 -1.782520
v 0.000000 0.000000 -1.782520
v 0.000000 0.000000 -1.782520
v 0.000000 0.000000 -1.782520
v -0.224810 0.093094 -1.558737
v -0.224810 0.093094 -1.558737
v -0.224810 0.093094 -1.558737
v -0.224810 0.093094 -1.558737
v -0.224810 0.093094 -1.558737
v -0.224810 0.093094 -1.558737
v -0.224810 0.093094 -1.558737
v -0.224810 0.093094 -1.558737
v -0.224792 -0.093138 -1.558737
v -0.224792 -0.093138 -1.558737
v -0.224792 -0.093138 -1.558737
v -0.224792 -0.093138 -1.558737
v -0.224792 -0.093138 -1.558737
v -0.224792 -0.093138 -1.558737
v -0.224792 -0.093138 -1.558737
v -0.224792 -0.093138 -1.558737
v -0.093094 -0.224810 -1.558737
v -0.093094 -0.224810 -1.558737
v -0.093094 -0.224810 -1.558737
v -0.093094 -0.224810 -1.558737
v -0.093094 -0.224810 -1.558737
v -0.093094 -0.224810 -1.558737
v -0.093094 -0.224810 -1.558737
v -0.093094 -0.224810 -1.558737
v -0.883027 -0.883026 -0.538892
v -0.883027 -0.883026 -0.538892
v -0.883027 -0.883026 -0.538892
v -0.883027 -0.883026 -0.538892
v -0.883027 -0.883026 -0.538892
v 0.093138 -0.224792 -1.558737
v 0.093138 -0.224792 -1.558737
v 0.093138 -0.224792 -1.558737
v 0.093138 -0.224792 -1.558737
v 0.093138 -0.224792 -1.558737
v 0.093138 -0.224792 -1.558737
v 0.093138 -0.224792 -1.558737
v 0.093138 -0.224792 -1.558737
v 0.000000 -1.248789 -0.538892
v 0.000000 -1.248789 -0.538892
v 0.000000 -1.248789 -0.538892
v 0.000000 -1.248789 -0.538892
v 0.000000 -1.248789 -0.538892
v 0.224810 -0.093094 -1.558737
v 0.224810 -0.093094 -1.558737
v 0.224810 -0.093094 -1.558737
v 0.224810 -0.093094 -1.558737
v 0.224810 -0.093094 -1.558737
v 0.224810 -0.093094 -1.558737
v 0.224810 -0.093094 -1.558737
v 0.224810 -0.093094 -1.558737
v 0.883027 -0.883026 -0.538892
v 0.883027 -0.883026 -0.538892
v 0.883027 -0.883026 -0.538892
v 0.883027 -0.883026 -0.538892
v 0.883027 -0.883026 -0.538892
v 0.224792 0.093138 -1.558737
v 0.224792 0.093138 -1.558737
v 0.224792 0.093138 -1.558737
v 0.224792 0.093138 -1.558737
v 0.224792 0.093138 -1.558737
v 0.224792 0.093138 -1.558737
v 0.224792 0.093138 -1.558737
v 0.224792 0.093138 -1.558737
v 1.248789 0.000000 -0.538892
v 1.248789 0.000000 -0.538892
v 1.248789 0.000000 -0.538892
v 1.248789 0.000000 -0.538892
v 1.248789 0.000000 -0.538892
v 0.883027 0.883028 -0.538892
v 0.883027 0.883028 -0.538892
v 0.883027 0.883028 -0.538892
v 0.883027 0.883028 -0.538892
v 0.883027 0.883028 -0.538892
v -1.224790 -0.243626 -0.514125
v -1.224790 -0.243626 -0.514125
v -1.224790 -0.243626 -0.514125
v -1.224790 -0.243626 -0.514125
v -1.224790 -0.243626 -0.514125
v -1.153730 -0.477890 -0.538892
v -1.153730 -0.477890 -0.538892
v -1.153730 -0.477890 -0.538892
v -1.153730 -0.477890 -0.538892
v -1.153730 -0.477890 -0.538892
v -1.038263 -0.693882 -0.514125
v -1.038263 -0.693882 -0.514125
v -1.038263 -0.693882 -0.514125
v -1.038263 -0.693882 -0.514125
v -0.693788 -1.038326 -0.514125
v -0.693788 -1.038326 -0.514125
v -0.693788 -1.038326 -0.514125
v -0.693788 -1.038326 -0.514125
v -0.693788 -1.038326 -0.514125
v -0.477891 -1.153730 -0.538892
v -0.477891 -1.153730 -0.538892
v -0.477891 -1.153730 -0.538892
v -0.477891 -1.153730 -0.538892
v -0.477891 -1.153730 -0.538892
v -0.243514 -1.224812 -0.514125
v -0.243514 -1.224812 -0.514125
v -0.243514 -1.224812 -0.514125
v -0.243514 -1.224812 -0.514125
v 0.243626 -1.224789 -0.514125
v 0.243626 -1.224789 -0.514125
v 0.243626 -1.224789 -0.514125
v 0.243626 -1.224789 -0.514125
v 0.243626 -1.224789 -0.514125
v 0.477891 -1.153730 -0.538892
v 0.477891 -1.153730 -0.538892
v 0.477891 -1.153730 -0.538892
v 0.477891 -1.153730 -0.538892
v 0.477891 -1.153730 -0.538892
v 0.693883 -1.038263 -0.514125
v 0.693883 -1.038263 -0.514125
v 0.693883 -1.038263 -0.514125
v 0.693883 -1.038263 -0.514125
v 1.038327 -0.693787 -0.514125
v 1.038327 -0.693787 -0.514125
v 1.038327 -0.693787 -0.514125
v 1.038327 -0.693787 -0.514125
v 1.038327 -0.693787 -0.514125
v 1.153730 -0.477890 -0.538892
v 1.153730 -0.477890 -0.538892
v 1.153730 -0.477890 -0.538892
v 1.153730 -0.477890 -0.538892
v 1.153730 -0.477890 -0.538892
v 1.153730 -0.477890 -0.538892
v 1.224812 -0.243513 -0.514125
v 1.224812 -0.243513 -0.514125
v 1.224812 -0.243513 -0.514125
v 1.224812 -0.243513 -0.514125
v 1.224812 -0.243513 -0.514125
v 1.224790 0.243626 -0.514125
v 1.224790 0.243626 -0.514125
v 1.224790 0.243626 -0.514125
v 1.224790 0.243626 -0.514125
v 1.224790 0.243626 -0.514125
v 1.153730 0.477892 -0.538892
v 1.153730 0.477892 -0.538892
v 1.153730 0.477892 -0.538892
v 1.153730 0.477892 -0.538892
v 1.153730 0.477892 -0.538892
v 1.038263 0.693884 -0.514125
v 1.038263 0.693884 -0.514125
v 1.038263 0.693884 -0.514125
v 1.038263 0.693884 -0.514125
v 1.038263 0.693884 -0.514125
v 0.693788 1.038326 -0.514125
v 0.693788 1.038326 -0.514125
v 0.693788 1.038326 -0.514125
v 0.693788 1.038326 -0.514125
v 0.693788 1.038326 -0.514125
v 0.477891 1.153730 -0.538892
v 0.477891 1.153730 -0.538892
v 0.477891 1.153730 -0.538892
v 0.477891 1.153730 -0.538892
v 0.477891 1.153730 -0.538892
v 0.243514 1.224812 -0.514125
v 0.243514 1.224812 -0.514125
v 0.243514 1.224812 -0.514125
v 0.243514 1.224812 -0.514125
v 0.000000 -1.248789 -0.460801
v 0.000000 -1.248789 -0.460801
v 0.000000 -1.248789 -0.460801
v 0.000000 -1.248789 -0.460801
v 0.000000 -1.248789 -0.460801
v 0.000000 -1.248789 -0.460801
v 0.000000 -1.248789 -0.460801
v -0.243514 -1.224812 -0.484695
v -0.243514 -1.224812 -0.484695
v -0.243514 -1.224812 -0.484695
v -0.243514 -1.224812 -0.484695
v -0.477891 -1.153730 -0.460801
v -0.477891 -1.153730 -0.460801
v -0.477891 -1.153730 -0.460801
v -0.477891 -1.153730 -0.460801
v -0.693693 -1.038389 -0.484695
v -0.693693 -1.038389 -0.484695
v -0.693693 -1.038389 -0.484695
v -0.693693 -1.038389 -0.484695
v -0.693693 -1.038389 -0.484695
v -0.883027 -0.883026 -0.460801
v -0.883027 -0.883026 -0.460801
v -0.883027 -0.883026 -0.460801
v -0.883027 -0.883026 -0.460801
v -0.883027 -0.883026 -0.460801
v -0.883027 -0.883026 -0.460801
v -0.883027 -0.883026 -0.460801
v -1.038263 -0.693882 -0.484695
v -1.038263 -0.693882 -0.484695
v -1.038263 -0.693882 -0.484695
v -1.038263 -0.693882 -0.484695
v -1.153730 -0.477890 -0.460801
v -1.153730 -0.477890 -0.460801
v -1.153730 -0.477890 -0.460801
v -1.153730 -0.477890 -0.460801
v -1.224768 -0.243738 -0.484695
v -1.224768 -0.243738 -0.484695
v -1.224768 -0.243738 -0.484695
v -1.224768 -0.243738 -0.484695
v -1.224768 -0.243738 -0.484695
v 1.248789 0.000000 -0.460801
v 1.248789 0.000000 -0.460801
v 1.248789 0.000000 -0.460801
v 1.248789 0.000000 -0.460801
v 1.248789 0.000000 -0.460801
v 1.248789 0.000000 -0.460801
v 1.248789 0.000000 -0.460801
v 1.248789 0.000000 -0.460801
v 1.224812 -0.243513 -0.484695
v 1.224812 -0.243513 -0.484695
v 1.224812 -0.243513 -0.484695
v 1.224812 -0.243513 -0.484695
v 1.224812 -0.243513 -0.484695
v 1.153730 -0.477890 -0.460801
v 1.153730 -0.477890 -0.460801
v 1.153730 -0.477890 -0.460801
v 1.153730 -0.477890 -0.460801
v 1.038390 -0.693693 -0.484695
v 1.038390 -0.693693 -0.484695
v 1.038390 -0.693693 -0.484695
v 1.038390 -0.693693 -0.484695
v 1.038390 -0.693693 -0.484695
v 0.883027 -0.883026 -0.460801
v 0.883027 -0.883026 -0.460801
v 0.883027 -0.883026 -0.460801
v 0.883027 -0.883026 -0.460801
v 0.883027 -0.883026 -0.460801
v 0.883027 -0.883026 -0.460801
v 0.883027 -0.883026 -0.460801
v 0.693883 -1.038263 -0.484695
v 0.693883 -1.038263 -0.484695
v 0.693883 -1.038263 -0.484695
v 0.693883 -1.038263 -0.484695
v 0.477891 -1.153730 -0.460801
v 0.477891 -1.153730 -0.460801
v 0.477891 -1.153730 -0.460801
v 0.477891 -1.153730 -0.460801
v 0.243738 -1.224768 -0.484695
v 0.243738 -1.224768 -0.484695
v 0.243738 -1.224768 -0.484695
v 0.243738 -1.224768 -0.484695
v 0.243738 -1.224768 -0.484695
v 0.243514 1.224812 -0.484695
v 0.243514 1.224812 -0.484695
v 0.243514 1.224812 -0.484695
v 0.243514 1.224812 -0.484695
v 0.477891 1.153730 -0.460801
v 0.477891 1.153730 -0.460801
v 0.477891 1.153730 -0.460801
v 0.477891 1.153730 -0.460801
v 0.693693 1.038391 -0.484695
v 0.693693 1.038391 -0.484695
v 0.693693 1.038391 -0.484695
v 0.693693 1.038391 -0.484695
v 0.693693 1.038391 -0.484695
v 0.883027 0.883028 -0.460801
v 0.883027 0.883028 -0.460801
v 0.883027 0.883028 -0.460801
v 0.883027 0.883028 -0.460801
v 0.883027 0.883028 -0.460801
v 0.883027 0.883028 -0.460801
v 0.883027 0.883028 -0.460801
v 1.038263 0.693884 -0.484695
v 1.038263 0.693884 -0.484695
v 1.038263 0.693884 -0.484695
v 1.038263 0.693884 -0.484695
v 1.153730 0.477892 -0.460801
v 1.153730 0.477892 -0.460801
v 1.153730 0.477892 -0.460801
v 1.153730 0.477892 -0.460801
v 1.153730 0.477892 -0.460801
v 1.224768 0.243738 -0.484695
v 1.224768 0.243738 -0.484695
v 1.224768 0.243738 -0.484695
v 1.224768 0.243738 -0.484695
v 1.224768 0.243738 -0.484695
v -0.711810 -0.000000 -0.034215
v -0.711810 -0.000000 -0.034215
v -0.711810 -0.000000 -0.034215
v -0.711810 -0.000000 -0.034215
v -0.711810 -0.000000 -0.034215
v -0.859185 -0.355860 -0.151352
v -0.859185 -0.355860 -0.151352
v -0.859185 -0.355860 -0.151352
v -0.859185 -0.355860 -0.151352
v -0.859185 -0.355860 -0.151352
v -0.859185 -0.355860 -0.151352
v -0.859185 -0.355860 -0.151352
v -0.503325 -0.503325 -0.034215
v -0.503325 -0.503325 -0.034215
v -0.503325 -0.503325 -0.034215
v -0.503325 -0.503325 -0.034215
v -0.503325 -0.503325 -0.034215
v -0.355905 -0.859167 -0.151352
v -0.355905 -0.859167 -0.151352
v -0.355905 -0.859167 -0.151352
v -0.355905 -0.859167 -0.151352
v -0.355905 -0.859167 -0.151352
v -0.355905 -0.859167 -0.151352
v -0.355905 -0.859167 -0.151352
v 0.000000 -0.711809 -0.034215
v 0.000000 -0.711809 -0.034215
v 0.000000 -0.711809 -0.034215
v 0.000000 -0.711809 -0.034215
v 0.000000 -0.711809 -0.034215
v 0.355860 -0.859184 -0.151352
v 0.355860 -0.859184 -0.151352
v 0.355860 -0.859184 -0.151352
v 0.355860 -0.859184 -0.151352
v 0.355860 -0.859184 -0.151352
v 0.355860 -0.859184 -0.151352
v 0.355860 -0.859184 -0.151352
v 0.503325 -0.503325 -0.034215
v 0.503325 -0.503325 -0.034215
v 0.503325 -0.503325 -0.034215
v 0.503325 -0.503325 -0.034215
v 0.503325 -0.503325 -0.034215
v 0.859167 -0.355904 -0.151352
v 0.859167 -0.355904 -0.151352
v 0.859167 -0.355904 -0.151352
v 0.859167 -0.355904 -0.151352
v 0.859167 -0.355904 -0.151352
v 0.859167 -0.355904 -0.151352
v 0.859167 -0.355904 -0.151352
v 0.711810 0.000000 -0.034215
v 0.711810 0.000000 -0.034215
v 0.711810 0.000000 -0.034215
v 0.711810 0.000000 -0.034215
v 0.711810 0.000000 -0.034215
v 0.859185 0.355860 -0.151352
v 0.859185 0.355860 -0.151352
v 0.859185 0.355860 -0.151352
v 0.859185 0.355860 -0.151352
v 0.859185 0.355860 -0.151352
v 0.859185 0.355860 -0.151352
v 0.859185 0.355860 -0.151352
v 0.503325 0.503326 -0.034215
v 0.503325 0.503326 -0.034215
v 0.503325 0.503326 -0.034215
v 0.503325 0.503326 -0.034215
v 0.503325 0.503326 -0.034215
v 0.355905 0.859167 -0.151352
v 0.355905 0.859167 -0.151352
v 0.355905 0.859167 -0.151352
v 0.355905 0.859167 -0.151352
v 0.355905 0.859167 -0.151352
v 0.355905 0.859167 -0.151352
v 0.355905 0.859167 -0.151352
vn -0.1377 0.6901 0.7105
vn -0.1368 0.6900 0.7107
vn -0.1512 0.3650 0.9186
vn -0.3906 0.5853 0.7105
vn -0.3912 0.5847 0.7108
vn -0.4397 0.4400 0.7830
vn -0.4399 0.4397 0.7830
vn -0.5853 0.3906 0.7105
vn -0.5847 0.3912 0.7107
vn -0.6900 0.1368 0.7108
vn -0.6901 0.1377 0.7105
vn -0.9952 0.0980 -0.0000
vn -0.9570 0.2902 -0.0000
vn -0.8819 0.4714 -0.0004
vn -0.8819 0.4714 -0.0000
vn -0.7731 0.6343 0.0004
vn -0.7730 0.6344 -0.0000
vn -0.6344 0.7730 -0.0000
vn -0.4715 0.8819 -0.0000
vn -0.4714 0.8819 -0.0000
vn -0.2902 0.9570 -0.0004
vn -0.2903 0.9569 -0.0000
vn -0.0981 0.9952 0.0004
vn -0.0980 0.9952 -0.0000
vn -0.1403 0.7050 -0.6951
vn -0.1401 0.7051 -0.6951
vn -0.0001 0.7055 -0.7087
vn -0.0001 0.7057 -0.7085
vn -0.3993 0.5978 -0.6951
vn -0.3995 0.5977 -0.6951
vn -0.4989 0.4988 -0.7087
vn -0.4990 0.4989 -0.7085
vn -0.7055 -0.0001 -0.7087
vn -0.7057 -0.0001 -0.7085
vn -0.4988 -0.4989 -0.7087
vn -0.4989 -0.4990 -0.7085
vn 0.0001 -0.7055 -0.7087
vn 0.0001 -0.7057 -0.7085
vn 0.4989 -0.4988 -0.7087
vn 0.4990 -0.4989 -0.7085
vn 0.7055 0.0001 -0.7087
vn 0.7057 0.0001 -0.7085
vn 0.4988 0.4989 -0.7087
vn 0.4989 0.4990 -0.7085
vn -0.5978 0.3993 -0.6952
vn -0.5977 0.3995 -0.6951
vn -0.7050 0.1404 -0.6951
vn -0.7051 0.1401 -0.6952
vn -0.7050 -0.1404 -0.6952
vn -0.7051 -0.1401 -0.6951
vn -0.5978 -0.3993 -0.6951
vn -0.5976 -0.3995 -0.6952
vn -0.3993 -0.5978 -0.6951
vn -0.3995 -0.5976 -0.6951
vn -0.1404 -0.7050 -0.6951
vn -0.1401 -0.7051 -0.6951
vn 0.1404 -0.7050 -0.6951
vn 0.1401 -0.7051 -0.6952
vn 0.3993 -0.5978 -0.6951
vn 0.3995 -0.5976 -0.6951
vn 0.5978 -0.3993 -0.6951
vn 0.5976 -0.3995 -0.6952
vn 0.7050 -0.1404 -0.6951
vn 0.7051 -0.1401 -0.6951
vn 0.7050 0.1404 -0.6951
vn 0.7051 0.1401 -0.6952
vn 0.5978 0.3993 -0.6951
vn 0.5977 0.3995 -0.6951
vn 0.3993 0.5978 -0.6951
vn 0.3995 0.5977 -0.6952
vn 0.1403 0.7050 -0.6951
vn 0.1401 0.7051 -0.6951
vn -0.0980 -0.9952 -0.0000
vn -0.2902 -0.9570 -0.0000
vn -0.4714 -0.8819 -0.0004
vn -0.4714 -0.8819 -0.0000
vn -0.6343 -0.7731 0.0004
vn -0.6344 -0.7730 -0.0000
vn -0.7730 -0.6344 -0.0000
vn -0.8819 -0.4714 -0.0000
vn -0.9570 -0.2902 -0.0004
vn -0.9569 -0.2903 -0.0000
vn -0.9952 -0.0981 0.0004
vn -0.9952 -0.0980 -0.0000
vn 0.9952 -0.0980 -0.0000
vn 0.9570 -0.2902 -0.0000
vn 0.8819 -0.4714 -0.0004
vn 0.8819 -0.4714 -0.0000
vn 0.7731 -0.6343 0.0003
vn 0.7730 -0.6344 -0.0000
vn 0.6344 -0.7730 -0.0000
vn 0.4715 -0.8819 -0.0000
vn 0.2902 -0.9570 -0.0004
vn 0.2903 -0.9569 -0.0000
vn 0.0981 -0.9952 0.0003
vn 0.0981 -0.9952 -0.0000
vn 0.0980 0.9952 -0.0000
vn 0.2902 0.9570 -0.0000
vn 0.4714 0.8819 -0.0004
vn 0.4714 0.8819 -0.0000
vn 0.6343 0.7730 0.0003
vn 0.6344 0.7730 -0.0000
vn 0.7730 0.6344 -0.0000
vn 0.8819 0.4715 -0.0000
vn 0.8819 0.4714 -0.0000
vn 0.9570 0.2902 -0.0004
vn 0.9569 0.2903 -0.0000
vn 0.9952 0.0981 0.0004
vn 0.9952 0.0980 -0.0000
vn -0.6220 0.0002 0.7830
vn -0.6220 -0.0001 0.7830
vn -0.4399 -0.4397 0.7830
vn -0.4398 -0.4399 0.7830
vn -0.0002 -0.6220 0.7830
vn 0.0001 -0.6220 0.7830
vn 0.4397 -0.4400 0.7830
vn 0.4399 -0.4397 0.7830
vn 0.6220 -0.0002 0.7830
vn 0.6220 0.0001 0.7830
vn 0.4400 0.4397 0.7830
vn 0.4397 0.4399 0.7830
vn 0.0002 0.6220 0.7830
vn -0.0001 0.6220 0.7830
vn -0.3650 0.1512 0.9186
vn -0.3650 -0.1512 0.9186
vn -0.1512 -0.3650 0.9186
vn 0.1512 -0.3650 0.9186
vn 0.3650 -0.1512 0.9186
vn 0.3650 0.1512 0.9186
vn 0.1512 0.3650 0.9186
vn -0.6901 -0.1377 0.7105
vn -0.6900 -0.1368 0.7107
vn -0.5853 -0.3906 0.7105
vn -0.5846 -0.3912 0.7108
vn -0.3906 -0.5853 0.7105
vn -0.3912 -0.5847 0.7107
vn -0.1368 -0.6900 0.7108
vn -0.1377 -0.6901 0.7105
vn 0.1377 -0.6901 0.7105
vn 0.1368 -0.6900 0.7107
vn 0.3906 -0.5853 0.7105
vn 0.3912 -0.5847 0.7107
vn 0.5853 -0.3906 0.7105
vn 0.5847 -0.3912 0.7107
vn 0.6900 -0.1368 0.7107
vn 0.6901 -0.1377 0.7105
vn 0.6901 0.1377 0.7105
vn 0.6900 0.1368 0.7107
vn 0.5853 0.3906 0.7105
vn 0.5847 0.3912 0.7107
vn 0.3906 0.5853 0.7105
vn 0.3912 0.5847 0.7107
vn 0.1368 0.6900 0.7107
vn 0.1376 0.6901 0.7105
vn -0.0000 -0.0000 1.0000
vt 0.314394 0.511006
vt 0.431645 0.552442
vt 0.378317 0.574532
vt 0.321757 0.585784
vt 0.244204 0.453429
vt 0.371981 0.440836
vt 0.264036 0.585784
vt 0.207475 0.574535
vt 0.153866 0.462326
vt 0.154147 0.552446
vt 0.106197 0.520409
vt 0.065382 0.479594
vt 0.033341 0.431645
vt 0.000000 0.000000
vt 0.897283 0.720453
vt 0.884716 0.772710
vt 0.878879 0.720453
vt 0.891652 0.772710
vt 0.897283 0.819248
vt 0.878879 0.819248
vt 0.891652 0.858192
vt 0.884716 0.858209
vt 0.897283 0.888121
vt 0.878879 0.888121
vt 0.692356 0.008447
vt 0.701082 0.000000
vt 0.749168 0.015495
vt 0.745879 0.018678
vt 0.801934 0.035265
vt 0.793209 0.043712
vt 0.846685 0.068751
vt 0.843418 0.071951
vt 0.892364 0.104482
vt 0.883638 0.112929
vt 0.624124 0.333588
vt 0.654653 0.365121
vt 0.585784 0.401251
vt 0.585784 0.327511
vt 0.638525 0.660999
vt 0.585784 0.622708
vt 0.638525 0.619598
vt 0.638525 0.580020
vt 0.878879 0.495527
vt 0.052741 0.849661
vt 0.000000 0.813284
vt 0.052741 0.807659
vt 0.293097 0.898727
vt 0.052741 0.768953
vt 0.293097 0.674555
vt 0.490908 0.871990
vt 0.487967 0.936694
vt 0.455950 0.894594
vt 0.407169 0.639931
vt 0.659487 0.403640
vt 0.981843 0.307505
vt 0.645589 0.002777
vt 0.596435 0.012504
vt 0.884716 0.664416
vt 0.878879 0.606778
vt 0.884716 0.549724
vt 0.884716 0.446192
vt 0.878879 0.403639
vt 0.298934 0.952005
vt 0.293097 1.000000
vt 0.298934 0.842140
vt 0.293097 0.784446
vt 0.298934 0.727833
vt 0.298934 0.626583
vt 0.293096 0.585784
vt 0.448204 0.606447
vt 0.490908 0.585784
vt 0.356764 0.665571
vt 0.311502 0.701787
vt 0.985990 0.354408
vt 0.974667 0.403242
vt 0.973351 0.253654
vt 0.949878 0.205561
vt 0.923271 0.154439
vt 0.311501 0.898727
vt 0.305870 0.952005
vt 0.311501 1.000000
vt 0.891652 0.446171
vt 0.897283 0.403639
vt 0.897283 0.495527
vt 0.891652 0.549724
vt 0.897283 0.606778
vt 0.891652 0.664390
vt 0.397176 0.624476
vt 0.527284 0.633201
vt 0.527284 0.585785
vt 0.545558 0.587971
vt 0.305870 0.626562
vt 0.311500 0.585784
vt 0.311501 0.674555
vt 0.305870 0.727833
vt 0.311501 0.784446
vt 0.305870 0.842114
vt 0.926559 0.151255
vt 0.958603 0.197114
vt 0.490908 0.585785
vt 0.503681 0.627685
vt 0.496745 0.627707
vt 0.509313 0.585784
vt 0.509313 0.676555
vt 0.490908 0.676556
vt 0.503683 0.730429
vt 0.496747 0.730430
vt 0.509313 0.699135
vt 0.509313 0.640859
vt 0.527284 0.644828
vt 0.527242 0.585784
vt 0.352975 0.659762
vt 0.144948 0.371981
vt 0.074778 0.314394
vt 0.011249 0.207475
vt 0.132355 0.244205
vt 0.123458 0.153866
vt 0.154139 0.033341
vt 0.213803 0.144948
vt 0.271390 0.074778
vt 0.378309 0.011249
vt 0.341579 0.132355
vt 0.431918 0.123458
vt 0.552442 0.154139
vt 0.440836 0.213803
vt 0.511006 0.271390
vt 0.574535 0.378309
vt 0.453429 0.341580
vt 0.462326 0.431918
vt 0.011252 0.378317
vt -0.000000 0.321758
vt -0.000000 0.264036
vt 0.033338 0.154147
vt 0.065375 0.106197
vt 0.106190 0.065382
vt 0.207467 0.011252
vt 0.264026 -0.000000
vt 0.321748 -0.000000
vt 0.431636 0.033338
vt 0.479587 0.065375
vt 0.520402 0.106190
vt 0.574532 0.207467
vt 0.585784 0.264027
vt 0.585784 0.321748
vt 0.552446 0.431637
vt 0.520409 0.479587
vt 0.479593 0.520402
s 0
f 7/1/1 10/2/1 16/3/1
f 15/3/2 21/4/2 6/1/2
f 1/1/3 27/5/3 32/6/3
f 4/1/4 36/7/4 42/8/4
f 35/7/5 3/1/5 20/4/5
f 41/8/6 29/5/6 2/1/6
f 28/5/7 40/8/7 52/9/7
f 50/9/8 39/8/8 53/10/8
f 54/10/9 60/11/9 51/9/9
s 1
f 63/12/10 47/9/10 58/11/10
s 0
f 48/9/11 64/12/11 69/13/11
f 67/14/12 62/14/12 74/14/12
f 68/15/12 75/16/12 79/17/12
f 65/18/13 59/19/13 85/20/13
f 65/18/13 85/20/13 78/16/13
f 88/20/14 56/21/14 91/22/14
f 55/21/15 87/20/15 61/19/15
f 43/23/16 92/22/16 57/21/16
f 93/22/17 44/23/17 97/24/17
f 98/25/18 45/26/18 37/27/18
f 98/25/18 37/27/18 101/28/18
f 102/28/19 38/27/19 22/29/19
f 103/28/20 23/29/20 106/30/20
f 108/30/21 18/31/21 111/32/21
f 17/31/22 107/30/22 24/29/22
f 12/33/23 112/32/23 19/31/23
f 113/32/24 14/33/24 118/34/24
f 109/32/25 123/35/25 105/30/25
f 124/35/26 110/32/26 115/34/26
f 133/36/27 138/37/27 125/35/27
f 126/35/28 116/34/28 134/36/28
f 100/28/29 104/30/29 122/35/29
s 1
f 121/35/30 96/25/30 99/28/30
s 0
f 119/35/31 136/37/31 147/38/31
f 148/38/32 95/25/32 120/35/32
f 149/39/33 139/40/33 151/41/33
f 152/41/34 81/17/34 150/39/34
f 157/41/35 141/40/35 159/42/35
f 160/42/36 168/43/36 158/41/36
f 165/44/37 142/45/37 178/46/37
f 179/46/38 182/47/38 166/44/38
f 172/46/39 140/45/39 191/48/39
f 192/48/40 194/49/40 173/46/40
f 185/50/41 135/51/41 198/52/41
f 199/52/42 206/53/42 186/50/42
f 204/54/43 137/37/43 127/36/43
f 128/36/44 212/55/44 205/54/44
s 1
f 89/56/45 145/38/45 86/57/45
s 0
f 146/38/46 90/56/46 94/25/46
s 1
f 77/16/47 84/20/47 144/39/47
s 0
f 143/39/48 80/17/48 76/16/48
f 219/58/49 154/41/49 221/59/49
f 153/41/50 218/58/50 83/17/50
f 226/60/51 224/59/51 155/41/51
f 156/41/52 167/43/52 227/60/52
f 231/61/53 162/42/53 235/62/53
f 161/42/54 230/61/54 169/43/54
f 240/63/55 236/64/55 163/44/55
f 164/44/56 181/47/56 241/63/56
f 244/65/57 176/46/57 250/66/57
f 177/46/58 245/65/58 180/47/58
f 255/67/59 249/66/59 175/46/59
f 174/46/60 195/49/60 254/67/60
f 258/68/61 189/48/61 266/69/61
f 190/48/62 259/68/62 193/49/62
f 272/70/63 263/71/63 188/50/63
f 187/50/64 210/53/64 271/70/64
f 277/72/65 201/52/65 279/73/65
f 200/52/66 276/72/66 208/53/66
f 284/74/67 282/75/67 202/54/67
f 203/54/68 211/55/68 285/74/68
f 290/76/69 130/36/69 294/77/69
f 129/36/70 289/76/70 213/55/70
f 299/78/71 295/77/71 131/36/71
f 132/36/72 114/34/72 300/78/72
f 309/79/73 313/80/73 243/63/73
f 309/79/73 243/63/73 184/47/73
f 312/80/74 317/81/74 239/64/74
s 1
f 312/80/74 239/64/74 242/63/74
s 0
f 237/62/75 321/82/75 234/61/75
f 322/82/76 238/62/76 316/83/76
f 329/84/77 233/61/77 320/82/77
f 232/61/78 328/84/78 171/43/78
f 170/43/79 327/84/79 333/85/79
f 170/43/79 333/85/79 229/60/79
f 228/60/80 332/85/80 337/86/80
f 228/60/80 337/86/80 225/59/80
f 222/59/81 341/87/81 220/58/81
f 342/87/82 223/59/82 335/86/82
f 72/15/83 217/58/83 338/87/83
f 216/58/84 71/15/84 82/17/84
f 348/14/85 351/14/85 269/14/85
f 349/88/85 270/70/85 209/53/85
f 355/89/86 357/90/86 265/91/86
f 354/14/86 264/14/86 273/14/86
f 268/69/87 363/92/87 260/68/87
f 362/92/88 267/69/88 359/93/88
f 369/94/89 261/68/89 364/92/89
f 262/68/90 370/94/90 196/49/90
s 1
f 197/49/91 371/94/91 374/95/91
s 0
f 197/49/91 374/95/91 256/67/91
f 257/67/92 375/95/92 378/96/92
f 257/67/92 378/96/92 251/66/92
f 253/66/93 383/97/93 246/65/93
f 382/97/94 252/66/94 379/96/94
f 307/79/95 247/65/95 384/97/95
f 248/65/96 308/79/96 183/47/96
f 13/33/97 388/98/97 302/78/97
f 13/33/97 302/78/97 117/34/97
s 1
f 387/98/98 392/99/98 298/77/98
s 0
f 387/98/98 298/77/98 301/78/98
f 296/100/99 396/101/99 293/102/99
f 397/101/100 297/100/100 391/103/100
f 404/104/101 292/102/101 395/101/101
s 1
f 291/102/102 403/104/102 215/105/102
s 0
f 214/105/103 402/104/103 408/106/103
f 214/105/103 408/106/103 288/107/103
f 287/14/104 407/14/104 413/14/104
f 286/108/105 412/109/105 283/110/105
f 280/14/106 417/14/106 278/14/106
f 418/111/107 281/110/107 410/109/107
f 345/88/108 275/72/108 414/112/108
f 274/72/109 344/88/109 207/53/109
f 66/13/110 420/113/110 46/9/110
f 422/113/111 70/13/111 424/114/111
f 324/115/112 434/116/112 430/114/112
f 435/116/113 325/115/113 437/117/113
f 304/118/114 447/119/114 440/117/114
f 446/119/115 303/118/115 452/120/115
f 367/121/116 459/122/116 449/120/116
f 458/122/117 366/121/117 466/123/117
f 347/124/118 470/125/118 460/123/118
f 468/125/119 343/124/119 472/126/119
f 399/127/120 482/128/120 478/126/120
f 483/128/121 400/127/121 485/129/121
f 8/2/122 33/6/122 488/129/122
f 34/6/123 9/2/123 5/1/123
f 49/9/124 421/113/124 26/5/124
f 427/114/125 432/116/125 423/113/125
f 436/117/126 445/119/126 433/116/126
f 448/120/127 457/122/127 444/119/127
f 463/123/128 471/125/128 456/122/128
f 475/126/129 480/128/129 469/125/129
f 484/129/130 31/6/130 481/128/130
f 426/114/131 73/13/131 340/130/131
f 339/130/132 334/131/132 425/114/132
f 428/114/133 330/132/133 323/115/133
f 331/132/134 429/114/134 336/131/134
f 439/117/135 326/115/135 319/133/135
f 318/133/136 314/134/136 438/117/136
f 310/135/137 441/117/137 315/134/137
f 442/117/138 311/135/138 306/118/138
f 454/120/139 305/118/139 381/136/139
f 380/136/140 377/137/140 453/120/140
f 451/120/141 373/138/141 368/121/141
f 372/138/142 450/120/142 376/137/142
f 464/123/143 365/121/143 360/139/143
f 361/139/144 358/140/144 465/123/144
f 352/141/145 461/123/145 356/140/145
f 462/123/146 353/141/146 350/124/146
f 474/126/147 346/124/147 416/142/147
f 415/142/148 409/143/148 473/126/148
f 476/126/149 405/144/149 398/127/149
f 406/144/150 477/126/150 411/143/150
f 487/129/151 401/127/151 394/145/151
f 393/145/152 389/146/152 486/129/152
f 385/147/153 489/129/153 390/146/153
f 490/129/154 386/147/154 11/2/154
f 443/119/155 455/122/155 467/125/155
f 443/119/155 419/113/155 431/116/155
f 30/6/155 443/119/155 467/125/155
f 443/119/155 30/6/155 419/113/155
f 30/6/155 25/5/155 419/113/155
f 479/128/155 30/6/155 467/125/155
