# Blender 4.2.3 LTS
# www.blender.org
o Mandrel
v 0.370524 -0.000000 0.107850
v 0.347098 0.126233 0.107850
v 0.282609 0.237797 0.107850
v 0.185262 0.320883 0.107850
v 0.064228 0.363713 0.107850
v -0.064634 0.363645 0.107850
v -0.185262 0.320883 0.107850
v -0.282871 0.237479 0.107850
v -0.347243 0.125848 0.107850
v -0.370524 -0.000000 0.107850
v -0.347098 -0.126234 0.107850
v -0.282609 -0.237797 0.107850
v -0.185262 -0.320883 0.107850
v -0.064228 -0.363713 0.107850
v 0.064634 -0.363645 0.107850
v 0.185262 -0.320883 0.107850
v 0.282871 -0.237479 0.107850
v 0.347243 -0.125848 0.107850
v 0.253004 0.000000 -2.869731
v 0.237107 -0.085932 -2.869731
v 0.193152 -0.162157 -2.869731
v 0.126502 -0.219108 -2.869731
v 0.044134 -0.248307 -2.869731
v -0.043857 -0.248354 -2.869731
v -0.126502 -0.219108 -2.869731
v -0.192973 -0.162375 -2.869731
v -0.237009 -0.086196 -2.869731
v -0.253004 0.000000 -2.869731
v -0.237107 0.085933 -2.869731
v -0.193152 0.162158 -2.869731
v -0.126502 0.219108 -2.869731
v -0.044134 0.248307 -2.869731
v 0.043857 0.248354 -2.869731
v 0.126502 0.219108 -2.869731
v 0.192974 0.162375 -2.869731
v 0.237009 0.086196 -2.869731
v 0.370524 -0.000000 0.107850
v 0.422032 0.000000 -0.129598
v 0.258476 0.000000 -0.344367
v 0.253027 0.000000 -0.629946
v 0.253001 0.000000 -0.900538
v 0.253002 0.000000 -1.183441
v 0.253002 0.000000 -1.467064
v 0.253002 0.000000 -1.745203
v 0.253003 0.000000 -2.013020
v 0.253003 0.000000 -2.292250
v 0.253004 0.000000 -2.579088
v 0.253004 0.000000 -2.869731
v 0.347098 0.126233 0.107850
v 0.395350 0.143782 -0.129598
v 0.242134 0.088060 -0.344367
v 0.237030 0.086204 -0.629946
v 0.237006 0.086195 -0.900538
v 0.237006 0.086195 -1.183441
v 0.237007 0.086195 -1.467064
v 0.237007 0.086195 -1.745203
v 0.237008 0.086195 -2.013020
v 0.237008 0.086196 -2.292250
v 0.237009 0.086196 -2.579088
v 0.237009 0.086196 -2.869731
v 0.282609 0.237797 0.107850
v 0.321895 0.270855 -0.129598
v 0.197146 0.165886 -0.344367
v 0.192990 0.162389 -0.629946
v 0.192971 0.162373 -0.900538
v 0.192971 0.162373 -1.183441
v 0.192972 0.162373 -1.467064
v 0.192972 0.162373 -1.745203
v 0.192972 0.162374 -2.013020
v 0.192973 0.162374 -2.292250
v 0.192973 0.162374 -2.579088
v 0.192974 0.162375 -2.869731
v 0.185262 0.320883 0.107850
v 0.211016 0.365491 -0.129598
v 0.129238 0.223846 -0.344367
v 0.126513 0.219127 -0.629946
v 0.126501 0.219105 -0.900538
v 0.126501 0.219106 -1.183441
v 0.126501 0.219106 -1.467064
v 0.126501 0.219106 -1.745203
v 0.126502 0.219107 -2.013020
v 0.126502 0.219107 -2.292250
v 0.126502 0.219108 -2.579088
v 0.126502 0.219108 -2.869731
v 0.064228 0.363713 0.107850
v 0.073156 0.414275 -0.129598
v 0.044805 0.253724 -0.344367
v 0.043860 0.248375 -0.629946
v 0.043856 0.248350 -0.900538
v 0.043856 0.248351 -1.183441
v 0.043856 0.248351 -1.467064
v 0.043856 0.248352 -1.745203
v 0.043856 0.248352 -2.013020
v 0.043857 0.248353 -2.292250
v 0.043857 0.248353 -2.579088
v 0.043857 0.248354 -2.869731
v -0.064634 0.363645 0.107850
v -0.073619 0.414197 -0.129598
v -0.045088 0.253677 -0.344367
v -0.044138 0.248329 -0.629946
v -0.044133 0.248304 -0.900538
v -0.044133 0.248304 -1.183441
v -0.044134 0.248305 -1.467064
v -0.044134 0.248305 -1.745203
v -0.044134 0.248306 -2.013020
v -0.044134 0.248306 -2.292250
v -0.044134 0.248307 -2.579088
v -0.044134 0.248307 -2.869731
v -0.185262 0.320883 0.107850
v -0.211016 0.365491 -0.129598
v -0.129238 0.223846 -0.344367
v -0.126513 0.219127 -0.629946
v -0.126501 0.219105 -0.900538
v -0.126501 0.219105 -1.183441
v -0.126501 0.219106 -1.467064
v -0.126501 0.219106 -1.745203
v -0.126502 0.219107 -2.013020
v -0.126502 0.219107 -2.292250
v -0.126502 0.219108 -2.579088
v -0.126502 0.219108 -2.869731
v -0.282871 0.237479 0.107850
v -0.322194 0.270493 -0.129598
v -0.197329 0.165664 -0.344367
v -0.193169 0.162172 -0.629946
v -0.193150 0.162155 -0.900538
v -0.193150 0.162156 -1.183441
v -0.193151 0.162156 -1.467064
v -0.193151 0.162156 -1.745203
v -0.193151 0.162157 -2.013020
v -0.193152 0.162157 -2.292250
v -0.193152 0.162157 -2.579088
v -0.193152 0.162158 -2.869731
v -0.347243 0.125848 0.107850
v -0.395515 0.143343 -0.129598
v -0.242235 0.087791 -0.344367
v -0.237128 0.085940 -0.629946
v -0.237104 0.085931 -0.900538
v -0.237105 0.085931 -1.183441
v -0.237105 0.085932 -1.467064
v -0.237106 0.085932 -1.745203
v -0.237106 0.085932 -2.013020
v -0.237107 0.085932 -2.292250
v -0.237107 0.085932 -2.579088
v -0.237107 0.085933 -2.869731
v -0.370524 -0.000000 0.107850
v -0.422032 0.000000 -0.129598
v -0.258476 0.000000 -0.344367
v -0.253027 0.000000 -0.629946
v -0.253001 0.000000 -0.900538
v -0.253002 0.000000 -1.183441
v -0.253002 0.000000 -1.467064
v -0.253003 0.000000 -1.745203
v -0.253003 0.000000 -2.013020
v -0.253004 0.000000 -2.292250
v -0.253004 0.000000 -2.579088
v -0.253004 0.000000 -2.869731
v -0.347098 -0.126234 0.107850
v -0.395350 -0.143782 -0.129598
v -0.242134 -0.088060 -0.344367
v -0.237030 -0.086203 -0.629946
v -0.237006 -0.086195 -0.900538
v -0.237006 -0.086195 -1.183441
v -0.237007 -0.086195 -1.467064
v -0.237007 -0.086195 -1.745203
v -0.237008 -0.086195 -2.013020
v -0.237008 -0.086195 -2.292250
v -0.237008 -0.086196 -2.579088
v -0.237009 -0.086196 -2.869731
v -0.282609 -0.237797 0.107850
v -0.321895 -0.270855 -0.129598
v -0.197146 -0.165886 -0.344367
v -0.192990 -0.162389 -0.629946
v -0.192971 -0.162372 -0.900538
v -0.192971 -0.162373 -1.183441
v -0.192972 -0.162373 -1.467064
v -0.192972 -0.162373 -1.745203
v -0.192972 -0.162373 -2.013020
v -0.192973 -0.162374 -2.292250
v -0.192973 -0.162374 -2.579088
v -0.192973 -0.162375 -2.869731
v -0.185262 -0.320883 0.107850
v -0.211016 -0.365491 -0.129598
v -0.129238 -0.223846 -0.344367
v -0.126513 -0.219127 -0.629946
v -0.126501 -0.219105 -0.900538
v -0.126501 -0.219105 -1.183441
v -0.126501 -0.219106 -1.467064
v -0.126501 -0.219106 -1.745203
v -0.126502 -0.219107 -2.013020
v -0.126502 -0.219107 -2.292250
v -0.126502 -0.219108 -2.579088
v -0.126502 -0.219108 -2.869731
v -0.064228 -0.363713 0.107850
v -0.073156 -0.414275 -0.129598
v -0.044805 -0.253724 -0.344367
v -0.043861 -0.248375 -0.629946
v -0.043856 -0.248350 -0.900538
v -0.043856 -0.248350 -1.183441
v -0.043856 -0.248351 -1.467064
v -0.043856 -0.248351 -1.745203
v -0.043856 -0.248352 -2.013020
v -0.043857 -0.248352 -2.292250
v -0.043857 -0.248353 -2.579088
v -0.043857 -0.248354 -2.869731
v 0.064634 -0.363645 0.107850
v 0.073619 -0.414197 -0.129598
v 0.045088 -0.253677 -0.344367
v 0.044138 -0.248329 -0.629946
v 0.044133 -0.248303 -0.900538
v 0.044133 -0.248304 -1.183441
v 0.044134 -0.248304 -1.467064
v 0.044134 -0.248305 -1.745203
v 0.044134 -0.248305 -2.013020
v 0.044134 -0.248306 -2.292250
v 0.044134 -0.248307 -2.579088
v 0.044134 -0.248307 -2.869731
v 0.185262 -0.320883 0.107850
v 0.211016 -0.365491 -0.129598
v 0.129238 -0.223846 -0.344367
v 0.126513 -0.219127 -0.629946
v 0.126501 -0.219105 -0.900538
v 0.126501 -0.219105 -1.183441
v 0.126501 -0.219106 -1.467064
v 0.126501 -0.219106 -1.745203
v 0.126502 -0.219107 -2.013020
v 0.126502 -0.219107 -2.292250
v 0.126502 -0.219108 -2.579088
v 0.126502 -0.219108 -2.869731
v 0.282871 -0.237479 0.107850
v 0.322194 -0.270493 -0.129598
v 0.197329 -0.165664 -0.344367
v 0.193169 -0.162172 -0.629946
v 0.193150 -0.162155 -0.900538
v 0.193150 -0.162156 -1.183441
v 0.193150 -0.162156 -1.467064
v 0.193151 -0.162156 -1.745203
v 0.193151 -0.162157 -2.013020
v 0.193151 -0.162157 -2.292250
v 0.193152 -0.162157 -2.579088
v 0.193152 -0.162157 -2.869731
v 0.347243 -0.125848 0.107850
v 0.395515 -0.143343 -0.129598
v 0.242235 -0.087791 -0.344367
v 0.237128 -0.085940 -0.629946
v 0.237104 -0.085931 -0.900538
v 0.237105 -0.085931 -1.183441
v 0.237105 -0.085932 -1.467064
v 0.237105 -0.085932 -1.745203
v 0.237106 -0.085932 -2.013020
v 0.237106 -0.085932 -2.292250
v 0.237107 -0.085932 -2.579088
v 0.237107 -0.085932 -2.869731
v 0.370524 -0.000000 0.107850
v 0.422032 0.000000 -0.129598
v 0.258476 0.000000 -0.344367
v 0.253027 0.000000 -0.629946
v 0.253001 0.000000 -0.900538
v 0.253002 0.000000 -1.183441
v 0.253002 0.000000 -1.467064
v 0.253002 0.000000 -1.745203
v 0.253003 0.000000 -2.013020
v 0.253003 0.000000 -2.292250
v 0.253004 0.000000 -2.579088
v 0.253004 0.000000 -2.869731
vn -0.0000 -0.0000 1.0000
vn -0.0000 -0.0000 -1.0000
vn 0.8703 0.3257 -0.3695
vn 0.9928 -0.0000 -0.1196
vn 0.9298 0.3481 -0.1192
vn 0.9299 0.3480 -0.1192
vn 1.0000 0.0001 -0.0008
vn 0.9366 0.3505 -0.0008
vn 1.0000 0.0001 -0.0000
vn 0.9366 0.3505 -0.0000
vn 1.0000 0.0001 0.0001
vn 0.7657 0.6320 -0.1192
vn 0.8702 0.3259 -0.3695
vn 0.7713 0.6365 -0.0008
vn 0.9298 0.3482 -0.1192
vn 0.9365 0.3507 -0.0008
vn 0.7713 0.6365 -0.0000
vn 0.9365 0.3507 -0.0007
vn 0.9365 0.3507 -0.0001
vn 0.7713 0.6365 0.0001
vn 0.9365 0.3507 -0.0000
vn 0.9365 0.3507 0.0001
vn 0.4965 0.8598 -0.1196
vn 0.7166 0.5915 -0.3695
vn 0.5001 0.8660 -0.0008
vn 0.7657 0.6321 -0.1192
vn 0.7711 0.6367 -0.0008
vn 0.5001 0.8660 -0.0000
vn 0.7711 0.6367 -0.0007
vn 0.7711 0.6367 -0.0000
vn 0.7711 0.6367 0.0001
vn 0.1531 0.9166 -0.3695
vn 0.4964 0.8598 -0.1196
vn 0.1635 0.9793 -0.1192
vn 0.1636 0.9793 -0.1192
vn 0.4999 0.8661 -0.0008
vn 0.1647 0.9863 -0.0008
vn 0.4999 0.8661 -0.0001
vn 0.1647 0.9863 -0.0000
vn 0.4999 0.8661 -0.0000
vn 0.4999 0.8661 0.0001
vn -0.1645 0.9791 -0.1192
vn 0.1529 0.9166 -0.3695
vn 0.1634 0.9793 -0.1192
vn -0.1655 0.9862 -0.0008
vn 0.1633 0.9793 -0.1192
vn 0.1645 0.9864 -0.0008
vn -0.1655 0.9862 -0.0007
vn 0.1645 0.9864 -0.0000
vn -0.1655 0.9862 -0.0000
vn -0.4964 0.8598 -0.1196
vn -0.1540 0.9164 -0.3695
vn -0.4999 0.8661 -0.0008
vn -0.1646 0.9791 -0.1192
vn -0.1658 0.9862 -0.0008
vn -0.4999 0.8661 -0.0000
vn -0.1658 0.9862 -0.0007
vn -0.1658 0.9862 -0.0000
vn -0.4999 0.8661 -0.0001
vn -0.1658 0.9862 0.0001
vn -0.7172 0.5908 -0.3695
vn -0.7664 0.6312 -0.1192
vn -0.7663 0.6313 -0.1192
vn -0.5001 0.8660 -0.0008
vn -0.7718 0.6358 -0.0008
vn -0.5001 0.8660 -0.0000
vn -0.7718 0.6358 -0.0000
vn -0.5001 0.8660 0.0001
vn -0.9302 0.3471 -0.1192
vn -0.7173 0.5907 -0.3695
vn -0.9302 0.3472 -0.1192
vn -0.7720 0.6356 -0.0008
vn -0.9368 0.3497 -0.0008
vn -0.9368 0.3497 -0.0007
vn -0.7720 0.6356 -0.0000
vn -0.9368 0.3497 -0.0000
vn -0.7720 0.6356 0.0001
vn -0.9928 0.0001 -0.1196
vn -0.8706 0.3248 -0.3695
vn -1.0000 0.0001 -0.0008
vn -0.9303 0.3470 -0.1192
vn -0.9369 0.3495 -0.0008
vn -1.0000 0.0001 -0.0000
vn -0.9369 0.3495 -0.0007
vn -0.9369 0.3495 -0.0000
vn -0.9369 0.3495 0.0001
vn -0.9369 0.3495 -0.0001
vn -0.8703 -0.3257 -0.3695
vn -0.9928 -0.0000 -0.1196
vn -0.9298 -0.3481 -0.1192
vn -0.9299 -0.3480 -0.1192
vn -1.0000 -0.0001 -0.0008
vn -0.9366 -0.3505 -0.0008
vn -1.0000 -0.0001 -0.0001
vn -0.9366 -0.3505 -0.0000
vn -1.0000 -0.0001 -0.0000
vn -0.9366 -0.3505 -0.0001
vn -1.0000 -0.0001 0.0001
vn -0.7657 -0.6320 -0.1192
vn -0.8702 -0.3259 -0.3695
vn -0.7713 -0.6365 -0.0008
vn -0.9298 -0.3482 -0.1192
vn -0.9365 -0.3507 -0.0008
vn -0.7713 -0.6365 -0.0000
vn -0.9365 -0.3507 -0.0007
vn -0.9365 -0.3507 -0.0000
vn -0.9365 -0.3507 0.0001
vn -0.9365 -0.3507 -0.0001
vn -0.4965 -0.8598 -0.1196
vn -0.7166 -0.5915 -0.3695
vn -0.5001 -0.8660 -0.0008
vn -0.7657 -0.6321 -0.1192
vn -0.7711 -0.6367 -0.0008
vn -0.5001 -0.8660 -0.0000
vn -0.7711 -0.6367 -0.0007
vn -0.7711 -0.6367 -0.0001
vn -0.7711 -0.6367 -0.0000
vn -0.7711 -0.6367 0.0001
vn -0.1531 -0.9166 -0.3695
vn -0.4964 -0.8598 -0.1196
vn -0.1635 -0.9793 -0.1192
vn -0.1636 -0.9793 -0.1192
vn -0.4999 -0.8661 -0.0008
vn -0.1647 -0.9863 -0.0008
vn -0.4999 -0.8661 -0.0000
vn -0.1647 -0.9863 -0.0000
vn -0.4999 -0.8661 0.0001
vn 0.1645 -0.9791 -0.1192
vn -0.1529 -0.9166 -0.3695
vn -0.1634 -0.9793 -0.1192
vn 0.1655 -0.9862 -0.0008
vn -0.1633 -0.9793 -0.1192
vn -0.1645 -0.9864 -0.0008
vn 0.1655 -0.9862 -0.0000
vn -0.1645 -0.9864 -0.0007
vn -0.1645 -0.9864 -0.0000
vn 0.4964 -0.8598 -0.1196
vn 0.1540 -0.9164 -0.3695
vn 0.4999 -0.8661 -0.0008
vn 0.1646 -0.9791 -0.1192
vn 0.1658 -0.9862 -0.0008
vn 0.4999 -0.8661 -0.0000
vn 0.1658 -0.9862 -0.0007
vn 0.1658 -0.9862 -0.0000
vn 0.1658 -0.9862 0.0001
vn 0.7172 -0.5908 -0.3695
vn 0.7664 -0.6312 -0.1192
vn 0.7663 -0.6313 -0.1192
vn 0.5001 -0.8660 -0.0008
vn 0.7718 -0.6358 -0.0008
vn 0.5001 -0.8660 -0.0001
vn 0.7718 -0.6358 -0.0000
vn 0.5001 -0.8660 -0.0000
vn 0.5001 -0.8660 0.0001
vn 0.9302 -0.3471 -0.1192
vn 0.7173 -0.5907 -0.3695
vn 0.9368 -0.3497 -0.0008
vn 0.7665 -0.6311 -0.1192
vn 0.7720 -0.6356 -0.0008
vn 0.9368 -0.3497 -0.0007
vn 0.7720 -0.6356 -0.0000
vn 0.9368 -0.3497 -0.0000
vn 0.9928 -0.0001 -0.1196
vn 0.8706 -0.3248 -0.3695
vn 1.0000 -0.0001 -0.0008
vn 0.9303 -0.3470 -0.1192
vn 0.9369 -0.3495 -0.0008
vn 1.0000 -0.0001 -0.0000
vn 0.9369 -0.3495 -0.0007
vn 0.9369 -0.3495 0.0001
vn 0.9369 -0.3495 -0.0000
vn 0.6536 -0.0000 0.7569
vn 0.8702 0.3258 -0.3695
vn 0.6132 0.2296 0.7558
vn 0.3267 0.5661 0.7568
vn 0.7167 0.5915 -0.3695
vn 0.4644 0.8044 -0.3705
vn 0.5049 0.4168 0.7558
vn 0.7166 0.5916 -0.3695
vn 0.3268 0.5660 0.7569
vn 0.1530 0.9165 -0.3695
vn 0.1078 0.6458 0.7558
vn -0.3269 0.5660 0.7568
vn -0.1539 0.9164 -0.3695
vn -0.4644 0.8044 -0.3705
vn -0.6135 0.2289 0.7558
vn -0.8706 0.3249 -0.3695
vn -0.6536 -0.0001 0.7569
vn -0.6134 0.2289 0.7558
vn -0.3267 0.5660 0.7569
vn -0.7173 0.5908 -0.3695
vn -0.5054 0.4163 0.7558
vn -0.1085 0.6457 0.7558
vn 0.1530 0.9166 -0.3695
vn -0.6535 -0.0000 0.7569
vn -0.9288 0.0001 -0.3705
vn -0.5049 -0.4168 0.7558
vn -0.7166 -0.5916 -0.3695
vn -0.3268 -0.5660 0.7569
vn -0.1530 -0.9165 -0.3695
vn -0.1078 -0.6458 0.7558
vn -0.3267 -0.5661 0.7568
vn -0.7167 -0.5915 -0.3695
vn -0.4644 -0.8044 -0.3705
vn -0.1530 -0.9166 -0.3694
vn 0.1085 -0.6457 0.7558
vn -0.1078 -0.6459 0.7558
vn 0.3269 -0.5660 0.7568
vn 0.1539 -0.9164 -0.3695
vn 0.4644 -0.8044 -0.3705
vn 0.6135 -0.2289 0.7558
vn 0.6536 0.0001 0.7568
vn 0.8706 -0.3249 -0.3695
vn 0.9288 -0.0000 -0.3705
vn 0.3267 -0.5660 0.7569
vn 0.7173 -0.5908 -0.3695
vn 0.5054 -0.4163 0.7558
vn -0.9366 -0.3505 0.0001
vn 0.4999 -0.8661 -0.0001
vn 1.0000 -0.0001 0.0001
vn 0.9288 0.0001 -0.3705
vn 0.9928 0.0001 -0.1195
vn 0.9366 0.3505 -0.0007
vn 0.7658 0.6320 -0.1192
vn 0.7167 0.5914 -0.3695
vn 0.7658 0.6319 -0.1192
vn 0.4645 0.8043 -0.3705
vn 0.5001 0.8660 -0.0001
vn 0.4963 0.8599 -0.1195
vn 0.1647 0.9863 -0.0007
vn 0.1647 0.9863 -0.0001
vn -0.1644 0.9792 -0.1192
vn 0.1645 0.9864 -0.0007
vn -0.4643 0.8044 -0.3705
vn -0.4963 0.8599 -0.1196
vn -0.4645 0.8044 -0.3705
vn -0.4965 0.8598 -0.1195
vn -0.7718 0.6358 -0.0007
vn -0.7718 0.6358 -0.0001
vn -0.8706 0.3250 -0.3695
vn -0.9302 0.3473 -0.1192
vn -0.7665 0.6311 -0.1192
vn -0.7720 0.6356 -0.0007
vn -0.9368 0.3497 -0.0001
vn -1.0000 0.0001 -0.0001
vn -0.9288 -0.0001 -0.3705
vn -0.9928 -0.0001 -0.1195
vn -0.9366 -0.3505 -0.0007
vn -0.7658 -0.6320 -0.1192
vn -0.7167 -0.5914 -0.3695
vn -0.7658 -0.6319 -0.1192
vn -0.7713 -0.6365 -0.0007
vn -0.7713 -0.6365 -0.0001
vn -0.4645 -0.8043 -0.3705
vn -0.5001 -0.8660 0.0001
vn -0.1530 -0.9166 -0.3695
vn -0.4963 -0.8599 -0.1195
vn -0.1647 -0.9863 -0.0007
vn 0.1644 -0.9792 -0.1192
vn 0.1655 -0.9862 -0.0007
vn 0.4643 -0.8044 -0.3705
vn 0.4963 -0.8599 -0.1196
vn 0.4645 -0.8044 -0.3705
vn 0.4963 -0.8598 -0.1196
vn 0.4965 -0.8598 -0.1195
vn 0.7718 -0.6358 -0.0007
vn 0.7718 -0.6358 -0.0001
vn 0.9302 -0.3472 -0.1192
vn 0.8706 -0.3250 -0.3695
vn 0.9302 -0.3473 -0.1192
vn 0.7720 -0.6356 -0.0007
vn 0.7720 -0.6356 -0.0001
vn 0.9368 -0.3497 -0.0001
vn 0.9288 -0.0001 -0.3705
vn 1.0000 -0.0001 -0.0001
vn 0.6535 -0.0000 0.7569
vn 0.3267 0.5661 0.7569
vn 0.5050 0.4168 0.7558
vn 0.6132 0.2295 0.7558
vn 0.3267 0.5660 0.7569
vn 0.4645 0.8044 -0.3705
vn -0.3269 0.5660 0.7569
vn -0.9288 -0.0000 -0.3705
vn -0.6536 -0.0001 0.7568
vn -0.3268 0.5660 0.7569
vn 0.1078 0.6459 0.7558
vn -0.8703 -0.3258 -0.3695
vn -0.6132 -0.2296 0.7558
vn -0.6536 -0.0000 0.7569
vn -0.6132 -0.2295 0.7558
vn -0.8703 -0.3257 -0.3694
vn -0.3267 -0.5660 0.7569
vn -0.4645 -0.8044 -0.3705
vn -0.3267 -0.5661 0.7569
vn -0.5050 -0.4168 0.7558
vn 0.3269 -0.5660 0.7569
vn 0.7172 -0.5908 -0.3694
vn 0.6536 0.0001 0.7569
vn 0.6134 -0.2289 0.7558
vn 0.3268 -0.5660 0.7569
vn -0.1647 -0.9863 -0.0001
vn -0.5001 -0.8660 -0.0001
vt 0.024875 0.391687
vt 0.184875 0.391777
vt 0.006628 0.423474
vt 0.052419 0.368014
vt 0.086665 0.355811
vt 0.203088 0.423584
vt 0.000000 0.459440
vt 0.209676 0.459440
vt 0.006587 0.495297
vt 0.052419 0.550867
vt 0.024801 0.527103
vt 0.086550 0.563051
vt 0.123011 0.563070
vt 0.203047 0.495407
vt 0.123126 0.355830
vt 0.157257 0.368014
vt 0.184800 0.527194
vt 0.157257 0.550867
vt 0.017053 0.024559
vt 0.004557 0.095320
vt 0.004529 0.046277
vt 0.036043 0.008333
vt 0.059512 0.000013
vt 0.127120 0.116963
vt 0.000000 0.070761
vt 0.036043 0.133190
vt 0.017104 0.117025
vt 0.059591 0.141523
vt 0.084582 0.000000
vt 0.127069 0.024497
vt 0.108130 0.008333
vt 0.139615 0.046202
vt 0.108130 0.133190
vt 0.084661 0.141509
vt 0.139643 0.095245
vt 0.144173 0.070761
vt 0.254977 0.497699
vt 0.211140 0.700616
vt 0.254977 0.700616
vt 0.211140 0.754983
vt 0.254977 0.754983
vt 0.211140 0.778018
vt 0.254977 0.778018
vt 0.254977 0.796074
vt 0.211140 0.796074
vt 0.254977 0.811584
vt 0.211140 0.811584
vt 0.254977 0.825406
vt 0.211140 0.825406
vt 0.254977 0.837912
vt 0.211140 0.837912
vt 0.211140 0.850418
vt 0.254977 0.850418
vt 0.254977 0.862924
vt 0.211140 0.862924
vt 0.298675 0.700616
vt 0.298675 0.754983
vt 0.298675 0.778018
vt 0.298675 0.796074
vt 0.298675 0.811584
vt 0.298675 0.825406
vt 0.298675 0.837912
vt 0.298675 0.850418
vt 0.298675 0.862924
vt 0.342373 0.700616
vt 0.298675 0.497699
vt 0.342373 0.754983
vt 0.342373 0.778018
vt 0.342373 0.796074
vt 0.342373 0.811584
vt 0.342373 0.825406
vt 0.342373 0.837912
vt 0.342373 0.850418
vt 0.342373 0.862924
vt 0.386210 0.497699
vt 0.386210 0.700616
vt 0.386210 0.754983
vt 0.386210 0.778018
vt 0.386210 0.796074
vt 0.386210 0.811584
vt 0.386210 0.825406
vt 0.386210 0.837912
vt 0.386210 0.850418
vt 0.386210 0.862924
vt 0.429908 0.700616
vt 0.429908 0.754983
vt 0.429908 0.778018
vt 0.429908 0.796074
vt 0.429908 0.811584
vt 0.429908 0.825406
vt 0.429908 0.837912
vt 0.429908 0.850418
vt 0.429908 0.862924
vt 0.473605 0.700616
vt 0.429908 0.497699
vt 0.473605 0.754983
vt 0.473605 0.778018
vt 0.473605 0.796074
vt 0.473605 0.811584
vt 0.473605 0.825406
vt 0.473605 0.837912
vt 0.473605 0.850418
vt 0.473605 0.862924
vt 0.517442 0.497699
vt 0.517442 0.700616
vt 0.517442 0.754983
vt 0.517442 0.778018
vt 0.517442 0.796074
vt 0.517442 0.811584
vt 0.517442 0.825406
vt 0.517442 0.837912
vt 0.517442 0.850418
vt 0.517442 0.862924
vt 0.561140 0.700616
vt 0.561140 0.754983
vt 0.561140 0.778018
vt 0.561140 0.796074
vt 0.561140 0.811584
vt 0.561140 0.825406
vt 0.561140 0.837912
vt 0.561140 0.850418
vt 0.561140 0.862924
vt 0.604838 0.700616
vt 0.561140 0.497699
vt 0.604838 0.754983
vt 0.604838 0.778018
vt 0.604838 0.796074
vt 0.604838 0.811584
vt 0.604838 0.825406
vt 0.604838 0.837912
vt 0.604838 0.850418
vt 0.604838 0.862924
vt 0.648675 0.497699
vt 0.648675 0.700616
vt 0.648675 0.754983
vt 0.648675 0.778018
vt 0.648675 0.796074
vt 0.648675 0.811584
vt 0.648675 0.825406
vt 0.648675 0.837912
vt 0.648675 0.850418
vt 0.648675 0.862924
vt 0.692373 0.700616
vt 0.692373 0.754983
vt 0.692373 0.778018
vt 0.692373 0.796074
vt 0.692373 0.811584
vt 0.692373 0.825406
vt 0.692373 0.837912
vt 0.692373 0.850418
vt 0.692373 0.862924
vt 0.736070 0.700616
vt 0.692373 0.497699
vt 0.736070 0.754983
vt 0.736070 0.778018
vt 0.736070 0.796074
vt 0.736070 0.811584
vt 0.736070 0.825406
vt 0.736070 0.837912
vt 0.736070 0.850418
vt 0.736070 0.862924
vt 0.779907 0.497699
vt 0.779907 0.700616
vt 0.779907 0.754983
vt 0.779907 0.778018
vt 0.779907 0.796074
vt 0.779907 0.811584
vt 0.779907 0.825406
vt 0.779907 0.837912
vt 0.779907 0.850418
vt 0.779907 0.862924
vt 0.823605 0.700616
vt 0.823605 0.754983
vt 0.823605 0.778018
vt 0.823605 0.796074
vt 0.823605 0.811584
vt 0.823605 0.825406
vt 0.823605 0.837912
vt 0.823605 0.850418
vt 0.823605 0.862924
vt 0.867303 0.700616
vt 0.823605 0.497699
vt 0.867303 0.754983
vt 0.867303 0.778018
vt 0.867303 0.796074
vt 0.867303 0.811584
vt 0.867303 0.825406
vt 0.867303 0.837912
vt 0.867303 0.850418
vt 0.867303 0.862924
vt 0.911140 0.497699
vt 0.911140 0.700616
vt 0.911140 0.754983
vt 0.911140 0.778018
vt 0.911140 0.796074
vt 0.911140 0.811584
vt 0.911140 0.825406
vt 0.911140 0.837912
vt 0.911140 0.850418
vt 0.911140 0.862924
vt 0.954837 0.700616
vt 0.954837 0.754983
vt 0.954837 0.778018
vt 0.954837 0.796074
vt 0.954837 0.811584
vt 0.954837 0.825406
vt 0.954837 0.837912
vt 0.954837 0.850418
vt 0.954837 0.862924
vt 0.998535 0.700616
vt 0.954837 0.497699
vt 0.998535 0.754983
vt 0.998535 0.778018
vt 0.998535 0.796074
vt 0.998535 0.811584
vt 0.998535 0.825406
vt 0.998535 0.837912
vt 0.998535 0.850418
vt 0.998535 0.862924
vt 0.211140 0.000000
vt 0.254977 0.000000
vt 0.342373 0.000000
vt 0.342373 0.497699
vt 0.298675 0.000000
vt 0.386210 0.000000
vt 0.473605 0.000000
vt 0.473605 0.497699
vt 0.561140 0.000000
vt 0.604838 0.000000
vt 0.517442 0.000000
vt 0.429908 0.000000
vt 0.254977 0.875429
vt 0.298675 0.875429
vt 0.342373 0.875429
vt 0.386210 0.875429
vt 0.473605 0.875429
vt 0.604838 0.875429
vt 0.561140 0.875429
vt 0.517442 0.875429
vt 0.429908 0.875429
vt 0.604838 0.497699
vt 0.692373 0.000000
vt 0.736070 0.000000
vt 0.779907 0.000000
vt 0.736070 0.497699
vt 0.823605 0.000000
vt 0.867303 0.000000
vt 0.867303 0.497699
vt 0.954837 0.000000
vt 0.998535 0.000000
vt 0.998535 0.497699
vt 0.911140 0.000000
vt 0.692373 0.875429
vt 0.736070 0.875429
vt 0.779907 0.875429
vt 0.648675 0.875429
vt 0.867303 0.875429
vt 0.911140 0.875429
vt 0.954837 0.875429
vt 0.998535 0.875429
vt 0.211140 0.497699
vt 0.211140 0.875429
vt 0.648675 0.000000
vt 0.823605 0.875429
s 0
f 12/1/1 17/2/1 11/3/1
f 12/1/1 13/4/1 14/5/1
f 11/3/1 18/6/1 10/7/1
f 1/8/1 9/9/1 10/7/1
f 7/10/1 8/11/1 6/12/1
f 8/11/1 5/13/1 6/12/1
f 2/14/1 8/11/1 9/9/1
f 12/1/1 14/5/1 17/2/1
f 17/2/1 15/15/1 16/16/1
f 17/2/1 18/6/1 11/3/1
f 1/8/1 10/7/1 18/6/1
f 3/17/1 4/18/1 5/13/1
f 5/13/1 8/11/1 3/17/1
f 8/11/1 2/14/1 3/17/1
f 9/9/1 1/8/1 2/14/1
f 17/2/1 14/5/1 15/15/1
f 30/19/2 27/20/2 29/21/2
f 30/19/2 31/22/2 32/23/2
f 27/20/2 30/19/2 21/24/2
f 27/20/2 28/25/2 29/21/2
f 25/26/2 26/27/2 24/28/2
f 27/20/2 24/28/2 26/27/2
f 24/28/2 27/20/2 21/24/2
f 33/29/2 30/19/2 32/23/2
f 35/30/2 33/29/2 34/31/2
f 33/29/2 35/30/2 36/32/2
f 21/24/2 33/29/2 36/32/2
f 21/24/2 22/33/2 23/34/2
f 24/28/2 21/24/2 23/34/2
f 21/24/2 36/32/2 20/35/2
f 20/35/2 36/32/2 19/36/2
f 33/29/2 21/24/2 30/19/2
f 50/37/3 39/38/4 51/39/5
f 51/39/6 40/40/7 52/41/8
f 52/41/8 41/42/9 53/43/10
f 54/44/10 41/42/9 42/45/11
f 55/46/10 42/45/9 43/47/11
f 56/48/10 43/47/9 44/49/9
f 57/50/10 44/49/9 45/51/9
f 57/50/10 46/52/11 58/53/10
f 59/54/10 46/52/9 47/55/9
f 63/56/12 50/37/13 51/39/5
f 64/57/14 51/39/15 52/41/16
f 65/58/17 52/41/18 53/43/19
f 65/58/20 54/44/21 66/59/17
f 66/59/17 55/46/22 67/60/17
f 68/61/17 55/46/21 56/48/21
f 68/61/20 57/50/21 69/62/17
f 69/62/17 58/53/22 70/63/17
f 70/63/17 59/54/21 71/64/17
f 75/65/23 62/66/24 63/56/12
f 76/67/25 63/56/26 64/57/27
f 77/68/28 64/57/29 65/58/30
f 77/68/28 66/59/31 78/69/28
f 78/69/28 67/60/30 79/70/28
f 79/70/28 68/61/30 80/71/28
f 80/71/28 69/62/30 81/72/28
f 81/72/28 70/63/30 82/73/28
f 82/73/28 71/64/31 83/74/28
f 86/75/32 75/65/33 87/76/34
f 87/76/35 76/67/36 88/77/37
f 88/77/37 77/68/38 89/78/39
f 89/78/39 78/69/40 90/79/39
f 91/80/39 78/69/40 79/70/41
f 92/81/39 79/70/40 80/71/40
f 92/81/39 81/72/40 93/82/39
f 93/82/39 82/73/40 94/83/39
f 94/83/39 83/74/40 95/84/39
f 99/85/42 86/75/43 87/76/44
f 100/86/45 87/76/46 88/77/47
f 100/86/48 89/78/49 101/87/50
f 101/87/50 90/79/49 102/88/50
f 102/88/50 91/80/49 103/89/50
f 103/89/50 92/81/49 104/90/50
f 105/91/50 92/81/49 93/82/49
f 105/91/50 94/83/49 106/92/50
f 106/92/50 95/84/49 107/93/50
f 111/94/51 98/95/52 99/85/42
f 112/96/53 99/85/54 100/86/55
f 113/97/56 100/86/57 101/87/58
f 113/97/56 102/88/58 114/98/56
f 114/98/59 103/89/58 115/99/56
f 115/99/56 104/90/60 116/100/56
f 116/100/56 105/91/58 117/101/56
f 117/101/56 106/92/60 118/102/56
f 119/103/56 106/92/58 107/93/58
f 122/104/61 111/94/51 123/105/62
f 123/105/63 112/96/64 124/106/65
f 124/106/65 113/97/66 125/107/67
f 125/107/67 114/98/66 126/108/67
f 126/108/67 115/99/66 127/109/67
f 128/110/67 115/99/66 116/100/66
f 129/111/67 116/100/66 117/101/68
f 129/111/67 118/102/66 130/112/67
f 131/113/67 118/102/66 119/103/66
f 135/114/69 122/104/70 123/105/62
f 135/114/71 124/106/72 136/115/73
f 136/115/74 125/107/75 137/116/76
f 137/116/76 126/108/75 138/117/76
f 138/117/76 127/109/75 139/118/76
f 139/118/76 128/110/77 140/119/76
f 141/120/76 128/110/75 129/111/75
f 142/121/76 129/111/75 130/112/75
f 143/122/76 130/112/75 131/113/75
f 147/123/78 134/124/79 135/114/69
f 148/125/80 135/114/81 136/115/82
f 149/126/83 136/115/84 137/116/85
f 149/126/83 138/117/86 150/127/83
f 150/127/83 139/118/85 151/128/83
f 151/128/83 140/119/85 152/129/83
f 152/129/83 141/120/85 153/130/83
f 153/130/83 142/121/87 154/131/83
f 154/131/83 143/122/85 155/132/83
f 158/133/88 147/123/89 159/134/90
f 159/134/91 148/125/92 160/135/93
f 160/135/93 149/126/94 161/136/95
f 161/136/95 150/127/96 162/137/95
f 162/137/95 151/128/96 163/138/95
f 164/139/95 151/128/96 152/129/96
f 165/140/95 152/129/96 153/130/96
f 165/140/97 154/131/98 166/141/95
f 167/142/95 154/131/96 155/132/96
f 171/143/99 158/133/100 159/134/90
f 172/144/101 159/134/102 160/135/103
f 173/145/104 160/135/105 161/136/106
f 174/146/104 161/136/106 162/137/107
f 175/147/104 162/137/106 163/138/106
f 176/148/104 163/138/106 164/139/108
f 176/148/104 165/140/106 177/149/104
f 177/149/104 166/141/106 178/150/104
f 178/150/104 167/142/106 179/151/104
f 183/152/109 170/153/110 171/143/99
f 184/154/111 171/143/112 172/144/113
f 185/155/114 172/144/115 173/145/116
f 185/155/114 174/146/117 186/156/114
f 187/157/114 174/146/117 175/147/118
f 188/158/114 175/147/117 176/148/117
f 188/158/114 177/149/117 189/159/114
f 189/159/114 178/150/117 190/160/114
f 190/160/114 179/151/117 191/161/114
f 194/162/119 183/152/120 195/163/121
f 195/163/122 184/154/123 196/164/124
f 196/164/124 185/155/125 197/165/126
f 197/165/126 186/156/125 198/166/126
f 199/167/126 186/156/125 187/157/125
f 199/167/126 188/158/125 200/168/126
f 200/168/126 189/159/125 201/169/126
f 201/169/126 190/160/125 202/170/126
f 202/170/126 191/161/127 203/171/126
f 207/172/128 194/162/129 195/163/130
f 208/173/131 195/163/132 196/164/133
f 209/174/134 196/164/135 197/165/136
f 210/175/134 197/165/136 198/166/136
f 211/176/134 198/166/136 199/167/136
f 212/177/134 199/167/136 200/168/136
f 212/177/134 201/169/136 213/178/134
f 214/179/134 201/169/136 202/170/136
f 214/179/134 203/171/136 215/180/134
f 219/181/137 206/182/138 207/172/128
f 220/183/139 207/172/140 208/173/141
f 221/184/142 208/173/143 209/174/144
f 221/184/142 210/175/144 222/185/142
f 222/185/142 211/176/144 223/186/142
f 223/186/142 212/177/144 224/187/142
f 224/187/142 213/178/145 225/188/142
f 225/188/142 214/179/144 226/189/142
f 227/190/142 214/179/144 215/180/145
f 230/191/146 219/181/137 231/192/147
f 231/192/148 220/183/149 232/193/150
f 232/193/150 221/184/151 233/194/152
f 234/195/152 221/184/153 222/185/153
f 235/196/152 222/185/153 223/186/154
f 236/197/152 223/186/153 224/187/153
f 237/198/152 224/187/153 225/188/153
f 237/198/152 226/189/153 238/199/152
f 238/199/152 227/190/153 239/200/152
f 243/201/155 230/191/156 231/192/147
f 244/202/157 231/192/158 232/193/159
f 244/202/160 233/194/161 245/203/162
f 245/203/162 234/195/161 246/204/162
f 246/204/162 235/196/161 247/205/162
f 247/205/162 236/197/161 248/206/162
f 248/206/162 237/198/161 249/207/162
f 249/207/162 238/199/161 250/208/162
f 250/208/162 239/200/161 251/209/162
f 255/210/163 242/211/164 243/201/155
f 256/212/165 243/201/166 244/202/167
f 257/213/168 244/202/169 245/203/170
f 257/213/168 246/204/170 258/214/168
f 258/214/168 247/205/170 259/215/168
f 259/215/168 248/206/171 260/216/168
f 261/217/168 248/206/171 249/207/171
f 261/217/168 250/208/171 262/218/168
f 262/218/168 251/209/171 263/219/168
f 37/220/172 50/37/173 49/221/174
f 73/222/175 62/66/176 74/223/177
f 61/224/178 50/37/3 62/66/179
f 73/222/180 86/75/181 85/225/182
f 109/226/183 98/95/184 110/227/185
f 133/228/186 122/104/61 134/124/79
f 134/124/187 145/229/188 133/228/189
f 109/226/190 122/104/191 121/230/192
f 97/231/193 86/75/194 98/95/52
f 47/55/9 60/232/10 59/54/10
f 83/74/28 72/233/30 84/234/28
f 71/64/17 60/232/21 72/233/17
f 95/84/39 84/234/40 96/235/39
f 107/93/58 120/236/56 119/103/56
f 156/237/83 143/122/85 144/238/85
f 143/122/76 132/239/75 144/238/76
f 108/240/50 95/84/49 96/235/49
f 119/103/66 132/239/67 131/113/67
f 158/133/100 145/229/195 146/241/196
f 169/242/197 158/133/88 170/153/198
f 181/243/199 194/162/200 193/244/201
f 181/243/202 170/153/203 182/245/204
f 194/162/205 205/246/206 193/244/207
f 217/247/208 206/182/209 218/248/210
f 241/249/211 230/191/146 242/211/164
f 253/250/212 242/211/213 254/251/214
f 217/247/215 230/191/216 229/252/217
f 167/142/106 180/253/104 179/151/104
f 203/171/126 192/254/125 204/255/126
f 191/161/114 180/253/117 192/254/114
f 167/142/218 156/237/96 168/256/95
f 204/255/136 215/180/134 203/171/136
f 215/180/144 228/257/142 227/190/219
f 251/209/162 240/258/161 252/259/162
f 251/209/171 264/260/168 263/219/220
f 239/200/152 228/257/153 240/258/152
f 50/37/3 38/261/221 39/38/4
f 51/39/6 39/38/222 40/40/7
f 52/41/223 40/40/7 41/42/9
f 54/44/10 53/43/10 41/42/9
f 55/46/10 54/44/10 42/45/9
f 56/48/10 55/46/10 43/47/9
f 57/50/10 56/48/10 44/49/9
f 57/50/10 45/51/9 46/52/9
f 59/54/10 58/53/10 46/52/9
f 63/56/224 62/66/225 50/37/13
f 64/57/14 63/56/226 51/39/15
f 65/58/17 64/57/14 52/41/18
f 65/58/20 53/43/21 54/44/21
f 66/59/17 54/44/21 55/46/21
f 68/61/17 67/60/17 55/46/21
f 68/61/20 56/48/21 57/50/21
f 69/62/17 57/50/21 58/53/22
f 70/63/17 58/53/21 59/54/21
f 75/65/23 74/223/227 62/66/179
f 76/67/25 75/65/23 63/56/26
f 77/68/28 76/67/25 64/57/29
f 77/68/228 65/58/30 66/59/30
f 78/69/228 66/59/30 67/60/30
f 79/70/28 67/60/30 68/61/30
f 80/71/28 68/61/30 69/62/30
f 81/72/28 69/62/30 70/63/30
f 82/73/28 70/63/30 71/64/31
f 86/75/194 74/223/177 75/65/33
f 87/76/35 75/65/229 76/67/36
f 88/77/230 76/67/36 77/68/38
f 89/78/39 77/68/40 78/69/40
f 91/80/39 90/79/39 78/69/40
f 92/81/39 91/80/231 79/70/40
f 92/81/39 80/71/40 81/72/40
f 93/82/39 81/72/40 82/73/40
f 94/83/39 82/73/40 83/74/40
f 99/85/232 98/95/184 86/75/43
f 100/86/45 99/85/232 87/76/46
f 100/86/48 88/77/233 89/78/49
f 101/87/50 89/78/49 90/79/49
f 102/88/50 90/79/49 91/80/49
f 103/89/50 91/80/49 92/81/49
f 105/91/50 104/90/50 92/81/49
f 105/91/50 93/82/49 94/83/49
f 106/92/50 94/83/49 95/84/49
f 111/94/51 110/227/234 98/95/52
f 112/96/53 111/94/235 99/85/54
f 113/97/56 112/96/53 100/86/57
f 113/97/56 101/87/58 102/88/58
f 114/98/59 102/88/58 103/89/58
f 115/99/56 103/89/58 104/90/58
f 116/100/56 104/90/58 105/91/58
f 117/101/59 105/91/58 106/92/58
f 119/103/56 118/102/56 106/92/58
f 122/104/61 110/227/236 111/94/51
f 123/105/63 111/94/237 112/96/64
f 124/106/238 112/96/64 113/97/66
f 125/107/67 113/97/66 114/98/66
f 126/108/67 114/98/66 115/99/66
f 128/110/67 127/109/239 115/99/66
f 129/111/67 128/110/67 116/100/66
f 129/111/67 117/101/66 118/102/66
f 131/113/67 130/112/67 118/102/66
f 135/114/71 134/124/240 122/104/70
f 135/114/241 123/105/242 124/106/72
f 136/115/74 124/106/243 125/107/75
f 137/116/76 125/107/75 126/108/75
f 138/117/76 126/108/75 127/109/75
f 139/118/244 127/109/75 128/110/75
f 141/120/76 140/119/76 128/110/75
f 142/121/76 141/120/76 129/111/75
f 143/122/76 142/121/76 130/112/75
f 147/123/78 146/241/196 134/124/79
f 148/125/80 147/123/78 135/114/81
f 149/126/83 148/125/80 136/115/84
f 149/126/83 137/116/85 138/117/85
f 150/127/245 138/117/85 139/118/85
f 151/128/83 139/118/85 140/119/85
f 152/129/83 140/119/85 141/120/85
f 153/130/83 141/120/85 142/121/87
f 154/131/83 142/121/85 143/122/85
f 158/133/88 146/241/246 147/123/89
f 159/134/91 147/123/247 148/125/92
f 160/135/248 148/125/92 149/126/96
f 161/136/97 149/126/96 150/127/96
f 162/137/95 150/127/96 151/128/96
f 164/139/95 163/138/95 151/128/96
f 165/140/95 164/139/97 152/129/96
f 165/140/97 153/130/96 154/131/98
f 167/142/95 166/141/97 154/131/96
f 171/143/249 170/153/250 158/133/100
f 172/144/101 171/143/251 159/134/102
f 173/145/104 172/144/252 160/135/105
f 174/146/104 173/145/253 161/136/106
f 175/147/104 174/146/104 162/137/106
f 176/148/104 175/147/253 163/138/106
f 176/148/253 164/139/106 165/140/106
f 177/149/104 165/140/106 166/141/106
f 178/150/104 166/141/106 167/142/106
f 183/152/109 182/245/254 170/153/198
f 184/154/111 183/152/109 171/143/112
f 185/155/114 184/154/111 172/144/115
f 185/155/114 173/145/117 174/146/117
f 187/157/114 186/156/114 174/146/117
f 188/158/114 187/157/255 175/147/117
f 188/158/114 176/148/117 177/149/117
f 189/159/114 177/149/117 178/150/117
f 190/160/114 178/150/117 179/151/117
f 194/162/256 182/245/204 183/152/120
f 195/163/122 183/152/257 184/154/123
f 196/164/258 184/154/123 185/155/125
f 197/165/126 185/155/125 186/156/125
f 199/167/126 198/166/126 186/156/125
f 199/167/126 187/157/125 188/158/125
f 200/168/126 188/158/125 189/159/125
f 201/169/126 189/159/125 190/160/125
f 202/170/126 190/160/125 191/161/125
f 207/172/259 206/182/209 194/162/129
f 208/173/131 207/172/259 195/163/132
f 209/174/134 208/173/260 196/164/135
f 210/175/134 209/174/134 197/165/136
f 211/176/134 210/175/134 198/166/136
f 212/177/134 211/176/134 199/167/136
f 212/177/134 200/168/136 201/169/136
f 214/179/134 213/178/134 201/169/136
f 214/179/134 202/170/136 203/171/136
f 219/181/137 218/248/261 206/182/138
f 220/183/139 219/181/262 207/172/140
f 221/184/142 220/183/139 208/173/143
f 221/184/142 209/174/144 210/175/144
f 222/185/142 210/175/144 211/176/144
f 223/186/142 211/176/144 212/177/144
f 224/187/142 212/177/144 213/178/145
f 225/188/142 213/178/144 214/179/144
f 227/190/142 226/189/219 214/179/144
f 230/191/146 218/248/263 219/181/264
f 231/192/148 219/181/265 220/183/149
f 232/193/266 220/183/149 221/184/153
f 234/195/152 233/194/152 221/184/153
f 235/196/152 234/195/152 222/185/153
f 236/197/152 235/196/152 223/186/153
f 237/198/152 236/197/152 224/187/153
f 237/198/267 225/188/153 226/189/153
f 238/199/152 226/189/153 227/190/153
f 243/201/268 242/211/269 230/191/156
f 244/202/157 243/201/270 231/192/158
f 244/202/160 232/193/271 233/194/272
f 245/203/162 233/194/161 234/195/161
f 246/204/273 234/195/161 235/196/161
f 247/205/162 235/196/161 236/197/161
f 248/206/162 236/197/161 237/198/161
f 249/207/162 237/198/161 238/199/161
f 250/208/273 238/199/161 239/200/161
f 255/210/163 254/251/274 242/211/164
f 256/212/165 255/210/163 243/201/166
f 257/213/168 256/212/165 244/202/169
f 257/213/168 245/203/171 246/204/171
f 258/214/168 246/204/171 247/205/171
f 259/215/168 247/205/171 248/206/171
f 261/217/168 260/216/275 248/206/171
f 261/217/168 249/207/171 250/208/171
f 262/218/168 250/208/171 251/209/171
f 37/220/276 38/261/274 50/37/13
f 73/222/277 61/224/278 62/66/176
f 61/224/178 49/221/279 50/37/3
f 73/222/280 74/223/281 86/75/43
f 109/226/282 97/231/193 98/95/184
f 133/228/186 121/230/192 122/104/61
f 134/124/187 146/241/283 145/229/284
f 109/226/285 110/227/234 122/104/70
f 97/231/193 85/225/286 86/75/32
f 47/55/9 48/262/9 60/232/10
f 83/74/28 71/64/30 72/233/30
f 71/64/17 59/54/21 60/232/21
f 95/84/231 83/74/40 84/234/40
f 107/93/58 108/240/58 120/236/56
f 156/237/83 155/132/83 143/122/85
f 143/122/76 131/113/75 132/239/75
f 108/240/50 107/93/50 95/84/49
f 119/103/66 120/236/66 132/239/67
f 158/133/287 157/263/288 145/229/289
f 169/242/197 157/263/290 158/133/291
f 181/243/292 182/245/293 194/162/129
f 181/243/294 169/242/295 170/153/203
f 194/162/205 206/182/138 205/246/206
f 217/247/296 205/246/206 206/182/209
f 241/249/211 229/252/217 230/191/297
f 253/250/298 241/249/299 242/211/213
f 217/247/300 218/248/261 230/191/156
f 167/142/106 168/256/106 180/253/104
f 203/171/301 191/161/125 192/254/125
f 191/161/302 179/151/117 180/253/117
f 167/142/218 155/132/96 156/237/96
f 204/255/136 216/264/134 215/180/134
f 215/180/144 216/264/144 228/257/142
f 251/209/162 239/200/161 240/258/161
f 251/209/171 252/259/171 264/260/168
f 239/200/152 227/190/153 228/257/153
