# Blender 4.2.3 LTS
# www.blender.org
o PaveSetting
v -0.137886 -0.000000 -0.485000
v -0.068943 0.068943 -0.485000
v -0.000000 -0.000000 -0.485000
v -0.068943 -0.068943 -0.485000
v 0.068943 -0.068943 -0.485000
v 0.000000 -0.137886 -0.485000
v 0.068943 0.068943 -0.485000
v 0.137886 -0.000000 -0.485000
v 0.000000 0.137886 -0.485000
v 0.193807 -0.021534 -0.485000
v 0.186787 -0.055997 -0.485000
v 0.172727 -0.090501 -0.485000
v 0.151386 -0.122911 -0.485000
v 0.194352 0.015889 -0.485000
v 0.150992 0.123395 -0.485000
v 0.172850 0.090265 -0.485000
v 0.187457 0.053710 -0.485000
v 0.122911 0.151386 -0.485000
v 0.090265 -0.172850 -0.485000
v 0.053710 -0.187457 -0.485000
v -0.021534 -0.193807 -0.485000
v 0.015889 -0.194352 -0.485000
v 0.123395 -0.150992 -0.485000
v -0.055997 -0.186787 -0.485000
v -0.090501 -0.172727 -0.485000
v -0.122911 -0.151386 -0.485000
v 0.090501 0.172727 -0.485000
v 0.021534 0.193807 -0.485000
v 0.055997 0.186787 -0.485000
v -0.090265 0.172850 -0.485000
v -0.015889 0.194352 -0.485000
v -0.053710 0.187457 -0.485000
v -0.123395 0.150992 -0.485000
v -0.151386 0.122911 -0.485000
v -0.172850 -0.090265 -0.485000
v -0.150992 -0.123395 -0.485000
v -0.187457 -0.053710 -0.485000
v -0.194352 -0.015890 -0.485000
v -0.186787 0.055997 -0.485000
v -0.172727 0.090501 -0.485000
v -0.193807 0.021534 -0.485000
v 0.194898 0.006295 -0.051667
v 0.194974 -0.003159 -0.051667
v 0.194974 -0.003159 -0.138333
v 0.194352 0.015889 -0.138333
v 0.194352 0.015889 -0.051667
v 0.194352 0.015889 -0.008333
v 0.194898 0.006295 -0.008333
v 0.194974 -0.003159 -0.008333
v 0.194602 -0.012444 -0.008333
v 0.194602 -0.012444 -0.051667
v 0.193807 -0.021534 -0.008333
v 0.193807 -0.021534 -0.051667
v 0.193807 -0.021534 -0.138333
v 0.189919 0.044223 -0.051667
v 0.191882 0.034734 -0.051667
v 0.191882 0.034734 -0.138333
v 0.187457 0.053710 -0.138333
v 0.187457 0.053710 -0.051667
v 0.187457 0.053710 -0.008333
v 0.189919 0.044223 -0.008333
v 0.191882 0.034734 -0.008333
v 0.193355 0.025277 -0.008333
v 0.193355 0.025277 -0.051667
v 0.177235 0.081319 -0.051667
v 0.181134 0.072219 -0.051667
v 0.181134 0.072219 -0.138333
v 0.172850 0.090265 -0.138333
v 0.172850 0.090265 -0.051667
v 0.172850 0.090265 -0.008333
v 0.177235 0.081319 -0.008333
v 0.181134 0.072219 -0.008333
v 0.184542 0.063003 -0.008333
v 0.184542 0.063003 -0.051667
v 0.157100 0.115518 -0.051667
v 0.162792 0.107349 -0.051667
v 0.162792 0.107349 -0.138333
v 0.150992 0.123395 -0.138333
v 0.150992 0.123395 -0.051667
v 0.150992 0.123395 -0.008333
v 0.157100 0.115518 -0.008333
v 0.162792 0.107349 -0.008333
v 0.168048 0.098919 -0.008333
v 0.168048 0.098919 -0.051667
v 0.130421 0.144967 -0.051667
v 0.137625 0.138146 -0.051667
v 0.137625 0.138146 -0.138333
v 0.122911 0.151386 -0.138333
v 0.122911 0.151386 -0.051667
v 0.122911 0.151386 -0.008333
v 0.130421 0.144967 -0.008333
v 0.137625 0.138146 -0.008333
v 0.144492 0.130947 -0.008333
v 0.144492 0.130947 -0.051667
v 0.098888 0.168066 -0.051667
v 0.107110 0.162949 -0.051667
v 0.107110 0.162949 -0.138333
v 0.090501 0.172727 -0.138333
v 0.090501 0.172727 -0.051667
v 0.090501 0.172727 -0.008333
v 0.098888 0.168066 -0.008333
v 0.107110 0.162949 -0.008333
v 0.115129 0.157385 -0.008333
v 0.115129 0.157385 -0.051667
v 0.064697 0.183955 -0.051667
v 0.073370 0.180670 -0.051667
v 0.073370 0.180670 -0.138333
v 0.055997 0.186787 -0.138333
v 0.055997 0.186787 -0.051667
v 0.055997 0.186787 -0.008333
v 0.064697 0.183955 -0.008333
v 0.073370 0.180670 -0.008333
v 0.081983 0.176929 -0.008333
v 0.081983 0.176929 -0.051667
v 0.030044 0.192672 -0.051667
v 0.038642 0.191133 -0.051667
v 0.038642 0.191133 -0.138333
v 0.021534 0.193807 -0.138333
v 0.021534 0.193807 -0.051667
v 0.021534 0.193807 -0.008333
v 0.030044 0.192672 -0.008333
v 0.038642 0.191133 -0.008333
v 0.047302 0.189176 -0.008333
v 0.047302 0.189176 -0.051667
v -0.006295 0.194898 -0.051667
v 0.003159 0.194974 -0.051667
v 0.003159 0.194974 -0.138333
v -0.015889 0.194352 -0.138333
v -0.015889 0.194352 -0.051667
v -0.015889 0.194352 -0.008333
v -0.006295 0.194898 -0.008333
v 0.003159 0.194974 -0.008333
v 0.012444 0.194602 -0.008333
v 0.012444 0.194602 -0.051667
v -0.044223 0.189919 -0.051667
v -0.034734 0.191882 -0.051667
v -0.034734 0.191882 -0.138333
v -0.053710 0.187457 -0.138333
v -0.053710 0.187457 -0.051667
v -0.053710 0.187457 -0.008333
v -0.044223 0.189919 -0.008333
v -0.034734 0.191882 -0.008333
v -0.025277 0.193355 -0.008333
v -0.025277 0.193355 -0.051667
v -0.081319 0.177235 -0.051667
v -0.072219 0.181134 -0.051667
v -0.072219 0.181134 -0.138333
v -0.090265 0.172850 -0.138333
v -0.090265 0.172850 -0.051667
v -0.090265 0.172850 -0.008333
v -0.081319 0.177235 -0.008333
v -0.072219 0.181134 -0.008333
v -0.063003 0.184542 -0.008333
v -0.063003 0.184542 -0.051667
v -0.115518 0.157100 -0.051667
v -0.107349 0.162792 -0.051667
v -0.107349 0.162792 -0.138333
v -0.123395 0.150992 -0.138333
v -0.123395 0.150992 -0.051667
v -0.123395 0.150992 -0.008333
v -0.115518 0.157100 -0.008333
v -0.107349 0.162792 -0.008333
v -0.098919 0.168048 -0.008333
v -0.098919 0.168048 -0.051667
v -0.144967 0.130421 -0.051667
v -0.138146 0.137625 -0.051667
v -0.138146 0.137625 -0.138333
v -0.151386 0.122911 -0.138333
v -0.151386 0.122911 -0.051667
v -0.151386 0.122911 -0.008333
v -0.144967 0.130421 -0.008333
v -0.138146 0.137625 -0.008333
v -0.130947 0.144492 -0.008333
v -0.130947 0.144492 -0.051667
v -0.168066 0.098888 -0.051667
v -0.162949 0.107110 -0.051667
v -0.162949 0.107110 -0.138333
v -0.172727 0.090501 -0.138333
v -0.172727 0.090501 -0.051667
v -0.172727 0.090501 -0.008333
v -0.168066 0.098888 -0.008333
v -0.162949 0.107110 -0.008333
v -0.157385 0.115129 -0.008333
v -0.157385 0.115129 -0.051667
v -0.183955 0.064697 -0.051667
v -0.180670 0.073370 -0.051667
v -0.180670 0.073370 -0.138333
v -0.186787 0.055997 -0.138333
v -0.186787 0.055997 -0.051667
v -0.186787 0.055997 -0.008333
v -0.183955 0.064697 -0.008333
v -0.180670 0.073370 -0.008333
v -0.176929 0.081983 -0.008333
v -0.176929 0.081983 -0.051667
v -0.193807 0.021534 -0.138333
v -0.193807 0.021534 -0.051667
v -0.191133 0.038642 -0.051667
v -0.191133 0.038642 -0.138333
v -0.191133 0.038642 -0.008333
v -0.189176 0.047302 -0.008333
v -0.189176 0.047302 -0.051667
v -0.194898 -0.006295 -0.051667
v -0.194974 0.003159 -0.051667
v -0.194974 0.003159 -0.138333
v -0.194352 -0.015890 -0.138333
v -0.194352 -0.015890 -0.051667
v -0.194352 -0.015890 -0.008333
v -0.194898 -0.006295 -0.008333
v -0.194974 0.003159 -0.008333
v -0.194602 0.012444 -0.008333
v -0.194602 0.012444 -0.051667
v -0.193807 0.021534 -0.008333
v -0.189919 -0.044223 -0.051667
v -0.191882 -0.034734 -0.051667
v -0.191882 -0.034734 -0.138333
v -0.187457 -0.053710 -0.138333
v -0.187457 -0.053710 -0.051667
v -0.187457 -0.053710 -0.008333
v -0.189919 -0.044223 -0.008333
v -0.191882 -0.034734 -0.008333
v -0.193355 -0.025277 -0.008333
v -0.193355 -0.025277 -0.051667
v -0.177235 -0.081319 -0.051667
v -0.181134 -0.072219 -0.051667
v -0.181134 -0.072219 -0.138333
v -0.172850 -0.090265 -0.138333
v -0.172850 -0.090265 -0.051667
v -0.172850 -0.090265 -0.008333
v -0.177235 -0.081319 -0.008333
v -0.181134 -0.072219 -0.008333
v -0.184541 -0.063003 -0.008333
v -0.184541 -0.063003 -0.051667
v -0.157100 -0.115518 -0.051667
v -0.162792 -0.107349 -0.051667
v -0.162792 -0.107349 -0.138333
v -0.150992 -0.123395 -0.138333
v -0.150992 -0.123395 -0.051667
v -0.150992 -0.123395 -0.008333
v -0.157100 -0.115518 -0.008333
v -0.162792 -0.107349 -0.008333
v -0.168048 -0.098919 -0.008333
v -0.168048 -0.098919 -0.051667
v -0.130421 -0.144967 -0.051667
v -0.137625 -0.138146 -0.051667
v -0.137625 -0.138146 -0.138333
v -0.122911 -0.151386 -0.138333
v -0.122911 -0.151386 -0.051667
v -0.122911 -0.151386 -0.008333
v -0.130421 -0.144967 -0.008333
v -0.137625 -0.138146 -0.008333
v -0.144492 -0.130947 -0.008333
v -0.144492 -0.130947 -0.051667
v -0.098888 -0.168066 -0.051667
v -0.107110 -0.162949 -0.051667
v -0.107110 -0.162949 -0.138333
v -0.090501 -0.172727 -0.138333
v -0.090501 -0.172727 -0.051667
v -0.090501 -0.172727 -0.008333
v -0.098888 -0.168066 -0.008333
v -0.107110 -0.162949 -0.008333
v -0.115129 -0.157386 -0.008333
v -0.115129 -0.157386 -0.051667
v -0.064697 -0.183955 -0.051667
v -0.073370 -0.180671 -0.051667
v -0.073370 -0.180671 -0.138333
v -0.055997 -0.186787 -0.138333
v -0.055997 -0.186787 -0.051667
v -0.055997 -0.186787 -0.008333
v -0.064697 -0.183955 -0.008333
v -0.073370 -0.180671 -0.008333
v -0.081983 -0.176929 -0.008333
v -0.081983 -0.176929 -0.051667
v -0.030044 -0.192672 -0.051667
v -0.038642 -0.191133 -0.051667
v -0.038642 -0.191133 -0.138333
v -0.021534 -0.193807 -0.138333
v -0.021534 -0.193807 -0.051667
v -0.021534 -0.193807 -0.008333
v -0.030044 -0.192672 -0.008333
v -0.038642 -0.191133 -0.008333
v -0.047302 -0.189176 -0.008333
v -0.047302 -0.189176 -0.051667
v 0.006295 -0.194898 -0.051667
v -0.003159 -0.194974 -0.051667
v -0.003159 -0.194974 -0.138333
v 0.015889 -0.194352 -0.138333
v 0.015889 -0.194352 -0.051667
v 0.015889 -0.194352 -0.008333
v 0.006295 -0.194898 -0.008333
v -0.003159 -0.194974 -0.008333
v -0.012444 -0.194602 -0.008333
v -0.012444 -0.194602 -0.051667
v 0.044223 -0.189919 -0.051667
v 0.034734 -0.191882 -0.051667
v 0.034734 -0.191882 -0.138333
v 0.053710 -0.187457 -0.138333
v 0.053710 -0.187457 -0.051667
v 0.053710 -0.187457 -0.008333
v 0.044223 -0.189919 -0.008333
v 0.034734 -0.191882 -0.008333
v 0.025278 -0.193355 -0.008333
v 0.025278 -0.193355 -0.051667
v 0.081319 -0.177235 -0.051667
v 0.072219 -0.181134 -0.051667
v 0.072219 -0.181134 -0.138333
v 0.090265 -0.172850 -0.138333
v 0.090265 -0.172850 -0.051667
v 0.090265 -0.172850 -0.008333
v 0.081319 -0.177235 -0.008333
v 0.072219 -0.181134 -0.008333
v 0.063003 -0.184542 -0.008333
v 0.063003 -0.184542 -0.051667
v 0.115518 -0.157100 -0.051667
v 0.107349 -0.162792 -0.051667
v 0.107349 -0.162792 -0.138333
v 0.123395 -0.150992 -0.138333
v 0.123395 -0.150992 -0.051667
v 0.123395 -0.150992 -0.008333
v 0.115518 -0.157100 -0.008333
v 0.107349 -0.162792 -0.008333
v 0.098919 -0.168048 -0.008333
v 0.098919 -0.168048 -0.051667
v 0.144967 -0.130421 -0.051667
v 0.138146 -0.137625 -0.051667
v 0.138146 -0.137625 -0.138333
v 0.151386 -0.122911 -0.138333
v 0.151386 -0.122911 -0.051667
v 0.151386 -0.122911 -0.008333
v 0.144967 -0.130421 -0.008333
v 0.138146 -0.137625 -0.008333
v 0.130947 -0.144492 -0.008333
v 0.130947 -0.144492 -0.051667
v 0.168066 -0.098888 -0.051667
v 0.162949 -0.107110 -0.051667
v 0.162949 -0.107110 -0.138333
v 0.172727 -0.090501 -0.138333
v 0.172727 -0.090501 -0.051667
v 0.172727 -0.090501 -0.008333
v 0.168066 -0.098888 -0.008333
v 0.162949 -0.107110 -0.008333
v 0.157386 -0.115130 -0.008333
v 0.157386 -0.115130 -0.051667
v 0.183955 -0.064697 -0.051667
v 0.180670 -0.073370 -0.051667
v 0.180670 -0.073370 -0.138333
v 0.186787 -0.055997 -0.138333
v 0.186787 -0.055997 -0.051667
v 0.186787 -0.055997 -0.008333
v 0.183955 -0.064697 -0.008333
v 0.180670 -0.073370 -0.008333
v 0.176929 -0.081983 -0.008333
v 0.176929 -0.081983 -0.051667
v 0.192672 -0.030044 -0.051667
v 0.191133 -0.038642 -0.051667
v 0.191133 -0.038642 -0.138333
v 0.192672 -0.030044 -0.008333
v 0.191133 -0.038642 -0.008333
v 0.189176 -0.047302 -0.008333
v 0.189176 -0.047302 -0.051667
v 0.194974 -0.003159 -0.311667
v 0.194352 0.015889 -0.311667
v 0.193807 -0.021534 -0.311667
v 0.191882 0.034734 -0.311667
v 0.187457 0.053710 -0.311667
v 0.181134 0.072219 -0.311667
v 0.172850 0.090265 -0.311667
v 0.150992 0.123395 -0.311667
v 0.137625 0.138146 -0.311667
v 0.122911 0.151386 -0.311667
v 0.107110 0.162949 -0.311667
v 0.090501 0.172727 -0.311667
v 0.073370 0.180670 -0.311667
v 0.055997 0.186787 -0.311667
v 0.038642 0.191133 -0.311667
v 0.021534 0.193807 -0.311667
v 0.003159 0.194974 -0.311667
v -0.015889 0.194352 -0.311667
v -0.034734 0.191882 -0.311667
v -0.053710 0.187457 -0.311667
v -0.072219 0.181134 -0.311667
v -0.090265 0.172850 -0.311667
v -0.123395 0.150992 -0.311667
v -0.138146 0.137625 -0.311667
v -0.151386 0.122911 -0.311667
v -0.162949 0.107110 -0.311667
v -0.172727 0.090501 -0.311667
v -0.180670 0.073370 -0.311667
v -0.186787 0.055997 -0.311667
v -0.191133 0.038642 -0.311667
v -0.193807 0.021534 -0.311667
v -0.194974 0.003159 -0.311667
v -0.194352 -0.015890 -0.311667
v -0.191882 -0.034734 -0.311667
v -0.187457 -0.053710 -0.311667
v -0.181134 -0.072219 -0.311667
v -0.172850 -0.090265 -0.311667
v -0.150992 -0.123395 -0.311667
v -0.137625 -0.138146 -0.311667
v -0.122911 -0.151386 -0.311667
v -0.107110 -0.162949 -0.311667
v -0.090501 -0.172727 -0.311667
v -0.073370 -0.180671 -0.311667
v -0.055997 -0.186787 -0.311667
v -0.038642 -0.191133 -0.311667
v -0.021534 -0.193807 -0.311667
v -0.003159 -0.194974 -0.311667
v 0.015889 -0.194352 -0.311667
v 0.034734 -0.191882 -0.311667
v 0.053710 -0.187457 -0.311667
v 0.072219 -0.181134 -0.311667
v 0.090265 -0.172850 -0.311667
v 0.123395 -0.150992 -0.311667
v 0.138146 -0.137625 -0.311667
v 0.151386 -0.122911 -0.311667
v 0.162949 -0.107110 -0.311667
v 0.172727 -0.090501 -0.311667
v 0.180670 -0.073370 -0.311667
v 0.186787 -0.055997 -0.311667
v 0.191133 -0.038642 -0.311667
v 0.194352 0.015889 -0.398333
v 0.194974 -0.003159 -0.398333
v 0.193807 -0.021534 -0.398333
v 0.187457 0.053710 -0.398333
v 0.191882 0.034734 -0.398333
v 0.172850 0.090265 -0.398333
v 0.181134 0.072219 -0.398333
v 0.122911 0.151386 -0.398333
v 0.137625 0.138146 -0.398333
v 0.150992 0.123395 -0.398333
v 0.090501 0.172727 -0.398333
v 0.107110 0.162949 -0.398333
v 0.055997 0.186787 -0.398333
v 0.073370 0.180670 -0.398333
v 0.021534 0.193807 -0.398333
v 0.038642 0.191133 -0.398333
v -0.015889 0.194352 -0.398333
v 0.003159 0.194974 -0.398333
v -0.053710 0.187457 -0.398333
v -0.034734 0.191882 -0.398333
v -0.090265 0.172850 -0.398333
v -0.072219 0.181134 -0.398333
v -0.151386 0.122911 -0.398333
v -0.138146 0.137625 -0.398333
v -0.123395 0.150992 -0.398333
v -0.172727 0.090501 -0.398333
v -0.162949 0.107110 -0.398333
v -0.186787 0.055997 -0.398333
v -0.180670 0.073370 -0.398333
v -0.193807 0.021534 -0.398333
v -0.191133 0.038642 -0.398333
v -0.194352 -0.015890 -0.398333
v -0.194974 0.003159 -0.398333
v -0.187457 -0.053710 -0.398333
v -0.191882 -0.034734 -0.398333
v -0.172850 -0.090265 -0.398333
v -0.181134 -0.072219 -0.398333
v -0.122911 -0.151386 -0.398333
v -0.137625 -0.138146 -0.398333
v -0.150992 -0.123395 -0.398333
v -0.090501 -0.172727 -0.398333
v -0.107110 -0.162949 -0.398333
v -0.055997 -0.186787 -0.398333
v -0.073370 -0.180671 -0.398333
v -0.021534 -0.193807 -0.398333
v -0.038642 -0.191133 -0.398333
v 0.015889 -0.194352 -0.398333
v -0.003159 -0.194974 -0.398333
v 0.053710 -0.187457 -0.398333
v 0.034734 -0.191882 -0.398333
v 0.090265 -0.172850 -0.398333
v 0.072219 -0.181134 -0.398333
v 0.151386 -0.122911 -0.398333
v 0.138146 -0.137625 -0.398333
v 0.123395 -0.150992 -0.398333
v 0.172727 -0.090501 -0.398333
v 0.162949 -0.107110 -0.398333
v 0.186787 -0.055997 -0.398333
v 0.180670 -0.073370 -0.398333
v 0.191133 -0.038642 -0.398333
v 0.194958 -0.004033 0.035000
v 0.193807 -0.021534 0.035000
v 0.192251 0.032625 0.035000
v 0.194490 0.014091 0.035000
v 0.182046 0.069886 0.035000
v 0.188126 0.051317 0.035000
v 0.174000 0.088029 0.035000
v 0.164036 0.105438 0.035000
v 0.138875 0.136890 0.035000
v 0.152269 0.121816 0.035000
v 0.108143 0.162265 0.035000
v 0.124077 0.150432 0.035000
v 0.074031 0.180401 0.035000
v 0.091362 0.172273 0.035000
v 0.056440 0.186653 0.035000
v 0.021534 0.193807 0.035000
v 0.038862 0.191088 0.035000
v -0.014091 0.194490 0.035000
v 0.004033 0.194958 0.035000
v -0.032625 0.192251 0.035000
v -0.069886 0.182046 0.035000
v -0.051317 0.188126 0.035000
v -0.105438 0.164036 0.035000
v -0.088029 0.174000 0.035000
v -0.121816 0.152269 0.035000
v -0.150432 0.124077 0.035000
v -0.136890 0.138874 0.035000
v -0.172273 0.091362 0.035000
v -0.162265 0.108143 0.035000
v -0.186653 0.056440 0.035000
v -0.180401 0.074031 0.035000
v -0.193807 0.021534 0.035000
v -0.191088 0.038861 0.035000
v -0.194958 0.004033 0.035000
v -0.192251 -0.032625 0.035000
v -0.194490 -0.014091 0.035000
v -0.182046 -0.069886 0.035000
v -0.188126 -0.051317 0.035000
v -0.164036 -0.105438 0.035000
v -0.174000 -0.088029 0.035000
v -0.138874 -0.136890 0.035000
v -0.152269 -0.121816 0.035000
v -0.124077 -0.150432 0.035000
v -0.091362 -0.172273 0.035000
v -0.108143 -0.162265 0.035000
v -0.056440 -0.186653 0.035000
v -0.074031 -0.180401 0.035000
v -0.021534 -0.193807 0.035000
v -0.038861 -0.191088 0.035000
v 0.014091 -0.194490 0.035000
v -0.004033 -0.194958 0.035000
v 0.032625 -0.192251 0.035000
v 0.069886 -0.182046 0.035000
v 0.051317 -0.188126 0.035000
v 0.105438 -0.164036 0.035000
v 0.088029 -0.174000 0.035000
v 0.121816 -0.152269 0.035000
v 0.150432 -0.124077 0.035000
v 0.136890 -0.138875 0.035000
v 0.172273 -0.091362 0.035000
v 0.162265 -0.108143 0.035000
v 0.180401 -0.074031 0.035000
v 0.191088 -0.038862 0.035000
v 0.186653 -0.056440 0.035000
v 0.152766 -0.047740 0.080660
v 0.177416 -0.055444 0.063819
v 0.184741 -0.020527 0.063819
v 0.159073 -0.017675 0.080660
v 0.140432 -0.076783 0.080660
v 0.163091 -0.089173 0.063819
v 0.122149 -0.103423 0.080660
v 0.141859 -0.120111 0.063819
v 0.098677 -0.126014 0.080660
v 0.114599 -0.146348 0.063819
v 0.071147 -0.143369 0.080660
v 0.082627 -0.166503 0.063819
v 0.041349 -0.154619 0.080660
v 0.048021 -0.179568 0.063819
v 0.011187 -0.159661 0.080660
v 0.012992 -0.185423 0.063819
v -0.017675 -0.159073 0.080660
v -0.020527 -0.184741 0.063819
v -0.047740 -0.152766 0.080660
v -0.055444 -0.177416 0.063819
v -0.076783 -0.140432 0.080660
v -0.089173 -0.163091 0.063819
v -0.103423 -0.122149 0.080660
v -0.120111 -0.141858 0.063819
v -0.126014 -0.098677 0.080660
v -0.146348 -0.114599 0.063819
v -0.143369 -0.071147 0.080660
v -0.166503 -0.082627 0.063819
v -0.154619 -0.041349 0.080660
v -0.179568 -0.048021 0.063819
v -0.159661 -0.011187 0.080660
v -0.185423 -0.012992 0.063819
v -0.159073 0.017675 0.080660
v -0.184741 0.020527 0.063819
v -0.152766 0.047740 0.080660
v -0.177416 0.055443 0.063819
v -0.140431 0.076783 0.080660
v -0.163091 0.089173 0.063819
v -0.122149 0.103423 0.080660
v -0.141858 0.120111 0.063819
v -0.098677 0.126014 0.080660
v -0.114599 0.146348 0.063819
v -0.071147 0.143369 0.080660
v -0.082627 0.166503 0.063819
v -0.041349 0.154619 0.080660
v -0.048021 0.179568 0.063819
v -0.011187 0.159661 0.080660
v -0.012992 0.185423 0.063819
v 0.017675 0.159073 0.080660
v 0.020527 0.184741 0.063819
v 0.047740 0.152766 0.080660
v 0.055444 0.177416 0.063819
v 0.076783 0.140431 0.080660
v 0.089173 0.163091 0.063819
v 0.103423 0.122149 0.080660
v 0.120111 0.141858 0.063819
v 0.126014 0.098677 0.080660
v 0.146348 0.114599 0.063819
v 0.143369 0.071147 0.080660
v 0.166503 0.082627 0.063819
v 0.154619 0.041349 0.080660
v 0.179568 0.048021 0.063819
v 0.159661 0.011187 0.080660
v 0.185423 0.012992 0.063819
v 0.124715 -0.038974 0.089505
v 0.129863 -0.014429 0.089505
v 0.114645 -0.062684 0.089505
v 0.099719 -0.084432 0.089505
v 0.080557 -0.102875 0.089505
v 0.058083 -0.117043 0.089505
v 0.033756 -0.126227 0.089505
v 0.009133 -0.130343 0.089505
v -0.014429 -0.129863 0.089505
v -0.038974 -0.124715 0.089505
v -0.062684 -0.114645 0.089505
v -0.084432 -0.099719 0.089505
v -0.102875 -0.080557 0.089505
v -0.117043 -0.058083 0.089505
v -0.126227 -0.033756 0.089505
v -0.130343 -0.009133 0.089505
v -0.129863 0.014429 0.089505
v -0.124715 0.038974 0.089505
v -0.114645 0.062684 0.089505
v -0.099719 0.084432 0.089505
v -0.080557 0.102875 0.089505
v -0.058083 0.117043 0.089505
v -0.033756 0.126227 0.089505
v -0.009133 0.130343 0.089505
v 0.014429 0.129863 0.089505
v 0.038974 0.124715 0.089505
v 0.062684 0.114645 0.089505
v 0.084432 0.099719 0.089505
v 0.102875 0.080557 0.089505
v 0.117043 0.058083 0.089505
v 0.126227 0.033756 0.089505
v 0.130343 0.009133 0.089505
v 0.094876 -0.029649 0.094800
v 0.098793 -0.010977 0.094800
v 0.087215 -0.047686 0.094800
v 0.075861 -0.064231 0.094800
v 0.061283 -0.078261 0.094800
v 0.044186 -0.089040 0.094800
v 0.025680 -0.096026 0.094800
v 0.006948 -0.099157 0.094800
v -0.010977 -0.098793 0.094800
v -0.029649 -0.094876 0.094800
v -0.047686 -0.087215 0.094800
v -0.064231 -0.075861 0.094800
v -0.078261 -0.061283 0.094800
v -0.089040 -0.044186 0.094800
v -0.096026 -0.025680 0.094800
v -0.099157 -0.006948 0.094800
v -0.098793 0.010977 0.094800
v -0.094876 0.029649 0.094800
v -0.087215 0.047686 0.094800
v -0.075861 0.064231 0.094800
v -0.061283 0.078261 0.094800
v -0.044186 0.089040 0.094800
v -0.025680 0.096026 0.094800
v -0.006948 0.099157 0.094800
v 0.010977 0.098792 0.094800
v 0.029649 0.094876 0.094800
v 0.047686 0.087215 0.094800
v 0.064231 0.075861 0.094800
v 0.078261 0.061283 0.094800
v 0.089040 0.044186 0.094800
v 0.096026 0.025680 0.094800
v 0.099157 0.006948 0.094800
v 0.064803 -0.020251 0.097855
v 0.067478 -0.007498 0.097855
v 0.059571 -0.032571 0.097855
v 0.051815 -0.043872 0.097855
v 0.041858 -0.053455 0.097855
v 0.030180 -0.060817 0.097855
v 0.017540 -0.065589 0.097855
v 0.004745 -0.067728 0.097855
v -0.007498 -0.067478 0.097855
v -0.020251 -0.064803 0.097855
v -0.032571 -0.059571 0.097855
v -0.043872 -0.051815 0.097855
v -0.053455 -0.041858 0.097855
v -0.060817 -0.030180 0.097855
v -0.065589 -0.017540 0.097855
v -0.067728 -0.004745 0.097855
v -0.067478 0.007498 0.097855
v -0.064803 0.020251 0.097855
v -0.059571 0.032571 0.097855
v -0.051815 0.043872 0.097855
v -0.041858 0.053455 0.097855
v -0.030180 0.060817 0.097855
v -0.017540 0.065589 0.097855
v -0.004745 0.067727 0.097855
v 0.007498 0.067478 0.097855
v 0.020251 0.064803 0.097855
v 0.032571 0.059571 0.097855
v 0.043872 0.051815 0.097855
v 0.053455 0.041858 0.097855
v 0.060817 0.030180 0.097855
v 0.065589 0.017540 0.097855
v 0.067728 0.004745 0.097855
v 0.034705 -0.010845 0.099445
v 0.036138 -0.004015 0.099445
v 0.031903 -0.017443 0.099445
v 0.027749 -0.023495 0.099445
v 0.022417 -0.028627 0.099445
v 0.016163 -0.032570 0.099445
v 0.009393 -0.035126 0.099445
v 0.002541 -0.036271 0.099445
v -0.004015 -0.036138 0.099445
v -0.010845 -0.034705 0.099445
v -0.017443 -0.031903 0.099445
v -0.023495 -0.027749 0.099445
v -0.028627 -0.022417 0.099445
v -0.032570 -0.016163 0.099445
v -0.035126 -0.009394 0.099445
v -0.036271 -0.002541 0.099445
v -0.036138 0.004015 0.099445
v -0.034705 0.010845 0.099445
v -0.031903 0.017443 0.099445
v -0.027749 0.023495 0.099445
v -0.022417 0.028627 0.099445
v -0.016163 0.032570 0.099445
v -0.009393 0.035126 0.099445
v -0.002541 0.036271 0.099445
v 0.004015 0.036138 0.099445
v 0.010845 0.034705 0.099445
v 0.017443 0.031903 0.099445
v 0.023495 0.027749 0.099445
v 0.028627 0.022417 0.099445
v 0.032570 0.016163 0.099445
v 0.035126 0.009393 0.099445
v 0.036271 0.002541 0.099445
v -0.000000 -0.000000 0.100000
v 0.185556 -0.057987 0.045595
v 0.170598 -0.093277 0.045409
v 0.148403 -0.125652 0.045280
v 0.119886 -0.153099 0.045280
v 0.086439 -0.174184 0.045280
v 0.050236 -0.187851 0.045280
v 0.013591 -0.193977 0.045280
v -0.057987 -0.185556 0.045595
v -0.093277 -0.170598 0.045409
v -0.125652 -0.148403 0.045280
v -0.153099 -0.119885 0.045280
v -0.174184 -0.086439 0.045280
v -0.187851 -0.050236 0.045280
v -0.193977 -0.013591 0.045280
v -0.185556 0.057987 0.045595
v -0.170598 0.093277 0.045409
v -0.148403 0.125652 0.045280
v -0.119886 0.153099 0.045280
v -0.086439 0.174184 0.045280
v -0.050236 0.187851 0.045280
v -0.013591 0.193977 0.045280
v 0.057987 0.185556 0.045595
v 0.093277 0.170598 0.045409
v 0.125652 0.148403 0.045280
v 0.153099 0.119885 0.045280
v 0.174184 0.086439 0.045280
v 0.187851 0.050236 0.045280
v 0.193977 0.013591 0.045280
vn -0.0000 -0.0000 -1.0000
vn 0.7198 -0.0781 -0.6898
vn 0.6930 -0.2095 -0.6899
vn 0.6413 -0.3374 -0.6891
vn 0.5625 -0.4575 -0.6887
vn 0.7221 0.0599 -0.6892
vn 0.5646 0.4579 -0.6867
vn 0.6429 0.3390 -0.6868
vn 0.6967 0.2004 -0.6888
vn 0.4575 0.5625 -0.6887
vn 0.3390 -0.6429 -0.6868
vn 0.2004 -0.6967 -0.6888
vn -0.0781 -0.7198 -0.6898
vn 0.0599 -0.7221 -0.6892
vn 0.4579 -0.5646 -0.6867
vn -0.2095 -0.6930 -0.6899
vn -0.3374 -0.6413 -0.6891
vn -0.4575 -0.5625 -0.6887
vn 0.3374 0.6413 -0.6891
vn 0.0781 0.7198 -0.6898
vn 0.2095 0.6930 -0.6899
vn -0.3390 0.6429 -0.6868
vn -0.0599 0.7221 -0.6892
vn -0.2004 0.6967 -0.6888
vn -0.4579 0.5646 -0.6867
vn -0.5625 0.4575 -0.6887
vn -0.6429 -0.3390 -0.6868
vn -0.5646 -0.4579 -0.6867
vn -0.6967 -0.2004 -0.6888
vn -0.7221 -0.0599 -0.6892
vn -0.6930 0.2095 -0.6899
vn -0.6413 0.3374 -0.6891
vn -0.7198 0.0781 -0.6898
vn 0.9995 0.0325 -0.0001
vn 0.9999 -0.0160 -0.0000
vn 0.9999 -0.0154 -0.0012
vn 0.9967 0.0814 -0.0012
vn 0.9967 0.0813 -0.0000
vn 0.9966 0.0825 0.0013
vn 0.9995 0.0323 0.0002
vn 0.9999 -0.0158 -0.0000
vn 0.9979 -0.0650 0.0024
vn 0.9980 -0.0636 -0.0001
vn 0.9941 -0.1084 0.0016
vn 0.9940 -0.1097 -0.0000
vn 0.9940 -0.1091 -0.0011
vn 0.9739 0.2269 -0.0001
vn 0.9840 0.1783 -0.0000
vn 0.9839 0.1787 -0.0013
vn 0.9613 0.2755 -0.0013
vn 0.9613 0.2754 -0.0000
vn 0.9610 0.2766 0.0013
vn 0.9742 0.2256 0.0018
vn 0.9838 0.1795 0.0013
vn 0.9917 0.1285 0.0018
vn 0.9915 0.1298 -0.0001
vn 0.9089 0.4171 -0.0001
vn 0.9289 0.3704 -0.0000
vn 0.9288 0.3707 -0.0013
vn 0.8864 0.4629 -0.0014
vn 0.8865 0.4628 -0.0000
vn 0.8858 0.4641 0.0014
vn 0.9091 0.4167 0.0005
vn 0.9287 0.3709 0.0002
vn 0.9468 0.3219 0.0018
vn 0.9463 0.3232 -0.0001
vn 0.8056 0.5924 -0.0001
vn 0.8348 0.5505 -0.0000
vn 0.8348 0.5506 -0.0016
vn 0.7743 0.6328 -0.0014
vn 0.7743 0.6328 -0.0000
vn 0.7734 0.6339 0.0016
vn 0.8065 0.5912 0.0021
vn 0.8340 0.5517 0.0015
vn 0.8625 0.5061 0.0020
vn 0.8618 0.5073 -0.0001
vn 0.6689 0.7434 -0.0001
vn 0.7058 0.7084 -0.0000
vn 0.7059 0.7083 -0.0014
vn 0.6305 0.7762 -0.0013
vn 0.6304 0.7763 -0.0000
vn 0.6292 0.7773 0.0017
vn 0.6700 0.7423 0.0024
vn 0.7047 0.7095 0.0016
vn 0.7420 0.6704 0.0023
vn 0.7410 0.6715 -0.0001
vn 0.5072 0.8618 -0.0001
vn 0.5494 0.8356 -0.0000
vn 0.5496 0.8354 -0.0013
vn 0.4645 0.8856 -0.0013
vn 0.4642 0.8857 -0.0000
vn 0.4629 0.8864 0.0017
vn 0.5085 0.8610 0.0025
vn 0.5481 0.8364 0.0017
vn 0.5917 0.8061 0.0025
vn 0.5905 0.8071 -0.0001
vn 0.3319 0.9433 -0.0001
vn 0.3764 0.9265 -0.0000
vn 0.3768 0.9263 -0.0012
vn 0.2878 0.9577 -0.0011
vn 0.2873 0.9578 -0.0000
vn 0.2860 0.9582 0.0017
vn 0.3333 0.9428 0.0025
vn 0.3750 0.9270 0.0017
vn 0.4219 0.9066 0.0025
vn 0.4206 0.9073 -0.0001
vn 0.1543 0.9880 -0.0001
vn 0.1983 0.9801 -0.0000
vn 0.1989 0.9800 -0.0011
vn 0.1091 0.9940 -0.0011
vn 0.1097 0.9940 -0.0000
vn 0.1084 0.9941 0.0017
vn 0.1556 0.9878 0.0025
vn 0.1970 0.9804 0.0017
vn 0.2441 0.9697 0.0025
vn 0.2427 0.9701 -0.0001
vn -0.0325 0.9995 -0.0001
vn 0.0160 0.9999 -0.0000
vn 0.0154 0.9999 -0.0012
vn -0.0814 0.9967 -0.0012
vn -0.0813 0.9967 -0.0000
vn -0.0825 0.9966 0.0013
vn -0.0311 0.9995 0.0020
vn 0.0147 0.9999 0.0015
vn 0.0650 0.9979 0.0024
vn 0.0636 0.9980 -0.0001
vn -0.2269 0.9739 -0.0001
vn -0.1783 0.9840 -0.0000
vn -0.1787 0.9839 -0.0013
vn -0.2755 0.9613 -0.0013
vn -0.2754 0.9613 -0.0000
vn -0.2766 0.9610 0.0013
vn -0.2256 0.9742 0.0018
vn -0.1795 0.9838 0.0013
vn -0.1285 0.9917 0.0018
vn -0.1298 0.9915 -0.0001
vn -0.4171 0.9089 -0.0001
vn -0.3704 0.9289 -0.0000
vn -0.3707 0.9288 -0.0013
vn -0.4629 0.8864 -0.0014
vn -0.4628 0.8865 -0.0000
vn -0.4641 0.8858 0.0014
vn -0.4158 0.9094 0.0019
vn -0.3717 0.9284 0.0014
vn -0.3219 0.9468 0.0018
vn -0.3232 0.9463 -0.0001
vn -0.5924 0.8056 -0.0001
vn -0.5505 0.8348 -0.0000
vn -0.5506 0.8348 -0.0016
vn -0.6328 0.7743 -0.0014
vn -0.6328 0.7743 -0.0000
vn -0.6331 0.7741 0.0001
vn -0.5912 0.8065 0.0021
vn -0.5517 0.8340 0.0015
vn -0.5061 0.8625 0.0020
vn -0.5073 0.8618 -0.0001
vn -0.7434 0.6689 -0.0001
vn -0.7084 0.7058 -0.0000
vn -0.7083 0.7059 -0.0014
vn -0.7762 0.6305 -0.0013
vn -0.7763 0.6304 -0.0000
vn -0.7773 0.6292 0.0017
vn -0.7424 0.6700 0.0024
vn -0.7095 0.7047 0.0016
vn -0.6712 0.7412 0.0005
vn -0.6715 0.7410 -0.0001
vn -0.8618 0.5072 -0.0001
vn -0.8356 0.5494 -0.0000
vn -0.8354 0.5496 -0.0013
vn -0.8856 0.4645 -0.0013
vn -0.8857 0.4642 -0.0000
vn -0.8864 0.4629 0.0017
vn -0.8610 0.5085 0.0025
vn -0.8364 0.5481 0.0017
vn -0.8061 0.5917 0.0025
vn -0.8071 0.5905 -0.0001
vn -0.9433 0.3319 -0.0001
vn -0.9265 0.3764 -0.0000
vn -0.9263 0.3768 -0.0012
vn -0.9577 0.2878 -0.0011
vn -0.9578 0.2873 -0.0000
vn -0.9582 0.2860 0.0017
vn -0.9428 0.3333 0.0025
vn -0.9270 0.3750 0.0017
vn -0.9066 0.4219 0.0025
vn -0.9073 0.4206 -0.0001
vn -0.9940 0.1094 -0.0006
vn -0.9927 0.1209 -0.0000
vn -0.9823 0.1875 -0.0000
vn -0.9801 0.1985 -0.0006
vn -0.9697 0.2441 0.0025
vn -0.9701 0.2427 -0.0001
vn -0.9995 -0.0325 -0.0001
vn -0.9999 0.0160 -0.0000
vn -0.9999 0.0154 -0.0012
vn -0.9967 -0.0814 -0.0012
vn -0.9967 -0.0813 -0.0000
vn -0.9966 -0.0825 0.0013
vn -0.9995 -0.0311 0.0020
vn -0.9999 0.0147 0.0015
vn -0.9979 0.0650 0.0024
vn -0.9980 0.0636 -0.0001
vn -0.9928 0.1196 0.0017
vn -0.9739 -0.2269 -0.0001
vn -0.9840 -0.1783 -0.0000
vn -0.9839 -0.1787 -0.0013
vn -0.9613 -0.2755 -0.0013
vn -0.9613 -0.2754 -0.0000
vn -0.9610 -0.2766 0.0013
vn -0.9742 -0.2256 0.0018
vn -0.9838 -0.1795 0.0013
vn -0.9917 -0.1285 0.0018
vn -0.9915 -0.1298 -0.0001
vn -0.9089 -0.4171 -0.0001
vn -0.9289 -0.3704 -0.0000
vn -0.9288 -0.3707 -0.0013
vn -0.8864 -0.4629 -0.0014
vn -0.8865 -0.4628 -0.0000
vn -0.8858 -0.4641 0.0014
vn -0.9094 -0.4158 0.0019
vn -0.9284 -0.3717 0.0014
vn -0.9468 -0.3219 0.0018
vn -0.9463 -0.3232 -0.0001
vn -0.8056 -0.5924 -0.0001
vn -0.8348 -0.5505 -0.0000
vn -0.8348 -0.5506 -0.0016
vn -0.7743 -0.6328 -0.0014
vn -0.7743 -0.6328 -0.0000
vn -0.7734 -0.6339 0.0016
vn -0.8065 -0.5912 0.0021
vn -0.8340 -0.5517 0.0015
vn -0.8625 -0.5061 0.0020
vn -0.8618 -0.5073 -0.0001
vn -0.6689 -0.7434 -0.0001
vn -0.7058 -0.7084 -0.0000
vn -0.7059 -0.7083 -0.0014
vn -0.6305 -0.7762 -0.0013
vn -0.6304 -0.7763 -0.0000
vn -0.6292 -0.7773 0.0017
vn -0.6700 -0.7423 0.0024
vn -0.7047 -0.7095 0.0016
vn -0.7420 -0.6704 0.0023
vn -0.7410 -0.6715 -0.0001
vn -0.5072 -0.8618 -0.0001
vn -0.5494 -0.8356 -0.0000
vn -0.5496 -0.8354 -0.0013
vn -0.4645 -0.8856 -0.0013
vn -0.4642 -0.8857 -0.0000
vn -0.4629 -0.8864 0.0017
vn -0.5085 -0.8610 0.0025
vn -0.5481 -0.8364 0.0017
vn -0.5917 -0.8061 0.0025
vn -0.5905 -0.8071 -0.0001
vn -0.3319 -0.9433 -0.0001
vn -0.3764 -0.9265 -0.0000
vn -0.3768 -0.9263 -0.0012
vn -0.2878 -0.9577 -0.0011
vn -0.2873 -0.9578 -0.0000
vn -0.2860 -0.9582 0.0017
vn -0.3333 -0.9428 0.0025
vn -0.3750 -0.9270 0.0017
vn -0.4219 -0.9066 0.0025
vn -0.4206 -0.9073 -0.0001
vn -0.1543 -0.9880 -0.0001
vn -0.1983 -0.9801 -0.0000
vn -0.1989 -0.9800 -0.0011
vn -0.1091 -0.9940 -0.0011
vn -0.1097 -0.9940 -0.0000
vn -0.1084 -0.9941 0.0017
vn -0.1556 -0.9878 0.0025
vn -0.1970 -0.9804 0.0017
vn -0.2441 -0.9697 0.0025
vn -0.2427 -0.9701 -0.0001
vn 0.0325 -0.9995 -0.0001
vn -0.0160 -0.9999 -0.0000
vn -0.0154 -0.9999 -0.0012
vn 0.0814 -0.9967 -0.0012
vn 0.0813 -0.9967 -0.0000
vn 0.0825 -0.9966 0.0013
vn 0.0311 -0.9995 0.0020
vn -0.0147 -0.9999 0.0015
vn -0.0650 -0.9979 0.0024
vn -0.0636 -0.9980 -0.0001
vn 0.2269 -0.9739 -0.0001
vn 0.1783 -0.9840 -0.0000
vn 0.1787 -0.9839 -0.0013
vn 0.2755 -0.9613 -0.0013
vn 0.2754 -0.9613 -0.0000
vn 0.2766 -0.9610 0.0013
vn 0.2256 -0.9742 0.0018
vn 0.1795 -0.9838 0.0013
vn 0.1285 -0.9917 0.0018
vn 0.1298 -0.9915 -0.0001
vn 0.4171 -0.9089 -0.0001
vn 0.3704 -0.9289 -0.0000
vn 0.3707 -0.9288 -0.0013
vn 0.4629 -0.8864 -0.0014
vn 0.4628 -0.8865 -0.0000
vn 0.4641 -0.8858 0.0014
vn 0.4158 -0.9094 0.0019
vn 0.3717 -0.9284 0.0014
vn 0.3219 -0.9468 0.0018
vn 0.3232 -0.9463 -0.0001
vn 0.5924 -0.8056 -0.0001
vn 0.5505 -0.8348 -0.0000
vn 0.5506 -0.8348 -0.0016
vn 0.6328 -0.7743 -0.0014
vn 0.6328 -0.7743 -0.0000
vn 0.6339 -0.7734 0.0016
vn 0.5912 -0.8065 0.0021
vn 0.5517 -0.8340 0.0015
vn 0.5061 -0.8625 0.0020
vn 0.5073 -0.8618 -0.0001
vn 0.7434 -0.6689 -0.0001
vn 0.7084 -0.7058 -0.0000
vn 0.7083 -0.7059 -0.0014
vn 0.7762 -0.6305 -0.0013
vn 0.7763 -0.6304 -0.0000
vn 0.7773 -0.6292 0.0017
vn 0.7424 -0.6700 0.0024
vn 0.7095 -0.7047 0.0016
vn 0.6704 -0.7420 0.0023
vn 0.6715 -0.7410 -0.0001
vn 0.8618 -0.5072 -0.0001
vn 0.8356 -0.5494 -0.0000
vn 0.8354 -0.5496 -0.0013
vn 0.8856 -0.4645 -0.0013
vn 0.8857 -0.4642 -0.0000
vn 0.8864 -0.4629 0.0017
vn 0.8610 -0.5085 0.0025
vn 0.8364 -0.5481 0.0017
vn 0.8061 -0.5917 0.0025
vn 0.8071 -0.5905 -0.0001
vn 0.9433 -0.3319 -0.0001
vn 0.9265 -0.3764 -0.0000
vn 0.9263 -0.3768 -0.0012
vn 0.9577 -0.2878 -0.0011
vn 0.9578 -0.2873 -0.0000
vn 0.9582 -0.2860 0.0017
vn 0.9428 -0.3333 0.0025
vn 0.9270 -0.3750 0.0017
vn 0.9066 -0.4219 0.0025
vn 0.9073 -0.4205 -0.0001
vn 0.9880 -0.1543 -0.0001
vn 0.9801 -0.1983 -0.0000
vn 0.9800 -0.1989 -0.0011
vn 0.9878 -0.1556 0.0025
vn 0.9804 -0.1970 0.0017
vn 0.9697 -0.2441 0.0025
vn 0.9701 -0.2427 -0.0001
vn 0.9999 -0.0154 -0.0000
vn 0.9967 0.0814 -0.0000
vn 0.9940 -0.1090 -0.0000
vn 0.9839 0.1787 -0.0000
vn 0.9613 0.2755 -0.0000
vn 0.9287 0.3707 -0.0000
vn 0.8748 0.4845 -0.0014
vn 0.7896 0.6136 -0.0014
vn 0.7059 0.7083 -0.0000
vn 0.6305 0.7762 -0.0000
vn 0.5496 0.8354 -0.0000
vn 0.4646 0.8855 -0.0000
vn 0.3768 0.9263 -0.0000
vn 0.2878 0.9577 -0.0000
vn 0.1989 0.9800 -0.0000
vn 0.1090 0.9940 -0.0000
vn 0.0154 0.9999 -0.0000
vn -0.0814 0.9967 -0.0000
vn -0.1787 0.9839 -0.0000
vn -0.2755 0.9613 -0.0000
vn -0.3707 0.9287 -0.0000
vn -0.4845 0.8748 -0.0014
vn -0.6136 0.7896 -0.0014
vn -0.7083 0.7059 -0.0000
vn -0.7762 0.6305 -0.0000
vn -0.8354 0.5496 -0.0000
vn -0.8855 0.4646 -0.0000
vn -0.9263 0.3768 -0.0000
vn -0.9577 0.2878 -0.0000
vn -0.9800 0.1989 -0.0000
vn -0.9940 0.1090 -0.0000
vn -0.9999 0.0154 -0.0000
vn -0.9967 -0.0814 -0.0000
vn -0.9839 -0.1787 -0.0000
vn -0.9613 -0.2755 -0.0000
vn -0.9287 -0.3707 -0.0000
vn -0.8748 -0.4845 -0.0014
vn -0.7896 -0.6136 -0.0014
vn -0.7059 -0.7083 -0.0000
vn -0.6305 -0.7762 -0.0000
vn -0.5496 -0.8354 -0.0000
vn -0.4646 -0.8855 -0.0000
vn -0.3768 -0.9263 -0.0000
vn -0.2878 -0.9577 -0.0000
vn -0.1989 -0.9800 -0.0000
vn -0.1090 -0.9940 -0.0000
vn -0.0154 -0.9999 -0.0000
vn 0.0814 -0.9967 -0.0000
vn 0.1787 -0.9839 -0.0000
vn 0.2755 -0.9613 -0.0000
vn 0.3707 -0.9287 -0.0000
vn 0.4845 -0.8748 -0.0014
vn 0.6136 -0.7896 -0.0014
vn 0.7083 -0.7059 -0.0000
vn 0.7762 -0.6305 -0.0000
vn 0.8354 -0.5496 -0.0000
vn 0.8855 -0.4646 -0.0000
vn 0.9263 -0.3768 -0.0000
vn 0.9577 -0.2878 -0.0000
vn 0.9800 -0.1989 -0.0000
vn 0.9999 -0.0154 -0.0007
vn 0.9839 0.1787 -0.0008
vn 0.8743 0.4854 -0.0000
vn 0.9287 0.3707 -0.0008
vn 0.7059 0.7083 -0.0008
vn 0.7902 0.6129 -0.0000
vn 0.5496 0.8354 -0.0008
vn 0.3768 0.9263 -0.0007
vn 0.1989 0.9800 -0.0006
vn 0.0154 0.9999 -0.0007
vn -0.1787 0.9839 -0.0008
vn -0.4854 0.8743 -0.0000
vn -0.3707 0.9287 -0.0008
vn -0.7083 0.7059 -0.0008
vn -0.6129 0.7902 -0.0000
vn -0.8354 0.5496 -0.0008
vn -0.9263 0.3768 -0.0007
vn -0.9800 0.1989 -0.0006
vn -0.9999 0.0154 -0.0007
vn -0.9839 -0.1787 -0.0008
vn -0.8743 -0.4854 -0.0000
vn -0.9287 -0.3707 -0.0008
vn -0.7059 -0.7083 -0.0008
vn -0.7902 -0.6129 -0.0000
vn -0.5496 -0.8354 -0.0008
vn -0.3768 -0.9263 -0.0007
vn -0.1989 -0.9800 -0.0006
vn -0.0154 -0.9999 -0.0007
vn 0.1787 -0.9839 -0.0008
vn 0.4854 -0.8743 -0.0000
vn 0.3707 -0.9287 -0.0008
vn 0.7083 -0.7059 -0.0008
vn 0.6129 -0.7902 -0.0000
vn 0.8354 -0.5496 -0.0008
vn 0.9263 -0.3768 -0.0007
vn 0.9800 -0.1989 -0.0006
vn 0.9953 -0.0353 0.0905
vn 0.9812 -0.1178 0.1526
vn 0.9844 0.1668 0.0564
vn 0.9969 0.0741 0.0281
vn 0.9325 0.3562 0.0600
vn 0.9639 0.2650 0.0281
vn 0.8905 0.4540 0.0290
vn 0.8409 0.5378 0.0609
vn 0.7132 0.6984 0.0606
vn 0.7785 0.6270 0.0289
vn 0.5568 0.8285 0.0598
vn 0.6332 0.7735 0.0293
vn 0.3823 0.9222 0.0582
vn 0.4654 0.8846 0.0295
vn 0.2875 0.9573 0.0293
vn 0.1106 0.9799 0.1660
vn 0.1839 0.9775 0.1029
vn -0.0735 0.9969 0.0275
vn 0.0347 0.9954 0.0897
vn -0.1668 0.9844 0.0564
vn -0.3566 0.9324 0.0594
vn -0.2650 0.9639 0.0281
vn -0.5378 0.8409 0.0609
vn -0.4536 0.8907 0.0285
vn -0.6265 0.7788 0.0297
vn -0.7735 0.6332 0.0293
vn -0.6987 0.7128 0.0612
vn -0.8846 0.4654 0.0295
vn -0.8285 0.5568 0.0598
vn -0.9573 0.2875 0.0293
vn -0.9222 0.3823 0.0582
vn -0.9799 0.1106 0.1658
vn -0.9775 0.1839 0.1029
vn -0.9954 0.0347 0.0897
vn -0.9844 -0.1668 0.0564
vn -0.9969 -0.0735 0.0275
vn -0.9324 -0.3566 0.0594
vn -0.9639 -0.2650 0.0281
vn -0.8409 -0.5378 0.0609
vn -0.8907 -0.4536 0.0285
vn -0.7132 -0.6984 0.0606
vn -0.7785 -0.6270 0.0289
vn -0.6332 -0.7735 0.0293
vn -0.4654 -0.8846 0.0295
vn -0.5568 -0.8285 0.0598
vn -0.2875 -0.9573 0.0293
vn -0.3823 -0.9222 0.0582
vn -0.1106 -0.9799 0.1660
vn -0.1839 -0.9775 0.1029
vn 0.0735 -0.9969 0.0275
vn -0.0347 -0.9954 0.0897
vn 0.1668 -0.9844 0.0564
vn 0.3566 -0.9324 0.0594
vn 0.2649 -0.9639 0.0281
vn 0.5378 -0.8409 0.0609
vn 0.4536 -0.8907 0.0285
vn 0.6270 -0.7785 0.0289
vn 0.7735 -0.6332 0.0293
vn 0.6984 -0.7132 0.0606
vn 0.8846 -0.4654 0.0295
vn 0.8285 -0.5568 0.0598
vn 0.9222 -0.3823 0.0582
vn 0.9775 -0.1839 0.1029
vn 0.9573 -0.2875 0.0293
vn 0.4090 -0.1284 0.9034
vn 0.7406 -0.2149 0.6367
vn 0.7901 -0.1040 0.6041
vn 0.4256 -0.0486 0.9036
vn 0.3761 -0.2062 0.9034
vn 0.6688 -0.3670 0.6465
vn 0.3273 -0.2774 0.9033
vn 0.5825 -0.4939 0.6456
vn 0.2645 -0.3378 0.9033
vn 0.4709 -0.6013 0.6455
vn 0.1911 -0.3840 0.9033
vn 0.3402 -0.6837 0.6455
vn 0.1116 -0.4139 0.9034
vn 0.1987 -0.7372 0.6458
vn 0.0311 -0.4272 0.9036
vn 0.0554 -0.7612 0.6462
vn -0.0486 -0.4256 0.9036
vn -0.0906 -0.7921 0.6036
vn -0.1284 -0.4090 0.9034
vn -0.2282 -0.7270 0.6476
vn -0.2062 -0.3761 0.9034
vn -0.3670 -0.6688 0.6465
vn -0.2774 -0.3273 0.9033
vn -0.4939 -0.5825 0.6456
vn -0.3378 -0.2645 0.9033
vn -0.6013 -0.4709 0.6455
vn -0.3840 -0.1911 0.9033
vn -0.6837 -0.3402 0.6455
vn -0.4139 -0.1116 0.9034
vn -0.7372 -0.1987 0.6458
vn -0.4272 -0.0311 0.9036
vn -0.7612 -0.0554 0.6462
vn -0.4256 0.0486 0.9036
vn -0.7921 0.0906 0.6036
vn -0.4090 0.1284 0.9034
vn -0.7270 0.2282 0.6476
vn -0.3761 0.2062 0.9034
vn -0.6688 0.3670 0.6465
vn -0.3273 0.2774 0.9033
vn -0.5825 0.4939 0.6456
vn -0.2645 0.3378 0.9033
vn -0.4709 0.6013 0.6455
vn -0.1911 0.3840 0.9033
vn -0.3402 0.6837 0.6455
vn -0.1116 0.4139 0.9034
vn -0.1987 0.7372 0.6458
vn -0.0311 0.4272 0.9036
vn -0.0554 0.7612 0.6462
vn 0.0486 0.4256 0.9036
vn 0.0906 0.7921 0.6036
vn 0.1284 0.4090 0.9034
vn 0.2282 0.7270 0.6476
vn 0.2062 0.3761 0.9034
vn 0.3670 0.6688 0.6465
vn 0.2774 0.3273 0.9033
vn 0.4939 0.5825 0.6456
vn 0.3378 0.2645 0.9033
vn 0.6013 0.4709 0.6455
vn 0.3840 0.1911 0.9033
vn 0.6837 0.3402 0.6455
vn 0.4139 0.1116 0.9034
vn 0.7372 0.1987 0.6458
vn 0.4272 0.0311 0.9036
vn 0.7612 0.0554 0.6462
vn 0.2211 -0.0694 0.9728
vn 0.2300 -0.0263 0.9728
vn 0.2032 -0.1114 0.9728
vn 0.1769 -0.1499 0.9728
vn 0.1430 -0.1825 0.9727
vn 0.1033 -0.2075 0.9728
vn 0.0603 -0.2237 0.9728
vn 0.0168 -0.2309 0.9728
vn -0.0263 -0.2300 0.9728
vn -0.0694 -0.2211 0.9728
vn -0.1114 -0.2032 0.9728
vn -0.1499 -0.1769 0.9728
vn -0.1825 -0.1430 0.9727
vn -0.2075 -0.1033 0.9728
vn -0.2237 -0.0603 0.9728
vn -0.2309 -0.0168 0.9728
vn -0.2300 0.0263 0.9728
vn -0.2211 0.0694 0.9728
vn -0.2032 0.1114 0.9728
vn -0.1769 0.1499 0.9728
vn -0.1430 0.1825 0.9727
vn -0.1033 0.2075 0.9728
vn -0.0603 0.2237 0.9728
vn -0.0168 0.2309 0.9728
vn 0.0263 0.2300 0.9728
vn 0.0694 0.2211 0.9728
vn 0.1114 0.2032 0.9728
vn 0.1499 0.1769 0.9728
vn 0.1825 0.1430 0.9727
vn 0.2075 0.1033 0.9728
vn 0.2237 0.0603 0.9728
vn 0.2309 0.0168 0.9728
vn 0.1278 -0.0401 0.9910
vn 0.1330 -0.0152 0.9910
vn 0.1175 -0.0645 0.9910
vn 0.1023 -0.0867 0.9910
vn 0.0827 -0.1056 0.9910
vn 0.0597 -0.1200 0.9910
vn 0.0349 -0.1294 0.9910
vn 0.0097 -0.1335 0.9910
vn -0.0152 -0.1330 0.9910
vn -0.0401 -0.1278 0.9910
vn -0.0645 -0.1175 0.9910
vn -0.0867 -0.1023 0.9910
vn -0.1056 -0.0827 0.9910
vn -0.1200 -0.0597 0.9910
vn -0.1294 -0.0349 0.9910
vn -0.1335 -0.0097 0.9910
vn -0.1330 0.0152 0.9910
vn -0.1278 0.0401 0.9910
vn -0.1175 0.0645 0.9910
vn -0.1023 0.0867 0.9910
vn -0.0827 0.1056 0.9910
vn -0.0597 0.1200 0.9910
vn -0.0349 0.1294 0.9910
vn -0.0097 0.1335 0.9910
vn 0.0152 0.1330 0.9910
vn 0.0401 0.1278 0.9910
vn 0.0645 0.1175 0.9910
vn 0.0867 0.1023 0.9910
vn 0.1056 0.0827 0.9910
vn 0.1200 0.0597 0.9910
vn 0.1294 0.0349 0.9910
vn 0.1335 0.0097 0.9910
vn 0.0714 -0.0224 0.9972
vn 0.0743 -0.0085 0.9972
vn 0.0657 -0.0360 0.9972
vn 0.0572 -0.0484 0.9972
vn 0.0462 -0.0590 0.9972
vn 0.0334 -0.0671 0.9972
vn 0.0195 -0.0723 0.9972
vn 0.0054 -0.0746 0.9972
vn -0.0085 -0.0743 0.9972
vn -0.0224 -0.0714 0.9972
vn -0.0360 -0.0657 0.9972
vn -0.0484 -0.0572 0.9972
vn -0.0590 -0.0462 0.9972
vn -0.0671 -0.0334 0.9972
vn -0.0723 -0.0195 0.9972
vn -0.0746 -0.0054 0.9972
vn -0.0743 0.0085 0.9972
vn -0.0714 0.0224 0.9972
vn -0.0657 0.0360 0.9972
vn -0.0572 0.0484 0.9972
vn -0.0462 0.0590 0.9972
vn -0.0334 0.0671 0.9972
vn -0.0195 0.0723 0.9972
vn -0.0054 0.0746 0.9972
vn 0.0085 0.0743 0.9972
vn 0.0224 0.0714 0.9972
vn 0.0360 0.0657 0.9972
vn 0.0484 0.0572 0.9972
vn 0.0590 0.0462 0.9972
vn 0.0671 0.0334 0.9972
vn 0.0723 0.0195 0.9972
vn 0.0746 0.0054 0.9972
vn 0.0323 -0.0102 0.9994
vn 0.0336 -0.0038 0.9994
vn 0.0298 -0.0163 0.9994
vn 0.0259 -0.0219 0.9994
vn 0.0209 -0.0267 0.9994
vn 0.0151 -0.0304 0.9994
vn 0.0088 -0.0327 0.9994
vn 0.0025 -0.0338 0.9994
vn -0.0038 -0.0336 0.9994
vn -0.0102 -0.0323 0.9994
vn -0.0163 -0.0298 0.9994
vn -0.0219 -0.0259 0.9994
vn -0.0267 -0.0209 0.9994
vn -0.0304 -0.0151 0.9994
vn -0.0327 -0.0088 0.9994
vn -0.0338 -0.0025 0.9994
vn -0.0336 0.0038 0.9994
vn -0.0323 0.0102 0.9994
vn -0.0298 0.0163 0.9994
vn -0.0259 0.0219 0.9994
vn -0.0209 0.0267 0.9994
vn -0.0151 0.0304 0.9994
vn -0.0088 0.0327 0.9994
vn -0.0025 0.0338 0.9994
vn 0.0038 0.0336 0.9994
vn 0.0102 0.0323 0.9994
vn 0.0163 0.0298 0.9994
vn 0.0219 0.0259 0.9994
vn 0.0267 0.0209 0.9994
vn 0.0304 0.0151 0.9994
vn 0.0327 0.0088 0.9994
vn 0.0338 0.0025 0.9994
vn -0.0000 -0.0000 1.0000
vn 0.9275 -0.2581 0.2703
vn 0.8481 -0.4654 0.2532
vn 0.7381 -0.6260 0.2518
vn 0.5965 -0.7620 0.2521
vn 0.4307 -0.8666 0.2520
vn 0.2512 -0.9346 0.2517
vn 0.0557 -0.9661 0.2519
vn -0.2774 -0.9260 0.2561
vn -0.4654 -0.8481 0.2532
vn -0.6260 -0.7381 0.2518
vn -0.7620 -0.5965 0.2521
vn -0.8666 -0.4307 0.2520
vn -0.9346 -0.2512 0.2517
vn -0.9661 -0.0557 0.2519
vn -0.9260 0.2774 0.2561
vn -0.8481 0.4654 0.2532
vn -0.7381 0.6260 0.2518
vn -0.5965 0.7620 0.2521
vn -0.4307 0.8666 0.2520
vn -0.2512 0.9346 0.2517
vn -0.0557 0.9661 0.2519
vn 0.2774 0.9260 0.2561
vn 0.4654 0.8481 0.2532
vn 0.6260 0.7381 0.2518
vn 0.7620 0.5965 0.2521
vn 0.8666 0.4307 0.2520
vn 0.9346 0.2512 0.2517
vn 0.9661 0.0580 0.2516
s 1
f 1//1 2//1 3//1
f 1//1 3//1 4//1
f 4//1 3//1 5//1
f 4//1 5//1 6//1
f 3//1 7//1 8//1
f 3//1 8//1 5//1
f 2//1 9//1 7//1
f 2//1 7//1 3//1
f 10//2 11//3 8//1
f 11//3 12//4 8//1
f 12//4 13//5 5//1
f 14//6 10//2 8//1
f 7//1 15//7 16//8
f 8//1 16//8 17//9
f 14//6 8//1 17//9
f 7//1 16//8 8//1
f 8//1 12//4 5//1
f 7//1 18//10 15//7
f 6//1 19//11 20//12
f 21//13 6//1 22//14
f 22//14 6//1 20//12
f 23//15 19//11 5//1
f 19//11 6//1 5//1
f 24//16 25//17 6//1
f 4//1 25//17 26//18
f 4//1 6//1 25//17
f 21//13 24//16 6//1
f 5//1 13//5 23//15
f 7//1 9//1 27//19
f 28//20 29//21 9//1
f 30//22 9//1 2//1
f 29//21 27//19 9//1
f 31//23 9//1 32//24
f 2//1 33//25 30//22
f 30//22 32//24 9//1
f 28//20 9//1 31//23
f 34//26 33//25 2//1
f 35//27 1//1 4//1
f 36//28 35//27 4//1
f 37//29 1//1 35//27
f 37//29 38//30 1//1
f 26//18 36//28 4//1
f 1//1 39//31 40//32
f 1//1 38//30 41//33
f 41//33 39//31 1//1
f 2//1 1//1 40//32
f 2//1 40//32 34//26
f 27//19 18//10 7//1
f 42//34 43//35 44//36
f 45//37 46//38 42//34
f 44//36 45//37 42//34
f 46//38 47//39 48//40
f 46//38 48//40 42//34
f 42//34 48//40 49//41
f 42//34 49//41 43//35
f 43//35 49//41 50//42
f 43//35 50//42 51//43
f 51//43 50//42 52//44
f 51//43 52//44 53//45
f 51//43 53//45 54//46
f 44//36 43//35 51//43
f 54//46 44//36 51//43
f 55//47 56//48 57//49
f 58//50 59//51 55//47
f 57//49 58//50 55//47
f 59//51 60//52 61//53
f 59//51 61//53 55//47
f 55//47 61//53 62//54
f 55//47 62//54 56//48
f 56//48 62//54 63//55
f 56//48 63//55 64//56
f 64//56 63//55 47//39
f 64//56 47//39 46//38
f 64//56 46//38 45//37
f 57//49 56//48 64//56
f 45//37 57//49 64//56
f 65//57 66//58 67//59
f 68//60 69//61 65//57
f 67//59 68//60 65//57
f 69//61 70//62 71//63
f 69//61 71//63 65//57
f 65//57 71//63 72//64
f 65//57 72//64 66//58
f 66//58 72//64 73//65
f 66//58 73//65 74//66
f 74//66 73//65 60//52
f 74//66 60//52 59//51
f 74//66 59//51 58//50
f 67//59 66//58 74//66
f 58//50 67//59 74//66
f 75//67 76//68 77//69
f 78//70 79//71 75//67
f 77//69 78//70 75//67
f 79//71 80//72 81//73
f 79//71 81//73 75//67
f 75//67 81//73 82//74
f 75//67 82//74 76//68
f 76//68 82//74 83//75
f 76//68 83//75 84//76
f 84//76 83//75 70//62
f 84//76 70//62 69//61
f 84//76 69//61 68//60
f 77//69 76//68 84//76
f 68//60 77//69 84//76
f 85//77 86//78 87//79
f 88//80 89//81 85//77
f 87//79 88//80 85//77
f 89//81 90//82 91//83
f 89//81 91//83 85//77
f 85//77 91//83 92//84
f 85//77 92//84 86//78
f 86//78 92//84 93//85
f 86//78 93//85 94//86
f 94//86 93//85 80//72
f 94//86 80//72 79//71
f 94//86 79//71 78//70
f 87//79 86//78 94//86
f 78//70 87//79 94//86
f 95//87 96//88 97//89
f 98//90 99//91 95//87
f 97//89 98//90 95//87
f 99//91 100//92 101//93
f 99//91 101//93 95//87
f 95//87 101//93 102//94
f 95//87 102//94 96//88
f 96//88 102//94 103//95
f 96//88 103//95 104//96
f 104//96 103//95 90//82
f 104//96 90//82 89//81
f 104//96 89//81 88//80
f 97//89 96//88 104//96
f 88//80 97//89 104//96
f 105//97 106//98 107//99
f 108//100 109//101 105//97
f 107//99 108//100 105//97
f 109//101 110//102 111//103
f 109//101 111//103 105//97
f 105//97 111//103 112//104
f 105//97 112//104 106//98
f 106//98 112//104 113//105
f 106//98 113//105 114//106
f 114//106 113//105 100//92
f 114//106 100//92 99//91
f 114//106 99//91 98//90
f 107//99 106//98 114//106
f 98//90 107//99 114//106
f 115//107 116//108 117//109
f 118//110 119//111 115//107
f 117//109 118//110 115//107
f 119//111 120//112 121//113
f 119//111 121//113 115//107
f 115//107 121//113 122//114
f 115//107 122//114 116//108
f 116//108 122//114 123//115
f 116//108 123//115 124//116
f 124//116 123//115 110//102
f 124//116 110//102 109//101
f 124//116 109//101 108//100
f 117//109 116//108 124//116
f 108//100 117//109 124//116
f 125//117 126//118 127//119
f 128//120 129//121 125//117
f 127//119 128//120 125//117
f 129//121 130//122 131//123
f 129//121 131//123 125//117
f 125//117 131//123 132//124
f 125//117 132//124 126//118
f 126//118 132//124 133//125
f 126//118 133//125 134//126
f 134//126 133//125 120//112
f 134//126 120//112 119//111
f 134//126 119//111 118//110
f 127//119 126//118 134//126
f 118//110 127//119 134//126
f 135//127 136//128 137//129
f 138//130 139//131 135//127
f 137//129 138//130 135//127
f 139//131 140//132 141//133
f 139//131 141//133 135//127
f 135//127 141//133 142//134
f 135//127 142//134 136//128
f 136//128 142//134 143//135
f 136//128 143//135 144//136
f 144//136 143//135 130//122
f 144//136 130//122 129//121
f 144//136 129//121 128//120
f 137//129 136//128 144//136
f 128//120 137//129 144//136
f 145//137 146//138 147//139
f 148//140 149//141 145//137
f 147//139 148//140 145//137
f 149//141 150//142 151//143
f 149//141 151//143 145//137
f 145//137 151//143 152//144
f 145//137 152//144 146//138
f 146//138 152//144 153//145
f 146//138 153//145 154//146
f 154//146 153//145 140//132
f 154//146 140//132 139//131
f 154//146 139//131 138//130
f 147//139 146//138 154//146
f 138//130 147//139 154//146
f 155//147 156//148 157//149
f 158//150 159//151 155//147
f 157//149 158//150 155//147
f 159//151 160//152 161//153
f 159//151 161//153 155//147
f 155//147 161//153 162//154
f 155//147 162//154 156//148
f 156//148 162//154 163//155
f 156//148 163//155 164//156
f 164//156 163//155 150//142
f 164//156 150//142 149//141
f 164//156 149//141 148//140
f 157//149 156//148 164//156
f 148//140 157//149 164//156
f 165//157 166//158 167//159
f 168//160 169//161 165//157
f 167//159 168//160 165//157
f 169//161 170//162 171//163
f 169//161 171//163 165//157
f 165//157 171//163 172//164
f 165//157 172//164 166//158
f 166//158 172//164 173//165
f 166//158 173//165 174//166
f 174//166 173//165 160//152
f 174//166 160//152 159//151
f 174//166 159//151 158//150
f 167//159 166//158 174//166
f 158//150 167//159 174//166
f 175//167 176//168 177//169
f 178//170 179//171 175//167
f 177//169 178//170 175//167
f 179//171 180//172 181//173
f 179//171 181//173 175//167
f 175//167 181//173 182//174
f 175//167 182//174 176//168
f 176//168 182//174 183//175
f 176//168 183//175 184//176
f 184//176 183//175 170//162
f 184//176 170//162 169//161
f 184//176 169//161 168//160
f 177//169 176//168 184//176
f 168//160 177//169 184//176
f 185//177 186//178 187//179
f 188//180 189//181 185//177
f 187//179 188//180 185//177
f 189//181 190//182 191//183
f 189//181 191//183 185//177
f 185//177 191//183 192//184
f 185//177 192//184 186//178
f 186//178 192//184 193//185
f 186//178 193//185 194//186
f 194//186 193//185 180//172
f 194//186 180//172 179//171
f 194//186 179//171 178//170
f 187//179 186//178 194//186
f 178//170 187//179 194//186
f 195//187 196//188 197//189
f 195//187 197//189 198//190
f 197//189 199//189 200//191
f 197//189 200//191 201//192
f 201//192 200//191 190//182
f 201//192 190//182 189//181
f 201//192 189//181 188//180
f 198//190 197//189 201//192
f 188//180 198//190 201//192
f 202//193 203//194 204//195
f 205//196 206//197 202//193
f 204//195 205//196 202//193
f 206//197 207//198 208//199
f 206//197 208//199 202//193
f 202//193 208//199 209//200
f 202//193 209//200 203//194
f 203//194 209//200 210//201
f 203//194 210//201 211//202
f 211//202 210//201 212//203
f 211//202 212//203 196//188
f 211//202 196//188 195//187
f 204//195 203//194 211//202
f 195//187 204//195 211//202
f 213//204 214//205 215//206
f 216//207 217//208 213//204
f 215//206 216//207 213//204
f 217//208 218//209 219//210
f 217//208 219//210 213//204
f 213//204 219//210 220//211
f 213//204 220//211 214//205
f 214//205 220//211 221//212
f 214//205 221//212 222//213
f 222//213 221//212 207//198
f 222//213 207//198 206//197
f 222//213 206//197 205//196
f 215//206 214//205 222//213
f 205//196 215//206 222//213
f 223//214 224//215 225//216
f 226//217 227//218 223//214
f 225//216 226//217 223//214
f 227//218 228//219 229//220
f 227//218 229//220 223//214
f 223//214 229//220 230//221
f 223//214 230//221 224//215
f 224//215 230//221 231//222
f 224//215 231//222 232//223
f 232//223 231//222 218//209
f 232//223 218//209 217//208
f 232//223 217//208 216//207
f 225//216 224//215 232//223
f 216//207 225//216 232//223
f 233//224 234//225 235//226
f 236//227 237//228 233//224
f 235//226 236//227 233//224
f 237//228 238//229 239//230
f 237//228 239//230 233//224
f 233//224 239//230 240//231
f 233//224 240//231 234//225
f 234//225 240//231 241//232
f 234//225 241//232 242//233
f 242//233 241//232 228//219
f 242//233 228//219 227//218
f 242//233 227//218 226//217
f 235//226 234//225 242//233
f 226//217 235//226 242//233
f 243//234 244//235 245//236
f 246//237 247//238 243//234
f 245//236 246//237 243//234
f 247//238 248//239 249//240
f 247//238 249//240 243//234
f 243//234 249//240 250//241
f 243//234 250//241 244//235
f 244//235 250//241 251//242
f 244//235 251//242 252//243
f 252//243 251//242 238//229
f 252//243 238//229 237//228
f 252//243 237//228 236//227
f 245//236 244//235 252//243
f 236//227 245//236 252//243
f 253//244 254//245 255//246
f 256//247 257//248 253//244
f 255//246 256//247 253//244
f 257//248 258//249 259//250
f 257//248 259//250 253//244
f 253//244 259//250 260//251
f 253//244 260//251 254//245
f 254//245 260//251 261//252
f 254//245 261//252 262//253
f 262//253 261//252 248//239
f 262//253 248//239 247//238
f 262//253 247//238 246//237
f 255//246 254//245 262//253
f 246//237 255//246 262//253
f 263//254 264//255 265//256
f 266//257 267//258 263//254
f 265//256 266//257 263//254
f 267//258 268//259 269//260
f 267//258 269//260 263//254
f 263//254 269//260 270//261
f 263//254 270//261 264//255
f 264//255 270//261 271//262
f 264//255 271//262 272//263
f 272//263 271//262 258//249
f 272//263 258//249 257//248
f 272//263 257//248 256//247
f 265//256 264//255 272//263
f 256//247 265//256 272//263
f 273//264 274//265 275//266
f 276//267 277//268 273//264
f 275//266 276//267 273//264
f 277//268 278//269 279//270
f 277//268 279//270 273//264
f 273//264 279//270 280//271
f 273//264 280//271 274//265
f 274//265 280//271 281//272
f 274//265 281//272 282//273
f 282//273 281//272 268//259
f 282//273 268//259 267//258
f 282//273 267//258 266//257
f 275//266 274//265 282//273
f 266//257 275//266 282//273
f 283//274 284//275 285//276
f 286//277 287//278 283//274
f 285//276 286//277 283//274
f 287//278 288//279 289//280
f 287//278 289//280 283//274
f 283//274 289//280 290//281
f 283//274 290//281 284//275
f 284//275 290//281 291//282
f 284//275 291//282 292//283
f 292//283 291//282 278//269
f 292//283 278//269 277//268
f 292//283 277//268 276//267
f 285//276 284//275 292//283
f 276//267 285//276 292//283
f 293//284 294//285 295//286
f 296//287 297//288 293//284
f 295//286 296//287 293//284
f 297//288 298//289 299//290
f 297//288 299//290 293//284
f 293//284 299//290 300//291
f 293//284 300//291 294//285
f 294//285 300//291 301//292
f 294//285 301//292 302//293
f 302//293 301//292 288//279
f 302//293 288//279 287//278
f 302//293 287//278 286//277
f 295//286 294//285 302//293
f 286//277 295//286 302//293
f 303//294 304//295 305//296
f 306//297 307//298 303//294
f 305//296 306//297 303//294
f 307//298 308//299 309//300
f 307//298 309//300 303//294
f 303//294 309//300 310//301
f 303//294 310//301 304//295
f 304//295 310//301 311//302
f 304//295 311//302 312//303
f 312//303 311//302 298//289
f 312//303 298//289 297//288
f 312//303 297//288 296//287
f 305//296 304//295 312//303
f 296//287 305//296 312//303
f 313//304 314//305 315//306
f 316//307 317//308 313//304
f 315//306 316//307 313//304
f 317//308 318//309 319//310
f 317//308 319//310 313//304
f 313//304 319//310 320//311
f 313//304 320//311 314//305
f 314//305 320//311 321//312
f 314//305 321//312 322//313
f 322//313 321//312 308//299
f 322//313 308//299 307//298
f 322//313 307//298 306//297
f 315//306 314//305 322//313
f 306//297 315//306 322//313
f 323//314 324//315 325//316
f 326//317 327//318 323//314
f 325//316 326//317 323//314
f 327//318 328//319 329//320
f 327//318 329//320 323//314
f 323//314 329//320 330//321
f 323//314 330//321 324//315
f 324//315 330//321 331//322
f 324//315 331//322 332//323
f 332//323 331//322 318//309
f 332//323 318//309 317//308
f 332//323 317//308 316//307
f 325//316 324//315 332//323
f 316//307 325//316 332//323
f 333//324 334//325 335//326
f 336//327 337//328 333//324
f 335//326 336//327 333//324
f 337//328 338//329 339//330
f 337//328 339//330 333//324
f 333//324 339//330 340//331
f 333//324 340//331 334//325
f 334//325 340//331 341//332
f 334//325 341//332 342//333
f 342//333 341//332 328//319
f 342//333 328//319 327//318
f 342//333 327//318 326//317
f 335//326 334//325 342//333
f 326//317 335//326 342//333
f 343//334 344//335 345//336
f 346//337 347//338 343//334
f 345//336 346//337 343//334
f 347//338 348//339 349//340
f 347//338 349//340 343//334
f 343//334 349//340 350//341
f 343//334 350//341 344//335
f 344//335 350//341 351//342
f 344//335 351//342 352//343
f 352//343 351//342 338//329
f 352//343 338//329 337//328
f 352//343 337//328 336//327
f 345//336 344//335 352//343
f 336//327 345//336 352//343
f 353//344 354//345 355//346
f 54//46 53//45 353//344
f 355//346 54//46 353//344
f 53//45 52//44 356//347
f 53//45 356//347 353//344
f 353//344 356//347 357//348
f 353//344 357//348 354//345
f 354//345 357//348 358//349
f 354//345 358//349 359//350
f 359//350 358//349 348//339
f 359//350 348//339 347//338
f 359//350 347//338 346//337
f 355//346 354//345 359//350
f 346//337 355//346 359//350
f 360//351 361//352 45//37
f 360//351 45//37 44//36
f 44//36 54//46 362//353
f 44//36 362//353 360//351
f 363//354 364//355 58//50
f 363//354 58//50 57//49
f 57//49 45//37 361//352
f 57//49 361//352 363//354
f 365//356 366//357 68//60
f 365//356 68//60 67//59
f 67//59 58//50 364//355
f 67//59 364//355 365//356
f 77//69 68//60 366//357
f 367//358 78//70 77//69
f 366//357 367//358 77//69
f 368//359 369//360 88//80
f 368//359 88//80 87//79
f 87//79 78//70 367//358
f 87//79 367//358 368//359
f 370//361 371//362 98//90
f 370//361 98//90 97//89
f 97//89 88//80 369//360
f 97//89 369//360 370//361
f 372//363 373//364 108//100
f 372//363 108//100 107//99
f 107//99 98//90 371//362
f 107//99 371//362 372//363
f 374//365 375//366 118//110
f 374//365 118//110 117//109
f 117//109 108//100 373//364
f 117//109 373//364 374//365
f 376//367 377//368 128//120
f 376//367 128//120 127//119
f 127//119 118//110 375//366
f 127//119 375//366 376//367
f 378//369 379//370 138//130
f 378//369 138//130 137//129
f 137//129 128//120 377//368
f 137//129 377//368 378//369
f 380//371 381//372 148//140
f 380//371 148//140 147//139
f 147//139 138//130 379//370
f 147//139 379//370 380//371
f 157//149 148//140 381//372
f 382//373 158//150 157//149
f 381//372 382//373 157//149
f 383//374 384//375 168//160
f 383//374 168//160 167//159
f 167//159 158//150 382//373
f 167//159 382//373 383//374
f 385//376 386//377 178//170
f 385//376 178//170 177//169
f 177//169 168//160 384//375
f 177//169 384//375 385//376
f 387//378 388//379 188//180
f 387//378 188//180 187//179
f 187//179 178//170 386//377
f 187//179 386//377 387//378
f 389//380 390//381 195//187
f 389//380 195//187 198//190
f 198//190 188//180 388//379
f 198//190 388//379 389//380
f 391//382 392//383 205//196
f 391//382 205//196 204//195
f 204//195 195//187 390//381
f 204//195 390//381 391//382
f 393//384 394//385 216//207
f 393//384 216//207 215//206
f 215//206 205//196 392//383
f 215//206 392//383 393//384
f 395//386 396//387 226//217
f 395//386 226//217 225//216
f 225//216 216//207 394//385
f 225//216 394//385 395//386
f 235//226 226//217 396//387
f 397//388 236//227 235//226
f 396//387 397//388 235//226
f 398//389 399//390 246//237
f 398//389 246//237 245//236
f 245//236 236//227 397//388
f 245//236 397//388 398//389
f 400//391 401//392 256//247
f 400//391 256//247 255//246
f 255//246 246//237 399//390
f 255//246 399//390 400//391
f 402//393 403//394 266//257
f 402//393 266//257 265//256
f 265//256 256//247 401//392
f 265//256 401//392 402//393
f 404//395 405//396 276//267
f 404//395 276//267 275//266
f 275//266 266//257 403//394
f 275//266 403//394 404//395
f 406//397 407//398 286//277
f 406//397 286//277 285//276
f 285//276 276//267 405//396
f 285//276 405//396 406//397
f 408//399 409//400 296//287
f 408//399 296//287 295//286
f 295//286 286//277 407//398
f 295//286 407//398 408//399
f 410//401 411//402 306//297
f 410//401 306//297 305//296
f 305//296 296//287 409//400
f 305//296 409//400 410//401
f 315//306 306//297 411//402
f 412//403 316//307 315//306
f 411//402 412//403 315//306
f 413//404 414//405 326//317
f 413//404 326//317 325//316
f 325//316 316//307 412//403
f 325//316 412//403 413//404
f 415//406 416//407 336//327
f 415//406 336//327 335//326
f 335//326 326//317 414//405
f 335//326 414//405 415//406
f 417//408 418//409 346//337
f 417//408 346//337 345//336
f 345//336 336//327 416//407
f 345//336 416//407 417//408
f 419//410 362//353 54//46
f 419//410 54//46 355//346
f 355//346 346//337 418//409
f 355//346 418//409 419//410
f 420//352 361//352 360//351
f 420//352 360//351 421//411
f 421//411 360//351 362//353
f 421//411 362//353 422//353
f 423//355 364//355 363//354
f 423//355 363//354 424//412
f 424//412 363//354 361//352
f 424//412 361//352 420//352
f 425//413 366//357 365//356
f 425//413 365//356 426//414
f 426//414 365//356 364//355
f 426//414 364//355 423//355
f 427//360 369//360 368//359
f 427//360 368//359 428//415
f 428//415 368//359 367//358
f 428//415 367//358 429//416
f 430//362 371//362 370//361
f 430//362 370//361 431//417
f 431//417 370//361 369//360
f 431//417 369//360 427//360
f 432//364 373//364 372//363
f 432//364 372//363 433//418
f 433//418 372//363 371//362
f 433//418 371//362 430//362
f 434//366 375//366 374//365
f 434//366 374//365 435//419
f 435//419 374//365 373//364
f 435//419 373//364 432//364
f 436//368 377//368 376//367
f 436//368 376//367 437//420
f 437//420 376//367 375//366
f 437//420 375//366 434//366
f 438//370 379//370 378//369
f 438//370 378//369 439//421
f 439//421 378//369 377//368
f 439//421 377//368 436//368
f 440//422 381//372 380//371
f 440//422 380//371 441//423
f 441//423 380//371 379//370
f 441//423 379//370 438//370
f 442//375 384//375 383//374
f 442//375 383//374 443//424
f 443//424 383//374 382//373
f 443//424 382//373 444//425
f 445//377 386//377 385//376
f 445//377 385//376 446//426
f 446//426 385//376 384//375
f 446//426 384//375 442//375
f 447//379 388//379 387//378
f 447//379 387//378 448//427
f 448//427 387//378 386//377
f 448//427 386//377 445//377
f 449//381 390//381 389//380
f 449//381 389//380 450//428
f 450//428 389//380 388//379
f 450//428 388//379 447//379
f 451//383 392//383 391//382
f 451//383 391//382 452//429
f 452//429 391//382 390//381
f 452//429 390//381 449//381
f 453//385 394//385 393//384
f 453//385 393//384 454//430
f 454//430 393//384 392//383
f 454//430 392//383 451//383
f 455//431 396//387 395//386
f 455//431 395//386 456//432
f 456//432 395//386 394//385
f 456//432 394//385 453//385
f 457//390 399//390 398//389
f 457//390 398//389 458//433
f 458//433 398//389 397//388
f 458//433 397//388 459//434
f 460//392 401//392 400//391
f 460//392 400//391 461//435
f 461//435 400//391 399//390
f 461//435 399//390 457//390
f 462//394 403//394 402//393
f 462//394 402//393 463//436
f 463//436 402//393 401//392
f 463//436 401//392 460//392
f 464//396 405//396 404//395
f 464//396 404//395 465//437
f 465//437 404//395 403//394
f 465//437 403//394 462//394
f 466//398 407//398 406//397
f 466//398 406//397 467//438
f 467//438 406//397 405//396
f 467//438 405//396 464//396
f 468//400 409//400 408//399
f 468//400 408//399 469//439
f 469//439 408//399 407//398
f 469//439 407//398 466//398
f 470//440 411//402 410//401
f 470//440 410//401 471//441
f 471//441 410//401 409//400
f 471//441 409//400 468//400
f 472//405 414//405 413//404
f 472//405 413//404 473//442
f 473//442 413//404 412//403
f 473//442 412//403 474//443
f 475//407 416//407 415//406
f 475//407 415//406 476//444
f 476//444 415//406 414//405
f 476//444 414//405 472//405
f 477//409 418//409 417//408
f 477//409 417//408 478//445
f 478//445 417//408 416//407
f 478//445 416//407 475//407
f 422//353 362//353 419//410
f 422//353 419//410 479//446
f 479//446 419//410 418//409
f 479//446 418//409 477//409
f 480//447 481//448 52//44
f 480//447 52//44 50//42
f 49//41 480//447 50//42
f 482//449 483//450 47//39
f 482//449 47//39 63//55
f 484//451 485//452 60//52
f 484//451 60//52 73//65
f 485//452 482//449 62//54
f 485//452 62//54 61//53
f 49//41 48//40 480//447
f 480//447 48//40 483//450
f 483//450 48//40 47//39
f 482//449 63//55 62//54
f 485//452 61//53 60//52
f 484//451 73//65 72//64
f 484//451 72//64 71//63
f 486//453 484//451 71//63
f 487//454 486//453 70//62
f 487//454 70//62 83//75
f 488//455 489//456 80//72
f 488//455 80//72 93//85
f 489//456 487//454 82//74
f 489//456 82//74 81//73
f 490//457 491//458 90//82
f 490//457 90//82 103//95
f 492//459 493//460 100//92
f 492//459 100//92 113//105
f 494//461 492//459 112//104
f 494//461 112//104 111//103
f 493//460 490//457 102//94
f 493//460 102//94 101//93
f 491//458 488//455 92//84
f 491//458 92//84 91//83
f 495//462 496//463 122//114
f 495//462 122//114 121//113
f 497//464 498//465 132//124
f 497//464 132//124 131//123
f 499//466 497//464 130//122
f 499//466 130//122 143//135
f 498//465 495//462 120//112
f 498//465 120//112 133//125
f 500//467 501//468 140//132
f 500//467 140//132 153//145
f 502//469 503//470 150//142
f 502//469 150//142 163//155
f 504//471 502//469 162//154
f 504//471 162//154 161//153
f 503//470 500//467 152//144
f 503//470 152//144 151//143
f 501//468 499//466 142//134
f 501//468 142//134 141//133
f 496//463 494//461 110//102
f 496//463 110//102 123//115
f 486//453 71//63 70//62
f 487//454 83//75 82//74
f 491//458 91//83 90//82
f 488//455 93//85 92//84
f 489//456 81//73 80//72
f 490//457 103//95 102//94
f 493//460 101//93 100//92
f 492//459 113//105 112//104
f 494//461 111//103 110//102
f 495//462 121//113 120//112
f 499//466 143//135 142//134
f 497//464 131//123 130//122
f 498//465 133//125 132//124
f 501//468 141//133 140//132
f 500//467 153//145 152//144
f 504//471 161//153 160//152
f 502//469 163//155 162//154
f 503//470 151//143 150//142
f 496//463 123//115 122//114
f 173//165 504//471 160//152
f 505//472 506//473 172//164
f 505//472 172//164 171//163
f 507//474 508//475 182//174
f 507//474 182//174 181//173
f 508//475 505//472 170//162
f 508//475 170//162 183//175
f 509//476 510//477 192//184
f 509//476 192//184 191//183
f 511//478 512//479 199//189
f 511//478 199//189 212//203
f 513//480 511//478 212//203
f 513//480 212//203 210//201
f 512//479 509//476 190//182
f 512//479 190//182 200//191
f 510//477 507//474 180//172
f 510//477 180//172 193//185
f 514//481 515//482 207//198
f 514//481 207//198 221//212
f 516//483 517//484 218//209
f 516//483 218//209 231//222
f 517//484 514//481 220//211
f 517//484 220//211 219//210
f 518//485 519//486 228//219
f 518//485 228//219 241//232
f 520//487 521//488 238//229
f 520//487 238//229 251//242
f 522//489 520//487 250//241
f 522//489 250//241 249//240
f 521//488 518//485 240//231
f 521//488 240//231 239//230
f 519//486 516//483 230//221
f 519//486 230//221 229//220
f 515//482 513//480 209//200
f 515//482 209//200 208//199
f 523//490 524//491 260//251
f 523//490 260//251 259//250
f 525//492 526//493 270//261
f 525//492 270//261 269//260
f 526//493 523//490 258//249
f 526//493 258//249 271//262
f 527//494 528//495 280//271
f 527//494 280//271 279//270
f 529//496 530//497 290//281
f 529//496 290//281 289//280
f 531//498 529//496 288//279
f 531//498 288//279 301//292
f 530//497 527//494 278//269
f 530//497 278//269 291//282
f 528//495 525//492 268//259
f 528//495 268//259 281//272
f 532//499 533//500 298//289
f 532//499 298//289 311//302
f 534//501 535//502 308//299
f 534//501 308//299 321//312
f 536//503 534//501 320//311
f 536//503 320//311 319//310
f 535//502 532//499 310//301
f 535//502 310//301 309//300
f 537//504 538//505 330//321
f 537//504 330//321 329//320
f 539//506 540//507 340//331
f 539//506 340//331 339//330
f 541//508 539//506 338//329
f 541//508 338//329 351//342
f 540//507 537//504 328//319
f 540//507 328//319 341//332
f 538//505 536//503 318//309
f 538//505 318//309 331//322
f 533//500 531//498 300//291
f 533//500 300//291 299//290
f 524//491 522//489 248//239
f 524//491 248//239 261//252
f 171//163 170//162 505//472
f 193//185 192//184 510//477
f 181//173 180//172 507//474
f 183//175 182//174 508//475
f 191//183 190//182 509//476
f 200//191 199//189 512//479
f 212//203 199//189 197//189
f 212//203 197//189 196//188
f 208//199 207//198 515//482
f 210//201 209//200 513//480
f 221//212 220//211 514//481
f 219//210 218//209 517//484
f 542//509 543//510 348//339
f 542//509 348//339 358//349
f 481//448 542//509 357//348
f 481//448 357//348 356//347
f 230//221 516//483 231//222
f 229//220 228//219 519//486
f 241//232 240//231 518//485
f 543//510 541//508 350//341
f 543//510 350//341 349//340
f 251//242 250//241 520//487
f 239//230 238//229 521//488
f 249//240 248//239 522//489
f 173//165 172//164 506//473
f 173//165 506//473 504//471
f 10//2 421//411 422//353
f 14//6 424//412 420//352
f 420//352 421//411 14//6
f 367//358 366//357 425//413
f 367//358 425//413 429//416
f 17//9 426//414 423//355
f 16//8 425//413 426//414
f 423//355 424//412 17//9
f 15//7 428//415 429//416
f 18//10 431//417 427//360
f 427//360 428//415 18//10
f 27//19 433//418 430//362
f 29//21 435//419 432//364
f 28//20 434//366 435//419
f 432//364 433//418 29//21
f 430//362 431//417 27//19
f 429//416 425//413 16//8
f 429//416 16//8 15//7
f 382//373 381//372 440//422
f 382//373 440//422 444//425
f 397//388 396//387 455//431
f 397//388 455//431 459//434
f 524//491 261//252 260//251
f 31//23 436//368 437//420
f 32//24 438//370 439//421
f 32//24 441//423 438//370
f 439//421 436//368 31//23
f 444//425 440//422 30//22
f 444//425 30//22 33//25
f 34//26 442//375 443//424
f 34//26 446//426 442//375
f 443//424 444//425 33//25
f 440//422 441//423 30//22
f 437//420 434//366 28//20
f 14//6 17//9 424//412
f 17//9 16//8 426//414
f 445//377 40//32 448//427
f 448//427 39//31 447//379
f 27//19 431//417 18//10
f 27//19 29//21 433//418
f 428//415 15//7 18//10
f 10//2 14//6 421//411
f 29//21 28//20 435//419
f 31//23 32//24 439//421
f 28//20 31//23 437//420
f 34//26 40//32 446//426
f 446//426 40//32 445//377
f 33//25 34//26 443//424
f 32//24 30//22 441//423
f 40//32 39//31 448//427
f 41//33 449//381 450//428
f 38//30 451//383 452//429
f 452//429 449//381 41//33
f 37//29 453//385 454//430
f 35//27 455//431 456//432
f 459//434 455//431 35//27
f 459//434 35//27 36//28
f 456//432 453//385 37//29
f 454//430 451//383 38//30
f 41//33 38//30 452//429
f 37//29 35//27 456//432
f 38//30 37//29 454//430
f 26//18 457//390 458//433
f 461//435 457//390 26//18
f 36//28 26//18 458//433
f 25//17 461//435 26//18
f 458//433 459//434 36//28
f 39//31 41//33 450//428
f 39//31 450//428 447//379
f 523//490 259//250 258//249
f 526//493 271//262 270//261
f 525//492 269//260 268//259
f 528//495 281//272 280//271
f 530//497 291//282 290//281
f 533//500 299//290 298//289
f 531//498 301//292 300//291
f 529//496 289//280 288//279
f 527//494 279//270 278//269
f 532//499 311//302 310//301
f 535//502 309//300 308//299
f 534//501 321//312 320//311
f 536//503 319//310 318//309
f 540//507 341//332 340//331
f 537//504 329//320 328//319
f 539//506 339//330 338//329
f 541//508 351//342 350//341
f 538//505 331//322 330//321
f 25//17 463//436 460//392
f 24//16 465//437 462//394
f 462//394 463//436 24//16
f 412//403 411//402 470//440
f 412//403 470//440 474//443
f 21//13 467//438 464//396
f 22//14 466//398 467//438
f 464//396 465//437 21//13
f 465//437 24//16 21//13
f 25//17 24//16 463//436
f 21//13 22//14 467//438
f 466//398 22//14 469//439
f 20//12 469//439 22//14
f 20//12 471//441 468//400
f 470//440 471//441 19//11
f 20//12 19//11 471//441
f 20//12 468//400 469//439
f 19//11 23//15 474//443
f 19//11 474//443 470//440
f 23//15 473//442 474//443
f 13//5 476//444 472//405
f 472//405 473//442 13//5
f 481//448 356//347 52//44
f 542//509 358//349 357//348
f 12//4 478//445 475//407
f 13//5 12//4 476//444
f 476//444 12//4 475//407
f 13//5 473//442 23//15
f 11//3 478//445 12//4
f 11//3 479//446 477//409
f 422//353 479//446 10//2
f 11//3 10//2 479//446
f 11//3 477//409 478//445
f 460//392 461//435 25//17
f 543//510 349//340 348//339
f 544//511 545//512 546//513
f 544//511 546//513 547//514
f 548//515 549//516 545//512
f 548//515 545//512 544//511
f 550//517 551//518 549//516
f 550//517 549//516 548//515
f 552//519 553//520 551//518
f 552//519 551//518 550//517
f 554//521 555//522 553//520
f 554//521 553//520 552//519
f 556//523 557//524 555//522
f 556//523 555//522 554//521
f 558//525 559//526 557//524
f 558//525 557//524 556//523
f 560//527 561//528 559//526
f 560//527 559//526 558//525
f 562//529 563//530 561//528
f 562//529 561//528 560//527
f 564//531 565//532 563//530
f 564//531 563//530 562//529
f 566//533 567//534 565//532
f 566//533 565//532 564//531
f 568//535 569//536 567//534
f 568//535 567//534 566//533
f 570//537 571//538 569//536
f 570//537 569//536 568//535
f 572//539 573//540 571//538
f 572//539 571//538 570//537
f 574//541 575//542 573//540
f 574//541 573//540 572//539
f 576//543 577//544 575//542
f 576//543 575//542 574//541
f 578//545 579//546 577//544
f 578//545 577//544 576//543
f 580//547 581//548 579//546
f 580//547 579//546 578//545
f 582//549 583//550 581//548
f 582//549 581//548 580//547
f 584//551 585//552 583//550
f 584//551 583//550 582//549
f 586//553 587//554 585//552
f 586//553 585//552 584//551
f 588//555 589//556 587//554
f 588//555 587//554 586//553
f 590//557 591//558 589//556
f 590//557 589//556 588//555
f 592//559 593//560 591//558
f 592//559 591//558 590//557
f 594//561 595//562 593//560
f 594//561 593//560 592//559
f 596//563 597//564 595//562
f 596//563 595//562 594//561
f 598//565 599//566 597//564
f 598//565 597//564 596//563
f 600//567 601//568 599//566
f 600//567 599//566 598//565
f 602//569 603//570 601//568
f 602//569 601//568 600//567
f 604//571 605//572 603//570
f 604//571 603//570 602//569
f 606//573 607//574 605//572
f 606//573 605//572 604//571
f 547//514 546//513 607//574
f 547//514 607//574 606//573
f 608//575 544//511 547//514
f 608//575 547//514 609//576
f 610//577 548//515 544//511
f 610//577 544//511 608//575
f 611//578 550//517 548//515
f 611//578 548//515 610//577
f 612//579 552//519 550//517
f 612//579 550//517 611//578
f 613//580 554//521 552//519
f 613//580 552//519 612//579
f 614//581 556//523 554//521
f 614//581 554//521 613//580
f 615//582 558//525 556//523
f 615//582 556//523 614//581
f 616//583 560//527 558//525
f 616//583 558//525 615//582
f 617//584 562//529 560//527
f 617//584 560//527 616//583
f 618//585 564//531 562//529
f 618//585 562//529 617//584
f 619//586 566//533 564//531
f 619//586 564//531 618//585
f 620//587 568//535 566//533
f 620//587 566//533 619//586
f 621//588 570//537 568//535
f 621//588 568//535 620//587
f 622//589 572//539 570//537
f 622//589 570//537 621//588
f 623//590 574//541 572//539
f 623//590 572//539 622//589
f 624//591 576//543 574//541
f 624//591 574//541 623//590
f 625//592 578//545 576//543
f 625//592 576//543 624//591
f 626//593 580//547 578//545
f 626//593 578//545 625//592
f 627//594 582//549 580//547
f 627//594 580//547 626//593
f 628//595 584//551 582//549
f 628//595 582//549 627//594
f 629//596 586//553 584//551
f 629//596 584//551 628//595
f 630//597 588//555 586//553
f 630//597 586//553 629//596
f 631//598 590//557 588//555
f 631//598 588//555 630//597
f 632//599 592//559 590//557
f 632//599 590//557 631//598
f 633//600 594//561 592//559
f 633//600 592//559 632//599
f 634//601 596//563 594//561
f 634//601 594//561 633//600
f 635//602 598//565 596//563
f 635//602 596//563 634//601
f 636//603 600//567 598//565
f 636//603 598//565 635//602
f 637//604 602//569 600//567
f 637//604 600//567 636//603
f 638//605 604//571 602//569
f 638//605 602//569 637//604
f 639//606 606//573 604//571
f 639//606 604//571 638//605
f 609//576 547//514 606//573
f 609//576 606//573 639//606
f 640//607 608//575 609//576
f 640//607 609//576 641//608
f 642//609 610//577 608//575
f 642//609 608//575 640//607
f 643//610 611//578 610//577
f 643//610 610//577 642//609
f 644//611 612//579 611//578
f 644//611 611//578 643//610
f 645//612 613//580 612//579
f 645//612 612//579 644//611
f 646//613 614//581 613//580
f 646//613 613//580 645//612
f 647//614 615//582 614//581
f 647//614 614//581 646//613
f 648//615 616//583 615//582
f 648//615 615//582 647//614
f 649//616 617//584 616//583
f 649//616 616//583 648//615
f 650//617 618//585 617//584
f 650//617 617//584 649//616
f 651//618 619//586 618//585
f 651//618 618//585 650//617
f 652//619 620//587 619//586
f 652//619 619//586 651//618
f 653//620 621//588 620//587
f 653//620 620//587 652//619
f 654//621 622//589 621//588
f 654//621 621//588 653//620
f 655//622 623//590 622//589
f 655//622 622//589 654//621
f 656//623 624//591 623//590
f 656//623 623//590 655//622
f 657//624 625//592 624//591
f 657//624 624//591 656//623
f 658//625 626//593 625//592
f 658//625 625//592 657//624
f 659//626 627//594 626//593
f 659//626 626//593 658//625
f 660//627 628//595 627//594
f 660//627 627//594 659//626
f 661//628 629//596 628//595
f 661//628 628//595 660//627
f 662//629 630//597 629//596
f 662//629 629//596 661//628
f 663//630 631//598 630//597
f 663//630 630//597 662//629
f 664//631 632//599 631//598
f 664//631 631//598 663//630
f 665//632 633//600 632//599
f 665//632 632//599 664//631
f 666//633 634//601 633//600
f 666//633 633//600 665//632
f 667//634 635//602 634//601
f 667//634 634//601 666//633
f 668//635 636//603 635//602
f 668//635 635//602 667//634
f 669//636 637//604 636//603
f 669//636 636//603 668//635
f 670//637 638//605 637//604
f 670//637 637//604 669//636
f 671//638 639//606 638//605
f 671//638 638//605 670//637
f 641//608 609//576 639//606
f 641//608 639//606 671//638
f 672//639 640//607 641//608
f 672//639 641//608 673//640
f 674//641 642//609 640//607
f 674//641 640//607 672//639
f 675//642 643//610 642//609
f 675//642 642//609 674//641
f 676//643 644//611 643//610
f 676//643 643//610 675//642
f 677//644 645//612 644//611
f 677//644 644//611 676//643
f 678//645 646//613 645//612
f 678//645 645//612 677//644
f 679//646 647//614 646//613
f 679//646 646//613 678//645
f 680//647 648//615 647//614
f 680//647 647//614 679//646
f 681//648 649//616 648//615
f 681//648 648//615 680//647
f 682//649 650//617 649//616
f 682//649 649//616 681//648
f 683//650 651//618 650//617
f 683//650 650//617 682//649
f 684//651 652//619 651//618
f 684//651 651//618 683//650
f 685//652 653//620 652//619
f 685//652 652//619 684//651
f 686//653 654//621 653//620
f 686//653 653//620 685//652
f 687//654 655//622 654//621
f 687//654 654//621 686//653
f 688//655 656//623 655//622
f 688//655 655//622 687//654
f 689//656 657//624 656//623
f 689//656 656//623 688//655
f 690//657 658//625 657//624
f 690//657 657//624 689//656
f 691//658 659//626 658//625
f 691//658 658//625 690//657
f 692//659 660//627 659//626
f 692//659 659//626 691//658
f 693//660 661//628 660//627
f 693//660 660//627 692//659
f 694//661 662//629 661//628
f 694//661 661//628 693//660
f 695//662 663//630 662//629
f 695//662 662//629 694//661
f 696//663 664//631 663//630
f 696//663 663//630 695//662
f 697//664 665//632 664//631
f 697//664 664//631 696//663
f 698//665 666//633 665//632
f 698//665 665//632 697//664
f 699//666 667//634 666//633
f 699//666 666//633 698//665
f 700//667 668//635 667//634
f 700//667 667//634 699//666
f 701//668 669//636 668//635
f 701//668 668//635 700//667
f 702//669 670//637 669//636
f 702//669 669//636 701//668
f 703//670 671//638 670//637
f 703//670 670//637 702//669
f 673//640 641//608 671//638
f 673//640 671//638 703//670
f 704//671 672//639 673//640
f 704//671 673//640 705//672
f 706//673 674//641 672//639
f 706//673 672//639 704//671
f 707//674 675//642 674//641
f 707//674 674//641 706//673
f 708//675 676//643 675//642
f 708//675 675//642 707//674
f 709//676 677//644 676//643
f 709//676 676//643 708//675
f 710//677 678//645 677//644
f 710//677 677//644 709//676
f 711//678 679//646 678//645
f 711//678 678//645 710//677
f 712//679 680//647 679//646
f 712//679 679//646 711//678
f 713//680 681//648 680//647
f 713//680 680//647 712//679
f 714//681 682//649 681//648
f 714//681 681//648 713//680
f 715//682 683//650 682//649
f 715//682 682//649 714//681
f 716//683 684//651 683//650
f 716//683 683//650 715//682
f 717//684 685//652 684//651
f 717//684 684//651 716//683
f 718//685 686//653 685//652
f 718//685 685//652 717//684
f 719//686 687//654 686//653
f 719//686 686//653 718//685
f 720//687 688//655 687//654
f 720//687 687//654 719//686
f 721//688 689//656 688//655
f 721//688 688//655 720//687
f 722//689 690//657 689//656
f 722//689 689//656 721//688
f 723//690 691//658 690//657
f 723//690 690//657 722//689
f 724//691 692//659 691//658
f 724//691 691//658 723//690
f 725//692 693//660 692//659
f 725//692 692//659 724//691
f 726//693 694//661 693//660
f 726//693 693//660 725//692
f 727//694 695//662 694//661
f 727//694 694//661 726//693
f 728//695 696//663 695//662
f 728//695 695//662 727//694
f 729//696 697//664 696//663
f 729//696 696//663 728//695
f 730//697 698//665 697//664
f 730//697 697//664 729//696
f 731//698 699//666 698//665
f 731//698 698//665 730//697
f 732//699 700//667 699//666
f 732//699 699//666 731//698
f 733//700 701//668 700//667
f 733//700 700//667 732//699
f 734//701 702//669 701//668
f 734//701 701//668 733//700
f 735//702 703//670 702//669
f 735//702 702//669 734//701
f 705//672 673//640 703//670
f 705//672 703//670 735//702
f 736//703 704//671 705//672
f 736//703 706//673 704//671
f 736//703 707//674 706//673
f 736//703 708//675 707//674
f 736//703 709//676 708//675
f 736//703 710//677 709//676
f 736//703 711//678 710//677
f 736//703 712//679 711//678
f 736//703 713//680 712//679
f 736//703 714//681 713//680
f 736//703 715//682 714//681
f 736//703 716//683 715//682
f 736//703 717//684 716//683
f 736//703 718//685 717//684
f 736//703 719//686 718//685
f 736//703 720//687 719//686
f 736//703 721//688 720//687
f 736//703 722//689 721//688
f 736//703 723//690 722//689
f 736//703 724//691 723//690
f 736//703 725//692 724//691
f 736//703 726//693 725//692
f 736//703 727//694 726//693
f 736//703 728//695 727//694
f 736//703 729//696 728//695
f 736//703 730//697 729//696
f 736//703 731//698 730//697
f 736//703 732//699 731//698
f 736//703 733//700 732//699
f 736//703 734//701 733//700
f 736//703 735//702 734//701
f 736//703 705//672 735//702
f 737//704 542//509 481//448
f 737//704 543//510 542//509
f 738//705 539//506 541//508
f 739//706 537//504 540//507
f 540//507 539//506 738//705
f 541//508 543//510 737//704
f 740//707 536//503 538//505
f 741//708 535//502 534//501
f 534//501 536//503 740//707
f 742//709 533//500 532//499
f 743//710 529//496 531//498
f 531//498 533//500 742//709
f 532//499 535//502 741//708
f 538//505 537//504 739//706
f 743//710 527//494 530//497
f 744//711 525//492 528//495
f 528//495 527//494 744//711
f 745//712 523//490 526//493
f 746//713 522//489 524//491
f 524//491 523//490 745//712
f 526//493 525//492 744//711
f 747//714 521//488 520//487
f 748//715 519//486 518//485
f 518//485 521//488 747//714
f 749//716 517//484 516//483
f 750//717 515//482 514//481
f 514//481 517//484 749//716
f 516//483 519//486 748//715
f 520//487 522//489 746//713
f 530//497 529//496 743//710
f 750//717 511//478 513//480
f 751//718 509//476 512//479
f 512//479 511//478 751//718
f 752//719 507//474 510//477
f 753//720 505//472 508//475
f 508//475 507//474 752//719
f 510//477 509//476 751//718
f 754//721 504//471 506//473
f 755//722 503//470 502//469
f 502//469 504//471 754//721
f 756//723 501//468 500//467
f 757//724 497//464 499//466
f 499//466 501//468 756//723
f 500//467 503//470 755//722
f 506//473 505//472 753//720
f 757//724 495//462 498//465
f 758//725 494//461 496//463
f 496//463 495//462 758//725
f 759//726 493//460 492//459
f 760//727 491//458 490//457
f 490//457 493//460 759//726
f 492//459 494//461 758//725
f 761//728 489//456 488//455
f 762//729 486//453 487//454
f 487//454 489//456 761//728
f 763//730 485//452 484//451
f 764//731 483//450 482//449
f 482//449 485//452 763//730
f 484//451 486//453 762//729
f 488//455 491//458 760//727
f 498//465 497//464 757//724
f 513//480 515//482 750//717
f 534//501 740//707 741//708
f 740//707 739//706 551//518
f 740//707 551//518 553//520
f 741//708 740//707 553//520
f 741//708 553//520 555//522
f 532//499 741//708 742//709
f 549//516 738//705 737//704
f 549//516 737//704 545//512
f 481//448 546//513 545//512
f 481//448 545//512 737//704
f 742//709 741//708 555//522
f 742//709 555//522 557//524
f 551//518 739//706 738//705
f 551//518 738//705 549//516
f 742//709 557//524 559//526
f 742//709 559//526 743//710
f 738//705 739//706 540//507
f 740//707 538//505 739//706
f 531//498 742//709 743//710
f 516//483 748//715 749//716
f 569//536 747//714 746//713
f 569//536 746//713 567//534
f 751//718 511//478 750//717
f 573//540 749//716 748//715
f 573//540 748//715 571//538
f 748//715 747//714 569//536
f 748//715 569//536 571//538
f 518//485 747//714 748//715
f 526//493 744//711 745//712
f 743//710 561//528 744//711
f 565//532 745//712 744//711
f 565//532 744//711 563//530
f 745//712 746//713 524//491
f 567//534 746//713 745//712
f 567//534 745//712 565//532
f 520//487 746//713 747//714
f 744//711 527//494 743//710
f 750//717 749//716 573//540
f 750//717 573//540 575//542
f 750//717 514//481 749//716
f 743//710 559//526 561//528
f 750//717 575//542 577//544
f 744//711 561//528 563//530
f 751//718 750//717 577//544
f 754//721 755//722 502//469
f 754//721 585//552 587//554
f 754//721 587//554 755//722
f 755//722 756//723 500//467
f 756//723 589//556 591//558
f 756//723 591//558 757//724
f 754//721 753//720 583//550
f 754//721 583//550 585//552
f 499//466 756//723 757//724
f 756//723 755//722 587//554
f 756//723 587//554 589//556
f 753//720 508//475 752//719
f 758//725 759//726 492//459
f 593//560 758//725 757//724
f 581//548 752//719 751//718
f 581//548 751//718 579//546
f 583//550 753//720 752//719
f 583//550 752//719 581//548
f 754//721 506//473 753//720
f 757//724 758//725 495//462
f 483//450 764//731 480//447
f 605//572 763//730 762//729
f 605//572 762//729 603//570
f 764//731 481//448 480//447
f 546//513 481//448 764//731
f 546//513 764//731 607//574
f 764//731 482//449 763//730
f 601//568 761//728 760//727
f 601//568 760//727 599//566
f 760//727 761//728 488//455
f 762//729 763//730 484//451
f 599//566 760//727 759//726
f 599//566 759//726 597//564
f 762//729 761//728 601//568
f 762//729 601//568 603//570
f 761//728 762//729 487//454
f 490//457 759//726 760//727
f 764//731 763//730 605//572
f 764//731 605//572 607//574
f 597//564 759//726 758//725
f 597//564 758//725 595//562
f 752//719 510//477 751//718
f 757//724 591//558 593//560
f 758//725 593//560 595//562
f 579//546 751//718 577//544
f 737//704 738//705 541//508
