# Blender 4.2.3 LTS
# www.blender.org
o BoreHole
v 0.370524 0.000000 -0.092150
v 0.347098 0.126233 -0.092150
v 0.282609 0.237797 -0.092150
v 0.185262 0.320883 -0.092150
v 0.064228 0.363713 -0.092150
v -0.064634 0.363645 -0.092150
v -0.185262 0.320883 -0.092150
v -0.282871 0.237479 -0.092150
v -0.347243 0.125848 -0.092150
v -0.370524 0.000000 -0.092150
v -0.347098 -0.126234 -0.092150
v -0.282609 -0.237797 -0.092150
v -0.185262 -0.320883 -0.092150
v -0.064228 -0.363713 -0.092150
v 0.064634 -0.363645 -0.092150
v 0.185262 -0.320883 -0.092150
v 0.282871 -0.237479 -0.092150
v 0.347243 -0.125848 -0.092150
v 0.253004 0.000000 -1.399731
v 0.237107 -0.085932 -1.399731
v 0.193152 -0.162158 -1.399731
v 0.126502 -0.219108 -1.399731
v 0.044134 -0.248307 -1.399731
v -0.043857 -0.248354 -1.399731
v -0.126502 -0.219108 -1.399731
v -0.192973 -0.162375 -1.399731
v -0.237009 -0.086196 -1.399731
v -0.253004 0.000000 -1.399731
v -0.237107 0.085933 -1.399731
v -0.193152 0.162158 -1.399731
v -0.126502 0.219108 -1.399731
v -0.044134 0.248307 -1.399731
v 0.043857 0.248354 -1.399731
v 0.126502 0.219108 -1.399731
v 0.192974 0.162375 -1.399731
v 0.237009 0.086196 -1.399731
v 0.370524 0.000000 -0.092150
v 0.448500 0.000000 -0.189182
v 0.429520 0.000000 -0.309242
v 0.365783 0.000000 -0.421523
v 0.274320 0.000000 -0.504166
v 0.253025 0.000000 -0.628283
v 0.253001 0.000000 -0.753569
v 0.253002 0.000000 -0.886258
v 0.253002 0.000000 -1.013573
v 0.253003 0.000000 -1.137177
v 0.253004 0.000000 -1.266920
v 0.253004 0.000000 -1.399731
v 0.347098 0.126233 -0.092150
v 0.420145 0.152799 -0.189182
v 0.402364 0.146333 -0.309242
v 0.342657 0.124618 -0.421523
v 0.256977 0.093458 -0.504166
v 0.237028 0.086203 -0.628283
v 0.237006 0.086195 -0.753569
v 0.237006 0.086195 -0.886258
v 0.237007 0.086195 -1.013573
v 0.237008 0.086195 -1.137177
v 0.237008 0.086196 -1.266920
v 0.237009 0.086196 -1.399731
v 0.282609 0.237797 -0.092150
v 0.342083 0.287841 -0.189182
v 0.327606 0.275660 -0.309242
v 0.278992 0.234754 -0.421523
v 0.209232 0.176055 -0.504166
v 0.192989 0.162388 -0.628283
v 0.192971 0.162373 -0.753569
v 0.192971 0.162373 -0.886258
v 0.192972 0.162373 -1.013573
v 0.192973 0.162374 -1.137177
v 0.192973 0.162374 -1.266920
v 0.192974 0.162375 -1.399731
v 0.185262 0.320883 -0.092150
v 0.224250 0.388413 -0.189182
v 0.214760 0.371975 -0.309242
v 0.182891 0.316777 -0.421523
v 0.137160 0.237568 -0.504166
v 0.126513 0.219126 -0.628283
v 0.126501 0.219105 -0.753569
v 0.126501 0.219106 -0.886258
v 0.126501 0.219106 -1.013573
v 0.126502 0.219107 -1.137177
v 0.126502 0.219108 -1.266920
v 0.126502 0.219108 -1.399731
v 0.064228 0.363713 -0.092150
v 0.077744 0.440256 -0.189182
v 0.074454 0.421624 -0.309242
v 0.063406 0.359059 -0.421523
v 0.047552 0.269277 -0.504166
v 0.043860 0.248374 -0.628283
v 0.043856 0.248350 -0.753569
v 0.043856 0.248351 -0.886258
v 0.043856 0.248351 -1.013573
v 0.043856 0.248352 -1.137177
v 0.043857 0.248353 -1.266920
v 0.043857 0.248354 -1.399731
v -0.064634 0.363645 -0.092150
v -0.078236 0.440173 -0.189182
v -0.074925 0.421546 -0.309242
v -0.063807 0.358992 -0.421523
v -0.047852 0.269227 -0.504166
v -0.044138 0.248327 -0.628283
v -0.044133 0.248304 -0.753569
v -0.044134 0.248304 -0.886258
v -0.044134 0.248305 -1.013573
v -0.044134 0.248306 -1.137177
v -0.044134 0.248306 -1.266920
v -0.044134 0.248307 -1.399731
v -0.185262 0.320883 -0.092150
v -0.224250 0.388413 -0.189182
v -0.214760 0.371975 -0.309242
v -0.182891 0.316777 -0.421523
v -0.137160 0.237568 -0.504166
v -0.126513 0.219126 -0.628283
v -0.126501 0.219105 -0.753569
v -0.126501 0.219106 -0.886258
v -0.126501 0.219106 -1.013573
v -0.126502 0.219107 -1.137177
v -0.126502 0.219108 -1.266920
v -0.126502 0.219108 -1.399731
v -0.282871 0.237479 -0.092150
v -0.342400 0.287456 -0.189182
v -0.327910 0.275292 -0.309242
v -0.279251 0.234441 -0.421523
v -0.209425 0.175820 -0.504166
v -0.193168 0.162171 -0.628283
v -0.193150 0.162155 -0.753569
v -0.193150 0.162156 -0.886258
v -0.193151 0.162156 -1.013573
v -0.193151 0.162157 -1.137177
v -0.193152 0.162157 -1.266920
v -0.193152 0.162158 -1.399731
v -0.347243 0.125848 -0.092150
v -0.420319 0.152332 -0.189182
v -0.402532 0.145886 -0.309242
v -0.342799 0.124237 -0.421523
v -0.257084 0.093172 -0.504166
v -0.237127 0.085939 -0.628283
v -0.237104 0.085931 -0.753569
v -0.237105 0.085931 -0.886258
v -0.237106 0.085932 -1.013573
v -0.237106 0.085932 -1.137177
v -0.237107 0.085932 -1.266920
v -0.237107 0.085933 -1.399731
v -0.370524 0.000000 -0.092150
v -0.448500 0.000000 -0.189182
v -0.429520 0.000000 -0.309242
v -0.365783 0.000000 -0.421523
v -0.274320 0.000000 -0.504166
v -0.253025 0.000000 -0.628283
v -0.253001 0.000000 -0.753569
v -0.253002 0.000000 -0.886258
v -0.253003 0.000000 -1.013573
v -0.253003 0.000000 -1.137177
v -0.253004 0.000000 -1.266920
v -0.253004 0.000000 -1.399731
v -0.347098 -0.126234 -0.092150
v -0.420145 -0.152799 -0.189182
v -0.402364 -0.146333 -0.309242
v -0.342657 -0.124618 -0.421523
v -0.256977 -0.093458 -0.504166
v -0.237028 -0.086203 -0.628283
v -0.237006 -0.086195 -0.753569
v -0.237007 -0.086195 -0.886258
v -0.237007 -0.086195 -1.013573
v -0.237008 -0.086195 -1.137177
v -0.237008 -0.086196 -1.266920
v -0.237009 -0.086196 -1.399731
v -0.282609 -0.237797 -0.092150
v -0.342083 -0.287841 -0.189182
v -0.327606 -0.275660 -0.309242
v -0.278992 -0.234754 -0.421523
v -0.209232 -0.176055 -0.504166
v -0.192989 -0.162388 -0.628283
v -0.192971 -0.162372 -0.753569
v -0.192972 -0.162373 -0.886258
v -0.192972 -0.162373 -1.013573
v -0.192973 -0.162374 -1.137177
v -0.192973 -0.162374 -1.266920
v -0.192973 -0.162375 -1.399731
v -0.185262 -0.320883 -0.092150
v -0.224250 -0.388413 -0.189182
v -0.214760 -0.371975 -0.309242
v -0.182891 -0.316777 -0.421523
v -0.137160 -0.237568 -0.504166
v -0.126513 -0.219126 -0.628283
v -0.126501 -0.219105 -0.753569
v -0.126501 -0.219106 -0.886258
v -0.126501 -0.219106 -1.013573
v -0.126502 -0.219107 -1.137177
v -0.126502 -0.219108 -1.266920
v -0.126502 -0.219108 -1.399731
v -0.064228 -0.363713 -0.092150
v -0.077744 -0.440256 -0.189182
v -0.074454 -0.421624 -0.309242
v -0.063406 -0.359059 -0.421523
v -0.047552 -0.269277 -0.504166
v -0.043860 -0.248374 -0.628283
v -0.043856 -0.248350 -0.753569
v -0.043856 -0.248351 -0.886258
v -0.043856 -0.248351 -1.013573
v -0.043856 -0.248352 -1.137177
v -0.043857 -0.248353 -1.266920
v -0.043857 -0.248354 -1.399731
v 0.064634 -0.363645 -0.092150
v 0.078236 -0.440173 -0.189182
v 0.074925 -0.421546 -0.309242
v 0.063807 -0.358992 -0.421523
v 0.047852 -0.269227 -0.504166
v 0.044138 -0.248327 -0.628283
v 0.044133 -0.248304 -0.753569
v 0.044134 -0.248304 -0.886258
v 0.044134 -0.248305 -1.013573
v 0.044134 -0.248306 -1.137177
v 0.044134 -0.248306 -1.266920
v 0.044134 -0.248307 -1.399731
v 0.185262 -0.320883 -0.092150
v 0.224250 -0.388413 -0.189182
v 0.214760 -0.371975 -0.309242
v 0.182891 -0.316777 -0.421523
v 0.137160 -0.237568 -0.504166
v 0.126513 -0.219126 -0.628283
v 0.126501 -0.219105 -0.753569
v 0.126501 -0.219106 -0.886258
v 0.126501 -0.219106 -1.013573
v 0.126502 -0.219107 -1.137177
v 0.126502 -0.219108 -1.266920
v 0.126502 -0.219108 -1.399731
v 0.282871 -0.237479 -0.092150
v 0.342400 -0.287456 -0.189182
v 0.327910 -0.275292 -0.309242
v 0.279251 -0.234441 -0.421523
v 0.209425 -0.175820 -0.504166
v 0.193168 -0.162171 -0.628283
v 0.193150 -0.162156 -0.753569
v 0.193150 -0.162156 -0.886258
v 0.193151 -0.162156 -1.013573
v 0.193151 -0.162157 -1.137177
v 0.193152 -0.162157 -1.266920
v 0.193152 -0.162158 -1.399731
v 0.347243 -0.125848 -0.092150
v 0.420319 -0.152332 -0.189182
v 0.402532 -0.145886 -0.309242
v 0.342799 -0.124237 -0.421523
v 0.257084 -0.093172 -0.504166
v 0.237127 -0.085940 -0.628283
v 0.237104 -0.085931 -0.753569
v 0.237105 -0.085932 -0.886258
v 0.237105 -0.085932 -1.013573
v 0.237106 -0.085932 -1.137177
v 0.237107 -0.085932 -1.266920
v 0.237107 -0.085932 -1.399731
v 0.370524 0.000000 -0.092150
v 0.448500 0.000000 -0.189182
v 0.429520 0.000000 -0.309242
v 0.365783 0.000000 -0.421523
v 0.274320 0.000000 -0.504166
v 0.253025 0.000000 -0.628283
v 0.253001 0.000000 -0.753569
v 0.253002 0.000000 -0.886258
v 0.253002 0.000000 -1.013573
v 0.253003 0.000000 -1.137177
v 0.253004 0.000000 -1.266920
v 0.253004 0.000000 -1.399731
vn -0.0000 -0.0000 1.0000
vn -0.0000 -0.0000 -1.0000
vn 0.9365 0.3506 -0.0001
vn 0.9471 0.0001 -0.3209
vn 0.8873 0.3322 -0.3200
vn 0.8873 0.3321 -0.3201
vn 0.7484 0.0001 -0.6633
vn 0.7019 0.2627 -0.6621
vn 0.7018 0.2627 -0.6622
vn 0.6315 0.0001 -0.7754
vn 0.5925 0.2218 -0.7744
vn 0.5924 0.2218 -0.7745
vn 1.0000 0.0001 -0.0021
vn 0.9365 0.3506 -0.0021
vn 1.0000 0.0001 -0.0000
vn 0.9365 0.3506 -0.0000
vn 1.0000 0.0001 -0.0001
vn 0.9365 0.3506 0.0001
vn 1.0000 0.0001 0.0001
vn 0.7307 0.6031 -0.3200
vn 0.9365 0.3507 -0.0002
vn 0.8872 0.3323 -0.3199
vn 0.5780 0.4770 -0.6621
vn 0.8872 0.3322 -0.3201
vn 0.7018 0.2628 -0.6621
vn 0.4880 0.4027 -0.7744
vn 0.7017 0.2628 -0.6622
vn 0.5925 0.2219 -0.7744
vn 0.7713 0.6365 -0.0022
vn 0.9365 0.3507 -0.0021
vn 0.7713 0.6364 -0.0021
vn 0.9365 0.3507 -0.0000
vn 0.7713 0.6365 -0.0000
vn 0.4736 0.8202 -0.3209
vn 0.7712 0.6366 -0.0001
vn 0.7306 0.6032 -0.3200
vn 0.3742 0.6481 -0.6633
vn 0.7306 0.6031 -0.3202
vn 0.5779 0.4771 -0.6621
vn 0.3158 0.5468 -0.7754
vn 0.5779 0.4770 -0.6622
vn 0.4879 0.4028 -0.7744
vn 0.5001 0.8660 -0.0022
vn 0.4878 0.4027 -0.7745
vn 0.7712 0.6366 -0.0021
vn 0.5001 0.8660 -0.0000
vn 0.7712 0.6366 -0.0000
vn 0.5001 0.8660 -0.0001
vn 0.7712 0.6366 0.0001
vn 0.1647 0.9863 -0.0001
vn 0.4735 0.8203 -0.3209
vn 0.1560 0.9345 -0.3200
vn 0.1560 0.9344 -0.3201
vn 0.3741 0.6482 -0.6633
vn 0.1234 0.7392 -0.6621
vn 0.1234 0.7391 -0.6622
vn 0.3157 0.5469 -0.7754
vn 0.1042 0.6240 -0.7744
vn 0.1041 0.6240 -0.7745
vn 0.4998 0.8661 -0.0021
vn 0.1647 0.9863 -0.0021
vn 0.4999 0.8661 -0.0000
vn 0.1648 0.9863 -0.0000
vn 0.4999 0.8661 0.0001
vn 0.4998 0.8661 0.0001
vn -0.1569 0.9343 -0.3200
vn 0.1645 0.9864 -0.0001
vn 0.1559 0.9345 -0.3200
vn -0.1241 0.7391 -0.6621
vn 0.1559 0.9345 -0.3201
vn 0.1233 0.7392 -0.6621
vn -0.1048 0.6239 -0.7744
vn 0.1233 0.7391 -0.6622
vn 0.1041 0.6241 -0.7744
vn -0.1656 0.9862 -0.0022
vn 0.1041 0.6239 -0.7745
vn 0.1645 0.9864 -0.0021
vn -0.1656 0.9862 -0.0021
vn 0.1644 0.9864 -0.0000
vn -0.1656 0.9862 -0.0000
vn -0.1655 0.9862 -0.0000
vn -0.4735 0.8203 -0.3209
vn -0.1657 0.9862 -0.0001
vn -0.1571 0.9343 -0.3200
vn -0.3742 0.6481 -0.6633
vn -0.1570 0.9343 -0.3202
vn -0.1242 0.7390 -0.6621
vn -0.3157 0.5469 -0.7754
vn -0.1242 0.7390 -0.6622
vn -0.1049 0.6239 -0.7744
vn -0.5000 0.8660 -0.0022
vn -0.1048 0.6238 -0.7745
vn -0.1657 0.9862 -0.0021
vn -0.4998 0.8661 -0.0000
vn -0.1658 0.9861 -0.0021
vn -0.1657 0.9862 -0.0000
vn -0.4999 0.8661 -0.0000
vn -0.1657 0.9862 0.0001
vn -0.7719 0.6358 -0.0001
vn -0.4736 0.8202 -0.3209
vn -0.7313 0.6023 -0.3200
vn -0.7313 0.6023 -0.3201
vn -0.5785 0.4765 -0.6620
vn -0.5784 0.4764 -0.6622
vn -0.3158 0.5468 -0.7754
vn -0.4883 0.4023 -0.7744
vn -0.4883 0.4021 -0.7745
vn -0.5001 0.8660 -0.0021
vn -0.7718 0.6358 -0.0021
vn -0.7719 0.6358 -0.0021
vn -0.5001 0.8660 -0.0000
vn -0.7718 0.6358 -0.0000
vn -0.8876 0.3313 -0.3199
vn -0.7719 0.6357 -0.0001
vn -0.7314 0.6022 -0.3200
vn -0.7021 0.2620 -0.6621
vn -0.7313 0.6022 -0.3201
vn -0.5785 0.4764 -0.6621
vn -0.5927 0.2213 -0.7744
vn -0.5784 0.4763 -0.6623
vn -0.4884 0.4022 -0.7744
vn -0.9369 0.3497 -0.0022
vn -0.4883 0.4021 -0.7746
vn -0.7719 0.6357 -0.0021
vn -0.9369 0.3497 -0.0021
vn -0.7720 0.6356 -0.0000
vn -0.9368 0.3497 -0.0000
vn -0.9369 0.3497 -0.0000
vn -0.7720 0.6356 0.0001
vn -0.9471 -0.0000 -0.3209
vn -0.9369 0.3496 -0.0001
vn -0.8877 0.3311 -0.3200
vn -0.7484 -0.0000 -0.6633
vn -0.8876 0.3312 -0.3202
vn -0.6314 0.0001 -0.7754
vn -0.7020 0.2619 -0.6623
vn -0.5928 0.2211 -0.7744
vn -1.0000 0.0001 -0.0022
vn -0.5927 0.2210 -0.7745
vn -0.9369 0.3495 -0.0021
vn -1.0000 0.0001 -0.0000
vn -0.9370 0.3495 -0.0000
vn -1.0000 0.0001 0.0001
vn -0.9370 0.3495 -0.0001
vn -0.9365 -0.3506 -0.0001
vn -0.9471 -0.0001 -0.3209
vn -0.8873 -0.3322 -0.3200
vn -0.8873 -0.3321 -0.3201
vn -0.7484 -0.0001 -0.6633
vn -0.7019 -0.2627 -0.6621
vn -0.7018 -0.2627 -0.6622
vn -0.6315 -0.0001 -0.7754
vn -0.5925 -0.2218 -0.7744
vn -0.5924 -0.2218 -0.7745
vn -1.0000 -0.0001 -0.0021
vn -0.9365 -0.3506 -0.0021
vn -1.0000 -0.0001 -0.0000
vn -0.9365 -0.3506 -0.0000
vn -0.9365 -0.3506 0.0001
vn -1.0000 -0.0001 0.0001
vn -1.0000 -0.0001 -0.0001
vn -0.7307 -0.6031 -0.3200
vn -0.9365 -0.3507 -0.0002
vn -0.8872 -0.3323 -0.3199
vn -0.5780 -0.4770 -0.6621
vn -0.8872 -0.3322 -0.3201
vn -0.7018 -0.2628 -0.6621
vn -0.4880 -0.4027 -0.7744
vn -0.7017 -0.2628 -0.6622
vn -0.5925 -0.2219 -0.7744
vn -0.7713 -0.6365 -0.0022
vn -0.9365 -0.3507 -0.0021
vn -0.7713 -0.6365 -0.0021
vn -0.9365 -0.3507 -0.0000
vn -0.7713 -0.6365 -0.0000
vn -0.7713 -0.6365 0.0001
vn -0.4736 -0.8202 -0.3209
vn -0.7712 -0.6366 -0.0001
vn -0.7306 -0.6032 -0.3200
vn -0.3742 -0.6481 -0.6633
vn -0.7306 -0.6031 -0.3202
vn -0.5779 -0.4771 -0.6621
vn -0.3158 -0.5468 -0.7754
vn -0.5779 -0.4770 -0.6622
vn -0.4879 -0.4028 -0.7744
vn -0.5001 -0.8660 -0.0022
vn -0.4878 -0.4027 -0.7745
vn -0.7712 -0.6366 -0.0021
vn -0.5001 -0.8660 -0.0000
vn -0.7712 -0.6366 -0.0000
vn -0.1647 -0.9863 -0.0001
vn -0.4735 -0.8203 -0.3209
vn -0.1560 -0.9345 -0.3200
vn -0.1560 -0.9344 -0.3201
vn -0.3741 -0.6482 -0.6633
vn -0.1234 -0.7392 -0.6621
vn -0.1234 -0.7391 -0.6622
vn -0.3157 -0.5469 -0.7754
vn -0.1042 -0.6240 -0.7744
vn -0.1041 -0.6240 -0.7745
vn -0.4998 -0.8661 -0.0021
vn -0.1647 -0.9863 -0.0021
vn -0.4999 -0.8661 -0.0000
vn -0.1648 -0.9863 -0.0000
vn -0.4999 -0.8661 -0.0001
vn -0.4998 -0.8661 -0.0000
vn 0.1569 -0.9343 -0.3200
vn -0.1645 -0.9864 -0.0001
vn -0.1559 -0.9345 -0.3200
vn 0.1241 -0.7391 -0.6621
vn -0.1559 -0.9345 -0.3201
vn -0.1233 -0.7392 -0.6621
vn 0.1048 -0.6239 -0.7744
vn -0.1233 -0.7391 -0.6622
vn -0.1041 -0.6241 -0.7744
vn 0.1656 -0.9862 -0.0022
vn -0.1041 -0.6239 -0.7745
vn -0.1645 -0.9864 -0.0021
vn 0.1656 -0.9862 -0.0021
vn -0.1644 -0.9864 -0.0000
vn 0.1656 -0.9862 -0.0000
vn 0.1655 -0.9862 -0.0000
vn 0.4735 -0.8203 -0.3209
vn 0.1657 -0.9862 -0.0001
vn 0.1571 -0.9343 -0.3200
vn 0.3742 -0.6481 -0.6633
vn 0.1570 -0.9343 -0.3202
vn 0.1242 -0.7390 -0.6621
vn 0.3157 -0.5469 -0.7754
vn 0.1242 -0.7390 -0.6622
vn 0.1049 -0.6239 -0.7744
vn 0.5000 -0.8660 -0.0022
vn 0.1048 -0.6238 -0.7745
vn 0.1657 -0.9862 -0.0021
vn 0.4998 -0.8661 -0.0000
vn 0.1658 -0.9861 -0.0021
vn 0.1657 -0.9862 -0.0000
vn 0.4999 -0.8661 -0.0000
vn 0.7719 -0.6358 -0.0001
vn 0.4736 -0.8202 -0.3209
vn 0.7313 -0.6023 -0.3200
vn 0.7313 -0.6023 -0.3201
vn 0.5785 -0.4765 -0.6620
vn 0.5784 -0.4764 -0.6622
vn 0.3158 -0.5468 -0.7754
vn 0.4883 -0.4023 -0.7744
vn 0.4883 -0.4021 -0.7745
vn 0.5001 -0.8660 -0.0021
vn 0.7718 -0.6358 -0.0021
vn 0.7719 -0.6358 -0.0021
vn 0.5001 -0.8660 -0.0000
vn 0.7719 -0.6358 -0.0000
vn 0.7718 -0.6358 -0.0000
vn 0.5001 -0.8660 0.0001
vn 0.8876 -0.3313 -0.3199
vn 0.7719 -0.6357 -0.0001
vn 0.7314 -0.6022 -0.3200
vn 0.7021 -0.2620 -0.6621
vn 0.7313 -0.6022 -0.3201
vn 0.5785 -0.4764 -0.6621
vn 0.5927 -0.2213 -0.7744
vn 0.5784 -0.4763 -0.6623
vn 0.4884 -0.4022 -0.7744
vn 0.9369 -0.3497 -0.0022
vn 0.7719 -0.6357 -0.0021
vn 0.9369 -0.3497 -0.0021
vn 0.7720 -0.6356 -0.0000
vn 0.9368 -0.3497 -0.0000
vn 0.9369 -0.3497 -0.0000
vn 0.7720 -0.6356 0.0001
vn 0.9369 -0.3497 0.0001
vn 0.9471 -0.0000 -0.3209
vn 0.9369 -0.3496 -0.0001
vn 0.8877 -0.3311 -0.3200
vn 0.7484 -0.0000 -0.6633
vn 0.8876 -0.3312 -0.3202
vn 0.6314 -0.0001 -0.7754
vn 0.7020 -0.2619 -0.6623
vn 0.5928 -0.2211 -0.7744
vn 1.0000 -0.0001 -0.0022
vn 0.5927 -0.2210 -0.7745
vn 0.9369 -0.3495 -0.0021
vn 1.0000 -0.0001 -0.0000
vn 0.9370 -0.3495 -0.0000
vn 0.9370 -0.3495 0.0001
vn 0.6537 -0.0000 0.7567
vn 0.6134 0.2296 0.7557
vn 0.3269 0.5661 0.7567
vn 0.5000 0.8660 -0.0002
vn 0.5051 0.4169 0.7557
vn 0.9365 0.3506 -0.0002
vn 0.7712 0.6366 -0.0002
vn 0.3268 0.5663 0.7567
vn 0.1646 0.9864 -0.0001
vn 0.1079 0.6460 0.7557
vn -0.3268 0.5662 0.7567
vn -0.5000 0.8660 -0.0002
vn -0.6136 0.2290 0.7557
vn -0.7719 0.6358 -0.0002
vn -0.9369 0.3496 -0.0002
vn -0.6538 -0.0000 0.7567
vn -0.6136 0.2289 0.7557
vn -0.3270 0.5661 0.7567
vn -0.7718 0.6358 -0.0002
vn -0.5055 0.4164 0.7557
vn -0.1085 0.6459 0.7557
vn -0.1657 0.9862 -0.0002
vn 0.1647 0.9863 -0.0000
vn -0.4999 0.8661 -0.0001
vn -0.9369 0.3497 -0.0001
vn -1.0000 0.0002 -0.0001
vn -0.5051 -0.4169 0.7557
vn -0.9365 -0.3506 -0.0002
vn -0.7712 -0.6366 -0.0002
vn -0.3268 -0.5663 0.7567
vn -0.1646 -0.9864 -0.0001
vn -0.1079 -0.6460 0.7557
vn -0.3269 -0.5661 0.7567
vn -0.7713 -0.6365 -0.0001
vn -0.5000 -0.8660 -0.0002
vn 0.1085 -0.6459 0.7557
vn -0.1078 -0.6460 0.7557
vn 0.3268 -0.5662 0.7567
vn 0.5000 -0.8660 -0.0002
vn 0.6136 -0.2290 0.7557
vn 0.7719 -0.6358 -0.0002
vn 0.9369 -0.3496 -0.0002
vn 0.6538 -0.0001 0.7567
vn 0.9369 -0.3497 -0.0001
vn 1.0000 -0.0000 -0.0002
vn 0.3270 -0.5661 0.7567
vn 0.7718 -0.6358 -0.0002
vn 0.5055 -0.4164 0.7557
vn -0.1647 -0.9863 -0.0000
vn -0.7712 -0.6366 0.0001
vn -1.0000 -0.0002 -0.0000
vn 1.0000 -0.0001 -0.0001
vn 0.8873 0.3320 -0.3201
vn 0.9471 -0.0000 -0.3210
vn 0.7484 -0.0000 -0.6632
vn 0.7483 -0.0000 -0.6634
vn 0.6315 0.0002 -0.7754
vn 0.5925 0.2218 -0.7745
vn 0.6313 -0.0000 -0.7755
vn 1.0000 0.0002 -0.0000
vn 0.7307 0.6031 -0.3199
vn 0.7713 0.6364 -0.0001
vn 0.7307 0.6030 -0.3201
vn 0.5780 0.4770 -0.6622
vn 0.7018 0.2628 -0.6622
vn 0.5924 0.2217 -0.7745
vn 0.4736 0.8201 -0.3210
vn 0.7306 0.6031 -0.3201
vn 0.3742 0.6480 -0.6634
vn 0.3157 0.5468 -0.7755
vn 0.4879 0.4026 -0.7745
vn 0.5001 0.8659 -0.0021
vn 0.4999 0.8661 -0.0001
vn 0.4735 0.8202 -0.3211
vn 0.3741 0.6480 -0.6634
vn 0.1042 0.6240 -0.7745
vn 0.3156 0.5468 -0.7755
vn 0.4999 0.8661 -0.0022
vn 0.1648 0.9863 -0.0001
vn 0.4998 0.8661 -0.0000
vn -0.1569 0.9344 -0.3199
vn -0.1656 0.9862 -0.0001
vn -0.1569 0.9343 -0.3201
vn -0.1241 0.7390 -0.6622
vn -0.1656 0.9862 -0.0023
vn -0.1048 0.6239 -0.7745
vn 0.1043 0.6239 -0.7745
vn -0.3741 0.6481 -0.6633
vn -0.4735 0.8202 -0.3210
vn -0.1570 0.9343 -0.3201
vn -0.3740 0.6481 -0.6634
vn -0.4999 0.8661 -0.0022
vn -0.3157 0.5468 -0.7755
vn -0.1047 0.6238 -0.7745
vn -0.4999 0.8661 -0.0021
vn -0.4998 0.8661 -0.0001
vn -0.4998 0.8661 0.0001
vn -0.5001 0.8660 -0.0001
vn -0.4736 0.8201 -0.3210
vn -0.3742 0.6481 -0.6632
vn -0.3742 0.6480 -0.6634
vn -0.4883 0.4022 -0.7745
vn -0.3157 0.5467 -0.7756
vn -0.8876 0.3313 -0.3201
vn -0.7313 0.6022 -0.3202
vn -0.7020 0.2620 -0.6622
vn -0.5785 0.4763 -0.6622
vn -0.9368 0.3497 -0.0022
vn -0.5927 0.2211 -0.7745
vn -0.7720 0.6356 -0.0021
vn -1.0000 0.0001 -0.0001
vn -0.9471 0.0001 -0.3210
vn -0.6315 0.0001 -0.7754
vn -0.7483 0.0001 -0.6634
vn -0.7021 0.2619 -0.6622
vn -0.6313 -0.0000 -0.7755
vn -0.5926 0.2212 -0.7745
vn -1.0000 0.0001 -0.0021
vn -0.8873 -0.3320 -0.3201
vn -0.9471 -0.0000 -0.3210
vn -0.7484 -0.0000 -0.6632
vn -0.7483 -0.0000 -0.6634
vn -0.6315 -0.0002 -0.7754
vn -0.5925 -0.2218 -0.7745
vn -0.7307 -0.6031 -0.3199
vn -0.7713 -0.6364 -0.0001
vn -0.7307 -0.6030 -0.3201
vn -0.7018 -0.2628 -0.6622
vn -0.5924 -0.2217 -0.7745
vn -0.7713 -0.6364 -0.0021
vn -0.5001 -0.8660 -0.0001
vn -0.4736 -0.8201 -0.3210
vn -0.7306 -0.6031 -0.3201
vn -0.3742 -0.6480 -0.6634
vn -0.3157 -0.5468 -0.7755
vn -0.4879 -0.4026 -0.7745
vn -0.5001 -0.8659 -0.0021
vn -0.4735 -0.8202 -0.3211
vn -0.3741 -0.6480 -0.6634
vn -0.1042 -0.6240 -0.7745
vn -0.3156 -0.5468 -0.7755
vn -0.4999 -0.8661 -0.0022
vn 0.1569 -0.9344 -0.3199
vn 0.1656 -0.9862 -0.0001
vn 0.1569 -0.9343 -0.3201
vn 0.1241 -0.7390 -0.6622
vn 0.1656 -0.9862 -0.0023
vn 0.1048 -0.6239 -0.7745
vn -0.1043 -0.6239 -0.7745
vn 0.4999 -0.8661 -0.0001
vn 0.3741 -0.6481 -0.6633
vn 0.4735 -0.8202 -0.3210
vn 0.1570 -0.9343 -0.3201
vn 0.3740 -0.6481 -0.6634
vn 0.4999 -0.8661 -0.0022
vn 0.3157 -0.5468 -0.7755
vn 0.1047 -0.6238 -0.7745
vn 0.4999 -0.8661 -0.0021
vn 0.1657 -0.9862 0.0001
vn 0.4998 -0.8661 -0.0001
vn 0.5001 -0.8660 -0.0001
vn 0.4736 -0.8201 -0.3210
vn 0.3742 -0.6481 -0.6632
vn 0.3742 -0.6480 -0.6634
vn 0.4883 -0.4022 -0.7745
vn 0.3157 -0.5467 -0.7755
vn 0.8876 -0.3313 -0.3201
vn 0.7313 -0.6022 -0.3202
vn 0.7020 -0.2620 -0.6622
vn 0.5785 -0.4763 -0.6622
vn 0.5926 -0.2211 -0.7745
vn 0.7720 -0.6356 -0.0021
vn 0.9471 -0.0001 -0.3210
vn 0.6315 -0.0001 -0.7754
vn 0.7483 -0.0001 -0.6634
vn 0.7021 -0.2619 -0.6622
vn 0.5926 -0.2212 -0.7745
vn 1.0000 -0.0001 -0.0021
vn 0.6538 -0.0000 0.7567
vn 1.0000 -0.0002 -0.0001
vn 0.7713 0.6365 -0.0001
vn 0.6133 0.2298 0.7557
vn 0.9365 0.3507 -0.0001
vn -0.1086 0.6459 0.7557
vn -0.5056 0.4163 0.7557
vn -1.0000 -0.0000 -0.0002
vn -0.6538 0.0001 0.7567
vn 0.1078 0.6460 0.7557
vn 0.9365 0.3507 0.0001
vn -0.6134 -0.2296 0.7556
vn -0.6134 -0.2297 0.7556
vn -0.9365 -0.3507 -0.0001
vn 0.1657 -0.9862 -0.0002
vn 0.1086 -0.6459 0.7557
vn 0.5056 -0.4163 0.7557
vn 0.6136 -0.2289 0.7557
vt 0.031580 0.451241
vt 0.234702 0.451356
vt 0.008415 0.491536
vt 0.066547 0.421232
vt 0.110023 0.405762
vt 0.257825 0.491675
vt 0.000000 0.537129
vt 0.266188 0.537129
vt 0.008363 0.582583
vt 0.066547 0.653026
vt 0.031486 0.622902
vt 0.109877 0.668471
vt 0.156165 0.668495
vt 0.257773 0.582722
vt 0.156311 0.405787
vt 0.199641 0.421232
vt 0.234608 0.623017
vt 0.199641 0.653026
vt 0.021617 0.031132
vt 0.005777 0.120833
vt 0.005742 0.058664
vt 0.045690 0.010563
vt 0.075440 0.000017
vt 0.161143 0.148269
vt 0.000000 0.089701
vt 0.045690 0.168839
vt 0.021682 0.148347
vt 0.075540 0.179402
vt 0.107221 0.000000
vt 0.161079 0.031054
vt 0.137071 0.010563
vt 0.176984 0.058568
vt 0.137071 0.168839
vt 0.107321 0.179385
vt 0.177019 0.120738
vt 0.182761 0.089701
vt 0.628664 0.055592
vt 0.496518 0.000000
vt 0.496518 0.055592
vt 0.444735 0.000000
vt 0.444735 0.055592
vt 0.390739 0.000000
vt 0.390739 0.055592
vt 0.337349 0.000000
vt 0.337349 0.055592
vt 0.320375 0.000000
vt 0.320375 0.055592
vt 0.307309 0.055592
vt 0.307309 0.000000
vt 0.296532 0.055592
vt 0.296532 0.000000
vt 0.286905 0.000000
vt 0.286905 0.055592
vt 0.277279 0.055592
vt 0.277279 0.000000
vt 0.496518 0.111007
vt 0.444735 0.111007
vt 0.390739 0.111007
vt 0.337349 0.111007
vt 0.320375 0.111007
vt 0.307309 0.111007
vt 0.296532 0.111007
vt 0.286905 0.111007
vt 0.277279 0.111007
vt 0.496518 0.166423
vt 0.628664 0.111007
vt 0.444735 0.166423
vt 0.390739 0.166423
vt 0.337349 0.166423
vt 0.320375 0.166423
vt 0.307309 0.166423
vt 0.296532 0.166423
vt 0.286905 0.166423
vt 0.277279 0.166423
vt 0.628664 0.222014
vt 0.496518 0.222014
vt 0.444735 0.222014
vt 0.390739 0.222014
vt 0.337349 0.222014
vt 0.320375 0.222014
vt 0.307309 0.222014
vt 0.296532 0.222014
vt 0.286905 0.222014
vt 0.277279 0.222014
vt 0.496518 0.277430
vt 0.444735 0.277430
vt 0.390739 0.277430
vt 0.337349 0.277430
vt 0.320375 0.277430
vt 0.307309 0.277430
vt 0.296532 0.277430
vt 0.286905 0.277430
vt 0.277279 0.277430
vt 0.496518 0.332845
vt 0.628664 0.277430
vt 0.444735 0.332845
vt 0.390739 0.332845
vt 0.337349 0.332845
vt 0.320375 0.332845
vt 0.307309 0.332845
vt 0.296532 0.332845
vt 0.286905 0.332845
vt 0.277279 0.332845
vt 0.628664 0.388437
vt 0.496518 0.388437
vt 0.444735 0.388437
vt 0.390739 0.388437
vt 0.337349 0.388437
vt 0.320375 0.388437
vt 0.307309 0.388437
vt 0.296532 0.388437
vt 0.286905 0.388437
vt 0.277279 0.388437
vt 0.496518 0.443852
vt 0.444735 0.443852
vt 0.390739 0.443852
vt 0.337349 0.443852
vt 0.320375 0.443852
vt 0.307309 0.443852
vt 0.296532 0.443852
vt 0.286905 0.443852
vt 0.277279 0.443852
vt 0.496518 0.499268
vt 0.628664 0.443852
vt 0.444735 0.499268
vt 0.390739 0.499268
vt 0.337349 0.499268
vt 0.320375 0.499268
vt 0.307309 0.499268
vt 0.296532 0.499268
vt 0.286905 0.499268
vt 0.277279 0.499268
vt 0.628664 0.554859
vt 0.496518 0.554859
vt 0.444735 0.554859
vt 0.390739 0.554859
vt 0.337349 0.554859
vt 0.320375 0.554859
vt 0.307309 0.554859
vt 0.296532 0.554859
vt 0.286905 0.554859
vt 0.277279 0.554859
vt 0.496518 0.610275
vt 0.444735 0.610275
vt 0.390739 0.610275
vt 0.337349 0.610275
vt 0.320375 0.610275
vt 0.307309 0.610275
vt 0.296532 0.610275
vt 0.286905 0.610275
vt 0.277279 0.610275
vt 0.496518 0.665690
vt 0.628664 0.610275
vt 0.444735 0.665690
vt 0.390739 0.665690
vt 0.337349 0.665690
vt 0.320375 0.665690
vt 0.307309 0.665690
vt 0.296532 0.665690
vt 0.286905 0.665690
vt 0.277279 0.665690
vt 0.628664 0.721282
vt 0.496518 0.721282
vt 0.444735 0.721282
vt 0.390739 0.721282
vt 0.337349 0.721282
vt 0.320375 0.721282
vt 0.307309 0.721282
vt 0.296532 0.721282
vt 0.286905 0.721282
vt 0.277279 0.721282
vt 0.496518 0.776697
vt 0.444735 0.776697
vt 0.390739 0.776697
vt 0.337349 0.776697
vt 0.320375 0.776697
vt 0.307309 0.776697
vt 0.296532 0.776697
vt 0.286905 0.776697
vt 0.277279 0.776697
vt 0.496518 0.832113
vt 0.628664 0.776697
vt 0.444735 0.832113
vt 0.390739 0.832113
vt 0.337349 0.832113
vt 0.320375 0.832113
vt 0.307309 0.832113
vt 0.296532 0.832113
vt 0.286905 0.832113
vt 0.277279 0.832113
vt 0.628664 0.887705
vt 0.496518 0.887705
vt 0.444735 0.887705
vt 0.390739 0.887705
vt 0.337349 0.887705
vt 0.320375 0.887705
vt 0.307309 0.887705
vt 0.296532 0.887705
vt 0.286905 0.887705
vt 0.277279 0.887705
vt 0.496518 0.943120
vt 0.444735 0.943120
vt 0.390739 0.943120
vt 0.337349 0.943120
vt 0.320375 0.943120
vt 0.307309 0.943120
vt 0.296532 0.943120
vt 0.286905 0.943120
vt 0.277279 0.943120
vt 0.496518 0.998535
vt 0.628664 0.943120
vt 0.444735 0.998535
vt 0.390739 0.998535
vt 0.337349 0.998535
vt 0.320375 0.998535
vt 0.307309 0.998535
vt 0.296532 0.998535
vt 0.286905 0.998535
vt 0.277279 0.998535
vt 0.775226 0.000000
vt 0.775226 0.055592
vt 0.775226 0.166423
vt 0.628664 0.166423
vt 0.775226 0.111007
vt 0.775226 0.222014
vt 0.775226 0.332845
vt 0.628664 0.332845
vt 0.775226 0.443852
vt 0.775226 0.499268
vt 0.775226 0.388437
vt 0.775226 0.277430
vt 0.267653 0.055592
vt 0.267653 0.166423
vt 0.267653 0.111007
vt 0.267653 0.222014
vt 0.267653 0.332845
vt 0.267653 0.499268
vt 0.267653 0.443852
vt 0.267653 0.277430
vt 0.267653 0.388437
vt 0.628664 0.499268
vt 0.775226 0.610275
vt 0.775226 0.665690
vt 0.775226 0.721282
vt 0.628664 0.665690
vt 0.775226 0.776697
vt 0.775226 0.832113
vt 0.628664 0.832113
vt 0.775226 0.943120
vt 0.775226 0.998535
vt 0.628664 0.998535
vt 0.775226 0.887705
vt 0.267653 0.554859
vt 0.267653 0.610275
vt 0.267653 0.665690
vt 0.267653 0.721282
vt 0.267653 0.776697
vt 0.267653 0.832113
vt 0.267653 0.887705
vt 0.267653 0.943120
vt 0.267653 0.998535
vt 0.628664 0.000000
vt 0.267653 0.000000
vt 0.775226 0.554859
s 0
f 12/1/1 17/2/1 11/3/1
f 12/1/1 13/4/1 14/5/1
f 11/3/1 18/6/1 10/7/1
f 1/8/1 9/9/1 10/7/1
f 7/10/1 8/11/1 6/12/1
f 8/11/1 5/13/1 6/12/1
f 2/14/1 8/11/1 9/9/1
f 12/1/1 14/5/1 17/2/1
f 17/2/1 15/15/1 16/16/1
f 17/2/1 18/6/1 11/3/1
f 1/8/1 10/7/1 18/6/1
f 3/17/1 4/18/1 5/13/1
f 5/13/1 8/11/1 3/17/1
f 8/11/1 2/14/1 3/17/1
f 9/9/1 1/8/1 2/14/1
f 17/2/1 14/5/1 15/15/1
f 30/19/2 27/20/2 29/21/2
f 30/19/2 31/22/2 32/23/2
f 27/20/2 30/19/2 21/24/2
f 27/20/2 28/25/2 29/21/2
f 25/26/2 26/27/2 24/28/2
f 27/20/2 24/28/2 26/27/2
f 24/28/2 27/20/2 21/24/2
f 33/29/2 30/19/2 32/23/2
f 35/30/2 33/29/2 34/31/2
f 33/29/2 35/30/2 36/32/2
f 21/24/2 33/29/2 36/32/2
f 21/24/2 22/33/2 23/34/2
f 24/28/2 21/24/2 23/34/2
f 21/24/2 36/32/2 20/35/2
f 20/35/2 36/32/2 19/36/2
f 33/29/2 21/24/2 30/19/2
f 50/37/3 39/38/4 51/39/5
f 51/39/6 40/40/7 52/41/8
f 52/41/9 41/42/10 53/43/11
f 53/43/12 42/44/13 54/45/14
f 54/45/14 43/46/15 55/47/16
f 56/48/16 43/46/15 44/49/17
f 57/50/16 44/49/15 45/51/17
f 57/50/18 46/52/15 58/53/16
f 59/54/16 46/52/15 47/55/19
f 63/56/20 50/37/21 51/39/22
f 64/57/23 51/39/24 52/41/25
f 65/58/26 52/41/27 53/43/28
f 66/59/29 53/43/12 54/45/30
f 66/59/31 55/47/32 67/60/33
f 68/61/33 55/47/32 56/48/32
f 68/61/33 57/50/32 69/62/33
f 70/63/33 57/50/32 58/53/32
f 71/64/33 58/53/32 59/54/32
f 75/65/34 62/66/35 63/56/36
f 76/67/37 63/56/38 64/57/39
f 77/68/40 64/57/41 65/58/42
f 78/69/43 65/58/44 66/59/45
f 79/70/46 66/59/45 67/60/47
f 79/70/48 68/61/49 80/71/46
f 81/72/46 68/61/47 69/62/47
f 82/73/46 69/62/47 70/63/49
f 83/74/46 70/63/47 71/64/47
f 86/75/50 75/65/51 87/76/52
f 87/76/53 76/67/54 88/77/55
f 88/77/56 77/68/57 89/78/58
f 89/78/59 78/69/60 90/79/61
f 90/79/61 79/70/62 91/80/63
f 91/80/63 80/71/64 92/81/63
f 93/82/63 80/71/62 81/72/64
f 93/82/63 82/73/65 94/83/63
f 95/84/63 82/73/62 83/74/62
f 99/85/66 86/75/67 87/76/68
f 100/86/69 87/76/70 88/77/71
f 101/87/72 88/77/73 89/78/74
f 102/88/75 89/78/76 90/79/77
f 102/88/78 91/80/79 103/89/80
f 104/90/81 91/80/79 92/81/79
f 105/91/80 92/81/79 93/82/79
f 106/92/80 93/82/79 94/83/79
f 107/93/81 94/83/79 95/84/79
f 111/94/82 98/95/83 99/85/84
f 112/96/85 99/85/86 100/86/87
f 113/97/88 100/86/89 101/87/90
f 114/98/91 101/87/92 102/88/93
f 115/99/94 102/88/95 103/89/96
f 115/99/97 104/90/98 116/100/97
f 117/101/94 104/90/96 105/91/96
f 117/101/94 106/92/83 118/102/94
f 119/103/97 106/92/96 107/93/96
f 122/104/99 111/94/100 123/105/101
f 123/105/102 112/96/85 124/106/103
f 124/106/104 113/97/105 125/107/106
f 125/107/107 114/98/108 126/108/109
f 126/108/110 115/99/111 127/109/112
f 127/109/112 116/100/111 128/110/112
f 128/110/112 117/101/111 129/111/112
f 130/112/112 117/101/111 118/102/111
f 131/113/112 118/102/111 119/103/111
f 135/114/113 122/104/114 123/105/115
f 136/115/116 123/105/117 124/106/118
f 137/116/119 124/106/120 125/107/121
f 138/117/122 125/107/123 126/108/124
f 138/117/125 127/109/126 139/118/127
f 140/119/128 127/109/126 128/110/129
f 140/119/128 129/111/126 141/120/128
f 142/121/128 129/111/126 130/112/126
f 143/122/128 130/112/126 131/113/126
f 147/123/130 134/124/131 135/114/132
f 148/125/133 135/114/134 136/115/116
f 149/126/135 136/115/136 137/116/137
f 150/127/138 137/116/139 138/117/140
f 151/128/141 138/117/140 139/118/142
f 152/129/141 139/118/142 140/119/142
f 152/129/143 141/120/142 153/130/141
f 154/131/141 141/120/142 142/121/142
f 155/132/141 142/121/142 143/122/144
f 158/133/145 147/123/146 159/134/147
f 159/134/148 148/125/149 160/135/150
f 160/135/151 149/126/152 161/136/153
f 161/136/154 150/127/155 162/137/156
f 162/137/156 151/128/157 163/138/158
f 164/139/158 151/128/157 152/129/157
f 164/139/159 153/130/160 165/140/158
f 165/140/158 154/131/157 166/141/158
f 166/141/158 155/132/161 167/142/158
f 171/143/162 158/133/163 159/134/164
f 172/144/165 159/134/166 160/135/167
f 173/145/168 160/135/169 161/136/170
f 174/146/171 161/136/154 162/137/172
f 174/146/173 163/138/174 175/147/175
f 175/147/176 164/139/174 176/148/175
f 176/148/175 165/140/174 177/149/175
f 178/150/175 165/140/174 166/141/174
f 178/150/175 167/142/174 179/151/175
f 183/152/177 170/153/178 171/143/179
f 184/154/180 171/143/181 172/144/182
f 185/155/183 172/144/184 173/145/185
f 186/156/186 173/145/187 174/146/188
f 187/157/189 174/146/188 175/147/190
f 188/158/189 175/147/190 176/148/190
f 188/158/189 177/149/190 189/159/189
f 189/159/189 178/150/190 190/160/189
f 190/160/189 179/151/190 191/161/189
f 194/162/191 183/152/192 195/163/193
f 195/163/194 184/154/195 196/164/196
f 196/164/197 185/155/198 197/165/199
f 197/165/200 186/156/201 198/166/202
f 198/166/202 187/157/203 199/167/204
f 200/168/204 187/157/203 188/158/205
f 200/168/204 189/159/203 201/169/204
f 201/169/204 190/160/206 202/170/204
f 202/170/204 191/161/203 203/171/204
f 207/172/207 194/162/208 195/163/209
f 208/173/210 195/163/211 196/164/212
f 209/174/213 196/164/214 197/165/215
f 210/175/216 197/165/217 198/166/218
f 210/175/219 199/167/220 211/176/221
f 212/177/222 199/167/220 200/168/220
f 212/177/221 201/169/220 213/178/221
f 213/178/221 202/170/220 214/179/221
f 214/179/222 203/171/220 215/180/222
f 219/181/223 206/182/224 207/172/225
f 220/183/226 207/172/227 208/173/228
f 221/184/229 208/173/230 209/174/231
f 222/185/232 209/174/233 210/175/234
f 223/186/235 210/175/236 211/176/237
f 223/186/238 212/177/224 224/187/238
f 224/187/235 213/178/237 225/188/235
f 226/189/235 213/178/237 214/179/237
f 226/189/238 215/180/237 227/190/238
f 230/191/239 219/181/240 231/192/241
f 231/192/242 220/183/226 232/193/243
f 232/193/244 221/184/245 233/194/246
f 233/194/247 222/185/248 234/195/249
f 234/195/250 223/186/251 235/196/252
f 235/196/253 224/187/254 236/197/253
f 236/197/253 225/188/251 237/198/253
f 237/198/253 226/189/251 238/199/253
f 239/200/253 226/189/251 227/190/254
f 243/201/255 230/191/256 231/192/257
f 244/202/258 231/192/259 232/193/260
f 245/203/261 232/193/262 233/194/263
f 246/204/264 233/194/247 234/195/265
f 246/204/266 235/196/267 247/205/268
f 247/205/269 236/197/267 248/206/269
f 248/206/268 237/198/270 249/207/268
f 249/207/269 238/199/267 250/208/269
f 250/208/271 239/200/267 251/209/269
f 255/210/272 242/211/273 243/201/274
f 256/212/275 243/201/276 244/202/258
f 257/213/277 244/202/278 245/203/279
f 258/214/280 245/203/281 246/204/282
f 259/215/283 246/204/282 247/205/284
f 260/216/283 247/205/284 248/206/284
f 261/217/283 248/206/284 249/207/285
f 261/217/283 250/208/284 262/218/283
f 262/218/283 251/209/285 263/219/283
f 37/220/286 50/37/3 49/221/287
f 73/222/288 62/66/35 74/223/289
f 61/224/290 50/37/291 62/66/292
f 73/222/293 86/75/294 85/225/295
f 109/226/296 98/95/83 110/227/297
f 133/228/298 122/104/299 134/124/300
f 134/124/300 145/229/301 133/228/302
f 109/226/303 122/104/304 121/230/305
f 97/231/306 86/75/294 98/95/307
f 47/55/15 60/232/16 59/54/16
f 71/64/47 84/233/46 83/74/46
f 59/54/32 72/234/33 71/64/33
f 95/84/308 84/233/62 96/235/308
f 107/93/96 120/236/97 119/103/309
f 156/237/141 143/122/142 144/238/142
f 131/113/126 144/238/128 143/122/310
f 108/239/81 95/84/79 96/235/79
f 119/103/111 132/240/112 131/113/112
f 158/133/145 145/229/301 146/241/311
f 169/242/312 158/133/313 170/153/314
f 181/243/315 194/162/316 193/244/317
f 181/243/318 170/153/319 182/245/320
f 194/162/316 205/246/321 193/244/322
f 217/247/323 206/182/224 218/248/324
f 241/249/325 230/191/326 242/211/327
f 253/250/328 242/211/329 254/251/330
f 217/247/331 230/191/332 229/252/333
f 179/151/175 168/253/174 180/254/175
f 203/171/334 192/255/203 204/256/334
f 191/161/189 180/254/335 192/255/189
f 167/142/158 156/237/336 168/253/158
f 216/257/222 203/171/220 204/256/220
f 215/180/237 228/258/238 227/190/238
f 251/209/268 240/259/267 252/260/268
f 251/209/284 264/261/283 263/219/337
f 227/190/251 240/259/253 239/200/253
f 50/37/3 38/262/17 39/38/4
f 51/39/338 39/38/339 40/40/340
f 52/41/9 40/40/341 41/42/342
f 53/43/343 41/42/344 42/44/13
f 54/45/14 42/44/13 43/46/15
f 56/48/16 55/47/16 43/46/15
f 57/50/16 56/48/16 44/49/15
f 57/50/18 45/51/345 46/52/15
f 59/54/16 58/53/16 46/52/15
f 63/56/346 62/66/347 50/37/21
f 64/57/23 63/56/348 51/39/24
f 65/58/26 64/57/349 52/41/350
f 66/59/29 65/58/44 53/43/351
f 66/59/31 54/45/30 55/47/32
f 68/61/33 67/60/33 55/47/32
f 68/61/33 56/48/32 57/50/32
f 70/63/33 69/62/33 57/50/32
f 71/64/33 70/63/33 58/53/32
f 75/65/34 74/223/48 62/66/35
f 76/67/37 75/65/352 63/56/353
f 77/68/40 76/67/354 64/57/41
f 78/69/43 77/68/355 65/58/356
f 79/70/46 78/69/357 66/59/45
f 79/70/48 67/60/47 68/61/49
f 81/72/46 80/71/48 68/61/47
f 82/73/46 81/72/46 69/62/47
f 83/74/46 82/73/48 70/63/47
f 86/75/50 74/223/358 75/65/51
f 87/76/53 75/65/359 76/67/37
f 88/77/56 76/67/360 77/68/57
f 89/78/361 77/68/362 78/69/363
f 90/79/61 78/69/60 79/70/62
f 91/80/364 79/70/62 80/71/62
f 93/82/63 92/81/63 80/71/62
f 93/82/63 81/72/62 82/73/64
f 95/84/63 94/83/364 82/73/365
f 99/85/366 98/95/367 86/75/67
f 100/86/69 99/85/368 87/76/70
f 101/87/72 100/86/369 88/77/73
f 102/88/370 101/87/371 89/78/372
f 102/88/78 90/79/77 91/80/79
f 104/90/80 103/89/80 91/80/79
f 105/91/81 104/90/81 92/81/79
f 106/92/80 105/91/80 93/82/79
f 107/93/80 106/92/80 94/83/79
f 111/94/82 110/227/309 98/95/83
f 112/96/373 111/94/374 99/85/375
f 113/97/88 112/96/376 100/86/89
f 114/98/377 113/97/378 101/87/379
f 115/99/97 114/98/380 102/88/95
f 115/99/94 103/89/96 104/90/96
f 117/101/97 116/100/97 104/90/96
f 117/101/381 105/91/96 106/92/96
f 119/103/94 118/102/382 106/92/96
f 122/104/99 110/227/383 111/94/100
f 123/105/102 111/94/384 112/96/385
f 124/106/104 112/96/386 113/97/105
f 125/107/387 113/97/388 114/98/108
f 126/108/110 114/98/108 115/99/111
f 127/109/112 115/99/111 116/100/111
f 128/110/112 116/100/111 117/101/111
f 130/112/112 129/111/112 117/101/111
f 131/113/112 130/112/112 118/102/111
f 135/114/113 134/124/310 122/104/114
f 136/115/116 135/114/389 123/105/390
f 137/116/119 136/115/391 124/106/392
f 138/117/393 137/116/394 125/107/387
f 138/117/125 126/108/395 127/109/126
f 140/119/127 139/118/127 127/109/126
f 140/119/128 128/110/126 129/111/126
f 142/121/128 141/120/310 129/111/126
f 143/122/128 142/121/128 130/112/126
f 147/123/130 146/241/396 134/124/131
f 148/125/133 147/123/397 135/114/134
f 149/126/398 148/125/399 136/115/400
f 150/127/138 149/126/401 137/116/402
f 151/128/141 150/127/403 138/117/140
f 152/129/141 151/128/141 139/118/142
f 152/129/141 140/119/142 141/120/144
f 154/131/141 153/130/143 141/120/142
f 155/132/141 154/131/141 142/121/142
f 158/133/145 146/241/161 147/123/146
f 159/134/404 147/123/405 148/125/406
f 160/135/151 148/125/407 149/126/408
f 161/136/409 149/126/401 150/127/155
f 162/137/156 150/127/155 151/128/157
f 164/139/158 163/138/145 151/128/157
f 164/139/159 152/129/157 153/130/157
f 165/140/158 153/130/157 154/131/157
f 166/141/158 154/131/157 155/132/161
f 171/143/410 170/153/411 158/133/163
f 172/144/165 171/143/412 159/134/166
f 173/145/168 172/144/184 160/135/413
f 174/146/171 173/145/187 161/136/414
f 174/146/415 162/137/172 163/138/174
f 175/147/176 163/138/174 164/139/174
f 176/148/175 164/139/174 165/140/174
f 178/150/175 177/149/175 165/140/174
f 178/150/175 166/141/174 167/142/174
f 183/152/177 182/245/416 170/153/178
f 184/154/180 183/152/417 171/143/418
f 185/155/183 184/154/419 172/144/184
f 186/156/186 185/155/420 173/145/421
f 187/157/189 186/156/422 174/146/188
f 188/158/189 187/157/189 175/147/190
f 188/158/189 176/148/190 177/149/190
f 189/159/189 177/149/190 178/150/190
f 190/160/189 178/150/190 179/151/190
f 194/162/191 182/245/205 183/152/192
f 195/163/194 183/152/423 184/154/180
f 196/164/197 184/154/424 185/155/198
f 197/165/425 185/155/426 186/156/427
f 198/166/202 186/156/201 187/157/203
f 200/168/204 199/167/204 187/157/203
f 200/168/204 188/158/203 189/159/203
f 201/169/204 189/159/203 190/160/203
f 202/170/204 190/160/206 191/161/206
f 207/172/428 206/182/429 194/162/208
f 208/173/210 207/172/430 195/163/211
f 209/174/213 208/173/431 196/164/214
f 210/175/432 209/174/433 197/165/434
f 210/175/219 198/166/218 199/167/220
f 212/177/221 211/176/221 199/167/220
f 212/177/222 200/168/220 201/169/220
f 213/178/221 201/169/220 202/170/220
f 214/179/221 202/170/220 203/171/220
f 219/181/223 218/248/435 206/182/224
f 220/183/436 219/181/437 207/172/438
f 221/184/229 220/183/439 208/173/230
f 222/185/440 221/184/441 209/174/442
f 223/186/238 222/185/443 210/175/236
f 223/186/235 211/176/237 212/177/237
f 224/187/238 212/177/237 213/178/444
f 226/189/235 225/188/235 213/178/237
f 226/189/445 214/179/237 215/180/237
f 230/191/239 218/248/446 219/181/240
f 231/192/242 219/181/447 220/183/448
f 232/193/244 220/183/449 221/184/245
f 233/194/450 221/184/451 222/185/248
f 234/195/250 222/185/248 223/186/251
f 235/196/252 223/186/251 224/187/251
f 236/197/253 224/187/251 225/188/254
f 237/198/253 225/188/251 226/189/251
f 239/200/253 238/199/253 226/189/251
f 243/201/255 242/211/329 230/191/256
f 244/202/258 243/201/452 231/192/453
f 245/203/261 244/202/454 232/193/455
f 246/204/264 245/203/456 233/194/450
f 246/204/266 234/195/457 235/196/267
f 247/205/268 235/196/267 236/197/267
f 248/206/269 236/197/267 237/198/267
f 249/207/268 237/198/267 238/199/267
f 250/208/271 238/199/267 239/200/267
f 255/210/272 254/251/337 242/211/273
f 256/212/275 255/210/458 243/201/276
f 257/213/459 256/212/460 244/202/461
f 258/214/280 257/213/344 245/203/462
f 259/215/283 258/214/463 246/204/282
f 260/216/283 259/215/283 247/205/284
f 261/217/283 260/216/283 248/206/284
f 261/217/337 249/207/284 250/208/284
f 262/218/283 250/208/284 251/209/284
f 37/220/464 38/262/465 50/37/3
f 73/222/288 61/224/290 62/66/466
f 61/224/290 49/221/467 50/37/468
f 73/222/293 74/223/48 86/75/294
f 109/226/296 97/231/469 98/95/367
f 133/228/298 121/230/470 122/104/114
f 134/124/131 146/241/471 145/229/472
f 109/226/303 110/227/309 122/104/99
f 97/231/306 85/225/473 86/75/294
f 47/55/345 48/263/345 60/232/16
f 71/64/47 72/234/47 84/233/46
f 59/54/32 60/232/474 72/234/33
f 95/84/63 83/74/62 84/233/62
f 107/93/96 108/239/98 120/236/94
f 156/237/141 155/132/141 143/122/142
f 131/113/126 132/240/126 144/238/128
f 108/239/81 107/93/81 95/84/79
f 119/103/111 120/236/111 132/240/112
f 158/133/145 157/264/475 145/229/301
f 169/242/312 157/264/476 158/133/477
f 181/243/315 182/245/416 194/162/316
f 181/243/318 169/242/312 170/153/319
f 194/162/316 206/182/478 205/246/321
f 217/247/323 205/246/479 206/182/429
f 241/249/325 229/252/480 230/191/256
f 253/250/464 241/249/481 242/211/327
f 217/247/331 218/248/435 230/191/239
f 179/151/175 167/142/174 168/253/174
f 203/171/204 191/161/203 192/255/203
f 191/161/189 179/151/190 180/254/190
f 167/142/158 155/132/157 156/237/157
f 216/257/222 215/180/222 203/171/220
f 215/180/237 216/257/237 228/258/235
f 251/209/269 239/200/267 240/259/267
f 251/209/284 252/260/284 264/261/283
f 227/190/251 228/258/251 240/259/253
