# Blender 4.2.0
# www.blender.org
o PaveSettingBase
v -0.075000 0.075000 0.140000
v -0.000000 0.075000 0.140000
v -0.075000 0.000000 0.140000
v -0.000000 -0.075000 0.140000
v -0.075000 -0.075000 0.140000
v 0.075000 0.000000 0.140000
v 0.075000 -0.075000 0.140000
v 0.075000 0.075000 0.140000
v 0.093704 -0.117130 0.140000
v 0.071140 -0.132057 0.140000
v 0.044725 -0.143177 0.140000
v 0.015488 -0.149198 0.140000
v 0.114356 -0.097071 0.140000
v 0.149247 -0.015011 0.140000
v 0.143116 -0.044921 0.140000
v 0.131178 -0.072749 0.140000
v 0.149198 0.015488 0.140000
v -0.044921 -0.143116 0.140000
v -0.072749 -0.131178 0.140000
v -0.117130 -0.093704 0.140000
v -0.097071 -0.114356 0.140000
v -0.015011 -0.149247 0.140000
v -0.132057 -0.071140 0.140000
v -0.143177 -0.044725 0.140000
v -0.149198 -0.015488 0.140000
v 0.143177 0.044725 0.140000
v 0.117130 0.093704 0.140000
v 0.132057 0.071140 0.140000
v 0.044921 0.143116 0.140000
v 0.097071 0.114356 0.140000
v 0.072749 0.131178 0.140000
v 0.015011 0.149247 0.140000
v -0.015488 0.149198 0.140000
v -0.143116 0.044921 0.140000
v -0.149247 0.015011 0.140000
v -0.131178 0.072749 0.140000
v -0.114356 0.097071 0.140000
v -0.071140 0.132057 0.140000
v -0.044725 0.143177 0.140000
v -0.093704 0.117130 0.140000
v 0.109435 -0.102587 0.473333
v 0.104334 -0.107771 0.473333
v 0.104334 -0.107771 0.406667
v 0.114356 -0.097071 0.406667
v 0.114356 -0.097071 0.473333
v 0.114356 -0.097071 0.506667
v 0.109435 -0.102587 0.506667
v 0.104334 -0.107771 0.506667
v 0.099081 -0.112619 0.506667
v 0.099081 -0.112619 0.473333
v 0.093704 -0.117130 0.506667
v 0.093704 -0.117130 0.473333
v 0.093704 -0.117130 0.406667
v 0.127357 -0.079248 0.473333
v 0.123262 -0.085477 0.473333
v 0.123262 -0.085477 0.406667
v 0.131178 -0.072749 0.406667
v 0.131178 -0.072749 0.473333
v 0.131178 -0.072749 0.506667
v 0.127357 -0.079248 0.506667
v 0.123262 -0.085477 0.506667
v 0.118920 -0.091422 0.506667
v 0.118920 -0.091422 0.473333
v 0.140635 -0.052171 0.473333
v 0.137806 -0.059242 0.473333
v 0.137806 -0.059242 0.406667
v 0.143116 -0.044921 0.406667
v 0.143116 -0.044921 0.473333
v 0.143116 -0.044921 0.506667
v 0.140635 -0.052171 0.506667
v 0.137806 -0.059242 0.506667
v 0.134647 -0.066108 0.506667
v 0.134647 -0.066108 0.473333
v 0.148285 -0.022618 0.473333
v 0.146937 -0.030157 0.473333
v 0.146937 -0.030157 0.406667
v 0.149247 -0.015011 0.406667
v 0.149247 -0.015011 0.473333
v 0.149247 -0.015011 0.506667
v 0.148285 -0.022618 0.506667
v 0.146937 -0.030157 0.506667
v 0.145211 -0.037601 0.506667
v 0.145211 -0.037601 0.473333
v 0.149791 0.007912 0.473333
v 0.150000 0.000284 0.473333
v 0.150000 0.000284 0.406667
v 0.149198 0.015488 0.406667
v 0.149198 0.015488 0.473333
v 0.149198 0.015488 0.506667
v 0.149791 0.007912 0.506667
v 0.150000 0.000284 0.506667
v 0.149819 -0.007367 0.506667
v 0.149819 -0.007367 0.473333
v 0.145204 0.037627 0.473333
v 0.146893 0.030373 0.473333
v 0.146893 0.030373 0.406667
v 0.143177 0.044725 0.406667
v 0.143177 0.044725 0.473333
v 0.143177 0.044725 0.506667
v 0.145204 0.037627 0.506667
v 0.146893 0.030373 0.506667
v 0.148229 0.022984 0.506667
v 0.148229 0.022984 0.473333
v 0.135249 0.064868 0.473333
v 0.138180 0.058364 0.473333
v 0.138180 0.058364 0.406667
v 0.132057 0.071140 0.406667
v 0.132057 0.071140 0.473333
v 0.132057 0.071140 0.506667
v 0.135249 0.064868 0.506667
v 0.138180 0.058364 0.506667
v 0.140829 0.051644 0.506667
v 0.140829 0.051644 0.473333
v 0.121141 0.088458 0.473333
v 0.124981 0.082944 0.473333
v 0.124981 0.082944 0.406667
v 0.117130 0.093704 0.406667
v 0.117130 0.093704 0.473333
v 0.117130 0.093704 0.506667
v 0.121141 0.088458 0.506667
v 0.124981 0.082944 0.506667
v 0.128627 0.077169 0.506667
v 0.128627 0.077169 0.473333
v 0.102587 0.109435 0.473333
v 0.107770 0.104334 0.473333
v 0.107770 0.104334 0.406667
v 0.097071 0.114356 0.406667
v 0.097071 0.114356 0.473333
v 0.097071 0.114356 0.506667
v 0.102587 0.109435 0.506667
v 0.107770 0.104334 0.506667
v 0.112619 0.099081 0.506667
v 0.112619 0.099081 0.473333
v 0.079248 0.127357 0.473333
v 0.085477 0.123262 0.473333
v 0.085477 0.123262 0.406667
v 0.072749 0.131178 0.406667
v 0.072749 0.131178 0.473333
v 0.072749 0.131178 0.506667
v 0.079248 0.127357 0.506667
v 0.085477 0.123262 0.506667
v 0.091422 0.118920 0.506667
v 0.091422 0.118920 0.473333
v 0.052171 0.140635 0.473333
v 0.059242 0.137806 0.473333
v 0.059242 0.137806 0.406667
v 0.044921 0.143116 0.406667
v 0.044921 0.143116 0.473333
v 0.044921 0.143116 0.506667
v 0.052171 0.140635 0.506667
v 0.059242 0.137806 0.506667
v 0.066108 0.134647 0.506667
v 0.066108 0.134647 0.473333
v 0.022618 0.148285 0.473333
v 0.030157 0.146937 0.473333
v 0.030157 0.146937 0.406667
v 0.015011 0.149247 0.406667
v 0.015011 0.149247 0.473333
v 0.015011 0.149247 0.506667
v 0.022618 0.148285 0.506667
v 0.030157 0.146937 0.506667
v 0.037601 0.145211 0.506667
v 0.037601 0.145211 0.473333
v -0.007912 0.149791 0.473333
v -0.000284 0.150000 0.473333
v -0.000284 0.150000 0.406667
v -0.015488 0.149198 0.406667
v -0.015488 0.149198 0.473333
v -0.015488 0.149198 0.506667
v -0.007912 0.149791 0.506667
v -0.000284 0.150000 0.506667
v 0.007367 0.149819 0.506667
v 0.007367 0.149819 0.473333
v -0.037628 0.145204 0.473333
v -0.030373 0.146893 0.473333
v -0.030373 0.146893 0.406667
v -0.044725 0.143177 0.406667
v -0.044725 0.143177 0.473333
v -0.044725 0.143177 0.506667
v -0.037628 0.145204 0.506667
v -0.030373 0.146893 0.506667
v -0.022984 0.148229 0.506667
v -0.022984 0.148229 0.473333
v -0.064868 0.135249 0.473333
v -0.058364 0.138180 0.473333
v -0.058364 0.138180 0.406667
v -0.071140 0.132057 0.406667
v -0.071140 0.132057 0.473333
v -0.071140 0.132057 0.506667
v -0.064868 0.135249 0.506667
v -0.058364 0.138180 0.506667
v -0.051644 0.140829 0.506667
v -0.051644 0.140829 0.473333
v -0.093704 0.117130 0.406667
v -0.093704 0.117130 0.473333
v -0.082944 0.124981 0.473333
v -0.082944 0.124981 0.406667
v -0.082944 0.124981 0.506667
v -0.077169 0.128627 0.506667
v -0.077169 0.128627 0.473333
v -0.109435 0.102587 0.473333
v -0.104334 0.107770 0.473333
v -0.104334 0.107770 0.406667
v -0.114356 0.097071 0.406667
v -0.114356 0.097071 0.473333
v -0.114356 0.097071 0.506667
v -0.109435 0.102587 0.506667
v -0.104334 0.107770 0.506667
v -0.099081 0.112619 0.506667
v -0.099081 0.112619 0.473333
v -0.093704 0.117130 0.506667
v -0.127357 0.079248 0.473333
v -0.123262 0.085477 0.473333
v -0.123262 0.085477 0.406667
v -0.131178 0.072749 0.406667
v -0.131178 0.072749 0.473333
v -0.131178 0.072749 0.506667
v -0.127357 0.079248 0.506667
v -0.123262 0.085477 0.506667
v -0.118920 0.091422 0.506667
v -0.118920 0.091422 0.473333
v -0.140635 0.052171 0.473333
v -0.137806 0.059242 0.473333
v -0.137806 0.059242 0.406667
v -0.143116 0.044921 0.406667
v -0.143116 0.044921 0.473333
v -0.143116 0.044921 0.506667
v -0.140635 0.052171 0.506667
v -0.137806 0.059242 0.506667
v -0.134647 0.066108 0.506667
v -0.134647 0.066108 0.473333
v -0.148285 0.022618 0.473333
v -0.146937 0.030157 0.473333
v -0.146937 0.030157 0.406667
v -0.149247 0.015011 0.406667
v -0.149247 0.015011 0.473333
v -0.149247 0.015011 0.506667
v -0.148285 0.022618 0.506667
v -0.146937 0.030157 0.506667
v -0.145211 0.037601 0.506667
v -0.145211 0.037601 0.473333
v -0.149791 -0.007912 0.473333
v -0.150000 -0.000284 0.473333
v -0.150000 -0.000284 0.406667
v -0.149198 -0.015488 0.406667
v -0.149198 -0.015488 0.473333
v -0.149198 -0.015488 0.506667
v -0.149791 -0.007912 0.506667
v -0.150000 -0.000284 0.506667
v -0.149819 0.007367 0.506667
v -0.149819 0.007367 0.473333
v -0.145204 -0.037628 0.473333
v -0.146893 -0.030373 0.473333
v -0.146893 -0.030373 0.406667
v -0.143177 -0.044725 0.406667
v -0.143177 -0.044725 0.473333
v -0.143177 -0.044725 0.506667
v -0.145204 -0.037628 0.506667
v -0.146893 -0.030373 0.506667
v -0.148229 -0.022984 0.506667
v -0.148229 -0.022984 0.473333
v -0.135249 -0.064868 0.473333
v -0.138180 -0.058364 0.473333
v -0.138180 -0.058364 0.406667
v -0.132057 -0.071140 0.406667
v -0.132057 -0.071140 0.473333
v -0.132057 -0.071140 0.506667
v -0.135249 -0.064868 0.506667
v -0.138180 -0.058364 0.506667
v -0.140829 -0.051644 0.506667
v -0.140829 -0.051644 0.473333
v -0.121141 -0.088458 0.473333
v -0.124981 -0.082944 0.473333
v -0.124981 -0.082944 0.406667
v -0.117130 -0.093704 0.406667
v -0.117130 -0.093704 0.473333
v -0.117130 -0.093704 0.506667
v -0.121141 -0.088458 0.506667
v -0.124981 -0.082944 0.506667
v -0.128627 -0.077169 0.506667
v -0.128627 -0.077169 0.473333
v -0.102587 -0.109435 0.473333
v -0.107771 -0.104334 0.473333
v -0.107771 -0.104334 0.406667
v -0.097071 -0.114356 0.406667
v -0.097071 -0.114356 0.473333
v -0.097071 -0.114356 0.506667
v -0.102587 -0.109435 0.506667
v -0.107771 -0.104334 0.506667
v -0.112619 -0.099081 0.506667
v -0.112619 -0.099081 0.473333
v -0.079248 -0.127357 0.473333
v -0.085477 -0.123262 0.473333
v -0.085477 -0.123262 0.406667
v -0.072749 -0.131178 0.406667
v -0.072749 -0.131178 0.473333
v -0.072749 -0.131178 0.506667
v -0.079248 -0.127357 0.506667
v -0.085477 -0.123262 0.506667
v -0.091422 -0.118920 0.506667
v -0.091422 -0.118920 0.473333
v -0.052171 -0.140635 0.473333
v -0.059242 -0.137806 0.473333
v -0.059242 -0.137806 0.406667
v -0.044921 -0.143116 0.406667
v -0.044921 -0.143116 0.473333
v -0.044921 -0.143116 0.506667
v -0.052171 -0.140635 0.506667
v -0.059242 -0.137806 0.506667
v -0.066108 -0.134647 0.506667
v -0.066108 -0.134647 0.473333
v -0.022618 -0.148285 0.473333
v -0.030157 -0.146937 0.473333
v -0.030157 -0.146937 0.406667
v -0.015011 -0.149247 0.406667
v -0.015011 -0.149247 0.473333
v -0.015011 -0.149247 0.506667
v -0.022618 -0.148285 0.506667
v -0.030157 -0.146937 0.506667
v -0.037601 -0.145211 0.506667
v -0.037601 -0.145211 0.473333
v 0.007912 -0.149791 0.473333
v 0.000284 -0.150000 0.473333
v 0.000284 -0.150000 0.406667
v 0.015488 -0.149198 0.406667
v 0.015488 -0.149198 0.473333
v 0.015488 -0.149198 0.506667
v 0.007912 -0.149791 0.506667
v 0.000284 -0.150000 0.506667
v -0.007367 -0.149819 0.506667
v -0.007367 -0.149819 0.473333
v 0.037627 -0.145204 0.473333
v 0.030373 -0.146893 0.473333
v 0.030373 -0.146893 0.406667
v 0.044725 -0.143177 0.406667
v 0.044725 -0.143177 0.473333
v 0.044725 -0.143177 0.506667
v 0.037627 -0.145204 0.506667
v 0.030373 -0.146893 0.506667
v 0.022984 -0.148229 0.506667
v 0.022984 -0.148229 0.473333
v 0.064867 -0.135249 0.473333
v 0.058364 -0.138180 0.473333
v 0.058364 -0.138180 0.406667
v 0.071140 -0.132057 0.406667
v 0.071140 -0.132057 0.473333
v 0.071140 -0.132057 0.506667
v 0.064867 -0.135249 0.506667
v 0.058364 -0.138180 0.506667
v 0.051644 -0.140829 0.506667
v 0.051644 -0.140829 0.473333
v 0.088458 -0.121141 0.473333
v 0.082944 -0.124981 0.473333
v 0.082944 -0.124981 0.406667
v 0.088458 -0.121141 0.506667
v 0.082944 -0.124981 0.506667
v 0.077169 -0.128627 0.506667
v 0.077169 -0.128627 0.473333
v 0.104334 -0.107771 0.273333
v 0.114356 -0.097071 0.273333
v 0.093704 -0.117130 0.273333
v 0.123262 -0.085477 0.273333
v 0.131178 -0.072749 0.273333
v 0.137806 -0.059242 0.273333
v 0.143116 -0.044921 0.273333
v 0.149247 -0.015011 0.273333
v 0.150000 0.000284 0.273333
v 0.149198 0.015488 0.273333
v 0.146893 0.030373 0.273333
v 0.143177 0.044725 0.273333
v 0.138180 0.058364 0.273333
v 0.132057 0.071140 0.273333
v 0.124981 0.082944 0.273333
v 0.117130 0.093704 0.273333
v 0.107770 0.104334 0.273333
v 0.097071 0.114356 0.273333
v 0.085477 0.123262 0.273333
v 0.072749 0.131178 0.273333
v 0.059242 0.137806 0.273333
v 0.044921 0.143116 0.273333
v 0.015011 0.149247 0.273333
v -0.000284 0.150000 0.273333
v -0.015488 0.149198 0.273333
v -0.030373 0.146893 0.273333
v -0.044725 0.143177 0.273333
v -0.058364 0.138180 0.273333
v -0.071140 0.132057 0.273333
v -0.082944 0.124981 0.273333
v -0.093704 0.117130 0.273333
v -0.104334 0.107770 0.273333
v -0.114356 0.097071 0.273333
v -0.123262 0.085477 0.273333
v -0.131178 0.072749 0.273333
v -0.137806 0.059242 0.273333
v -0.143116 0.044921 0.273333
v -0.149247 0.015011 0.273333
v -0.150000 -0.000284 0.273333
v -0.149198 -0.015488 0.273333
v -0.146893 -0.030373 0.273333
v -0.143177 -0.044725 0.273333
v -0.138180 -0.058364 0.273333
v -0.132057 -0.071140 0.273333
v -0.124981 -0.082944 0.273333
v -0.117130 -0.093704 0.273333
v -0.107771 -0.104334 0.273333
v -0.097071 -0.114356 0.273333
v -0.085477 -0.123262 0.273333
v -0.072749 -0.131178 0.273333
v -0.059242 -0.137806 0.273333
v -0.044921 -0.143116 0.273333
v -0.015011 -0.149247 0.273333
v 0.000284 -0.150000 0.273333
v 0.015488 -0.149198 0.273333
v 0.030373 -0.146893 0.273333
v 0.044725 -0.143177 0.273333
v 0.058364 -0.138180 0.273333
v 0.071140 -0.132057 0.273333
v 0.082944 -0.124981 0.273333
v 0.114356 -0.097071 0.206667
v 0.104334 -0.107771 0.206667
v 0.093704 -0.117130 0.206667
v 0.131178 -0.072749 0.206667
v 0.123262 -0.085477 0.206667
v 0.143116 -0.044921 0.206667
v 0.137806 -0.059242 0.206667
v 0.149198 0.015488 0.206667
v 0.150000 0.000284 0.206667
v 0.149247 -0.015011 0.206667
v 0.143177 0.044725 0.206667
v 0.146893 0.030373 0.206667
v 0.132057 0.071140 0.206667
v 0.138180 0.058364 0.206667
v 0.117130 0.093704 0.206667
v 0.124981 0.082944 0.206667
v 0.097071 0.114356 0.206667
v 0.107770 0.104334 0.206667
v 0.072749 0.131178 0.206667
v 0.085477 0.123262 0.206667
v 0.044921 0.143116 0.206667
v 0.059242 0.137806 0.206667
v -0.015488 0.149198 0.206667
v -0.000284 0.150000 0.206667
v 0.015011 0.149247 0.206667
v -0.044725 0.143177 0.206667
v -0.030373 0.146893 0.206667
v -0.071140 0.132057 0.206667
v -0.058364 0.138180 0.206667
v -0.093704 0.117130 0.206667
v -0.082944 0.124981 0.206667
v -0.114356 0.097071 0.206667
v -0.104334 0.107770 0.206667
v -0.131178 0.072749 0.206667
v -0.123262 0.085477 0.206667
v -0.143116 0.044921 0.206667
v -0.137806 0.059242 0.206667
v -0.149198 -0.015488 0.206667
v -0.150000 -0.000284 0.206667
v -0.149247 0.015011 0.206667
v -0.143177 -0.044725 0.206667
v -0.146893 -0.030373 0.206667
v -0.132057 -0.071140 0.206667
v -0.138180 -0.058364 0.206667
v -0.117130 -0.093704 0.206667
v -0.124981 -0.082944 0.206667
v -0.097071 -0.114356 0.206667
v -0.107771 -0.104334 0.206667
v -0.072749 -0.131178 0.206667
v -0.085477 -0.123262 0.206667
v -0.044921 -0.143116 0.206667
v -0.059242 -0.137806 0.206667
v 0.015488 -0.149198 0.206667
v 0.000284 -0.150000 0.206667
v -0.015011 -0.149247 0.206667
v 0.044725 -0.143177 0.206667
v 0.030373 -0.146893 0.206667
v 0.071140 -0.132057 0.206667
v 0.058364 -0.138180 0.206667
v 0.082944 -0.124981 0.206667
v 0.103850 -0.108237 0.540000
v 0.093704 -0.117130 0.540000
v 0.122317 -0.086825 0.540000
v 0.113453 -0.098124 0.540000
v 0.137033 -0.061007 0.540000
v 0.130240 -0.074414 0.540000
v 0.142525 -0.046762 0.540000
v 0.146575 -0.031873 0.540000
v 0.149996 -0.001079 0.540000
v 0.149083 -0.016565 0.540000
v 0.147083 0.029439 0.540000
v 0.149313 0.014335 0.540000
v 0.138392 0.057858 0.540000
v 0.143398 0.044010 0.540000
v 0.132226 0.070827 0.540000
v 0.117130 0.093704 0.540000
v 0.125076 0.082801 0.540000
v 0.098124 0.113453 0.540000
v 0.108237 0.103850 0.540000
v 0.086825 0.122317 0.540000
v 0.061007 0.137033 0.540000
v 0.074414 0.130240 0.540000
v 0.031873 0.146575 0.540000
v 0.046762 0.142525 0.540000
v 0.016565 0.149083 0.540000
v -0.014335 0.149313 0.540000
v 0.001079 0.149996 0.540000
v -0.044010 0.143398 0.540000
v -0.029439 0.147083 0.540000
v -0.070827 0.132226 0.540000
v -0.057858 0.138392 0.540000
v -0.093704 0.117130 0.540000
v -0.082801 0.125076 0.540000
v -0.103850 0.108237 0.540000
v -0.122317 0.086825 0.540000
v -0.113453 0.098124 0.540000
v -0.137033 0.061007 0.540000
v -0.130240 0.074414 0.540000
v -0.146575 0.031873 0.540000
v -0.142525 0.046762 0.540000
v -0.149996 0.001079 0.540000
v -0.149083 0.016565 0.540000
v -0.149313 -0.014335 0.540000
v -0.143398 -0.044010 0.540000
v -0.147083 -0.029439 0.540000
v -0.132226 -0.070827 0.540000
v -0.138392 -0.057858 0.540000
v -0.117130 -0.093704 0.540000
v -0.125076 -0.082801 0.540000
v -0.098124 -0.113453 0.540000
v -0.108237 -0.103850 0.540000
v -0.086826 -0.122317 0.540000
v -0.061007 -0.137033 0.540000
v -0.074414 -0.130240 0.540000
v -0.031873 -0.146575 0.540000
v -0.046762 -0.142525 0.540000
v -0.016565 -0.149083 0.540000
v 0.014335 -0.149313 0.540000
v -0.001079 -0.149996 0.540000
v 0.044010 -0.143398 0.540000
v 0.029439 -0.147083 0.540000
v 0.057858 -0.138393 0.540000
v 0.082801 -0.125076 0.540000
v 0.070826 -0.132226 0.540000
v 0.057127 -0.109061 0.575123
v 0.066344 -0.126659 0.562168
v 0.089321 -0.111651 0.562168
v 0.076911 -0.096138 0.575123
v 0.034620 -0.118149 0.575123
v 0.040206 -0.137214 0.562168
v 0.010185 -0.122695 0.575123
v 0.011829 -0.142493 0.562168
v -0.014870 -0.122216 0.575123
v -0.017269 -0.141936 0.562168
v -0.039284 -0.116682 0.575123
v -0.045622 -0.135509 0.562168
v -0.061611 -0.106592 0.575123
v -0.071552 -0.123792 0.562168
v -0.080759 -0.092929 0.575123
v -0.093790 -0.107924 0.562168
v -0.096138 -0.076911 0.575123
v -0.111651 -0.089321 0.562168
v -0.109061 -0.057127 0.575123
v -0.126659 -0.066344 0.562168
v -0.118149 -0.034620 0.575123
v -0.137214 -0.040206 0.562168
v -0.122695 -0.010185 0.575123
v -0.142493 -0.011829 0.562168
v -0.122216 0.014870 0.575123
v -0.141936 0.017269 0.562168
v -0.116682 0.039284 0.575123
v -0.135509 0.045622 0.562168
v -0.106592 0.061611 0.575123
v -0.123792 0.071552 0.562168
v -0.092929 0.080759 0.575123
v -0.107924 0.093790 0.562168
v -0.076911 0.096138 0.575123
v -0.089321 0.111651 0.562168
v -0.057127 0.109061 0.575123
v -0.066345 0.126659 0.562168
v -0.034620 0.118149 0.575123
v -0.040206 0.137214 0.562168
v -0.010185 0.122695 0.575123
v -0.011829 0.142493 0.562168
v 0.014870 0.122216 0.575123
v 0.017269 0.141936 0.562168
v 0.039284 0.116682 0.575123
v 0.045622 0.135509 0.562168
v 0.061611 0.106592 0.575123
v 0.071552 0.123792 0.562168
v 0.080759 0.092929 0.575123
v 0.093790 0.107924 0.562168
v 0.096138 0.076911 0.575123
v 0.111651 0.089321 0.562168
v 0.109061 0.057127 0.575123
v 0.126659 0.066344 0.562168
v 0.118149 0.034620 0.575123
v 0.137214 0.040206 0.562168
v 0.122695 0.010185 0.575123
v 0.142493 0.011829 0.562168
v 0.122216 -0.014870 0.575123
v 0.141936 -0.017269 0.562168
v 0.116682 -0.039284 0.575123
v 0.135509 -0.045622 0.562168
v 0.106592 -0.061611 0.575123
v 0.123792 -0.071552 0.562168
v 0.092929 -0.080759 0.575123
v 0.107924 -0.093790 0.562168
v 0.046637 -0.089035 0.581927
v 0.062788 -0.078485 0.581927
v 0.028263 -0.096454 0.581927
v 0.008315 -0.100165 0.581927
v -0.012139 -0.099774 0.581927
v -0.032070 -0.095256 0.581927
v -0.050297 -0.087019 0.581927
v -0.065930 -0.075865 0.581927
v -0.078485 -0.062788 0.581927
v -0.089035 -0.046637 0.581927
v -0.096454 -0.028263 0.581927
v -0.100165 -0.008315 0.581927
v -0.099774 0.012139 0.581927
v -0.095256 0.032070 0.581927
v -0.087019 0.050297 0.581927
v -0.075865 0.065930 0.581927
v -0.062788 0.078485 0.581927
v -0.046637 0.089035 0.581927
v -0.028263 0.096454 0.581927
v -0.008315 0.100165 0.581927
v 0.012139 0.099774 0.581927
v 0.032070 0.095256 0.581927
v 0.050297 0.087019 0.581927
v 0.065930 0.075865 0.581927
v 0.078485 0.062788 0.581927
v 0.089035 0.046637 0.581927
v 0.096454 0.028263 0.581927
v 0.100165 0.008315 0.581927
v 0.099774 -0.012139 0.581927
v 0.095256 -0.032070 0.581927
v 0.087019 -0.050297 0.581927
v 0.075865 -0.065930 0.581927
v 0.035479 -0.067733 0.586000
v 0.047765 -0.059707 0.586000
v 0.021501 -0.073377 0.586000
v 0.006326 -0.076200 0.586000
v -0.009235 -0.075902 0.586000
v -0.024397 -0.072465 0.586000
v -0.038263 -0.066199 0.586000
v -0.050156 -0.057714 0.586000
v -0.059707 -0.047765 0.586000
v -0.067733 -0.035479 0.586000
v -0.073377 -0.021501 0.586000
v -0.076200 -0.006326 0.586000
v -0.075902 0.009235 0.586000
v -0.072465 0.024397 0.586000
v -0.066199 0.038263 0.586000
v -0.057713 0.050156 0.586000
v -0.047765 0.059707 0.586000
v -0.035479 0.067733 0.586000
v -0.021501 0.073377 0.586000
v -0.006326 0.076200 0.586000
v 0.009235 0.075902 0.586000
v 0.024397 0.072465 0.586000
v 0.038263 0.066199 0.586000
v 0.050156 0.057713 0.586000
v 0.059707 0.047765 0.586000
v 0.067733 0.035479 0.586000
v 0.073377 0.021501 0.586000
v 0.076200 0.006326 0.586000
v 0.075902 -0.009235 0.586000
v 0.072465 -0.024397 0.586000
v 0.066199 -0.038263 0.586000
v 0.057713 -0.050156 0.586000
v 0.024233 -0.046263 0.588350
v 0.032625 -0.040782 0.588350
v 0.014686 -0.050119 0.588350
v 0.004321 -0.052047 0.588350
v -0.006308 -0.051844 0.588350
v -0.016664 -0.049496 0.588350
v -0.026135 -0.045216 0.588350
v -0.034258 -0.039420 0.588350
v -0.040782 -0.032625 0.588350
v -0.046263 -0.024233 0.588350
v -0.050119 -0.014686 0.588350
v -0.052047 -0.004321 0.588350
v -0.051844 0.006308 0.588350
v -0.049496 0.016664 0.588350
v -0.045216 0.026135 0.588350
v -0.039420 0.034258 0.588350
v -0.032625 0.040781 0.588350
v -0.024233 0.046263 0.588350
v -0.014686 0.050118 0.588350
v -0.004321 0.052047 0.588350
v 0.006308 0.051843 0.588350
v 0.016664 0.049496 0.588350
v 0.026135 0.045216 0.588350
v 0.034258 0.039420 0.588350
v 0.040781 0.032625 0.588350
v 0.046263 0.024233 0.588350
v 0.050118 0.014686 0.588350
v 0.052047 0.004321 0.588350
v 0.051843 -0.006308 0.588350
v 0.049496 -0.016664 0.588350
v 0.045216 -0.026135 0.588350
v 0.039420 -0.034258 0.588350
v 0.012978 -0.024776 0.589573
v 0.017472 -0.021840 0.589573
v 0.007865 -0.026841 0.589573
v 0.002314 -0.027873 0.589573
v -0.003378 -0.027764 0.589573
v -0.008924 -0.026507 0.589573
v -0.013996 -0.024215 0.589573
v -0.018347 -0.021111 0.589573
v -0.021840 -0.017472 0.589573
v -0.024776 -0.012978 0.589573
v -0.026841 -0.007865 0.589573
v -0.027873 -0.002314 0.589573
v -0.027765 0.003378 0.589573
v -0.026507 0.008924 0.589573
v -0.024215 0.013996 0.589573
v -0.021111 0.018347 0.589573
v -0.017472 0.021840 0.589573
v -0.012978 0.024776 0.589573
v -0.007865 0.026841 0.589573
v -0.002314 0.027873 0.589573
v 0.003378 0.027764 0.589573
v 0.008924 0.026507 0.589573
v 0.013996 0.024215 0.589573
v 0.018347 0.021111 0.589573
v 0.021840 0.017472 0.589573
v 0.024776 0.012978 0.589573
v 0.026841 0.007865 0.589573
v 0.027873 0.002314 0.589573
v 0.027764 -0.003378 0.589573
v 0.026507 -0.008924 0.589573
v 0.024215 -0.013996 0.589573
v 0.021111 -0.018347 0.589573
v -0.000000 0.000000 0.590000
v 0.069388 -0.132470 0.548150
v 0.042057 -0.143529 0.548007
v 0.012375 -0.149066 0.547908
v -0.018066 -0.148484 0.547908
v -0.047727 -0.141760 0.547908
v -0.074853 -0.129503 0.547908
v -0.098117 -0.112902 0.547908
v -0.132470 -0.069388 0.548150
v -0.143529 -0.042057 0.548007
v -0.149066 -0.012375 0.547908
v -0.148484 0.018066 0.547908
v -0.141760 0.047727 0.547908
v -0.129503 0.074853 0.547908
v -0.112902 0.098117 0.547908
v -0.069388 0.132470 0.548150
v -0.042057 0.143529 0.548007
v -0.012375 0.149066 0.547908
v 0.018066 0.148484 0.547908
v 0.047727 0.141760 0.547908
v 0.074853 0.129503 0.547908
v 0.098117 0.112902 0.547908
v 0.132470 0.069388 0.548150
v 0.143529 0.042057 0.548007
v 0.149066 0.012375 0.547908
v 0.148484 -0.018066 0.547908
v 0.141760 -0.047727 0.547908
v 0.129503 -0.074853 0.547908
v 0.112902 -0.098117 0.547908
vn -0.0000 -0.0000 -1.0000
vn 0.4537 -0.5642 -0.6898
vn 0.3419 -0.6382 -0.6899
vn 0.2149 -0.6920 -0.6891
vn 0.0742 -0.7212 -0.6887
vn 0.5529 -0.4683 -0.6892
vn 0.7230 -0.0754 -0.6867
vn 0.6944 -0.2149 -0.6868
vn 0.6343 -0.3509 -0.6888
vn 0.7212 0.0742 -0.6887
vn -0.2149 -0.6944 -0.6868
vn -0.3509 -0.6343 -0.6888
vn -0.5642 -0.4537 -0.6898
vn -0.4683 -0.5529 -0.6892
vn -0.0754 -0.7230 -0.6867
vn -0.6382 -0.3419 -0.6899
vn -0.6920 -0.2149 -0.6891
vn -0.7212 -0.0742 -0.6887
vn 0.6920 0.2149 -0.6891
vn 0.5642 0.4537 -0.6898
vn 0.6382 0.3419 -0.6899
vn 0.2149 0.6944 -0.6868
vn 0.4683 0.5529 -0.6892
vn 0.3509 0.6343 -0.6888
vn 0.0754 0.7230 -0.6867
vn -0.0742 0.7212 -0.6887
vn -0.6944 0.2149 -0.6868
vn -0.7230 0.0754 -0.6867
vn -0.6343 0.3509 -0.6888
vn -0.5529 0.4683 -0.6892
vn -0.3419 0.6382 -0.6899
vn -0.2149 0.6920 -0.6891
vn -0.4537 0.5642 -0.6898
vn 0.7297 -0.6838 -0.0001
vn 0.6957 -0.7183 -0.0000
vn 0.6961 -0.7179 -0.0012
vn 0.7623 -0.6472 -0.0012
vn 0.7622 -0.6473 -0.0000
vn 0.7631 -0.6463 0.0013
vn 0.7296 -0.6839 0.0002
vn 0.6958 -0.7182 -0.0000
vn 0.6596 -0.7516 0.0024
vn 0.6607 -0.7506 -0.0001
vn 0.6263 -0.7796 0.0016
vn 0.6252 -0.7804 -0.0000
vn 0.6258 -0.7800 -0.0011
vn 0.8491 -0.5282 -0.0001
vn 0.8218 -0.5697 -0.0000
vn 0.8221 -0.5694 -0.0013
vn 0.8746 -0.4849 -0.0013
vn 0.8745 -0.4851 -0.0000
vn 0.8751 -0.4839 0.0013
vn 0.8484 -0.5293 0.0018
vn 0.8226 -0.5687 0.0013
vn 0.7921 -0.6104 0.0018
vn 0.7929 -0.6093 -0.0001
vn 0.9376 -0.3477 -0.0001
vn 0.9187 -0.3949 -0.0000
vn 0.9188 -0.3946 -0.0013
vn 0.9541 -0.2995 -0.0014
vn 0.9541 -0.2995 -0.0000
vn 0.9545 -0.2982 0.0014
vn 0.9374 -0.3482 0.0005
vn 0.9189 -0.3944 0.0002
vn 0.8971 -0.4418 0.0018
vn 0.8977 -0.4406 -0.0001
vn 0.9886 -0.1508 -0.0001
vn 0.9796 -0.2010 -0.0000
vn 0.9796 -0.2009 -0.0016
vn 0.9950 -0.1001 -0.0014
vn 0.9950 -0.1001 -0.0000
vn 0.9951 -0.0986 0.0016
vn 0.9883 -0.1522 0.0021
vn 0.9799 -0.1996 0.0015
vn 0.9677 -0.2520 0.0020
vn 0.9681 -0.2506 -0.0001
vn 0.9986 0.0527 -0.0001
vn 1.0000 0.0019 -0.0000
vn 1.0000 0.0017 -0.0014
vn 0.9947 0.1030 -0.0013
vn 0.9947 0.1032 -0.0000
vn 0.9945 0.1047 0.0017
vn 0.9987 0.0512 0.0024
vn 1.0000 0.0034 0.0016
vn 0.9987 -0.0506 0.0023
vn 0.9988 -0.0491 -0.0001
vn 0.9681 0.2507 -0.0001
vn 0.9793 0.2024 -0.0000
vn 0.9794 0.2021 -0.0013
vn 0.9547 0.2977 -0.0013
vn 0.9546 0.2980 -0.0000
vn 0.9541 0.2995 0.0017
vn 0.9684 0.2492 0.0025
vn 0.9790 0.2039 0.0017
vn 0.9884 0.1516 0.0025
vn 0.9882 0.1531 -0.0001
vn 0.9017 0.4323 -0.0001
vn 0.9213 0.3890 -0.0000
vn 0.9214 0.3886 -0.0012
vn 0.8807 0.4737 -0.0011
vn 0.8805 0.4741 -0.0000
vn 0.8798 0.4754 0.0017
vn 0.9024 0.4310 0.0025
vn 0.9207 0.3903 0.0017
vn 0.9394 0.3427 0.0025
vn 0.9389 0.3442 -0.0001
vn 0.8077 0.5896 -0.0001
vn 0.8333 0.5528 -0.0000
vn 0.8336 0.5524 -0.0011
vn 0.7800 0.6258 -0.0011
vn 0.7804 0.6252 -0.0000
vn 0.7796 0.6263 0.0017
vn 0.8085 0.5884 0.0025
vn 0.8326 0.5539 0.0017
vn 0.8583 0.5131 0.0025
vn 0.8576 0.5143 -0.0001
vn 0.6838 0.7297 -0.0001
vn 0.7183 0.6957 -0.0000
vn 0.7179 0.6961 -0.0012
vn 0.6472 0.7623 -0.0012
vn 0.6473 0.7622 -0.0000
vn 0.6463 0.7631 0.0013
vn 0.6848 0.7288 0.0020
vn 0.7174 0.6966 0.0015
vn 0.7516 0.6596 0.0024
vn 0.7506 0.6607 -0.0001
vn 0.5282 0.8491 -0.0001
vn 0.5697 0.8218 -0.0000
vn 0.5694 0.8221 -0.0013
vn 0.4849 0.8746 -0.0013
vn 0.4851 0.8745 -0.0000
vn 0.4839 0.8751 0.0013
vn 0.5293 0.8484 0.0018
vn 0.5687 0.8226 0.0013
vn 0.6104 0.7921 0.0018
vn 0.6093 0.7929 -0.0001
vn 0.3477 0.9376 -0.0001
vn 0.3949 0.9187 -0.0000
vn 0.3946 0.9188 -0.0013
vn 0.2995 0.9541 -0.0014
vn 0.2995 0.9541 -0.0000
vn 0.2982 0.9545 0.0014
vn 0.3490 0.9371 0.0019
vn 0.3936 0.9193 0.0014
vn 0.4418 0.8971 0.0018
vn 0.4406 0.8977 -0.0001
vn 0.1508 0.9886 -0.0001
vn 0.2010 0.9796 -0.0000
vn 0.2009 0.9796 -0.0016
vn 0.1001 0.9950 -0.0014
vn 0.1001 0.9950 -0.0000
vn 0.0997 0.9950 0.0001
vn 0.1522 0.9883 0.0021
vn 0.1996 0.9799 0.0015
vn 0.2520 0.9677 0.0020
vn 0.2506 0.9681 -0.0001
vn -0.0527 0.9986 -0.0001
vn -0.0019 1.0000 -0.0000
vn -0.0018 1.0000 -0.0014
vn -0.1030 0.9947 -0.0013
vn -0.1032 0.9947 -0.0000
vn -0.1047 0.9945 0.0017
vn -0.0512 0.9987 0.0024
vn -0.0034 1.0000 0.0016
vn 0.0495 0.9988 0.0005
vn 0.0491 0.9988 -0.0001
vn -0.2507 0.9681 -0.0001
vn -0.2024 0.9793 -0.0000
vn -0.2021 0.9794 -0.0013
vn -0.2977 0.9547 -0.0013
vn -0.2980 0.9546 -0.0000
vn -0.2995 0.9541 0.0017
vn -0.2492 0.9684 0.0025
vn -0.2039 0.9790 0.0017
vn -0.1516 0.9884 0.0025
vn -0.1531 0.9882 -0.0001
vn -0.4323 0.9017 -0.0001
vn -0.3890 0.9213 -0.0000
vn -0.3886 0.9214 -0.0012
vn -0.4737 0.8807 -0.0011
vn -0.4741 0.8805 -0.0000
vn -0.4754 0.8798 0.0017
vn -0.4310 0.9024 0.0025
vn -0.3903 0.9207 0.0017
vn -0.3427 0.9394 0.0025
vn -0.3442 0.9389 -0.0001
vn -0.6255 0.7802 -0.0006
vn -0.6165 0.7874 -0.0000
vn -0.5619 0.8272 -0.0000
vn -0.5527 0.8334 -0.0006
vn -0.5620 0.8272 -0.0000
vn -0.5131 0.8583 0.0025
vn -0.5143 0.8576 -0.0001
vn -0.7297 0.6838 -0.0001
vn -0.6957 0.7183 -0.0000
vn -0.6961 0.7179 -0.0012
vn -0.7623 0.6472 -0.0012
vn -0.7622 0.6473 -0.0000
vn -0.7631 0.6463 0.0013
vn -0.7288 0.6848 0.0020
vn -0.6966 0.7174 0.0015
vn -0.6596 0.7516 0.0024
vn -0.6607 0.7506 -0.0001
vn -0.6175 0.7866 0.0017
vn -0.8491 0.5282 -0.0001
vn -0.8218 0.5697 -0.0000
vn -0.8221 0.5694 -0.0013
vn -0.8746 0.4849 -0.0013
vn -0.8745 0.4851 -0.0000
vn -0.8751 0.4839 0.0013
vn -0.8484 0.5293 0.0018
vn -0.8226 0.5687 0.0013
vn -0.7921 0.6104 0.0018
vn -0.7929 0.6093 -0.0001
vn -0.9376 0.3477 -0.0001
vn -0.9187 0.3949 -0.0000
vn -0.9188 0.3946 -0.0013
vn -0.9541 0.2995 -0.0014
vn -0.9541 0.2996 -0.0000
vn -0.9545 0.2982 0.0014
vn -0.9371 0.3490 0.0019
vn -0.9193 0.3936 0.0014
vn -0.8971 0.4418 0.0018
vn -0.8977 0.4406 -0.0001
vn -0.9886 0.1508 -0.0001
vn -0.9796 0.2010 -0.0000
vn -0.9796 0.2009 -0.0016
vn -0.9950 0.1001 -0.0014
vn -0.9950 0.1001 -0.0000
vn -0.9951 0.0986 0.0016
vn -0.9883 0.1522 0.0021
vn -0.9799 0.1996 0.0015
vn -0.9677 0.2520 0.0020
vn -0.9681 0.2506 -0.0001
vn -0.9986 -0.0527 -0.0001
vn -1.0000 -0.0019 -0.0000
vn -1.0000 -0.0017 -0.0014
vn -0.9947 -0.1030 -0.0013
vn -0.9947 -0.1032 -0.0000
vn -0.9945 -0.1047 0.0017
vn -0.9987 -0.0512 0.0024
vn -1.0000 -0.0034 0.0016
vn -0.9987 0.0507 0.0023
vn -0.9988 0.0491 -0.0001
vn -0.9681 -0.2507 -0.0001
vn -0.9793 -0.2024 -0.0000
vn -0.9794 -0.2021 -0.0013
vn -0.9547 -0.2977 -0.0013
vn -0.9546 -0.2980 -0.0000
vn -0.9541 -0.2995 0.0017
vn -0.9684 -0.2492 0.0025
vn -0.9790 -0.2039 0.0017
vn -0.9884 -0.1516 0.0025
vn -0.9882 -0.1531 -0.0001
vn -0.9017 -0.4323 -0.0001
vn -0.9213 -0.3890 -0.0000
vn -0.9214 -0.3886 -0.0012
vn -0.8807 -0.4737 -0.0011
vn -0.8805 -0.4741 -0.0000
vn -0.8798 -0.4754 0.0017
vn -0.9024 -0.4310 0.0025
vn -0.9207 -0.3903 0.0017
vn -0.9394 -0.3427 0.0025
vn -0.9389 -0.3442 -0.0001
vn -0.8077 -0.5896 -0.0001
vn -0.8333 -0.5528 -0.0000
vn -0.8336 -0.5524 -0.0011
vn -0.7800 -0.6258 -0.0011
vn -0.7804 -0.6252 -0.0000
vn -0.7796 -0.6263 0.0016
vn -0.8085 -0.5884 0.0025
vn -0.8326 -0.5539 0.0017
vn -0.8583 -0.5131 0.0025
vn -0.8576 -0.5143 -0.0001
vn -0.6838 -0.7297 -0.0001
vn -0.7183 -0.6957 -0.0000
vn -0.7179 -0.6961 -0.0012
vn -0.6472 -0.7623 -0.0012
vn -0.6473 -0.7622 -0.0000
vn -0.6463 -0.7631 0.0013
vn -0.6848 -0.7288 0.0020
vn -0.7174 -0.6966 0.0015
vn -0.7516 -0.6596 0.0024
vn -0.7506 -0.6607 -0.0001
vn -0.5282 -0.8491 -0.0001
vn -0.5697 -0.8218 -0.0000
vn -0.5694 -0.8221 -0.0013
vn -0.4849 -0.8746 -0.0013
vn -0.4851 -0.8745 -0.0000
vn -0.4839 -0.8751 0.0013
vn -0.5293 -0.8484 0.0018
vn -0.5687 -0.8226 0.0013
vn -0.6104 -0.7921 0.0018
vn -0.6093 -0.7929 -0.0001
vn -0.3477 -0.9376 -0.0001
vn -0.3949 -0.9187 -0.0000
vn -0.3946 -0.9188 -0.0013
vn -0.2995 -0.9541 -0.0014
vn -0.2996 -0.9541 -0.0000
vn -0.2982 -0.9545 0.0014
vn -0.3490 -0.9371 0.0019
vn -0.3936 -0.9193 0.0014
vn -0.4418 -0.8971 0.0018
vn -0.4406 -0.8977 -0.0001
vn -0.1508 -0.9886 -0.0001
vn -0.2010 -0.9796 -0.0000
vn -0.2009 -0.9796 -0.0016
vn -0.1001 -0.9950 -0.0014
vn -0.1001 -0.9950 -0.0000
vn -0.0986 -0.9951 0.0016
vn -0.1522 -0.9883 0.0021
vn -0.1996 -0.9799 0.0015
vn -0.2520 -0.9677 0.0020
vn -0.2506 -0.9681 -0.0001
vn 0.0527 -0.9986 -0.0001
vn 0.0019 -1.0000 -0.0000
vn 0.0018 -1.0000 -0.0014
vn 0.1030 -0.9947 -0.0013
vn 0.1032 -0.9947 -0.0000
vn 0.1047 -0.9945 0.0017
vn 0.0512 -0.9987 0.0024
vn 0.0034 -1.0000 0.0016
vn -0.0506 -0.9987 0.0023
vn -0.0491 -0.9988 -0.0001
vn 0.2507 -0.9681 -0.0001
vn 0.2024 -0.9793 -0.0000
vn 0.2021 -0.9794 -0.0013
vn 0.2977 -0.9547 -0.0013
vn 0.2980 -0.9546 -0.0000
vn 0.2995 -0.9541 0.0017
vn 0.2492 -0.9684 0.0025
vn 0.2039 -0.9790 0.0017
vn 0.1516 -0.9884 0.0025
vn 0.1531 -0.9882 -0.0001
vn 0.4323 -0.9017 -0.0001
vn 0.3890 -0.9213 -0.0000
vn 0.3886 -0.9214 -0.0012
vn 0.4737 -0.8807 -0.0011
vn 0.4741 -0.8805 -0.0000
vn 0.4754 -0.8798 0.0017
vn 0.4310 -0.9024 0.0025
vn 0.3903 -0.9207 0.0017
vn 0.3427 -0.9394 0.0025
vn 0.3442 -0.9389 -0.0001
vn 0.5896 -0.8077 -0.0001
vn 0.5528 -0.8333 -0.0000
vn 0.5524 -0.8336 -0.0011
vn 0.5884 -0.8085 0.0025
vn 0.5539 -0.8326 0.0017
vn 0.5131 -0.8583 0.0025
vn 0.5143 -0.8576 -0.0001
vn 0.6962 -0.7179 -0.0000
vn 0.7623 -0.6472 -0.0000
vn 0.6258 -0.7800 -0.0000
vn 0.8221 -0.5693 -0.0000
vn 0.8746 -0.4849 -0.0000
vn 0.9189 -0.3946 -0.0000
vn 0.9612 -0.2759 -0.0014
vn 0.9922 -0.1244 -0.0014
vn 1.0000 0.0017 -0.0000
vn 0.9947 0.1030 -0.0000
vn 0.9794 0.2021 -0.0000
vn 0.9547 0.2977 -0.0000
vn 0.9214 0.3885 -0.0000
vn 0.8807 0.4737 -0.0000
vn 0.8336 0.5523 -0.0000
vn 0.7800 0.6258 -0.0000
vn 0.7179 0.6962 -0.0000
vn 0.6472 0.7623 -0.0000
vn 0.5693 0.8221 -0.0000
vn 0.4849 0.8746 -0.0000
vn 0.3946 0.9189 -0.0000
vn 0.2759 0.9612 -0.0014
vn 0.1244 0.9922 -0.0014
vn -0.0017 1.0000 -0.0000
vn -0.1030 0.9947 -0.0000
vn -0.2021 0.9794 -0.0000
vn -0.2977 0.9547 -0.0000
vn -0.3885 0.9214 -0.0000
vn -0.4737 0.8807 -0.0000
vn -0.5523 0.8336 -0.0000
vn -0.6258 0.7800 -0.0000
vn -0.6962 0.7179 -0.0000
vn -0.7623 0.6472 -0.0000
vn -0.8221 0.5693 -0.0000
vn -0.8746 0.4849 -0.0000
vn -0.9189 0.3946 -0.0000
vn -0.9612 0.2759 -0.0014
vn -0.9922 0.1244 -0.0014
vn -1.0000 -0.0017 -0.0000
vn -0.9947 -0.1030 -0.0000
vn -0.9794 -0.2021 -0.0000
vn -0.9547 -0.2977 -0.0000
vn -0.9214 -0.3885 -0.0000
vn -0.8807 -0.4737 -0.0000
vn -0.8336 -0.5523 -0.0000
vn -0.7800 -0.6258 -0.0000
vn -0.7179 -0.6962 -0.0000
vn -0.6472 -0.7623 -0.0000
vn -0.5693 -0.8221 -0.0000
vn -0.4849 -0.8746 -0.0000
vn -0.3946 -0.9189 -0.0000
vn -0.2759 -0.9612 -0.0014
vn -0.1244 -0.9922 -0.0014
vn 0.0017 -1.0000 -0.0000
vn 0.1030 -0.9947 -0.0000
vn 0.2021 -0.9794 -0.0000
vn 0.2977 -0.9547 -0.0000
vn 0.3885 -0.9214 -0.0000
vn 0.4737 -0.8807 -0.0000
vn 0.5523 -0.8336 -0.0000
vn 0.6962 -0.7179 -0.0007
vn 0.8221 -0.5693 -0.0008
vn 0.9614 -0.2750 -0.0000
vn 0.9189 -0.3946 -0.0008
vn 1.0000 0.0017 -0.0008
vn 0.9921 -0.1254 -0.0000
vn 0.9794 0.2021 -0.0008
vn 0.9214 0.3885 -0.0007
vn 0.8336 0.5523 -0.0006
vn 0.7179 0.6962 -0.0007
vn 0.5693 0.8221 -0.0008
vn 0.2750 0.9614 -0.0000
vn 0.3946 0.9189 -0.0008
vn -0.0017 1.0000 -0.0008
vn 0.1254 0.9921 -0.0000
vn -0.2021 0.9794 -0.0008
vn -0.3885 0.9214 -0.0007
vn -0.5523 0.8336 -0.0006
vn -0.6962 0.7179 -0.0007
vn -0.8221 0.5693 -0.0008
vn -0.9614 0.2750 -0.0000
vn -0.9189 0.3946 -0.0008
vn -1.0000 -0.0017 -0.0008
vn -0.9921 0.1254 -0.0000
vn -0.9794 -0.2021 -0.0008
vn -0.9214 -0.3885 -0.0007
vn -0.8336 -0.5523 -0.0006
vn -0.7179 -0.6962 -0.0007
vn -0.5693 -0.8221 -0.0008
vn -0.2750 -0.9614 -0.0000
vn -0.3946 -0.9189 -0.0008
vn 0.0017 -1.0000 -0.0008
vn -0.1254 -0.9921 -0.0000
vn 0.2021 -0.9794 -0.0008
vn 0.3885 -0.9214 -0.0007
vn 0.5523 -0.8336 -0.0006
vn 0.6788 -0.7288 0.0905
vn 0.6105 -0.7772 0.1526
vn 0.8140 -0.5781 0.0564
vn 0.7572 -0.6525 0.0281
vn 0.9112 -0.4075 0.0600
vn 0.8689 -0.4942 0.0281
vn 0.9507 -0.3087 0.0290
vn 0.9749 -0.2143 0.0609
vn 0.9981 -0.0105 0.0606
vn 0.9938 -0.1072 0.0289
vn 0.9795 0.1921 0.0598
vn 0.9946 0.0992 0.0293
vn 0.9224 0.3818 0.0582
vn 0.9546 0.2964 0.0295
vn 0.8802 0.4737 0.0293
vn 0.7711 0.6147 0.1660
vn 0.8213 0.5612 0.1029
vn 0.6530 0.7569 0.0275
vn 0.7284 0.6793 0.0897
vn 0.5781 0.8140 0.0564
vn 0.4071 0.9114 0.0594
vn 0.4942 0.8689 0.0281
vn 0.2143 0.9749 0.0609
vn 0.3091 0.9506 0.0285
vn 0.1077 0.9937 0.0297
vn -0.0992 0.9946 0.0293
vn 0.0100 0.9981 0.0612
vn -0.2964 0.9546 0.0295
vn -0.1921 0.9795 0.0598
vn -0.4737 0.8802 0.0293
vn -0.3818 0.9224 0.0582
vn -0.6147 0.7712 0.1658
vn -0.5612 0.8213 0.1029
vn -0.6793 0.7284 0.0897
vn -0.8140 0.5781 0.0564
vn -0.7569 0.6530 0.0275
vn -0.9114 0.4071 0.0594
vn -0.8689 0.4942 0.0281
vn -0.9749 0.2143 0.0609
vn -0.9506 0.3091 0.0285
vn -0.9981 0.0105 0.0606
vn -0.9938 0.1072 0.0289
vn -0.9946 -0.0992 0.0293
vn -0.9546 -0.2964 0.0295
vn -0.9795 -0.1921 0.0598
vn -0.8802 -0.4737 0.0293
vn -0.9224 -0.3818 0.0582
vn -0.7711 -0.6147 0.1660
vn -0.8213 -0.5612 0.1029
vn -0.6530 -0.7569 0.0275
vn -0.7284 -0.6793 0.0897
vn -0.5781 -0.8140 0.0564
vn -0.4071 -0.9114 0.0594
vn -0.4942 -0.8689 0.0281
vn -0.2143 -0.9749 0.0609
vn -0.3091 -0.9506 0.0285
vn -0.1072 -0.9938 0.0289
vn 0.0992 -0.9946 0.0293
vn -0.0105 -0.9981 0.0606
vn 0.2964 -0.9546 0.0295
vn 0.1921 -0.9795 0.0598
vn 0.3818 -0.9224 0.0582
vn 0.5612 -0.8213 0.1029
vn 0.4737 -0.8802 0.0293
vn 0.1984 -0.3800 0.9034
vn 0.3717 -0.6756 0.6367
vn 0.4852 -0.6322 0.6041
vn 0.2666 -0.3353 0.9036
vn 0.1201 -0.4117 0.9034
vn 0.2134 -0.7325 0.6465
vn 0.0353 -0.4275 0.9033
vn 0.0627 -0.7611 0.6456
vn -0.0518 -0.4259 0.9033
vn -0.0922 -0.7582 0.6455
vn -0.1364 -0.4067 0.9033
vn -0.2429 -0.7241 0.6455
vn -0.2138 -0.3716 0.9034
vn -0.3808 -0.6618 0.6458
vn -0.2801 -0.3241 0.9036
vn -0.4991 -0.5774 0.6462
vn -0.3353 -0.2666 0.9036
vn -0.6242 -0.4960 0.6036
vn -0.3800 -0.1984 0.9034
vn -0.6755 -0.3527 0.6476
vn -0.4117 -0.1201 0.9034
vn -0.7325 -0.2134 0.6465
vn -0.4275 -0.0353 0.9033
vn -0.7611 -0.0627 0.6456
vn -0.4259 0.0518 0.9033
vn -0.7582 0.0922 0.6455
vn -0.4067 0.1364 0.9033
vn -0.7241 0.2429 0.6455
vn -0.3716 0.2138 0.9034
vn -0.6618 0.3808 0.6458
vn -0.3241 0.2801 0.9036
vn -0.5774 0.4991 0.6462
vn -0.2666 0.3353 0.9036
vn -0.4960 0.6242 0.6036
vn -0.1984 0.3800 0.9034
vn -0.3527 0.6755 0.6476
vn -0.1201 0.4117 0.9034
vn -0.2134 0.7325 0.6465
vn -0.0353 0.4275 0.9033
vn -0.0627 0.7611 0.6456
vn 0.0518 0.4259 0.9033
vn 0.0922 0.7582 0.6455
vn 0.1364 0.4067 0.9033
vn 0.2429 0.7241 0.6455
vn 0.2138 0.3716 0.9034
vn 0.3808 0.6618 0.6458
vn 0.2801 0.3241 0.9036
vn 0.4991 0.5774 0.6462
vn 0.3353 0.2666 0.9036
vn 0.6242 0.4960 0.6036
vn 0.3800 0.1984 0.9034
vn 0.6755 0.3527 0.6476
vn 0.4117 0.1201 0.9034
vn 0.7325 0.2134 0.6465
vn 0.4275 0.0353 0.9033
vn 0.7611 0.0627 0.6456
vn 0.4259 -0.0518 0.9033
vn 0.7582 -0.0922 0.6455
vn 0.4067 -0.1364 0.9033
vn 0.7241 -0.2429 0.6455
vn 0.3716 -0.2138 0.9034
vn 0.6618 -0.3808 0.6458
vn 0.3241 -0.2801 0.9036
vn 0.5774 -0.4991 0.6462
vn 0.1072 -0.2054 0.9728
vn 0.1441 -0.1812 0.9728
vn 0.0649 -0.2225 0.9728
vn 0.0191 -0.2311 0.9728
vn -0.0280 -0.2302 0.9727
vn -0.0737 -0.2198 0.9728
vn -0.1155 -0.2008 0.9728
vn -0.1514 -0.1752 0.9728
vn -0.1812 -0.1441 0.9728
vn -0.2054 -0.1072 0.9728
vn -0.2225 -0.0649 0.9728
vn -0.2311 -0.0191 0.9728
vn -0.2302 0.0280 0.9727
vn -0.2198 0.0737 0.9728
vn -0.2008 0.1155 0.9728
vn -0.1752 0.1514 0.9728
vn -0.1441 0.1812 0.9728
vn -0.1072 0.2054 0.9728
vn -0.0649 0.2225 0.9728
vn -0.0191 0.2311 0.9728
vn 0.0280 0.2302 0.9727
vn 0.0737 0.2198 0.9728
vn 0.1155 0.2008 0.9728
vn 0.1514 0.1752 0.9728
vn 0.1812 0.1441 0.9728
vn 0.2054 0.1072 0.9728
vn 0.2225 0.0649 0.9728
vn 0.2311 0.0191 0.9728
vn 0.2302 -0.0280 0.9727
vn 0.2198 -0.0737 0.9728
vn 0.2008 -0.1155 0.9728
vn 0.1752 -0.1514 0.9728
vn 0.0620 -0.1188 0.9910
vn 0.0833 -0.1048 0.9910
vn 0.0375 -0.1287 0.9910
vn 0.0110 -0.1336 0.9910
vn -0.0162 -0.1331 0.9910
vn -0.0426 -0.1271 0.9910
vn -0.0668 -0.1162 0.9910
vn -0.0876 -0.1013 0.9910
vn -0.1048 -0.0833 0.9910
vn -0.1188 -0.0620 0.9910
vn -0.1287 -0.0375 0.9910
vn -0.1336 -0.0110 0.9910
vn -0.1331 0.0162 0.9910
vn -0.1271 0.0426 0.9910
vn -0.1162 0.0668 0.9910
vn -0.1013 0.0876 0.9910
vn -0.0833 0.1048 0.9910
vn -0.0620 0.1188 0.9910
vn -0.0375 0.1287 0.9910
vn -0.0110 0.1336 0.9910
vn 0.0162 0.1331 0.9910
vn 0.0426 0.1271 0.9910
vn 0.0668 0.1162 0.9910
vn 0.0876 0.1013 0.9910
vn 0.1048 0.0833 0.9910
vn 0.1188 0.0620 0.9910
vn 0.1287 0.0375 0.9910
vn 0.1336 0.0110 0.9910
vn 0.1331 -0.0162 0.9910
vn 0.1271 -0.0426 0.9910
vn 0.1162 -0.0668 0.9910
vn 0.1013 -0.0876 0.9910
vn 0.0347 -0.0664 0.9972
vn 0.0466 -0.0586 0.9972
vn 0.0210 -0.0719 0.9972
vn 0.0062 -0.0747 0.9972
vn -0.0090 -0.0744 0.9972
vn -0.0238 -0.0710 0.9972
vn -0.0373 -0.0649 0.9972
vn -0.0489 -0.0566 0.9972
vn -0.0586 -0.0466 0.9972
vn -0.0664 -0.0347 0.9972
vn -0.0719 -0.0210 0.9972
vn -0.0747 -0.0062 0.9972
vn -0.0744 0.0090 0.9972
vn -0.0710 0.0238 0.9972
vn -0.0649 0.0373 0.9972
vn -0.0566 0.0489 0.9972
vn -0.0466 0.0586 0.9972
vn -0.0347 0.0664 0.9972
vn -0.0210 0.0719 0.9972
vn -0.0062 0.0747 0.9972
vn 0.0090 0.0744 0.9972
vn 0.0238 0.0710 0.9972
vn 0.0373 0.0649 0.9972
vn 0.0489 0.0566 0.9972
vn 0.0586 0.0466 0.9972
vn 0.0664 0.0347 0.9972
vn 0.0719 0.0210 0.9972
vn 0.0747 0.0062 0.9972
vn 0.0744 -0.0090 0.9972
vn 0.0710 -0.0238 0.9972
vn 0.0649 -0.0373 0.9972
vn 0.0566 -0.0489 0.9972
vn 0.0157 -0.0301 0.9994
vn 0.0211 -0.0265 0.9994
vn 0.0095 -0.0326 0.9994
vn 0.0028 -0.0338 0.9994
vn -0.0041 -0.0337 0.9994
vn -0.0108 -0.0322 0.9994
vn -0.0169 -0.0294 0.9994
vn -0.0221 -0.0256 0.9994
vn -0.0265 -0.0211 0.9994
vn -0.0301 -0.0157 0.9994
vn -0.0326 -0.0095 0.9994
vn -0.0338 -0.0028 0.9994
vn -0.0337 0.0041 0.9994
vn -0.0322 0.0108 0.9994
vn -0.0294 0.0169 0.9994
vn -0.0256 0.0221 0.9994
vn -0.0211 0.0265 0.9994
vn -0.0157 0.0301 0.9994
vn -0.0095 0.0326 0.9994
vn -0.0028 0.0338 0.9994
vn 0.0041 0.0337 0.9994
vn 0.0108 0.0322 0.9994
vn 0.0169 0.0294 0.9994
vn 0.0221 0.0256 0.9994
vn 0.0265 0.0211 0.9994
vn 0.0301 0.0157 0.9994
vn 0.0326 0.0095 0.9994
vn 0.0338 0.0028 0.9994
vn 0.0337 -0.0041 0.9994
vn 0.0322 -0.0108 0.9994
vn 0.0294 -0.0169 0.9994
vn 0.0256 -0.0221 0.9994
vn -0.0000 -0.0000 1.0000
vn 0.4733 -0.8384 0.2703
vn 0.2706 -0.9288 0.2532
vn 0.0793 -0.9645 0.2518
vn -0.1171 -0.9606 0.2521
vn -0.3083 -0.9173 0.2520
vn -0.4833 -0.8385 0.2517
vn -0.6438 -0.7226 0.2519
vn -0.8509 -0.4586 0.2561
vn -0.9288 -0.2706 0.2532
vn -0.9645 -0.0793 0.2518
vn -0.9606 0.1171 0.2521
vn -0.9173 0.3083 0.2520
vn -0.8385 0.4833 0.2517
vn -0.7226 0.6438 0.2519
vn -0.4586 0.8509 0.2561
vn -0.2706 0.9288 0.2532
vn -0.0793 0.9645 0.2518
vn 0.1171 0.9606 0.2521
vn 0.3083 0.9173 0.2520
vn 0.4833 0.8385 0.2517
vn 0.6438 0.7226 0.2519
vn 0.8509 0.4586 0.2561
vn 0.9288 0.2706 0.2532
vn 0.9645 0.0793 0.2518
vn 0.9606 -0.1171 0.2521
vn 0.9173 -0.3083 0.2520
vn 0.8385 -0.4833 0.2517
vn 0.7241 -0.6421 0.2516
s 1
f 3//1 4//1 5//1
f 2//1 8//1 6//1
f 9//2 10//3 7//1
f 10//3 11//4 7//1
f 11//4 12//5 4//1
f 13//6 9//2 7//1
f 6//1 14//7 15//8
f 7//1 15//8 16//9
f 13//6 7//1 16//9
f 6//1 15//8 7//1
f 7//1 11//4 4//1
f 6//1 17//10 14//7
f 5//1 18//11 19//12
f 20//13 5//1 21//14
f 21//14 5//1 19//12
f 22//15 18//11 4//1
f 18//11 5//1 4//1
f 23//16 24//17 5//1
f 3//1 24//17 25//18
f 3//1 5//1 24//17
f 20//13 23//16 5//1
f 4//1 12//5 22//15
f 6//1 8//1 26//19
f 27//20 28//21 8//1
f 29//22 8//1 2//1
f 28//21 26//19 8//1
f 30//23 8//1 31//24
f 2//1 32//25 29//22
f 29//22 31//24 8//1
f 27//20 8//1 30//23
f 33//26 32//25 2//1
f 34//27 1//1 3//1
f 35//28 34//27 3//1
f 36//29 1//1 34//27
f 36//29 37//30 1//1
f 25//18 35//28 3//1
f 1//1 38//31 39//32
f 1//1 37//30 40//33
f 40//33 38//31 1//1
f 2//1 1//1 39//32
f 2//1 39//32 33//26
f 26//19 17//10 6//1
f 41//34 42//35 43//36
f 44//37 45//38 41//34
f 43//36 44//37 41//34
f 45//38 46//39 47//40
f 45//38 47//40 41//34
f 41//34 47//40 48//41
f 41//34 48//41 42//35
f 42//35 48//41 49//42
f 42//35 49//42 50//43
f 50//43 49//42 51//44
f 50//43 51//44 52//45
f 50//43 52//45 53//46
f 43//36 42//35 50//43
f 53//46 43//36 50//43
f 54//47 55//48 56//49
f 57//50 58//51 54//47
f 56//49 57//50 54//47
f 58//51 59//52 60//53
f 58//51 60//53 54//47
f 54//47 60//53 61//54
f 54//47 61//54 55//48
f 55//48 61//54 62//55
f 55//48 62//55 63//56
f 63//56 62//55 46//39
f 63//56 46//39 45//38
f 63//56 45//38 44//37
f 56//49 55//48 63//56
f 44//37 56//49 63//56
f 64//57 65//58 66//59
f 67//60 68//61 64//57
f 66//59 67//60 64//57
f 68//61 69//62 70//63
f 68//61 70//63 64//57
f 64//57 70//63 71//64
f 64//57 71//64 65//58
f 65//58 71//64 72//65
f 65//58 72//65 73//66
f 73//66 72//65 59//52
f 73//66 59//52 58//51
f 73//66 58//51 57//50
f 66//59 65//58 73//66
f 57//50 66//59 73//66
f 74//67 75//68 76//69
f 77//70 78//71 74//67
f 76//69 77//70 74//67
f 78//71 79//72 80//73
f 78//71 80//73 74//67
f 74//67 80//73 81//74
f 74//67 81//74 75//68
f 75//68 81//74 82//75
f 75//68 82//75 83//76
f 83//76 82//75 69//62
f 83//76 69//62 68//61
f 83//76 68//61 67//60
f 76//69 75//68 83//76
f 67//60 76//69 83//76
f 84//77 85//78 86//79
f 87//80 88//81 84//77
f 86//79 87//80 84//77
f 88//81 89//82 90//83
f 88//81 90//83 84//77
f 84//77 90//83 91//84
f 84//77 91//84 85//78
f 85//78 91//84 92//85
f 85//78 92//85 93//86
f 93//86 92//85 79//72
f 93//86 79//72 78//71
f 93//86 78//71 77//70
f 86//79 85//78 93//86
f 77//70 86//79 93//86
f 94//87 95//88 96//89
f 97//90 98//91 94//87
f 96//89 97//90 94//87
f 98//91 99//92 100//93
f 98//91 100//93 94//87
f 94//87 100//93 101//94
f 94//87 101//94 95//88
f 95//88 101//94 102//95
f 95//88 102//95 103//96
f 103//96 102//95 89//82
f 103//96 89//82 88//81
f 103//96 88//81 87//80
f 96//89 95//88 103//96
f 87//80 96//89 103//96
f 104//97 105//98 106//99
f 107//100 108//101 104//97
f 106//99 107//100 104//97
f 108//101 109//102 110//103
f 108//101 110//103 104//97
f 104//97 110//103 111//104
f 104//97 111//104 105//98
f 105//98 111//104 112//105
f 105//98 112//105 113//106
f 113//106 112//105 99//92
f 113//106 99//92 98//91
f 113//106 98//91 97//90
f 106//99 105//98 113//106
f 97//90 106//99 113//106
f 114//107 115//108 116//109
f 117//110 118//111 114//107
f 116//109 117//110 114//107
f 118//111 119//112 120//113
f 118//111 120//113 114//107
f 114//107 120//113 121//114
f 114//107 121//114 115//108
f 115//108 121//114 122//115
f 115//108 122//115 123//116
f 123//116 122//115 109//102
f 123//116 109//102 108//101
f 123//116 108//101 107//100
f 116//109 115//108 123//116
f 107//100 116//109 123//116
f 124//117 125//118 126//119
f 127//120 128//121 124//117
f 126//119 127//120 124//117
f 128//121 129//122 130//123
f 128//121 130//123 124//117
f 124//117 130//123 131//124
f 124//117 131//124 125//118
f 125//118 131//124 132//125
f 125//118 132//125 133//126
f 133//126 132//125 119//112
f 133//126 119//112 118//111
f 133//126 118//111 117//110
f 126//119 125//118 133//126
f 117//110 126//119 133//126
f 134//127 135//128 136//129
f 137//130 138//131 134//127
f 136//129 137//130 134//127
f 138//131 139//132 140//133
f 138//131 140//133 134//127
f 134//127 140//133 141//134
f 134//127 141//134 135//128
f 135//128 141//134 142//135
f 135//128 142//135 143//136
f 143//136 142//135 129//122
f 143//136 129//122 128//121
f 143//136 128//121 127//120
f 136//129 135//128 143//136
f 127//120 136//129 143//136
f 144//137 145//138 146//139
f 147//140 148//141 144//137
f 146//139 147//140 144//137
f 148//141 149//142 150//143
f 148//141 150//143 144//137
f 144//137 150//143 151//144
f 144//137 151//144 145//138
f 145//138 151//144 152//145
f 145//138 152//145 153//146
f 153//146 152//145 139//132
f 153//146 139//132 138//131
f 153//146 138//131 137//130
f 146//139 145//138 153//146
f 137//130 146//139 153//146
f 154//147 155//148 156//149
f 157//150 158//151 154//147
f 156//149 157//150 154//147
f 158//151 159//152 160//153
f 158//151 160//153 154//147
f 154//147 160//153 161//154
f 154//147 161//154 155//148
f 155//148 161//154 162//155
f 155//148 162//155 163//156
f 163//156 162//155 149//142
f 163//156 149//142 148//141
f 163//156 148//141 147//140
f 156//149 155//148 163//156
f 147//140 156//149 163//156
f 164//157 165//158 166//159
f 167//160 168//161 164//157
f 166//159 167//160 164//157
f 168//161 169//162 170//163
f 168//161 170//163 164//157
f 164//157 170//163 171//164
f 164//157 171//164 165//158
f 165//158 171//164 172//165
f 165//158 172//165 173//166
f 173//166 172//165 159//152
f 173//166 159//152 158//151
f 173//166 158//151 157//150
f 166//159 165//158 173//166
f 157//150 166//159 173//166
f 174//167 175//168 176//169
f 177//170 178//171 174//167
f 176//169 177//170 174//167
f 178//171 179//172 180//173
f 178//171 180//173 174//167
f 174//167 180//173 181//174
f 174//167 181//174 175//168
f 175//168 181//174 182//175
f 175//168 182//175 183//176
f 183//176 182//175 169//162
f 183//176 169//162 168//161
f 183//176 168//161 167//160
f 176//169 175//168 183//176
f 167//160 176//169 183//176
f 184//177 185//178 186//179
f 187//180 188//181 184//177
f 186//179 187//180 184//177
f 188//181 189//182 190//183
f 188//181 190//183 184//177
f 184//177 190//183 191//184
f 184//177 191//184 185//178
f 185//178 191//184 192//185
f 185//178 192//185 193//186
f 193//186 192//185 179//172
f 193//186 179//172 178//171
f 193//186 178//171 177//170
f 186//179 185//178 193//186
f 177//170 186//179 193//186
f 194//187 195//188 196//189
f 194//187 196//189 197//190
f 196//189 198//191 199//192
f 196//189 199//192 200//193
f 200//193 199//192 189//182
f 200//193 189//182 188//181
f 200//193 188//181 187//180
f 197//190 196//189 200//193
f 187//180 197//190 200//193
f 201//194 202//195 203//196
f 204//197 205//198 201//194
f 203//196 204//197 201//194
f 205//198 206//199 207//200
f 205//198 207//200 201//194
f 201//194 207//200 208//201
f 201//194 208//201 202//195
f 202//195 208//201 209//202
f 202//195 209//202 210//203
f 210//203 209//202 211//204
f 210//203 211//204 195//188
f 210//203 195//188 194//187
f 203//196 202//195 210//203
f 194//187 203//196 210//203
f 212//205 213//206 214//207
f 215//208 216//209 212//205
f 214//207 215//208 212//205
f 216//209 217//210 218//211
f 216//209 218//211 212//205
f 212//205 218//211 219//212
f 212//205 219//212 213//206
f 213//206 219//212 220//213
f 213//206 220//213 221//214
f 221//214 220//213 206//199
f 221//214 206//199 205//198
f 221//214 205//198 204//197
f 214//207 213//206 221//214
f 204//197 214//207 221//214
f 222//215 223//216 224//217
f 225//218 226//219 222//215
f 224//217 225//218 222//215
f 226//219 227//220 228//221
f 226//219 228//221 222//215
f 222//215 228//221 229//222
f 222//215 229//222 223//216
f 223//216 229//222 230//223
f 223//216 230//223 231//224
f 231//224 230//223 217//210
f 231//224 217//210 216//209
f 231//224 216//209 215//208
f 224//217 223//216 231//224
f 215//208 224//217 231//224
f 232//225 233//226 234//227
f 235//228 236//229 232//225
f 234//227 235//228 232//225
f 236//229 237//230 238//231
f 236//229 238//231 232//225
f 232//225 238//231 239//232
f 232//225 239//232 233//226
f 233//226 239//232 240//233
f 233//226 240//233 241//234
f 241//234 240//233 227//220
f 241//234 227//220 226//219
f 241//234 226//219 225//218
f 234//227 233//226 241//234
f 225//218 234//227 241//234
f 242//235 243//236 244//237
f 245//238 246//239 242//235
f 244//237 245//238 242//235
f 246//239 247//240 248//241
f 246//239 248//241 242//235
f 242//235 248//241 249//242
f 242//235 249//242 243//236
f 243//236 249//242 250//243
f 243//236 250//243 251//244
f 251//244 250//243 237//230
f 251//244 237//230 236//229
f 251//244 236//229 235//228
f 244//237 243//236 251//244
f 235//228 244//237 251//244
f 252//245 253//246 254//247
f 255//248 256//249 252//245
f 254//247 255//248 252//245
f 256//249 257//250 258//251
f 256//249 258//251 252//245
f 252//245 258//251 259//252
f 252//245 259//252 253//246
f 253//246 259//252 260//253
f 253//246 260//253 261//254
f 261//254 260//253 247//240
f 261//254 247//240 246//239
f 261//254 246//239 245//238
f 254//247 253//246 261//254
f 245//238 254//247 261//254
f 262//255 263//256 264//257
f 265//258 266//259 262//255
f 264//257 265//258 262//255
f 266//259 267//260 268//261
f 266//259 268//261 262//255
f 262//255 268//261 269//262
f 262//255 269//262 263//256
f 263//256 269//262 270//263
f 263//256 270//263 271//264
f 271//264 270//263 257//250
f 271//264 257//250 256//249
f 271//264 256//249 255//248
f 264//257 263//256 271//264
f 255//248 264//257 271//264
f 272//265 273//266 274//267
f 275//268 276//269 272//265
f 274//267 275//268 272//265
f 276//269 277//270 278//271
f 276//269 278//271 272//265
f 272//265 278//271 279//272
f 272//265 279//272 273//266
f 273//266 279//272 280//273
f 273//266 280//273 281//274
f 281//274 280//273 267//260
f 281//274 267//260 266//259
f 281//274 266//259 265//258
f 274//267 273//266 281//274
f 265//258 274//267 281//274
f 282//275 283//276 284//277
f 285//278 286//279 282//275
f 284//277 285//278 282//275
f 286//279 287//280 288//281
f 286//279 288//281 282//275
f 282//275 288//281 289//282
f 282//275 289//282 283//276
f 283//276 289//282 290//283
f 283//276 290//283 291//284
f 291//284 290//283 277//270
f 291//284 277//270 276//269
f 291//284 276//269 275//268
f 284//277 283//276 291//284
f 275//268 284//277 291//284
f 292//285 293//286 294//287
f 295//288 296//289 292//285
f 294//287 295//288 292//285
f 296//289 297//290 298//291
f 296//289 298//291 292//285
f 292//285 298//291 299//292
f 292//285 299//292 293//286
f 293//286 299//292 300//293
f 293//286 300//293 301//294
f 301//294 300//293 287//280
f 301//294 287//280 286//279
f 301//294 286//279 285//278
f 294//287 293//286 301//294
f 285//278 294//287 301//294
f 302//295 303//296 304//297
f 305//298 306//299 302//295
f 304//297 305//298 302//295
f 306//299 307//300 308//301
f 306//299 308//301 302//295
f 302//295 308//301 309//302
f 302//295 309//302 303//296
f 303//296 309//302 310//303
f 303//296 310//303 311//304
f 311//304 310//303 297//290
f 311//304 297//290 296//289
f 311//304 296//289 295//288
f 304//297 303//296 311//304
f 295//288 304//297 311//304
f 312//305 313//306 314//307
f 315//308 316//309 312//305
f 314//307 315//308 312//305
f 316//309 317//310 318//311
f 316//309 318//311 312//305
f 312//305 318//311 319//312
f 312//305 319//312 313//306
f 313//306 319//312 320//313
f 313//306 320//313 321//314
f 321//314 320//313 307//300
f 321//314 307//300 306//299
f 321//314 306//299 305//298
f 314//307 313//306 321//314
f 305//298 314//307 321//314
f 322//315 323//316 324//317
f 325//318 326//319 322//315
f 324//317 325//318 322//315
f 326//319 327//320 328//321
f 326//319 328//321 322//315
f 322//315 328//321 329//322
f 322//315 329//322 323//316
f 323//316 329//322 330//323
f 323//316 330//323 331//324
f 331//324 330//323 317//310
f 331//324 317//310 316//309
f 331//324 316//309 315//308
f 324//317 323//316 331//324
f 315//308 324//317 331//324
f 332//325 333//326 334//327
f 335//328 336//329 332//325
f 334//327 335//328 332//325
f 336//329 337//330 338//331
f 336//329 338//331 332//325
f 332//325 338//331 339//332
f 332//325 339//332 333//326
f 333//326 339//332 340//333
f 333//326 340//333 341//334
f 341//334 340//333 327//320
f 341//334 327//320 326//319
f 341//334 326//319 325//318
f 334//327 333//326 341//334
f 325//318 334//327 341//334
f 342//335 343//336 344//337
f 345//338 346//339 342//335
f 344//337 345//338 342//335
f 346//339 347//340 348//341
f 346//339 348//341 342//335
f 342//335 348//341 349//342
f 342//335 349//342 343//336
f 343//336 349//342 350//343
f 343//336 350//343 351//344
f 351//344 350//343 337//330
f 351//344 337//330 336//329
f 351//344 336//329 335//328
f 344//337 343//336 351//344
f 335//328 344//337 351//344
f 352//345 353//346 354//347
f 53//46 52//45 352//345
f 354//347 53//46 352//345
f 52//45 51//44 355//348
f 52//45 355//348 352//345
f 352//345 355//348 356//349
f 352//345 356//349 353//346
f 353//346 356//349 357//350
f 353//346 357//350 358//351
f 358//351 357//350 347//340
f 358//351 347//340 346//339
f 358//351 346//339 345//338
f 354//347 353//346 358//351
f 345//338 354//347 358//351
f 359//352 360//353 44//37
f 359//352 44//37 43//36
f 43//36 53//46 361//354
f 43//36 361//354 359//352
f 362//355 363//356 57//50
f 362//355 57//50 56//49
f 56//49 44//37 360//353
f 56//49 360//353 362//355
f 364//357 365//358 67//60
f 364//357 67//60 66//59
f 66//59 57//50 363//356
f 66//59 363//356 364//357
f 76//69 67//60 365//358
f 366//359 77//70 76//69
f 365//358 366//359 76//69
f 367//360 368//361 87//80
f 367//360 87//80 86//79
f 86//79 77//70 366//359
f 86//79 366//359 367//360
f 369//362 370//363 97//90
f 369//362 97//90 96//89
f 96//89 87//80 368//361
f 96//89 368//361 369//362
f 371//364 372//365 107//100
f 371//364 107//100 106//99
f 106//99 97//90 370//363
f 106//99 370//363 371//364
f 373//366 374//367 117//110
f 373//366 117//110 116//109
f 116//109 107//100 372//365
f 116//109 372//365 373//366
f 375//368 376//369 127//120
f 375//368 127//120 126//119
f 126//119 117//110 374//367
f 126//119 374//367 375//368
f 377//370 378//371 137//130
f 377//370 137//130 136//129
f 136//129 127//120 376//369
f 136//129 376//369 377//370
f 379//372 380//373 147//140
f 379//372 147//140 146//139
f 146//139 137//130 378//371
f 146//139 378//371 379//372
f 156//149 147//140 380//373
f 381//374 157//150 156//149
f 380//373 381//374 156//149
f 382//375 383//376 167//160
f 382//375 167//160 166//159
f 166//159 157//150 381//374
f 166//159 381//374 382//375
f 384//377 385//378 177//170
f 384//377 177//170 176//169
f 176//169 167//160 383//376
f 176//169 383//376 384//377
f 386//379 387//380 187//180
f 386//379 187//180 186//179
f 186//179 177//170 385//378
f 186//179 385//378 386//379
f 388//381 389//382 194//187
f 388//381 194//187 197//190
f 197//190 187//180 387//380
f 197//190 387//380 388//381
f 390//383 391//384 204//197
f 390//383 204//197 203//196
f 203//196 194//187 389//382
f 203//196 389//382 390//383
f 392//385 393//386 215//208
f 392//385 215//208 214//207
f 214//207 204//197 391//384
f 214//207 391//384 392//385
f 394//387 395//388 225//218
f 394//387 225//218 224//217
f 224//217 215//208 393//386
f 224//217 393//386 394//387
f 234//227 225//218 395//388
f 396//389 235//228 234//227
f 395//388 396//389 234//227
f 397//390 398//391 245//238
f 397//390 245//238 244//237
f 244//237 235//228 396//389
f 244//237 396//389 397//390
f 399//392 400//393 255//248
f 399//392 255//248 254//247
f 254//247 245//238 398//391
f 254//247 398//391 399//392
f 401//394 402//395 265//258
f 401//394 265//258 264//257
f 264//257 255//248 400//393
f 264//257 400//393 401//394
f 403//396 404//397 275//268
f 403//396 275//268 274//267
f 274//267 265//258 402//395
f 274//267 402//395 403//396
f 405//398 406//399 285//278
f 405//398 285//278 284//277
f 284//277 275//268 404//397
f 284//277 404//397 405//398
f 407//400 408//401 295//288
f 407//400 295//288 294//287
f 294//287 285//278 406//399
f 294//287 406//399 407//400
f 409//402 410//403 305//298
f 409//402 305//298 304//297
f 304//297 295//288 408//401
f 304//297 408//401 409//402
f 314//307 305//298 410//403
f 411//404 315//308 314//307
f 410//403 411//404 314//307
f 412//405 413//406 325//318
f 412//405 325//318 324//317
f 324//317 315//308 411//404
f 324//317 411//404 412//405
f 414//407 415//408 335//328
f 414//407 335//328 334//327
f 334//327 325//318 413//406
f 334//327 413//406 414//407
f 416//409 417//410 345//338
f 416//409 345//338 344//337
f 344//337 335//328 415//408
f 344//337 415//408 416//409
f 418//411 361//354 53//46
f 418//411 53//46 354//347
f 354//347 345//338 417//410
f 354//347 417//410 418//411
f 419//353 360//353 359//352
f 419//353 359//352 420//412
f 420//412 359//352 361//354
f 420//412 361//354 421//354
f 422//356 363//356 362//355
f 422//356 362//355 423//413
f 423//413 362//355 360//353
f 423//413 360//353 419//353
f 424//414 365//358 364//357
f 424//414 364//357 425//415
f 425//415 364//357 363//356
f 425//415 363//356 422//356
f 426//361 368//361 367//360
f 426//361 367//360 427//416
f 427//416 367//360 366//359
f 427//416 366//359 428//417
f 429//363 370//363 369//362
f 429//363 369//362 430//418
f 430//418 369//362 368//361
f 430//418 368//361 426//361
f 431//365 372//365 371//364
f 431//365 371//364 432//419
f 432//419 371//364 370//363
f 432//419 370//363 429//363
f 433//367 374//367 373//366
f 433//367 373//366 434//420
f 434//420 373//366 372//365
f 434//420 372//365 431//365
f 435//369 376//369 375//368
f 435//369 375//368 436//421
f 436//421 375//368 374//367
f 436//421 374//367 433//367
f 437//371 378//371 377//370
f 437//371 377//370 438//422
f 438//422 377//370 376//369
f 438//422 376//369 435//369
f 439//423 380//373 379//372
f 439//423 379//372 440//424
f 440//424 379//372 378//371
f 440//424 378//371 437//371
f 441//376 383//376 382//375
f 441//376 382//375 442//425
f 442//425 382//375 381//374
f 442//425 381//374 443//426
f 444//378 385//378 384//377
f 444//378 384//377 445//427
f 445//427 384//377 383//376
f 445//427 383//376 441//376
f 446//380 387//380 386//379
f 446//380 386//379 447//428
f 447//428 386//379 385//378
f 447//428 385//378 444//378
f 448//382 389//382 388//381
f 448//382 388//381 449//429
f 449//429 388//381 387//380
f 449//429 387//380 446//380
f 450//384 391//384 390//383
f 450//384 390//383 451//430
f 451//430 390//383 389//382
f 451//430 389//382 448//382
f 452//386 393//386 392//385
f 452//386 392//385 453//431
f 453//431 392//385 391//384
f 453//431 391//384 450//384
f 454//432 395//388 394//387
f 454//432 394//387 455//433
f 455//433 394//387 393//386
f 455//433 393//386 452//386
f 456//391 398//391 397//390
f 456//391 397//390 457//434
f 457//434 397//390 396//389
f 457//434 396//389 458//435
f 459//393 400//393 399//392
f 459//393 399//392 460//436
f 460//436 399//392 398//391
f 460//436 398//391 456//391
f 461//395 402//395 401//394
f 461//395 401//394 462//437
f 462//437 401//394 400//393
f 462//437 400//393 459//393
f 463//397 404//397 403//396
f 463//397 403//396 464//438
f 464//438 403//396 402//395
f 464//438 402//395 461//395
f 465//399 406//399 405//398
f 465//399 405//398 466//439
f 466//439 405//398 404//397
f 466//439 404//397 463//397
f 467//401 408//401 407//400
f 467//401 407//400 468//440
f 468//440 407//400 406//399
f 468//440 406//399 465//399
f 469//441 410//403 409//402
f 469//441 409//402 470//442
f 470//442 409//402 408//401
f 470//442 408//401 467//401
f 471//406 413//406 412//405
f 471//406 412//405 472//443
f 472//443 412//405 411//404
f 472//443 411//404 473//444
f 474//408 415//408 414//407
f 474//408 414//407 475//445
f 475//445 414//407 413//406
f 475//445 413//406 471//406
f 476//410 417//410 416//409
f 476//410 416//409 477//446
f 477//446 416//409 415//408
f 477//446 415//408 474//408
f 421//354 361//354 418//411
f 421//354 418//411 478//447
f 478//447 418//411 417//410
f 478//447 417//410 476//410
f 479//448 480//449 51//44
f 479//448 51//44 49//42
f 48//41 479//448 49//42
f 481//450 482//451 46//39
f 481//450 46//39 62//55
f 483//452 484//453 59//52
f 483//452 59//52 72//65
f 484//453 481//450 61//54
f 484//453 61//54 60//53
f 48//41 47//40 479//448
f 479//448 47//40 482//451
f 482//451 47//40 46//39
f 481//450 62//55 61//54
f 484//453 60//53 59//52
f 483//452 72//65 71//64
f 483//452 71//64 70//63
f 485//454 483//452 70//63
f 486//455 485//454 69//62
f 486//455 69//62 82//75
f 487//456 488//457 79//72
f 487//456 79//72 92//85
f 488//457 486//455 81//74
f 488//457 81//74 80//73
f 489//458 490//459 89//82
f 489//458 89//82 102//95
f 491//460 492//461 99//92
f 491//460 99//92 112//105
f 493//462 491//460 111//104
f 493//462 111//104 110//103
f 492//461 489//458 101//94
f 492//461 101//94 100//93
f 490//459 487//456 91//84
f 490//459 91//84 90//83
f 494//463 495//464 121//114
f 494//463 121//114 120//113
f 496//465 497//466 131//124
f 496//465 131//124 130//123
f 498//467 496//465 129//122
f 498//467 129//122 142//135
f 497//466 494//463 119//112
f 497//466 119//112 132//125
f 499//468 500//469 139//132
f 499//468 139//132 152//145
f 501//470 502//471 149//142
f 501//470 149//142 162//155
f 503//472 501//470 161//154
f 503//472 161//154 160//153
f 502//471 499//468 151//144
f 502//471 151//144 150//143
f 500//469 498//467 141//134
f 500//469 141//134 140//133
f 495//464 493//462 109//102
f 495//464 109//102 122//115
f 485//454 70//63 69//62
f 486//455 82//75 81//74
f 490//459 90//83 89//82
f 487//456 92//85 91//84
f 488//457 80//73 79//72
f 489//458 102//95 101//94
f 492//461 100//93 99//92
f 491//460 112//105 111//104
f 493//462 110//103 109//102
f 494//463 120//113 119//112
f 498//467 142//135 141//134
f 496//465 130//123 129//122
f 497//466 132//125 131//124
f 500//469 140//133 139//132
f 499//468 152//145 151//144
f 503//472 160//153 159//152
f 501//470 162//155 161//154
f 502//471 150//143 149//142
f 495//464 122//115 121//114
f 172//165 503//472 159//152
f 504//473 505//474 171//164
f 504//473 171//164 170//163
f 506//475 507//476 181//174
f 506//475 181//174 180//173
f 507//476 504//473 169//162
f 507//476 169//162 182//175
f 508//477 509//478 191//184
f 508//477 191//184 190//183
f 510//479 511//480 198//191
f 510//479 198//191 211//204
f 512//481 510//479 211//204
f 512//481 211//204 209//202
f 511//480 508//477 189//182
f 511//480 189//182 199//192
f 509//478 506//475 179//172
f 509//478 179//172 192//185
f 513//482 514//483 206//199
f 513//482 206//199 220//213
f 515//484 516//485 217//210
f 515//484 217//210 230//223
f 516//485 513//482 219//212
f 516//485 219//212 218//211
f 517//486 518//487 227//220
f 517//486 227//220 240//233
f 519//488 520//489 237//230
f 519//488 237//230 250//243
f 521//490 519//488 249//242
f 521//490 249//242 248//241
f 520//489 517//486 239//232
f 520//489 239//232 238//231
f 518//487 515//484 229//222
f 518//487 229//222 228//221
f 514//483 512//481 208//201
f 514//483 208//201 207//200
f 522//491 523//492 259//252
f 522//491 259//252 258//251
f 524//493 525//494 269//262
f 524//493 269//262 268//261
f 525//494 522//491 257//250
f 525//494 257//250 270//263
f 526//495 527//496 279//272
f 526//495 279//272 278//271
f 528//497 529//498 289//282
f 528//497 289//282 288//281
f 530//499 528//497 287//280
f 530//499 287//280 300//293
f 529//498 526//495 277//270
f 529//498 277//270 290//283
f 527//496 524//493 267//260
f 527//496 267//260 280//273
f 531//500 532//501 297//290
f 531//500 297//290 310//303
f 533//502 534//503 307//300
f 533//502 307//300 320//313
f 535//504 533//502 319//312
f 535//504 319//312 318//311
f 534//503 531//500 309//302
f 534//503 309//302 308//301
f 536//505 537//506 329//322
f 536//505 329//322 328//321
f 538//507 539//508 339//332
f 538//507 339//332 338//331
f 540//509 538//507 337//330
f 540//509 337//330 350//343
f 539//508 536//505 327//320
f 539//508 327//320 340//333
f 537//506 535//504 317//310
f 537//506 317//310 330//323
f 532//501 530//499 299//292
f 532//501 299//292 298//291
f 523//492 521//490 247//240
f 523//492 247//240 260//253
f 170//163 169//162 504//473
f 192//185 191//184 509//478
f 180//173 179//172 506//475
f 182//175 181//174 507//476
f 190//183 189//182 508//477
f 199//192 198//191 511//480
f 211//204 198//191 196//189
f 211//204 196//189 195//188
f 207//200 206//199 514//483
f 209//202 208//201 512//481
f 220//213 219//212 513//482
f 218//211 217//210 516//485
f 541//510 542//511 347//340
f 541//510 347//340 357//350
f 480//449 541//510 356//349
f 480//449 356//349 355//348
f 229//222 515//484 230//223
f 228//221 227//220 518//487
f 240//233 239//232 517//486
f 542//511 540//509 349//342
f 542//511 349//342 348//341
f 250//243 249//242 519//488
f 238//231 237//230 520//489
f 248//241 247//240 521//490
f 172//165 171//164 505//474
f 172//165 505//474 503//472
f 9//2 420//412 421//354
f 13//6 423//413 419//353
f 419//353 420//412 13//6
f 366//359 365//358 424//414
f 366//359 424//414 428//417
f 16//9 425//415 422//356
f 15//8 424//414 425//415
f 422//356 423//413 16//9
f 14//7 427//416 428//417
f 17//10 430//418 426//361
f 426//361 427//416 17//10
f 26//19 432//419 429//363
f 28//21 434//420 431//365
f 27//20 433//367 434//420
f 431//365 432//419 28//21
f 429//363 430//418 26//19
f 428//417 424//414 15//8
f 428//417 15//8 14//7
f 381//374 380//373 439//423
f 381//374 439//423 443//426
f 396//389 395//388 454//432
f 396//389 454//432 458//435
f 523//492 260//253 259//252
f 30//23 435//369 436//421
f 31//24 437//371 438//422
f 31//24 440//424 437//371
f 438//422 435//369 30//23
f 443//426 439//423 29//22
f 443//426 29//22 32//25
f 33//26 441//376 442//425
f 33//26 445//427 441//376
f 442//425 443//426 32//25
f 439//423 440//424 29//22
f 436//421 433//367 27//20
f 13//6 16//9 423//413
f 16//9 15//8 425//415
f 444//378 39//32 447//428
f 447//428 38//31 446//380
f 26//19 430//418 17//10
f 26//19 28//21 432//419
f 427//416 14//7 17//10
f 9//2 13//6 420//412
f 28//21 27//20 434//420
f 30//23 31//24 438//422
f 27//20 30//23 436//421
f 33//26 39//32 445//427
f 445//427 39//32 444//378
f 32//25 33//26 442//425
f 31//24 29//22 440//424
f 39//32 38//31 447//428
f 40//33 448//382 449//429
f 37//30 450//384 451//430
f 451//430 448//382 40//33
f 36//29 452//386 453//431
f 34//27 454//432 455//433
f 458//435 454//432 34//27
f 458//435 34//27 35//28
f 455//433 452//386 36//29
f 453//431 450//384 37//30
f 40//33 37//30 451//430
f 36//29 34//27 455//433
f 37//30 36//29 453//431
f 25//18 456//391 457//434
f 460//436 456//391 25//18
f 35//28 25//18 457//434
f 24//17 460//436 25//18
f 457//434 458//435 35//28
f 38//31 40//33 449//429
f 38//31 449//429 446//380
f 522//491 258//251 257//250
f 525//494 270//263 269//262
f 524//493 268//261 267//260
f 527//496 280//273 279//272
f 529//498 290//283 289//282
f 532//501 298//291 297//290
f 530//499 300//293 299//292
f 528//497 288//281 287//280
f 526//495 278//271 277//270
f 531//500 310//303 309//302
f 534//503 308//301 307//300
f 533//502 320//313 319//312
f 535//504 318//311 317//310
f 539//508 340//333 339//332
f 536//505 328//321 327//320
f 538//507 338//331 337//330
f 540//509 350//343 349//342
f 537//506 330//323 329//322
f 24//17 462//437 459//393
f 23//16 464//438 461//395
f 461//395 462//437 23//16
f 411//404 410//403 469//441
f 411//404 469//441 473//444
f 20//13 466//439 463//397
f 21//14 465//399 466//439
f 463//397 464//438 20//13
f 464//438 23//16 20//13
f 24//17 23//16 462//437
f 20//13 21//14 466//439
f 465//399 21//14 468//440
f 19//12 468//440 21//14
f 19//12 470//442 467//401
f 469//441 470//442 18//11
f 19//12 18//11 470//442
f 19//12 467//401 468//440
f 18//11 22//15 473//444
f 18//11 473//444 469//441
f 22//15 472//443 473//444
f 12//5 475//445 471//406
f 471//406 472//443 12//5
f 480//449 355//348 51//44
f 541//510 357//350 356//349
f 11//4 477//446 474//408
f 12//5 11//4 475//445
f 475//445 11//4 474//408
f 12//5 472//443 22//15
f 10//3 477//446 11//4
f 10//3 478//447 476//410
f 421//354 478//447 9//2
f 10//3 9//2 478//447
f 10//3 476//410 477//446
f 459//393 460//436 24//17
f 542//511 348//341 347//340
f 543//512 544//513 545//514
f 543//512 545//514 546//515
f 547//516 548//517 544//513
f 547//516 544//513 543//512
f 549//518 550//519 548//517
f 549//518 548//517 547//516
f 551//520 552//521 550//519
f 551//520 550//519 549//518
f 553//522 554//523 552//521
f 553//522 552//521 551//520
f 555//524 556//525 554//523
f 555//524 554//523 553//522
f 557//526 558//527 556//525
f 557//526 556//525 555//524
f 559//528 560//529 558//527
f 559//528 558//527 557//526
f 561//530 562//531 560//529
f 561//530 560//529 559//528
f 563//532 564//533 562//531
f 563//532 562//531 561//530
f 565//534 566//535 564//533
f 565//534 564//533 563//532
f 567//536 568//537 566//535
f 567//536 566//535 565//534
f 569//538 570//539 568//537
f 569//538 568//537 567//536
f 571//540 572//541 570//539
f 571//540 570//539 569//538
f 573//542 574//543 572//541
f 573//542 572//541 571//540
f 575//544 576//545 574//543
f 575//544 574//543 573//542
f 577//546 578//547 576//545
f 577//546 576//545 575//544
f 579//548 580//549 578//547
f 579//548 578//547 577//546
f 581//550 582//551 580//549
f 581//550 580//549 579//548
f 583//552 584//553 582//551
f 583//552 582//551 581//550
f 585//554 586//555 584//553
f 585//554 584//553 583//552
f 587//556 588//557 586//555
f 587//556 586//555 585//554
f 589//558 590//559 588//557
f 589//558 588//557 587//556
f 591//560 592//561 590//559
f 591//560 590//559 589//558
f 593//562 594//563 592//561
f 593//562 592//561 591//560
f 595//564 596//565 594//563
f 595//564 594//563 593//562
f 597//566 598//567 596//565
f 597//566 596//565 595//564
f 599//568 600//569 598//567
f 599//568 598//567 597//566
f 601//570 602//571 600//569
f 601//570 600//569 599//568
f 603//572 604//573 602//571
f 603//572 602//571 601//570
f 605//574 606//575 604//573
f 605//574 604//573 603//572
f 546//515 545//514 606//575
f 546//515 606//575 605//574
f 607//576 543//512 546//515
f 607//576 546//515 608//577
f 609//578 547//516 543//512
f 609//578 543//512 607//576
f 610//579 549//518 547//516
f 610//579 547//516 609//578
f 611//580 551//520 549//518
f 611//580 549//518 610//579
f 612//581 553//522 551//520
f 612//581 551//520 611//580
f 613//582 555//524 553//522
f 613//582 553//522 612//581
f 614//583 557//526 555//524
f 614//583 555//524 613//582
f 615//584 559//528 557//526
f 615//584 557//526 614//583
f 616//585 561//530 559//528
f 616//585 559//528 615//584
f 617//586 563//532 561//530
f 617//586 561//530 616//585
f 618//587 565//534 563//532
f 618//587 563//532 617//586
f 619//588 567//536 565//534
f 619//588 565//534 618//587
f 620//589 569//538 567//536
f 620//589 567//536 619//588
f 621//590 571//540 569//538
f 621//590 569//538 620//589
f 622//591 573//542 571//540
f 622//591 571//540 621//590
f 623//592 575//544 573//542
f 623//592 573//542 622//591
f 624//593 577//546 575//544
f 624//593 575//544 623//592
f 625//594 579//548 577//546
f 625//594 577//546 624//593
f 626//595 581//550 579//548
f 626//595 579//548 625//594
f 627//596 583//552 581//550
f 627//596 581//550 626//595
f 628//597 585//554 583//552
f 628//597 583//552 627//596
f 629//598 587//556 585//554
f 629//598 585//554 628//597
f 630//599 589//558 587//556
f 630//599 587//556 629//598
f 631//600 591//560 589//558
f 631//600 589//558 630//599
f 632//601 593//562 591//560
f 632//601 591//560 631//600
f 633//602 595//564 593//562
f 633//602 593//562 632//601
f 634//603 597//566 595//564
f 634//603 595//564 633//602
f 635//604 599//568 597//566
f 635//604 597//566 634//603
f 636//605 601//570 599//568
f 636//605 599//568 635//604
f 637//606 603//572 601//570
f 637//606 601//570 636//605
f 638//607 605//574 603//572
f 638//607 603//572 637//606
f 608//577 546//515 605//574
f 608//577 605//574 638//607
f 639//608 607//576 608//577
f 639//608 608//577 640//609
f 641//610 609//578 607//576
f 641//610 607//576 639//608
f 642//611 610//579 609//578
f 642//611 609//578 641//610
f 643//612 611//580 610//579
f 643//612 610//579 642//611
f 644//613 612//581 611//580
f 644//613 611//580 643//612
f 645//614 613//582 612//581
f 645//614 612//581 644//613
f 646//615 614//583 613//582
f 646//615 613//582 645//614
f 647//616 615//584 614//583
f 647//616 614//583 646//615
f 648//617 616//585 615//584
f 648//617 615//584 647//616
f 649//618 617//586 616//585
f 649//618 616//585 648//617
f 650//619 618//587 617//586
f 650//619 617//586 649//618
f 651//620 619//588 618//587
f 651//620 618//587 650//619
f 652//621 620//589 619//588
f 652//621 619//588 651//620
f 653//622 621//590 620//589
f 653//622 620//589 652//621
f 654//623 622//591 621//590
f 654//623 621//590 653//622
f 655//624 623//592 622//591
f 655//624 622//591 654//623
f 656//625 624//593 623//592
f 656//625 623//592 655//624
f 657//626 625//594 624//593
f 657//626 624//593 656//625
f 658//627 626//595 625//594
f 658//627 625//594 657//626
f 659//628 627//596 626//595
f 659//628 626//595 658//627
f 660//629 628//597 627//596
f 660//629 627//596 659//628
f 661//630 629//598 628//597
f 661//630 628//597 660//629
f 662//631 630//599 629//598
f 662//631 629//598 661//630
f 663//632 631//600 630//599
f 663//632 630//599 662//631
f 664//633 632//601 631//600
f 664//633 631//600 663//632
f 665//634 633//602 632//601
f 665//634 632//601 664//633
f 666//635 634//603 633//602
f 666//635 633//602 665//634
f 667//636 635//604 634//603
f 667//636 634//603 666//635
f 668//637 636//605 635//604
f 668//637 635//604 667//636
f 669//638 637//606 636//605
f 669//638 636//605 668//637
f 670//639 638//607 637//606
f 670//639 637//606 669//638
f 640//609 608//577 638//607
f 640//609 638//607 670//639
f 671//640 639//608 640//609
f 671//640 640//609 672//641
f 673//642 641//610 639//608
f 673//642 639//608 671//640
f 674//643 642//611 641//610
f 674//643 641//610 673//642
f 675//644 643//612 642//611
f 675//644 642//611 674//643
f 676//645 644//613 643//612
f 676//645 643//612 675//644
f 677//646 645//614 644//613
f 677//646 644//613 676//645
f 678//647 646//615 645//614
f 678//647 645//614 677//646
f 679//648 647//616 646//615
f 679//648 646//615 678//647
f 680//649 648//617 647//616
f 680//649 647//616 679//648
f 681//650 649//618 648//617
f 681//650 648//617 680//649
f 682//651 650//619 649//618
f 682//651 649//618 681//650
f 683//652 651//620 650//619
f 683//652 650//619 682//651
f 684//653 652//621 651//620
f 684//653 651//620 683//652
f 685//654 653//622 652//621
f 685//654 652//621 684//653
f 686//655 654//623 653//622
f 686//655 653//622 685//654
f 687//656 655//624 654//623
f 687//656 654//623 686//655
f 688//657 656//625 655//624
f 688//657 655//624 687//656
f 689//658 657//626 656//625
f 689//658 656//625 688//657
f 690//659 658//627 657//626
f 690//659 657//626 689//658
f 691//660 659//628 658//627
f 691//660 658//627 690//659
f 692//661 660//629 659//628
f 692//661 659//628 691//660
f 693//662 661//630 660//629
f 693//662 660//629 692//661
f 694//663 662//631 661//630
f 694//663 661//630 693//662
f 695//664 663//632 662//631
f 695//664 662//631 694//663
f 696//665 664//633 663//632
f 696//665 663//632 695//664
f 697//666 665//634 664//633
f 697//666 664//633 696//665
f 698//667 666//635 665//634
f 698//667 665//634 697//666
f 699//668 667//636 666//635
f 699//668 666//635 698//667
f 700//669 668//637 667//636
f 700//669 667//636 699//668
f 701//670 669//638 668//637
f 701//670 668//637 700//669
f 702//671 670//639 669//638
f 702//671 669//638 701//670
f 672//641 640//609 670//639
f 672//641 670//639 702//671
f 703//672 671//640 672//641
f 703//672 672//641 704//673
f 705//674 673//642 671//640
f 705//674 671//640 703//672
f 706//675 674//643 673//642
f 706//675 673//642 705//674
f 707//676 675//644 674//643
f 707//676 674//643 706//675
f 708//677 676//645 675//644
f 708//677 675//644 707//676
f 709//678 677//646 676//645
f 709//678 676//645 708//677
f 710//679 678//647 677//646
f 710//679 677//646 709//678
f 711//680 679//648 678//647
f 711//680 678//647 710//679
f 712//681 680//649 679//648
f 712//681 679//648 711//680
f 713//682 681//650 680//649
f 713//682 680//649 712//681
f 714//683 682//651 681//650
f 714//683 681//650 713//682
f 715//684 683//652 682//651
f 715//684 682//651 714//683
f 716//685 684//653 683//652
f 716//685 683//652 715//684
f 717//686 685//654 684//653
f 717//686 684//653 716//685
f 718//687 686//655 685//654
f 718//687 685//654 717//686
f 719//688 687//656 686//655
f 719//688 686//655 718//687
f 720//689 688//657 687//656
f 720//689 687//656 719//688
f 721//690 689//658 688//657
f 721//690 688//657 720//689
f 722//691 690//659 689//658
f 722//691 689//658 721//690
f 723//692 691//660 690//659
f 723//692 690//659 722//691
f 724//693 692//661 691//660
f 724//693 691//660 723//692
f 725//694 693//662 692//661
f 725//694 692//661 724//693
f 726//695 694//663 693//662
f 726//695 693//662 725//694
f 727//696 695//664 694//663
f 727//696 694//663 726//695
f 728//697 696//665 695//664
f 728//697 695//664 727//696
f 729//698 697//666 696//665
f 729//698 696//665 728//697
f 730//699 698//667 697//666
f 730//699 697//666 729//698
f 731//700 699//668 698//667
f 731//700 698//667 730//699
f 732//701 700//669 699//668
f 732//701 699//668 731//700
f 733//702 701//670 700//669
f 733//702 700//669 732//701
f 734//703 702//671 701//670
f 734//703 701//670 733//702
f 704//673 672//641 702//671
f 704//673 702//671 734//703
f 735//704 703//672 704//673
f 735//704 705//674 703//672
f 735//704 706//675 705//674
f 735//704 707//676 706//675
f 735//704 708//677 707//676
f 735//704 709//678 708//677
f 735//704 710//679 709//678
f 735//704 711//680 710//679
f 735//704 712//681 711//680
f 735//704 713//682 712//681
f 735//704 714//683 713//682
f 735//704 715//684 714//683
f 735//704 716//685 715//684
f 735//704 717//686 716//685
f 735//704 718//687 717//686
f 735//704 719//688 718//687
f 735//704 720//689 719//688
f 735//704 721//690 720//689
f 735//704 722//691 721//690
f 735//704 723//692 722//691
f 735//704 724//693 723//692
f 735//704 725//694 724//693
f 735//704 726//695 725//694
f 735//704 727//696 726//695
f 735//704 728//697 727//696
f 735//704 729//698 728//697
f 735//704 730//699 729//698
f 735//704 731//700 730//699
f 735//704 732//701 731//700
f 735//704 733//702 732//701
f 735//704 734//703 733//702
f 735//704 704//673 734//703
f 736//705 541//510 480//449
f 736//705 542//511 541//510
f 737//706 538//507 540//509
f 738//707 536//505 539//508
f 539//508 538//507 737//706
f 540//509 542//511 736//705
f 739//708 535//504 537//506
f 740//709 534//503 533//502
f 533//502 535//504 739//708
f 741//710 532//501 531//500
f 742//711 528//497 530//499
f 530//499 532//501 741//710
f 531//500 534//503 740//709
f 537//506 536//505 738//707
f 742//711 526//495 529//498
f 743//712 524//493 527//496
f 527//496 526//495 743//712
f 744//713 522//491 525//494
f 745//714 521//490 523//492
f 523//492 522//491 744//713
f 525//494 524//493 743//712
f 746//715 520//489 519//488
f 747//716 518//487 517//486
f 517//486 520//489 746//715
f 748//717 516//485 515//484
f 749//718 514//483 513//482
f 513//482 516//485 748//717
f 515//484 518//487 747//716
f 519//488 521//490 745//714
f 529//498 528//497 742//711
f 749//718 510//479 512//481
f 750//719 508//477 511//480
f 511//480 510//479 750//719
f 751//720 506//475 509//478
f 752//721 504//473 507//476
f 507//476 506//475 751//720
f 509//478 508//477 750//719
f 753//722 503//472 505//474
f 754//723 502//471 501//470
f 501//470 503//472 753//722
f 755//724 500//469 499//468
f 756//725 496//465 498//467
f 498//467 500//469 755//724
f 499//468 502//471 754//723
f 505//474 504//473 752//721
f 756//725 494//463 497//466
f 757//726 493//462 495//464
f 495//464 494//463 757//726
f 758//727 492//461 491//460
f 759//728 490//459 489//458
f 489//458 492//461 758//727
f 491//460 493//462 757//726
f 760//729 488//457 487//456
f 761//730 485//454 486//455
f 486//455 488//457 760//729
f 762//731 484//453 483//452
f 763//732 482//451 481//450
f 481//450 484//453 762//731
f 483//452 485//454 761//730
f 487//456 490//459 759//728
f 497//466 496//465 756//725
f 512//481 514//483 749//718
f 533//502 739//708 740//709
f 739//708 738//707 550//519
f 739//708 550//519 552//521
f 740//709 739//708 552//521
f 740//709 552//521 554//523
f 531//500 740//709 741//710
f 548//517 737//706 736//705
f 548//517 736//705 544//513
f 480//449 545//514 544//513
f 480//449 544//513 736//705
f 741//710 740//709 554//523
f 741//710 554//523 556//525
f 550//519 738//707 737//706
f 550//519 737//706 548//517
f 741//710 556//525 558//527
f 741//710 558//527 742//711
f 737//706 738//707 539//508
f 739//708 537//506 738//707
f 530//499 741//710 742//711
f 515//484 747//716 748//717
f 568//537 746//715 745//714
f 568//537 745//714 566//535
f 750//719 510//479 749//718
f 572//541 748//717 747//716
f 572//541 747//716 570//539
f 747//716 746//715 568//537
f 747//716 568//537 570//539
f 517//486 746//715 747//716
f 525//494 743//712 744//713
f 742//711 560//529 743//712
f 564//533 744//713 743//712
f 564//533 743//712 562//531
f 744//713 745//714 523//492
f 566//535 745//714 744//713
f 566//535 744//713 564//533
f 519//488 745//714 746//715
f 743//712 526//495 742//711
f 749//718 748//717 572//541
f 749//718 572//541 574//543
f 749//718 513//482 748//717
f 742//711 558//527 560//529
f 749//718 574//543 576//545
f 743//712 560//529 562//531
f 750//719 749//718 576//545
f 753//722 754//723 501//470
f 753//722 584//553 586//555
f 753//722 586//555 754//723
f 754//723 755//724 499//468
f 755//724 588//557 590//559
f 755//724 590//559 756//725
f 753//722 752//721 582//551
f 753//722 582//551 584//553
f 498//467 755//724 756//725
f 755//724 754//723 586//555
f 755//724 586//555 588//557
f 752//721 507//476 751//720
f 757//726 758//727 491//460
f 592//561 757//726 756//725
f 580//549 751//720 750//719
f 580//549 750//719 578//547
f 582//551 752//721 751//720
f 582//551 751//720 580//549
f 753//722 505//474 752//721
f 756//725 757//726 494//463
f 482//451 763//732 479//448
f 604//573 762//731 761//730
f 604//573 761//730 602//571
f 763//732 480//449 479//448
f 545//514 480//449 763//732
f 545//514 763//732 606//575
f 763//732 481//450 762//731
f 600//569 760//729 759//728
f 600//569 759//728 598//567
f 759//728 760//729 487//456
f 761//730 762//731 483//452
f 598//567 759//728 758//727
f 598//567 758//727 596//565
f 761//730 760//729 600//569
f 761//730 600//569 602//571
f 760//729 761//730 486//455
f 489//458 758//727 759//728
f 763//732 762//731 604//573
f 763//732 604//573 606//575
f 596//565 758//727 757//726
f 596//565 757//726 594//563
f 751//720 509//478 750//719
f 756//725 590//559 592//561
f 757//726 592//561 594//563
f 578//547 750//719 576//545
f 736//705 737//706 540//509
