# Blender 4.2.0
# www.blender.org
o RoundGem1
v 0.353600 -0.353600 0.453600
v 0.344000 -0.142500 0.559800
v 0.201500 -0.201500 0.600000
v 0.142500 -0.344000 0.559800
v 0.000000 -0.500000 0.453600
v 0.000000 -0.285000 0.600000
v -0.142500 -0.344000 0.559800
v 0.000000 0.000000 0.000000
v -0.090000 0.037300 0.076800
v -0.353600 0.353600 0.426800
v -0.037300 0.090000 0.076800
v 0.000000 0.500000 0.426800
v 0.037300 0.090000 0.076800
v 0.353600 0.353600 0.426800
v 0.090000 0.037300 0.076800
v 0.500000 0.000000 0.426800
v 0.090000 -0.037300 0.076800
v 0.353600 -0.353600 0.426800
v 0.037300 -0.090000 0.076800
v 0.000000 -0.500000 0.426800
v -0.037300 -0.090000 0.076800
v -0.353600 -0.353600 0.426800
v -0.090000 -0.037300 0.076800
v -0.500000 0.000000 0.426800
v 0.000000 0.285000 0.600000
v -0.201500 0.201500 0.600000
v -0.285000 0.000000 0.600000
v 0.000000 0.000000 0.600000
v 0.285000 0.000000 0.600000
v 0.201500 0.201500 0.600000
v -0.201500 -0.201500 0.600000
v 0.500000 0.000000 0.453600
v 0.344000 0.142500 0.559800
v 0.353600 0.353600 0.453600
v 0.142500 0.344000 0.559800
v 0.000000 0.500000 0.453600
v -0.142500 0.344000 0.559800
v -0.353600 0.353600 0.453600
v -0.344000 0.142500 0.559800
v -0.500000 0.000000 0.453600
v -0.344000 -0.142500 0.559800
v -0.353600 -0.353600 0.453600
v 0.497600 -0.049000 0.433200
v 0.500000 0.000000 0.440200
v 0.497600 -0.049000 0.440300
v 0.490400 -0.097500 0.435300
v 0.490400 -0.097500 0.440400
v 0.478500 -0.145100 0.433200
v 0.478500 -0.145100 0.440300
v 0.461900 -0.191300 0.426800
v 0.461900 -0.191300 0.440200
v 0.441000 -0.235700 0.433200
v 0.441000 -0.235700 0.440300
v 0.415700 -0.277800 0.435300
v 0.415700 -0.277800 0.440400
v 0.386500 -0.317200 0.433200
v 0.386500 -0.317200 0.440300
v 0.353600 -0.353600 0.440200
v 0.317200 -0.386500 0.433200
v 0.317200 -0.386500 0.440300
v 0.277800 -0.415700 0.435300
v 0.277800 -0.415700 0.440400
v 0.235700 -0.441000 0.433200
v 0.235700 -0.441000 0.440300
v 0.191300 -0.461900 0.426800
v 0.191300 -0.461900 0.440200
v 0.145100 -0.478500 0.433200
v 0.145100 -0.478500 0.440300
v 0.097500 -0.490400 0.435300
v 0.097500 -0.490400 0.440400
v 0.049000 -0.497600 0.433200
v 0.049000 -0.497600 0.440300
v 0.000000 -0.500000 0.440200
v -0.049000 -0.497600 0.433200
v -0.049000 -0.497600 0.440300
v -0.097500 -0.490400 0.435300
v -0.097500 -0.490400 0.440400
v -0.145100 -0.478500 0.433200
v -0.145100 -0.478500 0.440300
v -0.191300 -0.461900 0.426800
v -0.191300 -0.461900 0.440200
v -0.235700 -0.441000 0.433200
v -0.235700 -0.441000 0.440300
v -0.277800 -0.415700 0.435300
v -0.277800 -0.415700 0.440400
v -0.317200 -0.386500 0.433200
v -0.317200 -0.386500 0.440300
v -0.353600 -0.353600 0.440200
v -0.386500 -0.317200 0.433200
v -0.386500 -0.317200 0.440300
v -0.415700 -0.277800 0.435300
v -0.415700 -0.277800 0.440400
v -0.441000 -0.235700 0.433200
v -0.441000 -0.235700 0.440300
v -0.461900 -0.191300 0.426800
v -0.461900 -0.191300 0.440200
v -0.478500 -0.145100 0.433200
v -0.478500 -0.145100 0.440300
v -0.490400 -0.097500 0.435300
v -0.490400 -0.097500 0.440400
v -0.497600 -0.049000 0.433200
v -0.497600 -0.049000 0.440300
v -0.500000 0.000000 0.440200
v -0.497600 0.049000 0.433200
v -0.497600 0.049000 0.440300
v -0.490400 0.097500 0.435300
v -0.490400 0.097500 0.440400
v -0.478500 0.145100 0.433200
v -0.478500 0.145100 0.440300
v -0.461900 0.191300 0.426800
v -0.461900 0.191300 0.440200
v -0.441000 0.235700 0.433200
v -0.441000 0.235700 0.440300
v -0.415700 0.277800 0.435300
v -0.415700 0.277800 0.440400
v -0.386500 0.317200 0.433200
v -0.386500 0.317200 0.440300
v -0.353600 0.353600 0.440200
v -0.317200 0.386500 0.433200
v -0.317200 0.386500 0.440300
v -0.277800 0.415700 0.435300
v -0.277800 0.415700 0.440400
v -0.235700 0.441000 0.433200
v -0.235700 0.441000 0.440300
v -0.191300 0.461900 0.426800
v -0.191300 0.461900 0.440200
v -0.145100 0.478500 0.433200
v -0.145100 0.478500 0.440300
v -0.097500 0.490400 0.435300
v -0.097500 0.490400 0.440400
v -0.049000 0.497600 0.433200
v -0.049000 0.497600 0.440300
v 0.000000 0.500000 0.440200
v 0.049000 0.497600 0.433200
v 0.049000 0.497600 0.440300
v 0.097500 0.490400 0.435300
v 0.097500 0.490400 0.440400
v 0.145100 0.478500 0.433200
v 0.145100 0.478500 0.440300
v 0.191300 0.461900 0.426800
v 0.191300 0.461900 0.440200
v 0.235700 0.441000 0.433200
v 0.235700 0.441000 0.440300
v 0.277800 0.415700 0.435300
v 0.277800 0.415700 0.440400
v 0.317200 0.386500 0.433200
v 0.317200 0.386500 0.440300
v 0.353600 0.353600 0.440200
v 0.386500 0.317200 0.433200
v 0.386500 0.317200 0.440300
v 0.415700 0.277800 0.435300
v 0.415700 0.277800 0.440400
v 0.441000 0.235700 0.433200
v 0.441000 0.235700 0.440300
v 0.461900 0.191300 0.426800
v 0.461900 0.191300 0.440200
v 0.478500 0.145100 0.433200
v 0.478500 0.145100 0.440300
v 0.490400 0.097500 0.435300
v 0.490400 0.097500 0.440400
v 0.497600 0.049000 0.433200
v 0.497600 0.049000 0.440300
v 0.497600 -0.049000 0.447500
v 0.490400 -0.097500 0.445400
v 0.478500 -0.145100 0.447500
v 0.461900 -0.191300 0.453600
v 0.441000 -0.235700 0.447500
v 0.415700 -0.277800 0.445400
v 0.386500 -0.317200 0.447500
v 0.317200 -0.386500 0.447500
v 0.277800 -0.415700 0.445400
v 0.235700 -0.441000 0.447500
v 0.191300 -0.461900 0.453600
v 0.145100 -0.478500 0.447500
v 0.097500 -0.490400 0.445400
v 0.049000 -0.497600 0.447500
v -0.049000 -0.497600 0.447500
v -0.097500 -0.490400 0.445400
v -0.145100 -0.478500 0.447500
v -0.191300 -0.461900 0.453600
v -0.235700 -0.441000 0.447500
v -0.277800 -0.415700 0.445400
v -0.317200 -0.386500 0.447500
v -0.386500 -0.317200 0.447500
v -0.415700 -0.277800 0.445400
v -0.441000 -0.235700 0.447500
v -0.461900 -0.191300 0.453600
v -0.478500 -0.145100 0.447500
v -0.490400 -0.097500 0.445400
v -0.497600 -0.049000 0.447500
v 0.461900 0.191300 0.453600
v 0.478500 0.145100 0.447500
v 0.490400 0.097500 0.445400
v 0.497600 0.049000 0.447500
v 0.415700 0.277800 0.445400
v 0.386500 0.317200 0.447500
v 0.441000 0.235700 0.447500
v 0.191300 0.461900 0.453600
v 0.235700 0.441000 0.447500
v 0.277800 0.415700 0.445400
v 0.317200 0.386500 0.447500
v 0.097500 0.490400 0.445400
v 0.049000 0.497600 0.447500
v 0.145100 0.478500 0.447500
v -0.191300 0.461900 0.453600
v -0.145100 0.478500 0.447500
v -0.097500 0.490400 0.445400
v -0.049000 0.497600 0.447500
v -0.277800 0.415700 0.445400
v -0.317200 0.386500 0.447500
v -0.235700 0.441000 0.447500
v -0.461900 0.191300 0.453600
v -0.441000 0.235700 0.447500
v -0.415700 0.277800 0.445400
v -0.386500 0.317200 0.447500
v -0.490400 0.097500 0.445400
v -0.497600 0.049000 0.447500
v -0.478500 0.145100 0.447500
vn 0.6265 -0.6265 0.4637
vn 0.4839 -0.2005 0.8518
vn 0.2087 -0.2087 0.9554
vn 0.2005 -0.4839 0.8518
vn -0.0000 -0.8859 0.4640
vn -0.0000 -0.2953 0.9554
vn -0.2005 -0.4839 0.8518
vn -0.0000 -0.0000 -1.0000
vn -0.5761 0.2386 -0.7818
vn -0.6360 0.6360 -0.4372
vn -0.2386 0.5761 -0.7818
vn -0.0000 0.8993 -0.4373
vn 0.2386 0.5761 -0.7818
vn 0.6360 0.6360 -0.4372
vn 0.5761 0.2386 -0.7818
vn 0.8993 -0.0000 -0.4373
vn 0.5761 -0.2386 -0.7818
vn 0.6360 -0.6360 -0.4372
vn 0.2386 -0.5761 -0.7818
vn -0.0000 -0.8993 -0.4373
vn -0.2386 -0.5761 -0.7818
vn -0.6360 -0.6360 -0.4372
vn -0.5761 -0.2386 -0.7818
vn -0.8993 -0.0000 -0.4373
vn -0.0000 0.2953 0.9554
vn -0.2087 0.2087 0.9554
vn -0.2953 -0.0000 0.9554
vn -0.0000 -0.0000 1.0000
vn 0.2953 -0.0000 0.9554
vn 0.2087 0.2087 0.9554
vn -0.2088 -0.2088 0.9554
vn 0.8859 -0.0000 0.4640
vn 0.4839 0.2005 0.8518
vn 0.6265 0.6265 0.4637
vn 0.2005 0.4839 0.8518
vn -0.0000 0.8859 0.4640
vn -0.2005 0.4839 0.8518
vn -0.6265 0.6265 0.4637
vn -0.4839 0.2005 0.8518
vn -0.8859 -0.0000 0.4640
vn -0.4839 -0.2005 0.8518
vn -0.6265 -0.6265 0.4637
vn 0.9098 -0.1227 -0.3966
vn 1.0000 -0.0000 -0.0000
vn 0.9952 -0.0980 -0.0000
vn 0.9005 -0.1790 -0.3963
vn 0.9808 -0.1949 -0.0000
vn 0.8874 -0.2353 -0.3965
vn 0.9568 -0.2907 -0.0000
vn 0.8310 -0.3440 -0.4372
vn 0.9240 -0.3825 -0.0000
vn 0.7938 -0.4612 -0.3964
vn 0.8821 -0.4711 -0.0000
vn 0.7632 -0.5104 -0.3964
vn 0.8312 -0.5559 -0.0000
vn 0.7305 -0.5559 -0.3966
vn 0.7736 -0.6337 -0.0000
vn 0.7071 -0.7071 -0.0000
vn 0.5559 -0.7305 -0.3966
vn 0.6337 -0.7736 -0.0000
vn 0.5104 -0.7632 -0.3964
vn 0.5559 -0.8312 -0.0000
vn 0.4612 -0.7938 -0.3964
vn 0.4711 -0.8821 -0.0000
vn 0.3440 -0.8310 -0.4372
vn 0.3825 -0.9240 -0.0000
vn 0.2353 -0.8874 -0.3965
vn 0.2907 -0.9568 -0.0000
vn 0.1790 -0.9005 -0.3963
vn 0.1949 -0.9808 -0.0000
vn 0.1227 -0.9098 -0.3966
vn 0.0980 -0.9952 -0.0000
vn -0.0000 -1.0000 -0.0000
vn -0.1227 -0.9098 -0.3966
vn -0.0980 -0.9952 -0.0000
vn -0.1790 -0.9005 -0.3963
vn -0.1949 -0.9808 -0.0000
vn -0.2353 -0.8874 -0.3965
vn -0.2907 -0.9568 -0.0000
vn -0.3440 -0.8310 -0.4372
vn -0.3825 -0.9240 -0.0000
vn -0.4612 -0.7938 -0.3964
vn -0.4711 -0.8821 -0.0000
vn -0.5104 -0.7632 -0.3964
vn -0.5559 -0.8312 -0.0000
vn -0.5559 -0.7305 -0.3966
vn -0.6337 -0.7736 -0.0000
vn -0.7071 -0.7071 -0.0000
vn -0.7305 -0.5559 -0.3966
vn -0.7736 -0.6337 -0.0000
vn -0.7632 -0.5104 -0.3964
vn -0.8312 -0.5559 -0.0000
vn -0.7938 -0.4612 -0.3964
vn -0.8821 -0.4711 -0.0000
vn -0.8310 -0.3440 -0.4372
vn -0.9240 -0.3825 -0.0000
vn -0.8874 -0.2353 -0.3965
vn -0.9568 -0.2907 -0.0000
vn -0.9005 -0.1790 -0.3963
vn -0.9808 -0.1949 -0.0000
vn -0.9098 -0.1227 -0.3966
vn -0.9952 -0.0980 -0.0000
vn -1.0000 -0.0000 -0.0000
vn -0.9098 0.1227 -0.3966
vn -0.9952 0.0980 -0.0000
vn -0.9005 0.1790 -0.3963
vn -0.9808 0.1949 -0.0000
vn -0.8874 0.2353 -0.3965
vn -0.9568 0.2907 -0.0000
vn -0.8310 0.3440 -0.4372
vn -0.9240 0.3825 -0.0000
vn -0.7938 0.4612 -0.3964
vn -0.8821 0.4711 -0.0000
vn -0.7632 0.5104 -0.3964
vn -0.8312 0.5559 -0.0000
vn -0.7305 0.5559 -0.3966
vn -0.7736 0.6337 -0.0000
vn -0.7071 0.7071 -0.0000
vn -0.5559 0.7305 -0.3966
vn -0.6337 0.7736 -0.0000
vn -0.5104 0.7632 -0.3964
vn -0.5559 0.8312 -0.0000
vn -0.4612 0.7938 -0.3964
vn -0.4711 0.8821 -0.0000
vn -0.3440 0.8310 -0.4372
vn -0.3825 0.9240 -0.0000
vn -0.2353 0.8874 -0.3965
vn -0.2907 0.9568 -0.0000
vn -0.1790 0.9005 -0.3963
vn -0.1949 0.9808 -0.0000
vn -0.1227 0.9098 -0.3966
vn -0.0980 0.9952 -0.0000
vn -0.0000 1.0000 -0.0000
vn 0.1227 0.9098 -0.3966
vn 0.0980 0.9952 -0.0000
vn 0.1790 0.9005 -0.3963
vn 0.1949 0.9808 -0.0000
vn 0.2353 0.8874 -0.3965
vn 0.2907 0.9568 -0.0000
vn 0.3440 0.8310 -0.4372
vn 0.3825 0.9240 -0.0000
vn 0.4612 0.7938 -0.3964
vn 0.4711 0.8821 -0.0000
vn 0.5104 0.7632 -0.3964
vn 0.5559 0.8312 -0.0000
vn 0.5559 0.7305 -0.3966
vn 0.6337 0.7736 -0.0000
vn 0.7071 0.7071 -0.0000
vn 0.7305 0.5559 -0.3966
vn 0.7736 0.6337 -0.0000
vn 0.7632 0.5104 -0.3964
vn 0.8312 0.5559 -0.0000
vn 0.7938 0.4612 -0.3964
vn 0.8821 0.4711 -0.0000
vn 0.8310 0.3440 -0.4372
vn 0.9240 0.3825 -0.0000
vn 0.8874 0.2353 -0.3965
vn 0.9568 0.2907 -0.0000
vn 0.9005 0.1790 -0.3963
vn 0.9808 0.1949 -0.0000
vn 0.9098 0.1227 -0.3966
vn 0.9952 0.0980 -0.0000
vn 0.9054 -0.1218 0.4068
vn 0.8964 -0.1783 0.4058
vn 0.8830 -0.2342 0.4068
vn 0.8270 -0.3423 0.4459
vn 0.7899 -0.4589 0.4068
vn 0.7598 -0.5079 0.4058
vn 0.7269 -0.5534 0.4066
vn 0.5534 -0.7269 0.4066
vn 0.5079 -0.7598 0.4058
vn 0.4589 -0.7899 0.4068
vn 0.3423 -0.8270 0.4459
vn 0.2342 -0.8830 0.4068
vn 0.1783 -0.8964 0.4058
vn 0.1218 -0.9054 0.4068
vn -0.1218 -0.9054 0.4068
vn -0.1783 -0.8964 0.4058
vn -0.2342 -0.8830 0.4068
vn -0.3423 -0.8270 0.4459
vn -0.4589 -0.7899 0.4068
vn -0.5079 -0.7598 0.4058
vn -0.5534 -0.7269 0.4066
vn -0.7269 -0.5534 0.4066
vn -0.7598 -0.5079 0.4058
vn -0.7899 -0.4589 0.4068
vn -0.8270 -0.3423 0.4459
vn -0.8830 -0.2342 0.4068
vn -0.8964 -0.1783 0.4058
vn -0.9054 -0.1218 0.4068
vn 0.8270 0.3423 0.4459
vn 0.8830 0.2342 0.4068
vn 0.8964 0.1783 0.4058
vn 0.9054 0.1218 0.4068
vn 0.7598 0.5079 0.4058
vn 0.7269 0.5534 0.4066
vn 0.7899 0.4589 0.4068
vn 0.3423 0.8270 0.4459
vn 0.4589 0.7899 0.4068
vn 0.5079 0.7598 0.4058
vn 0.5534 0.7269 0.4066
vn 0.1783 0.8964 0.4058
vn 0.1218 0.9054 0.4068
vn 0.2342 0.8830 0.4068
vn -0.3423 0.8270 0.4459
vn -0.2342 0.8830 0.4068
vn -0.1783 0.8964 0.4058
vn -0.1218 0.9054 0.4068
vn -0.5079 0.7598 0.4058
vn -0.5534 0.7269 0.4066
vn -0.4589 0.7899 0.4068
vn -0.8270 0.3423 0.4459
vn -0.7899 0.4589 0.4068
vn -0.7598 0.5079 0.4058
vn -0.7269 0.5534 0.4066
vn -0.8964 0.1783 0.4058
vn -0.9054 0.1218 0.4068
vn -0.8830 0.2342 0.4068
s 1
f 1//1 2//2 3//3
f 1//1 3//3 4//4
f 5//5 4//4 6//6
f 5//5 6//6 7//7
f 8//8 9//9 10//10
f 8//8 10//10 11//11
f 8//8 11//11 12//12
f 8//8 12//12 13//13
f 8//8 13//13 14//14
f 8//8 14//14 15//15
f 8//8 15//15 16//16
f 8//8 16//16 17//17
f 8//8 17//17 18//18
f 8//8 18//18 19//19
f 8//8 19//19 20//20
f 8//8 20//20 21//21
f 8//8 21//21 22//22
f 8//8 22//22 23//23
f 8//8 23//23 24//24
f 8//8 24//24 9//9
f 25//25 26//26 27//27
f 25//25 27//27 28//28
f 29//29 30//30 25//25
f 29//29 25//25 28//28
f 6//6 3//3 29//29
f 6//6 29//29 28//28
f 6//6 28//28 27//27
f 6//6 27//27 31//31
f 32//32 33//33 29//29
f 32//32 29//29 2//2
f 34//34 35//35 30//30
f 34//34 30//30 33//33
f 36//36 37//37 25//25
f 36//36 25//25 35//35
f 38//38 39//39 26//26
f 38//38 26//26 37//37
f 40//40 41//41 27//27
f 40//40 27//27 39//39
f 41//41 42//42 7//7
f 41//41 7//7 31//31
f 43//43 16//16 44//44
f 43//43 44//44 45//45
f 46//46 43//43 45//45
f 46//46 45//45 47//47
f 48//48 46//46 47//47
f 48//48 47//47 49//49
f 50//50 48//48 49//49
f 50//50 49//49 51//51
f 52//52 50//50 51//51
f 52//52 51//51 53//53
f 54//54 52//52 53//53
f 54//54 53//53 55//55
f 56//56 54//54 55//55
f 56//56 55//55 57//57
f 18//18 56//56 57//57
f 18//18 57//57 58//58
f 59//59 18//18 58//58
f 59//59 58//58 60//60
f 61//61 59//59 60//60
f 61//61 60//60 62//62
f 63//63 61//61 62//62
f 63//63 62//62 64//64
f 65//65 63//63 64//64
f 65//65 64//64 66//66
f 67//67 65//65 66//66
f 67//67 66//66 68//68
f 69//69 67//67 68//68
f 69//69 68//68 70//70
f 71//71 69//69 70//70
f 71//71 70//70 72//72
f 20//20 71//71 72//72
f 20//20 72//72 73//73
f 74//74 20//20 73//73
f 74//74 73//73 75//75
f 76//76 74//74 75//75
f 76//76 75//75 77//77
f 78//78 76//76 77//77
f 78//78 77//77 79//79
f 80//80 78//78 79//79
f 80//80 79//79 81//81
f 82//82 80//80 81//81
f 82//82 81//81 83//83
f 84//84 82//82 83//83
f 84//84 83//83 85//85
f 86//86 84//84 85//85
f 86//86 85//85 87//87
f 22//22 86//86 87//87
f 22//22 87//87 88//88
f 89//89 22//22 88//88
f 89//89 88//88 90//90
f 91//91 89//89 90//90
f 91//91 90//90 92//92
f 93//93 91//91 92//92
f 93//93 92//92 94//94
f 95//95 93//93 94//94
f 95//95 94//94 96//96
f 97//97 95//95 96//96
f 97//97 96//96 98//98
f 99//99 97//97 98//98
f 99//99 98//98 100//100
f 101//101 99//99 100//100
f 101//101 100//100 102//102
f 24//24 101//101 102//102
f 24//24 102//102 103//103
f 104//104 24//24 103//103
f 104//104 103//103 105//105
f 106//106 104//104 105//105
f 106//106 105//105 107//107
f 108//108 106//106 107//107
f 108//108 107//107 109//109
f 110//110 108//108 109//109
f 110//110 109//109 111//111
f 112//112 110//110 111//111
f 112//112 111//111 113//113
f 114//114 112//112 113//113
f 114//114 113//113 115//115
f 116//116 114//114 115//115
f 116//116 115//115 117//117
f 10//10 116//116 117//117
f 10//10 117//117 118//118
f 119//119 10//10 118//118
f 119//119 118//118 120//120
f 121//121 119//119 120//120
f 121//121 120//120 122//122
f 123//123 121//121 122//122
f 123//123 122//122 124//124
f 125//125 123//123 124//124
f 125//125 124//124 126//126
f 127//127 125//125 126//126
f 127//127 126//126 128//128
f 129//129 127//127 128//128
f 129//129 128//128 130//130
f 131//131 129//129 130//130
f 131//131 130//130 132//132
f 12//12 131//131 132//132
f 12//12 132//132 133//133
f 134//134 12//12 133//133
f 134//134 133//133 135//135
f 136//136 134//134 135//135
f 136//136 135//135 137//137
f 138//138 136//136 137//137
f 138//138 137//137 139//139
f 140//140 138//138 139//139
f 140//140 139//139 141//141
f 142//142 140//140 141//141
f 142//142 141//141 143//143
f 144//144 142//142 143//143
f 144//144 143//143 145//145
f 146//146 144//144 145//145
f 146//146 145//145 147//147
f 14//14 146//146 147//147
f 14//14 147//147 148//148
f 149//149 14//14 148//148
f 149//149 148//148 150//150
f 151//151 149//149 150//150
f 151//151 150//150 152//152
f 153//153 151//151 152//152
f 153//153 152//152 154//154
f 155//155 153//153 154//154
f 155//155 154//154 156//156
f 157//157 155//155 156//156
f 157//157 156//156 158//158
f 159//159 157//157 158//158
f 159//159 158//158 160//160
f 161//161 159//159 160//160
f 161//161 160//160 162//162
f 16//16 161//161 162//162
f 16//16 162//162 44//44
f 45//45 44//44 32//32
f 45//45 32//32 163//163
f 47//47 45//45 163//163
f 47//47 163//163 164//164
f 49//49 47//47 164//164
f 49//49 164//164 165//165
f 51//51 49//49 165//165
f 51//51 165//165 166//166
f 53//53 51//51 166//166
f 53//53 166//166 167//167
f 55//55 53//53 167//167
f 55//55 167//167 168//168
f 57//57 55//55 168//168
f 57//57 168//168 169//169
f 58//58 57//57 169//169
f 58//58 169//169 1//1
f 60//60 58//58 1//1
f 60//60 1//1 170//170
f 62//62 60//60 170//170
f 62//62 170//170 171//171
f 64//64 62//62 171//171
f 64//64 171//171 172//172
f 66//66 64//64 172//172
f 66//66 172//172 173//173
f 68//68 66//66 173//173
f 68//68 173//173 174//174
f 70//70 68//68 174//174
f 70//70 174//174 175//175
f 72//72 70//70 175//175
f 72//72 175//175 176//176
f 73//73 72//72 176//176
f 73//73 176//176 5//5
f 75//75 73//73 5//5
f 75//75 5//5 177//177
f 77//77 75//75 177//177
f 77//77 177//177 178//178
f 79//79 77//77 178//178
f 79//79 178//178 179//179
f 81//81 79//79 179//179
f 81//81 179//179 180//180
f 83//83 81//81 180//180
f 83//83 180//180 181//181
f 85//85 83//83 181//181
f 85//85 181//181 182//182
f 87//87 85//85 182//182
f 87//87 182//182 183//183
f 88//88 87//87 183//183
f 88//88 183//183 42//42
f 90//90 88//88 42//42
f 90//90 42//42 184//184
f 92//92 90//90 184//184
f 92//92 184//184 185//185
f 94//94 92//92 185//185
f 94//94 185//185 186//186
f 96//96 94//94 186//186
f 96//96 186//186 187//187
f 98//98 96//96 187//187
f 98//98 187//187 188//188
f 100//100 98//98 188//188
f 100//100 188//188 189//189
f 102//102 100//100 189//189
f 102//102 189//189 190//190
f 103//103 102//102 190//190
f 103//103 190//190 40//40
f 187//187 41//41 188//188
f 33//33 30//30 29//29
f 35//35 25//25 30//30
f 37//37 26//26 25//25
f 39//39 27//27 26//26
f 41//41 31//31 27//27
f 7//7 6//6 31//31
f 4//4 3//3 6//6
f 2//2 29//29 3//3
f 191//191 33//33 192//192
f 193//193 192//192 33//33
f 193//193 33//33 194//194
f 32//32 194//194 33//33
f 195//195 196//196 33//33
f 34//34 33//33 196//196
f 191//191 197//197 33//33
f 195//195 33//33 197//197
f 198//198 35//35 199//199
f 200//200 199//199 35//35
f 200//200 35//35 201//201
f 34//34 201//201 35//35
f 202//202 203//203 35//35
f 36//36 35//35 203//203
f 198//198 204//204 35//35
f 202//202 35//35 204//204
f 205//205 37//37 206//206
f 207//207 206//206 37//37
f 207//207 37//37 208//208
f 36//36 208//208 37//37
f 209//209 210//210 37//37
f 38//38 37//37 210//210
f 205//205 211//211 37//37
f 209//209 37//37 211//211
f 212//212 39//39 213//213
f 214//214 213//213 39//39
f 214//214 39//39 215//215
f 38//38 215//215 39//39
f 216//216 217//217 39//39
f 40//40 39//39 217//217
f 212//212 218//218 39//39
f 216//216 39//39 218//218
f 189//189 188//188 41//41
f 189//189 41//41 190//190
f 40//40 190//190 41//41
f 185//185 184//184 41//41
f 42//42 41//41 184//184
f 187//187 186//186 41//41
f 185//185 41//41 186//186
f 180//180 7//7 181//181
f 182//182 181//181 7//7
f 182//182 7//7 183//183
f 42//42 183//183 7//7
f 178//178 177//177 7//7
f 5//5 7//7 177//177
f 180//180 179//179 7//7
f 178//178 7//7 179//179
f 173//173 4//4 174//174
f 175//175 174//174 4//4
f 175//175 4//4 176//176
f 5//5 176//176 4//4
f 171//171 170//170 4//4
f 1//1 4//4 170//170
f 173//173 172//172 4//4
f 171//171 4//4 172//172
f 166//166 2//2 167//167
f 168//168 167//167 2//2
f 168//168 2//2 169//169
f 1//1 169//169 2//2
f 164//164 163//163 2//2
f 32//32 2//2 163//163
f 166//166 165//165 2//2
f 164//164 2//2 165//165
f 159//159 161//161 15//15
f 16//16 15//15 161//161
f 155//155 157//157 15//15
f 159//159 15//15 157//157
f 155//155 15//15 153//153
f 151//151 153//153 15//15
f 151//151 15//15 149//149
f 14//14 149//149 15//15
f 144//144 146//146 13//13
f 14//14 13//13 146//146
f 140//140 142//142 13//13
f 144//144 13//13 142//142
f 140//140 13//13 138//138
f 136//136 138//138 13//13
f 136//136 13//13 134//134
f 12//12 134//134 13//13
f 129//129 131//131 11//11
f 12//12 11//11 131//131
f 125//125 127//127 11//11
f 129//129 11//11 127//127
f 125//125 11//11 123//123
f 121//121 123//123 11//11
f 121//121 11//11 119//119
f 10//10 119//119 11//11
f 114//114 116//116 9//9
f 10//10 9//9 116//116
f 110//110 112//112 9//9
f 114//114 9//9 112//112
f 110//110 9//9 108//108
f 106//106 108//108 9//9
f 106//106 9//9 104//104
f 24//24 104//104 9//9
f 99//99 101//101 23//23
f 24//24 23//23 101//101
f 95//95 97//97 23//23
f 99//99 23//23 97//97
f 95//95 23//23 93//93
f 91//91 93//93 23//23
f 91//91 23//23 89//89
f 22//22 89//89 23//23
f 84//84 86//86 21//21
f 22//22 21//21 86//86
f 80//80 82//82 21//21
f 84//84 21//21 82//82
f 80//80 21//21 78//78
f 76//76 78//78 21//21
f 76//76 21//21 74//74
f 20//20 74//74 21//21
f 69//69 71//71 19//19
f 20//20 19//19 71//71
f 65//65 67//67 19//19
f 69//69 19//19 67//67
f 65//65 19//19 63//63
f 61//61 63//63 19//19
f 61//61 19//19 59//59
f 18//18 59//59 19//19
f 54//54 56//56 17//17
f 18//18 17//17 56//56
f 50//50 52//52 17//17
f 54//54 17//17 52//52
f 50//50 17//17 48//48
f 46//46 48//48 17//17
f 46//46 17//17 43//43
f 16//16 43//43 17//17
f 44//44 162//162 194//194
f 44//44 194//194 32//32
f 162//162 160//160 193//193
f 162//162 193//193 194//194
f 160//160 158//158 192//192
f 160//160 192//192 193//193
f 158//158 156//156 191//191
f 158//158 191//191 192//192
f 156//156 154//154 197//197
f 156//156 197//197 191//191
f 154//154 152//152 195//195
f 154//154 195//195 197//197
f 152//152 150//150 196//196
f 152//152 196//196 195//195
f 150//150 148//148 34//34
f 150//150 34//34 196//196
f 148//148 147//147 201//201
f 148//148 201//201 34//34
f 147//147 145//145 200//200
f 147//147 200//200 201//201
f 145//145 143//143 199//199
f 145//145 199//199 200//200
f 143//143 141//141 198//198
f 143//143 198//198 199//199
f 141//141 139//139 204//204
f 141//141 204//204 198//198
f 139//139 137//137 202//202
f 139//139 202//202 204//204
f 137//137 135//135 203//203
f 137//137 203//203 202//202
f 135//135 133//133 36//36
f 135//135 36//36 203//203
f 133//133 132//132 208//208
f 133//133 208//208 36//36
f 132//132 130//130 207//207
f 132//132 207//207 208//208
f 130//130 128//128 206//206
f 130//130 206//206 207//207
f 128//128 126//126 205//205
f 128//128 205//205 206//206
f 126//126 124//124 211//211
f 126//126 211//211 205//205
f 124//124 122//122 209//209
f 124//124 209//209 211//211
f 122//122 120//120 210//210
f 122//122 210//210 209//209
f 120//120 118//118 38//38
f 120//120 38//38 210//210
f 118//118 117//117 215//215
f 118//118 215//215 38//38
f 117//117 115//115 214//214
f 117//117 214//214 215//215
f 115//115 113//113 213//213
f 115//115 213//213 214//214
f 113//113 111//111 212//212
f 113//113 212//212 213//213
f 111//111 109//109 218//218
f 111//111 218//218 212//212
f 109//109 107//107 216//216
f 109//109 216//216 218//218
f 107//107 105//105 217//217
f 107//107 217//217 216//216
f 105//105 103//103 40//40
f 105//105 40//40 217//217
